<svg version="1.1" xmlns="http://www.w3.org/2000/svg" viewBox="0 0 529.6666870117188 193.73331298828123" width="529.6666870117188" height="193.73331298828123">
  <g stroke-linecap="round"><g transform="translate(69.00003051757812 148.84686987423393) rotate(0 98.1723038636984 0.20443475582577264)"><path d="M0 0 C32.72 0.07, 163.62 0.34, 196.34 0.41 M0 0 C32.72 0.07, 163.62 0.34, 196.34 0.41" stroke="#1971c2" stroke-width="2" fill="none"></path></g><g transform="translate(69.00003051757812 148.84686987423393) rotate(0 98.1723038636984 0.20443475582577264)"><path d="M196.34 0.41 L182.74 6.72 L182.76 -5.96 L196.34 0.41" stroke="none" stroke-width="0" fill="#1971c2" fill-rule="evenodd"></path><path d="M196.34 0.41 C191.58 2.62, 186.81 4.83, 182.74 6.72 M196.34 0.41 C191.57 2.62, 186.79 4.84, 182.74 6.72 M182.74 6.72 C182.75 2.77, 182.75 -1.18, 182.76 -5.96 M182.74 6.72 C182.74 2.98, 182.75 -0.76, 182.76 -5.96 M182.76 -5.96 C188.1 -3.46, 193.44 -0.95, 196.34 0.41 M182.76 -5.96 C187.8 -3.6, 192.83 -1.24, 196.34 0.41 M196.34 0.41 C196.34 0.41, 196.34 0.41, 196.34 0.41 M196.34 0.41 C196.34 0.41, 196.34 0.41, 196.34 0.41" stroke="#1971c2" stroke-width="2" fill="none"></path></g></g><mask></mask><g stroke-linecap="round"><g transform="translate(171.00003051757812 33.999583651875525) rotate(0 111.66670227050781 -0.33314683733502193)"><path d="M0 0 C37.22 -0.11, 186.11 -0.56, 223.33 -0.67 M0 0 C37.22 -0.11, 186.11 -0.56, 223.33 -0.67" stroke="#f08c00" stroke-width="2" fill="none"></path></g><g transform="translate(171.00003051757812 33.999583651875525) rotate(0 111.66670227050781 -0.33314683733502193)"><path d="M223.33 -0.67 L209.76 5.71 L209.72 -6.96 L223.33 -0.67" stroke="none" stroke-width="0" fill="#f08c00" fill-rule="evenodd"></path><path d="M223.33 -0.67 C219.87 0.96, 216.41 2.59, 209.76 5.71 M223.33 -0.67 C219.02 1.36, 214.7 3.39, 209.76 5.71 M209.76 5.71 C209.74 0.71, 209.73 -4.29, 209.72 -6.96 M209.76 5.71 C209.75 1.64, 209.73 -2.43, 209.72 -6.96 M209.72 -6.96 C215.11 -4.47, 220.49 -1.98, 223.33 -0.67 M209.72 -6.96 C213.98 -4.99, 218.24 -3.02, 223.33 -0.67 M223.33 -0.67 C223.33 -0.67, 223.33 -0.67, 223.33 -0.67 M223.33 -0.67 C223.33 -0.67, 223.33 -0.67, 223.33 -0.67" stroke="#f08c00" stroke-width="2" fill="none"></path></g></g><mask></mask><g stroke-linecap="round"><g transform="translate(298.00004889685727 152.33263265567604) rotate(0 110.83331905743074 -0.3329728219786432)"><path d="M0 0 C36.94 -0.11, 184.72 -0.55, 221.67 -0.67 M0 0 C36.94 -0.11, 184.72 -0.55, 221.67 -0.67" stroke="#1971c2" stroke-width="2" fill="none"></path></g><g transform="translate(298.00004889685727 152.33263265567604) rotate(0 110.83331905743074 -0.3329728219786432)"><path d="M221.67 -0.67 L208.09 5.71 L208.05 -6.96 L221.67 -0.67" stroke="none" stroke-width="0" fill="#1971c2" fill-rule="evenodd"></path><path d="M221.67 -0.67 C217.23 1.42, 212.79 3.51, 208.09 5.71 M221.67 -0.67 C218.27 0.93, 214.87 2.53, 208.09 5.71 M208.09 5.71 C208.08 0.7, 208.06 -4.31, 208.05 -6.96 M208.09 5.71 C208.08 1.16, 208.06 -3.4, 208.05 -6.96 M208.05 -6.96 C211.85 -5.21, 215.66 -3.45, 221.67 -0.67 M208.05 -6.96 C212.1 -5.09, 216.14 -3.22, 221.67 -0.67 M221.67 -0.67 C221.67 -0.67, 221.67 -0.67, 221.67 -0.67 M221.67 -0.67 C221.67 -0.67, 221.67 -0.67, 221.67 -0.67" stroke="#1971c2" stroke-width="2" fill="none"></path></g></g><mask></mask><g stroke-linecap="round"><g transform="translate(267.17748035674003 136.8619890300872) rotate(0 -49.42205316665127 -47.431009773832656)"><path d="M0 0 C-16.47 -15.81, -82.37 -79.05, -98.84 -94.86 M0 0 C-16.47 -15.81, -82.37 -79.05, -98.84 -94.86" stroke="#495057" stroke-width="2" fill="none"></path></g><g transform="translate(267.17748035674003 136.8619890300872) rotate(0 -49.42205316665127 -47.431009773832656)"><path d="M-98.84 -94.86 L-84.65 -90.02 L-93.43 -80.88 L-98.84 -94.86" stroke="none" stroke-width="0" fill="#495057" fill-rule="evenodd"></path><path d="M-98.84 -94.86 C-94.03 -93.22, -89.23 -91.58, -84.65 -90.02 M-98.84 -94.86 C-95.74 -93.8, -92.63 -92.74, -84.65 -90.02 M-84.65 -90.02 C-88.06 -86.46, -91.48 -82.9, -93.43 -80.88 M-84.65 -90.02 C-87.57 -86.97, -90.5 -83.93, -93.43 -80.88 M-93.43 -80.88 C-95.05 -85.06, -96.67 -89.25, -98.84 -94.86 M-93.43 -80.88 C-94.58 -83.86, -95.74 -86.84, -98.84 -94.86 M-98.84 -94.86 C-98.84 -94.86, -98.84 -94.86, -98.84 -94.86 M-98.84 -94.86 C-98.84 -94.86, -98.84 -94.86, -98.84 -94.86" stroke="#495057" stroke-width="2" fill="none"></path></g></g><mask></mask><g stroke-linecap="round"><g transform="translate(389.33343505859375 43.32608546245811) rotate(0 -47.55898418753242 49.21404345644406)"><path d="M0 0 C-15.85 16.4, -79.26 82.02, -95.12 98.43 M0 0 C-15.85 16.4, -79.26 82.02, -95.12 98.43" stroke="#495057" stroke-width="2" fill="none"></path></g><g transform="translate(389.33343505859375 43.32608546245811) rotate(0 -47.55898418753242 49.21404345644406)"><path d="M-95.12 98.43 L-90.23 84.25 L-81.11 93.06 L-95.12 98.43" stroke="none" stroke-width="0" fill="#495057" fill-rule="evenodd"></path><path d="M-95.12 98.43 C-93.9 94.89, -92.68 91.35, -90.23 84.25 M-95.12 98.43 C-93.6 94.03, -92.09 89.63, -90.23 84.25 M-90.23 84.25 C-87.91 86.49, -85.59 88.73, -81.11 93.06 M-90.23 84.25 C-86.65 87.71, -83.07 91.17, -81.11 93.06 M-81.11 93.06 C-85.65 94.8, -90.18 96.54, -95.12 98.43 M-81.11 93.06 C-84.69 94.43, -88.26 95.8, -95.12 98.43 M-95.12 98.43 C-95.12 98.43, -95.12 98.43, -95.12 98.43 M-95.12 98.43 C-95.12 98.43, -95.12 98.43, -95.12 98.43" stroke="#495057" stroke-width="2" fill="none"></path></g></g><mask></mask><g transform="translate(247.3333740234375 10) rotate(0 32 9.200000000000003)"><text x="0" y="0" font-family="Helvetica, Segoe UI Emoji" font-size="16px" fill="#f08c00" text-anchor="start" style="white-space: pre;" direction="ltr" dominant-baseline="text-before-edge">中断程序</text></g><g transform="translate(10 139.33334350585938) rotate(0 24 9.200000000000003)"><text x="0" y="0" font-family="Helvetica, Segoe UI Emoji" font-size="16px" fill="#1971c2" text-anchor="start" style="white-space: pre;" direction="ltr" dominant-baseline="text-before-edge">主程序</text></g><g stroke-linecap="round" transform="translate(274.66668701171875 145.99996948242188) rotate(0 5.66668701171875 5.333343505859375)"><path d="M11.33 5.33 C11.33 5.64, 11.3 5.96, 11.25 6.26 C11.19 6.56, 11.1 6.87, 10.99 7.16 C10.88 7.45, 10.74 7.73, 10.57 8 C10.41 8.27, 10.22 8.53, 10.01 8.76 C9.8 9, 9.56 9.22, 9.31 9.42 C9.06 9.62, 8.78 9.8, 8.5 9.95 C8.22 10.11, 7.91 10.24, 7.6 10.35 C7.3 10.45, 6.97 10.53, 6.65 10.59 C6.33 10.64, 5.99 10.67, 5.67 10.67 C5.34 10.67, 5.01 10.64, 4.68 10.59 C4.36 10.53, 4.04 10.45, 3.73 10.35 C3.42 10.24, 3.12 10.11, 2.83 9.95 C2.55 9.8, 2.28 9.62, 2.02 9.42 C1.77 9.22, 1.54 9, 1.33 8.76 C1.11 8.53, 0.92 8.27, 0.76 8 C0.6 7.73, 0.45 7.45, 0.34 7.16 C0.23 6.87, 0.14 6.56, 0.09 6.26 C0.03 5.96, 0 5.64, 0 5.33 C0 5.02, 0.03 4.71, 0.09 4.41 C0.14 4.1, 0.23 3.8, 0.34 3.51 C0.45 3.22, 0.6 2.93, 0.76 2.67 C0.92 2.4, 1.11 2.14, 1.33 1.91 C1.54 1.67, 1.77 1.45, 2.02 1.25 C2.28 1.05, 2.55 0.87, 2.83 0.71 C3.12 0.56, 3.42 0.43, 3.73 0.32 C4.04 0.22, 4.36 0.13, 4.68 0.08 C5.01 0.03, 5.34 0, 5.67 0 C5.99 0, 6.33 0.03, 6.65 0.08 C6.97 0.13, 7.3 0.22, 7.6 0.32 C7.91 0.43, 8.22 0.56, 8.5 0.71 C8.78 0.87, 9.06 1.05, 9.31 1.25 C9.56 1.45, 9.8 1.67, 10.01 1.91 C10.22 2.14, 10.41 2.4, 10.57 2.67 C10.74 2.93, 10.88 3.22, 10.99 3.51 C11.1 3.8, 11.19 4.1, 11.25 4.41 C11.3 4.71, 11.32 5.18, 11.33 5.33 C11.35 5.49, 11.35 5.18, 11.33 5.33" stroke="none" stroke-width="0" fill="#40c057"></path><path d="M11.33 5.33 C11.33 5.64, 11.3 5.96, 11.25 6.26 C11.19 6.56, 11.1 6.87, 10.99 7.16 C10.88 7.45, 10.74 7.73, 10.57 8 C10.41 8.27, 10.22 8.53, 10.01 8.76 C9.8 9, 9.56 9.22, 9.31 9.42 C9.06 9.62, 8.78 9.8, 8.5 9.95 C8.22 10.11, 7.91 10.24, 7.6 10.35 C7.3 10.45, 6.97 10.53, 6.65 10.59 C6.33 10.64, 5.99 10.67, 5.67 10.67 C5.34 10.67, 5.01 10.64, 4.68 10.59 C4.36 10.53, 4.04 10.45, 3.73 10.35 C3.42 10.24, 3.12 10.11, 2.83 9.95 C2.55 9.8, 2.28 9.62, 2.02 9.42 C1.77 9.22, 1.54 9, 1.33 8.76 C1.11 8.53, 0.92 8.27, 0.76 8 C0.6 7.73, 0.45 7.45, 0.34 7.16 C0.23 6.87, 0.14 6.56, 0.09 6.26 C0.03 5.96, 0 5.64, 0 5.33 C0 5.02, 0.03 4.71, 0.09 4.41 C0.14 4.1, 0.23 3.8, 0.34 3.51 C0.45 3.22, 0.6 2.93, 0.76 2.67 C0.92 2.4, 1.11 2.14, 1.33 1.91 C1.54 1.67, 1.77 1.45, 2.02 1.25 C2.28 1.05, 2.55 0.87, 2.83 0.71 C3.12 0.56, 3.42 0.43, 3.73 0.32 C4.04 0.22, 4.36 0.13, 4.68 0.08 C5.01 0.03, 5.34 0, 5.67 0 C5.99 0, 6.33 0.03, 6.65 0.08 C6.97 0.13, 7.3 0.22, 7.6 0.32 C7.91 0.43, 8.22 0.56, 8.5 0.71 C8.78 0.87, 9.06 1.05, 9.31 1.25 C9.56 1.45, 9.8 1.67, 10.01 1.91 C10.22 2.14, 10.41 2.4, 10.57 2.67 C10.74 2.93, 10.88 3.22, 10.99 3.51 C11.1 3.8, 11.19 4.1, 11.25 4.41 C11.3 4.71, 11.32 5.18, 11.33 5.33 C11.35 5.49, 11.35 5.18, 11.33 5.33" stroke="#2f9e44" stroke-width="1" fill="none"></path></g><g transform="translate(264.666748046875 165.33331298828125) rotate(0 16 9.199999999999989)"><text x="0" y="0" font-family="Helvetica, Segoe UI Emoji" font-size="16px" fill="#2f9e44" text-anchor="start" style="white-space: pre;" direction="ltr" dominant-baseline="text-before-edge">断点</text></g><g transform="translate(180.66668701171875 123.33331298828125) rotate(0 32 9.200000000000003)"><text x="0" y="0" font-family="Helvetica, Segoe UI Emoji" font-size="16px" fill="#495057" text-anchor="start" style="white-space: pre;" direction="ltr" dominant-baseline="text-before-edge">中断请求</text></g><g transform="translate(94.00003051757812 28.6666259765625) rotate(0 32 9.200000000000003)"><text x="0" y="0" font-family="Helvetica, Segoe UI Emoji" font-size="16px" fill="#495057" text-anchor="start" style="white-space: pre;" direction="ltr" dominant-baseline="text-before-edge">中断响应</text></g><g transform="translate(404.00006103515625 31.999969482421875) rotate(0 32 9.200000000000003)"><text x="0" y="0" font-family="Helvetica, Segoe UI Emoji" font-size="16px" fill="#495057" text-anchor="start" style="white-space: pre;" direction="ltr" dominant-baseline="text-before-edge">中断返回</text></g><g transform="translate(353.33331298828125 126.66665649414062) rotate(0 56 9.200000000000003)"><text x="0" y="0" font-family="Helvetica, Segoe UI Emoji" font-size="16px" fill="#1971c2" text-anchor="start" style="white-space: pre;" direction="ltr" dominant-baseline="text-before-edge">继续执行主程序</text></g></svg>