<svg version="1.1" xmlns="http://www.w3.org/2000/svg" viewBox="0 0 1592.1645193586774 1218.0885853244959" width="1592.1645193586774" height="1218.0885853244959">
  <!-- svg-source:excalidraw -->
  
  <defs>
    <style>
      @font-face {
        font-family: "Virgil";
        src: url("https://oss-liuchengtu.hudunsoft.com/bgmuisc/1670404928.woff2"), url("https://excalidraw.com/Virgil.woff2");
        font-display: swap;
      }
      @font-face {
        font-family: "Cascadia";
        src: url("https://oss-liuchengtu.hudunsoft.com/bgmuisc/1670404879.woff2"), url("https://excalidraw.com/Cascadia.woff2");
        font-display: swap;
      }
    </style>
  </defs>
  <g stroke-linecap="round" transform="translate(615.8983553158057 124.98589691877203) rotate(0 235.74364263319157 140.57385764100295)"><path d="M0 0 L471.49 0 L471.49 281.15 L0 281.15" stroke="none" stroke-width="0" fill="#478bdf"></path><path d="M0 0 C181.27 0, 362.53 0, 471.49 0 M0 0 C165.66 0, 331.33 0, 471.49 0 M471.49 0 C471.49 61.33, 471.49 122.65, 471.49 281.15 M471.49 0 C471.49 75.44, 471.49 150.89, 471.49 281.15 M471.49 281.15 C321.76 281.15, 172.03 281.15, 0 281.15 M471.49 281.15 C325.53 281.15, 179.57 281.15, 0 281.15 M0 281.15 C0 180.73, 0 80.31, 0 0 M0 281.15 C0 191.87, 0 102.6, 0 0" stroke="transparent" stroke-width="1" fill="none"></path></g><g stroke-linecap="round"><g transform="translate(465.6303538377583 250.28945406505798) rotate(0 92.2857290767675 15.270300494716963)" fill-rule="evenodd"><path d="M0 0 L0 -15.6 L-28.88 16.27 L0 46.14 L0 30.54 L183.24 29.88 L183.24 47.47 L213.45 16.6 L182.25 -16.93 L182.29 -1 L0 0" stroke="none" stroke-width="0" fill="#eeb23f" fill-rule="evenodd"></path><path d="M0 0 C0 -4.16, 0 -8.32, 0 -15.6 M0 0 C0 -4.22, 0 -8.45, 0 -15.6 M0 -15.6 C-7.65 -7.16, -15.31 1.29, -28.88 16.27 M0 -15.6 C-7.58 -7.24, -15.15 1.12, -28.88 16.27 M-28.88 16.27 C-21.35 24.06, -13.82 31.85, 0 46.14 M-28.88 16.27 C-17.85 27.68, -6.81 39.1, 0 46.14 M0 46.14 C0 42.61, 0 39.08, 0 30.54 M0 46.14 C0 42.14, 0 38.15, 0 30.54 M0 30.54 C40.45 30.39, 80.9 30.25, 183.24 29.88 M0 30.54 C55.96 30.34, 111.92 30.14, 183.24 29.88 M183.24 29.88 C183.24 35.66, 183.24 41.43, 183.24 47.47 M183.24 29.88 C183.24 33.51, 183.24 37.14, 183.24 47.47 M183.24 47.47 C195.19 35.26, 207.13 23.06, 213.45 16.6 M183.24 47.47 C194 36.48, 204.75 25.49, 213.45 16.6 M213.45 16.6 C201.99 4.28, 190.53 -8.03, 182.25 -16.93 M213.45 16.6 C203.11 5.48, 192.76 -5.64, 182.25 -16.93 M182.25 -16.93 C182.26 -13.31, 182.27 -9.69, 182.29 -1 M182.25 -16.93 C182.26 -11.27, 182.28 -5.6, 182.29 -1 M182.29 -1 C121.74 -0.67, 61.18 -0.33, 0 0 M182.29 -1 C117.37 -0.64, 52.45 -0.29, 0 0 M0 0 C0 0, 0 0, 0 0 M0 0 C0 0, 0 0, 0 0" stroke="#717273" stroke-width="1" fill="none"></path></g></g><g stroke-linecap="round" transform="translate(615.8983553158057 489.084586466418) rotate(0 235.74364263319157 140.57385764100295)"><path d="M0 0 L471.49 0 L471.49 281.15 L0 281.15" stroke="none" stroke-width="0" fill="#478bdf"></path><path d="M0 0 C144.89 0, 289.77 0, 471.49 0 M0 0 C133.28 0, 266.55 0, 471.49 0 M471.49 0 C471.49 104.64, 471.49 209.28, 471.49 281.15 M471.49 0 C471.49 95.01, 471.49 190.02, 471.49 281.15 M471.49 281.15 C343.5 281.15, 215.51 281.15, 0 281.15 M471.49 281.15 C306.84 281.15, 142.19 281.15, 0 281.15 M0 281.15 C0 169.39, 0 57.63, 0 0 M0 281.15 C0 195.81, 0 110.48, 0 0" stroke="transparent" stroke-width="1" fill="none"></path></g><g stroke-linecap="round" transform="translate(615.8983553158057 866.0932338375819) rotate(0 235.74364263319157 140.57385764100297)"><path d="M0 0 L471.49 0 L471.49 281.15 L0 281.15" stroke="none" stroke-width="0" fill="#478bdf"></path><path d="M0 0 C151.66 0, 303.33 0, 471.49 0 M0 0 C154.05 0, 308.1 0, 471.49 0 M471.49 0 C471.49 95.52, 471.49 191.05, 471.49 281.15 M471.49 0 C471.49 87.09, 471.49 174.18, 471.49 281.15 M471.49 281.15 C358.75 281.15, 246.02 281.15, 0 281.15 M471.49 281.15 C292.97 281.15, 114.45 281.15, 0 281.15 M0 281.15 C0 222.54, 0 163.94, 0 0 M0 281.15 C0 172.78, 0 64.41, 0 0" stroke="transparent" stroke-width="1" fill="none"></path></g><g stroke-linecap="round"><g transform="translate(465.4550812437294 614.388143612704) rotate(0 92.2857290767675 15.270300494716935)" fill-rule="evenodd"><path d="M0 0 L0 -15.6 L-28.88 16.27 L0 46.14 L0 30.54 L183.24 29.88 L183.24 47.47 L213.45 16.6 L182.25 -16.93 L182.29 -1 L0 0" stroke="none" stroke-width="0" fill="#eeb23f" fill-rule="evenodd"></path><path d="M0 0 C0 -5.96, 0 -11.92, 0 -15.6 M0 0 C0 -5.55, 0 -11.1, 0 -15.6 M0 -15.6 C-8.67 -6.04, -17.33 3.52, -28.88 16.27 M0 -15.6 C-9.51 -5.11, -19.02 5.39, -28.88 16.27 M-28.88 16.27 C-21.64 23.76, -14.4 31.25, 0 46.14 M-28.88 16.27 C-18.83 26.67, -8.77 37.07, 0 46.14 M0 46.14 C0 41.66, 0 37.17, 0 30.54 M0 46.14 C0 40.64, 0 35.14, 0 30.54 M0 30.54 C39.31 30.4, 78.62 30.26, 183.24 29.88 M0 30.54 C60.35 30.32, 120.71 30.1, 183.24 29.88 M183.24 29.88 C183.24 34.16, 183.24 38.45, 183.24 47.47 M183.24 29.88 C183.24 36.11, 183.24 42.35, 183.24 47.47 M183.24 47.47 C190.8 39.75, 198.35 32.03, 213.45 16.6 M183.24 47.47 C190.42 40.13, 197.6 32.8, 213.45 16.6 M213.45 16.6 C206.33 8.94, 199.2 1.29, 182.25 -16.93 M213.45 16.6 C202.05 4.34, 190.64 -7.91, 182.25 -16.93 M182.25 -16.93 C182.26 -11.36, 182.28 -5.8, 182.29 -1 M182.25 -16.93 C182.26 -11.42, 182.28 -5.92, 182.29 -1 M182.29 -1 C142.86 -0.78, 103.42 -0.57, 0 0 M182.29 -1 C136.68 -0.75, 91.06 -0.5, 0 0 M0 0 C0 0, 0 0, 0 0 M0 0 C0 0, 0 0, 0 0" stroke="#717273" stroke-width="1" fill="none"></path></g></g><g stroke-linecap="round"><g transform="translate(465.4550812437294 991.3967909838678) rotate(0 92.2857290767675 15.270300494716935)" fill-rule="evenodd"><path d="M0 0 L0 -15.6 L-28.88 16.27 L0 46.14 L0 30.54 L183.24 29.88 L183.24 47.47 L213.45 16.6 L182.25 -16.93 L182.29 -1 L0 0" stroke="none" stroke-width="0" fill="#eeb23f" fill-rule="evenodd"></path><path d="M0 0 C0 -3.86, 0 -7.72, 0 -15.6 M0 0 C0 -5.22, 0 -10.44, 0 -15.6 M0 -15.6 C-7.09 -7.78, -14.18 0.04, -28.88 16.27 M0 -15.6 C-6.32 -8.63, -12.63 -1.66, -28.88 16.27 M-28.88 16.27 C-17.54 28, -6.2 39.73, 0 46.14 M-28.88 16.27 C-22.48 22.89, -16.08 29.51, 0 46.14 M0 46.14 C0 41.81, 0 37.47, 0 30.54 M0 46.14 C0 41.37, 0 36.59, 0 30.54 M0 30.54 C40.84 30.39, 81.69 30.24, 183.24 29.88 M0 30.54 C64.93 30.31, 129.86 30.07, 183.24 29.88 M183.24 29.88 C183.24 35.63, 183.24 41.39, 183.24 47.47 M183.24 29.88 C183.24 33.83, 183.24 37.78, 183.24 47.47 M183.24 47.47 C192.62 37.88, 202.01 28.3, 213.45 16.6 M183.24 47.47 C189.51 41.06, 195.78 34.65, 213.45 16.6 M213.45 16.6 C202.28 4.6, 191.11 -7.41, 182.25 -16.93 M213.45 16.6 C204.65 7.14, 195.85 -2.32, 182.25 -16.93 M182.25 -16.93 C182.26 -11.15, 182.28 -5.37, 182.29 -1 M182.25 -16.93 C182.27 -11, 182.28 -5.07, 182.29 -1 M182.29 -1 C114.9 -0.63, 47.51 -0.26, 0 0 M182.29 -1 C145.46 -0.79, 108.62 -0.59, 0 0 M0 0 C0 0, 0 0, 0 0 M0 0 C0 0, 0 0, 0 0" stroke="#717273" stroke-width="1" fill="none"></path></g></g><g stroke-linecap="round" transform="translate(722.4324156507641 177.1707300794138) rotate(0 50.209154533997435 88.38902448036119)"><path d="M0 0 L100.42 0 L100.42 176.78 L0 176.78" stroke="none" stroke-width="0" fill="#6bbc63"></path><path d="M0 0 C29.08 0, 58.16 0, 100.42 0 M0 0 C24.57 0, 49.13 0, 100.42 0 M100.42 0 C100.42 55, 100.42 110.01, 100.42 176.78 M100.42 0 C100.42 64.07, 100.42 128.13, 100.42 176.78 M100.42 176.78 C70.51 176.78, 40.6 176.78, 0 176.78 M100.42 176.78 C63.41 176.78, 26.41 176.78, 0 176.78 M0 176.78 C0 107.99, 0 39.21, 0 0 M0 176.78 C0 133.89, 0 91.01, 0 0" stroke="transparent" stroke-width="1" fill="none"></path></g><g stroke-linecap="round" transform="translate(722.4324156507641 541.2694196270597) rotate(0 50.209154533997435 88.38902448036117)"><path d="M0 0 L100.42 0 L100.42 176.78 L0 176.78" stroke="none" stroke-width="0" fill="#6bbc63"></path><path d="M0 0 C39.3 0, 78.6 0, 100.42 0 M0 0 C32.84 0, 65.69 0, 100.42 0 M100.42 0 C100.42 50.23, 100.42 100.46, 100.42 176.78 M100.42 0 C100.42 70.43, 100.42 140.85, 100.42 176.78 M100.42 176.78 C62.98 176.78, 25.54 176.78, 0 176.78 M100.42 176.78 C71.58 176.78, 42.73 176.78, 0 176.78 M0 176.78 C0 139.65, 0 102.53, 0 0 M0 176.78 C0 122.34, 0 67.9, 0 0" stroke="transparent" stroke-width="1" fill="none"></path></g><g stroke-linecap="round" transform="translate(722.4324156507641 918.2780669982236) rotate(0 50.209154533997435 88.38902448036123)"><path d="M0 0 L100.42 0 L100.42 176.78 L0 176.78" stroke="none" stroke-width="0" fill="#6bbc63"></path><path d="M0 0 C25.77 0, 51.53 0, 100.42 0 M0 0 C28.53 0, 57.06 0, 100.42 0 M100.42 0 C100.42 47.06, 100.42 94.12, 100.42 176.78 M100.42 0 C100.42 36.01, 100.42 72.03, 100.42 176.78 M100.42 176.78 C73.98 176.78, 47.54 176.78, 0 176.78 M100.42 176.78 C66.45 176.78, 32.48 176.78, 0 176.78 M0 176.78 C0 117.88, 0 58.98, 0 0 M0 176.78 C0 117.77, 0 58.77, 0 0" stroke="transparent" stroke-width="1" fill="none"></path></g><g stroke-linecap="round" transform="translate(895.9155744357947 541.2694196270597) rotate(0 50.5 87.5)"><path d="M0 0 L101 0 L101 175 L0 175" stroke="none" stroke-width="0" fill="#eb8437"></path><path d="M0 0 C20.93 0, 41.85 0, 101 0 M0 0 C33.27 0, 66.54 0, 101 0 M101 0 C101 37.92, 101 75.84, 101 175 M101 0 C101 50.51, 101 101.02, 101 175 M101 175 C69.09 175, 37.17 175, 0 175 M101 175 C66.9 175, 32.81 175, 0 175 M0 175 C0 127.94, 0 80.88, 0 0 M0 175 C0 113.15, 0 51.3, 0 0" stroke="transparent" stroke-width="1" fill="none"></path></g><g stroke-linecap="round" transform="translate(895.9155744357947 918.2780669982236) rotate(0 50.5 87.49999999999994)"><path d="M0 0 L101 0 L101 175 L0 175" stroke="none" stroke-width="0" fill="#eb8437"></path><path d="M0 0 C22.69 0, 45.38 0, 101 0 M0 0 C30.41 0, 60.83 0, 101 0 M101 0 C101 41.06, 101 82.12, 101 175 M101 0 C101 40.57, 101 81.14, 101 175 M101 175 C64.9 175, 28.8 175, 0 175 M101 175 C74.84 175, 48.68 175, 0 175 M0 175 C0 138.79, 0 102.58, 0 0 M0 175 C0 126.09, 0 77.18, 0 0" stroke="transparent" stroke-width="1" fill="none"></path></g><g stroke-linecap="round" transform="translate(895.9155744357947 177.17073007941377) rotate(0 50.5 87.5)"><path d="M0 0 L101 0 L101 175 L0 175" stroke="none" stroke-width="0" fill="#eb8437"></path><path d="M0 0 C27.34 0, 54.69 0, 101 0 M0 0 C24 0, 48.01 0, 101 0 M101 0 C101 37.52, 101 75.05, 101 175 M101 0 C101 35.32, 101 70.64, 101 175 M101 175 C71 175, 41.01 175, 0 175 M101 175 C78.3 175, 55.61 175, 0 175 M0 175 C0 107.06, 0 39.11, 0 0 M0 175 C0 136.84, 0 98.67, 0 0" stroke="transparent" stroke-width="1" fill="none"></path></g><g stroke-linecap="round"><g transform="translate(-42.32572043367372 611.0822805821955) rotate(90.54472807193986 427.77729801761234 35.405540283250104)" fill-rule="evenodd"><path d="M0 6.49 L0 -23.05 L-133.87 37.29 L0 93.86 L0 64.32 L424.7 63.69 L849.4 63.06 L849.4 96.37 L989.43 37.92 L844.78 -25.56 L845 4.61 L0 6.49" stroke="none" stroke-width="0" fill="#e55f59" fill-rule="evenodd"></path><path d="M0 6.49 C0 -3.56, 0 -13.62, 0 -23.05 M0 6.49 C0 -0.55, 0 -7.59, 0 -23.05 M0 -23.05 C-50.85 -0.13, -101.7 22.79, -133.87 37.29 M0 -23.05 C-29.3 -9.84, -58.6 3.36, -133.87 37.29 M-133.87 37.29 C-100.08 51.57, -66.28 65.85, 0 93.86 M-133.87 37.29 C-84.95 57.96, -36.03 78.64, 0 93.86 M0 93.86 C0 82.5, 0 71.15, 0 64.32 M0 93.86 C0 87.85, 0 81.85, 0 64.32 M0 64.32 C142.38 64.11, 284.77 63.9, 424.7 63.69 M0 64.32 C160.16 64.08, 320.32 63.84, 424.7 63.69 M424.7 63.69 C527.36 63.54, 630.03 63.39, 849.4 63.06 M424.7 63.69 C555.43 63.5, 686.17 63.3, 849.4 63.06 M849.4 63.06 C849.4 71.77, 849.4 80.48, 849.4 96.37 M849.4 63.06 C849.4 71.34, 849.4 79.61, 849.4 96.37 M849.4 96.37 C879.74 83.71, 910.07 71.04, 989.43 37.92 M849.4 96.37 C897.07 76.47, 944.74 56.57, 989.43 37.92 M989.43 37.92 C955 22.81, 920.58 7.7, 844.78 -25.56 M989.43 37.92 C950.36 20.77, 911.3 3.63, 844.78 -25.56 M844.78 -25.56 C844.83 -19.28, 844.87 -12.99, 845 4.61 M844.78 -25.56 C844.85 -15.77, 844.92 -5.98, 845 4.61 M845 4.61 C670.69 5, 496.37 5.39, 0 6.49 M845 4.61 C635.14 5.08, 425.28 5.54, 0 6.49 M0 6.49 C0 6.49, 0 6.49, 0 6.49 M0 6.49 C0 6.49, 0 6.49, 0 6.49" stroke="#717273" stroke-width="1" fill="none"></path></g></g><g transform="translate(727.1415701847616 186.059754559775) rotate(0 45.5 79.5)"><text x="45.5" y="42" font-family="Arial, Segoe UI Emoji" font-size="46px" fill="#ffffff" text-anchor="middle" style="white-space: pre;font-style: normal;" direction="ltr">寄</text><text x="45.5" y="95" font-family="Arial, Segoe UI Emoji" font-size="46px" fill="#ffffff" text-anchor="middle" style="white-space: pre;font-style: normal;" direction="ltr">存</text><text x="45.5" y="148" font-family="Arial, Segoe UI Emoji" font-size="46px" fill="#ffffff" text-anchor="middle" style="white-space: pre;font-style: normal;" direction="ltr">器</text></g><g transform="translate(900.4155744357947 185.17073007941377) rotate(0 46 79.5)"><text x="46" y="42" font-family="Arial, Segoe UI Emoji" font-size="46px" fill="#ffffff" text-anchor="middle" style="white-space: pre;font-style: normal;" direction="ltr">驱</text><text x="46" y="95" font-family="Arial, Segoe UI Emoji" font-size="46px" fill="#ffffff" text-anchor="middle" style="white-space: pre;font-style: normal;" direction="ltr">动</text><text x="46" y="148" font-family="Arial, Segoe UI Emoji" font-size="46px" fill="#ffffff" text-anchor="middle" style="white-space: pre;font-style: normal;" direction="ltr">器</text></g><g transform="translate(727.1415701847616 550.1584441074209) rotate(0 45.5 79.5)"><text x="45.5" y="42" font-family="Arial, Segoe UI Emoji" font-size="46px" fill="#ffffff" text-anchor="middle" style="white-space: pre;font-style: normal;" direction="ltr">寄</text><text x="45.5" y="95" font-family="Arial, Segoe UI Emoji" font-size="46px" fill="#ffffff" text-anchor="middle" style="white-space: pre;font-style: normal;" direction="ltr">存</text><text x="45.5" y="148" font-family="Arial, Segoe UI Emoji" font-size="46px" fill="#ffffff" text-anchor="middle" style="white-space: pre;font-style: normal;" direction="ltr">器</text></g><g transform="translate(727.1415701847616 927.1670914785848) rotate(0 45.5 79.5)"><text x="45.5" y="42" font-family="Arial, Segoe UI Emoji" font-size="46px" fill="#ffffff" text-anchor="middle" style="white-space: pre;font-style: normal;" direction="ltr">寄</text><text x="45.5" y="95" font-family="Arial, Segoe UI Emoji" font-size="46px" fill="#ffffff" text-anchor="middle" style="white-space: pre;font-style: normal;" direction="ltr">存</text><text x="45.5" y="148" font-family="Arial, Segoe UI Emoji" font-size="46px" fill="#ffffff" text-anchor="middle" style="white-space: pre;font-style: normal;" direction="ltr">器</text></g><g transform="translate(900.4155744357947 549.2694196270597) rotate(0 46 79.5)"><text x="46" y="42" font-family="Arial, Segoe UI Emoji" font-size="46px" fill="#ffffff" text-anchor="middle" style="white-space: pre;font-style: normal;" direction="ltr">驱</text><text x="46" y="95" font-family="Arial, Segoe UI Emoji" font-size="46px" fill="#ffffff" text-anchor="middle" style="white-space: pre;font-style: normal;" direction="ltr">动</text><text x="46" y="148" font-family="Arial, Segoe UI Emoji" font-size="46px" fill="#ffffff" text-anchor="middle" style="white-space: pre;font-style: normal;" direction="ltr">器</text></g><g transform="translate(900.4155744357947 926.2780669982236) rotate(0 46 79.49999999999994)"><text x="46" y="42" font-family="Arial, Segoe UI Emoji" font-size="46px" fill="#ffffff" text-anchor="middle" style="white-space: pre;font-style: normal;" direction="ltr">驱</text><text x="46" y="95" font-family="Arial, Segoe UI Emoji" font-size="46px" fill="#ffffff" text-anchor="middle" style="white-space: pre;font-style: normal;" direction="ltr">动</text><text x="46" y="148" font-family="Arial, Segoe UI Emoji" font-size="46px" fill="#ffffff" text-anchor="middle" style="white-space: pre;font-style: normal;" direction="ltr">器</text></g><g stroke-linecap="round"><g transform="translate(399.6919667893452 745.8448853415508) rotate(0 0 0)"><path d="M0 0 C0 0, 0 0, 0 0 M0 0 C0 0, 0 0, 0 0" stroke="transparent" stroke-width="1" fill="none"></path></g><g transform="translate(399.6919667893452 745.8448853415508) rotate(0 0 0)"><path d="MNaN NaN CNaN NaN, NaN NaN, NaN NaN MNaN NaN CNaN NaN, NaN NaN, NaN NaN" stroke="transparent" stroke-width="1" fill="none"></path></g><g transform="translate(399.6919667893452 745.8448853415508) rotate(0 0 0)"><path d="MNaN NaN CNaN NaN, NaN NaN, NaN NaN MNaN NaN CNaN NaN, NaN NaN, NaN NaN" stroke="transparent" stroke-width="1" fill="none"></path></g></g><g stroke-linecap="round"><g transform="translate(399.6919667893452 745.8448853415508) rotate(0 0 0)"><path d="M0 0 C0 0, 0 0, 0 0 M0 0 C0 0, 0 0, 0 0" stroke="transparent" stroke-width="1" fill="none"></path></g><g transform="translate(399.6919667893452 745.8448853415508) rotate(0 0 0)"><path d="MNaN NaN CNaN NaN, NaN NaN, NaN NaN MNaN NaN CNaN NaN, NaN NaN, NaN NaN" stroke="transparent" stroke-width="1" fill="none"></path></g><g transform="translate(399.6919667893452 745.8448853415508) rotate(0 0 0)"><path d="MNaN NaN CNaN NaN, NaN NaN, NaN NaN MNaN NaN CNaN NaN, NaN NaN, NaN NaN" stroke="transparent" stroke-width="1" fill="none"></path></g></g><g stroke-linecap="round"><g transform="translate(482.74772487014377 741.4735296530878) rotate(0 330.03738782975967 -365.7367648265439)"><path d="M0 0 C110.01 -121.91, 550.06 -609.56, 660.07 -731.47 M0 0 C110.01 -121.91, 550.06 -609.56, 660.07 -731.47" stroke="transparent" stroke-width="1" fill="none"></path></g><g transform="translate(482.74772487014377 741.4735296530878) rotate(0 330.03738782975967 -365.7367648265439)"><path d="M648.81 -703.67 C652.71 -713.31, 656.62 -722.94, 660.07 -731.47 M648.81 -703.67 C653.06 -714.16, 657.31 -724.65, 660.07 -731.47" stroke="transparent" stroke-width="1" fill="none"></path></g><g transform="translate(482.74772487014377 741.4735296530878) rotate(0 330.03738782975967 -365.7367648265439)"><path d="M633.57 -717.42 C642.76 -722.29, 651.94 -727.16, 660.07 -731.47 M633.57 -717.42 C643.57 -722.72, 653.57 -728.02, 660.07 -731.47" stroke="transparent" stroke-width="1" fill="none"></path></g></g><g transform="translate(328.2224342457248 602.8239914598214) rotate(270.717003569149 58.966882198268934 25.945428167238333)"><text x="0" y="41.890856334476645" font-family="Arial, Segoe UI Emoji" font-size="45.286565528270536px" fill="#ffffff" text-anchor="start" style="white-space: pre;font-style: normal;" direction="ltr">APB2</text></g><g stroke-linecap="round" transform="translate(1164.7756455415351 124.98589691877203) rotate(0 59.90409695724884 32.5)"><path d="M0 0 L119.81 0 L119.81 65 L0 65" stroke="none" stroke-width="0" fill="#53a7bc"></path><path d="M0 0 C26.3 0, 52.61 0, 119.81 0 M0 0 C39.62 0, 79.24 0, 119.81 0 M119.81 0 C119.81 13.25, 119.81 26.51, 119.81 65 M119.81 0 C119.81 16.99, 119.81 33.98, 119.81 65 M119.81 65 C95.59 65, 71.38 65, 0 65 M119.81 65 C77.76 65, 35.71 65, 0 65 M0 65 C0 51.12, 0 37.25, 0 0 M0 65 C0 48.93, 0 32.85, 0 0" stroke="transparent" stroke-width="2" fill="none"></path></g><g stroke-linecap="round" transform="translate(1164.7756455415351 488.1955619860567) rotate(0 59.90409695724884 32.49999999999997)"><path d="M0 0 L119.81 0 L119.81 65 L0 65" stroke="none" stroke-width="0" fill="#53a7bc"></path><path d="M0 0 C42.76 0, 85.52 0, 119.81 0 M0 0 C30.42 0, 60.84 0, 119.81 0 M119.81 0 C119.81 23.55, 119.81 47.1, 119.81 65 M119.81 0 C119.81 21.83, 119.81 43.66, 119.81 65 M119.81 65 C83.54 65, 47.28 65, 0 65 M119.81 65 C80.1 65, 40.39 65, 0 65 M0 65 C0 42.4, 0 19.8, 0 0 M0 65 C0 41.41, 0 17.83, 0 0" stroke="transparent" stroke-width="2" fill="none"></path></g><g stroke-linecap="round" transform="translate(1164.7756455415351 865.2042093572206) rotate(0 59.90409695724884 32.5)"><path d="M0 0 L119.81 0 L119.81 65 L0 65" stroke="none" stroke-width="0" fill="#53a7bc"></path><path d="M0 0 C27.52 0, 55.04 0, 119.81 0 M0 0 C45.9 0, 91.81 0, 119.81 0 M119.81 0 C119.81 16.72, 119.81 33.44, 119.81 65 M119.81 0 C119.81 19.96, 119.81 39.92, 119.81 65 M119.81 65 C90.32 65, 60.84 65, 0 65 M119.81 65 C91.78 65, 63.74 65, 0 65 M0 65 C0 46.49, 0 27.98, 0 0 M0 65 C0 47.63, 0 30.26, 0 0" stroke="transparent" stroke-width="2" fill="none"></path></g><g stroke-linecap="round" transform="translate(1164.7756455415351 199.54559134243277) rotate(0 59.90409695724884 32.5)"><path d="M0 0 L119.81 0 L119.81 65 L0 65" stroke="none" stroke-width="0" fill="#53a7bc"></path><path d="M0 0 C47.34 0, 94.67 0, 119.81 0 M0 0 C32.52 0, 65.05 0, 119.81 0 M119.81 0 C119.81 25.27, 119.81 50.54, 119.81 65 M119.81 0 C119.81 24.5, 119.81 49, 119.81 65 M119.81 65 C86.99 65, 54.18 65, 0 65 M119.81 65 C90.39 65, 60.97 65, 0 65 M0 65 C0 47.83, 0 30.66, 0 0 M0 65 C0 45.21, 0 25.41, 0 0" stroke="transparent" stroke-width="2" fill="none"></path></g><g stroke-linecap="round" transform="translate(1164.7756455415351 562.7552564097175) rotate(0 59.90409695724884 32.5)"><path d="M0 0 L119.81 0 L119.81 65 L0 65" stroke="none" stroke-width="0" fill="#53a7bc"></path><path d="M0 0 C40.68 0, 81.36 0, 119.81 0 M0 0 C41.94 0, 83.88 0, 119.81 0 M119.81 0 C119.81 20.04, 119.81 40.08, 119.81 65 M119.81 0 C119.81 21.47, 119.81 42.94, 119.81 65 M119.81 65 C82.73 65, 45.65 65, 0 65 M119.81 65 C95.68 65, 71.55 65, 0 65 M0 65 C0 44.24, 0 23.48, 0 0 M0 65 C0 50.18, 0 35.35, 0 0" stroke="transparent" stroke-width="2" fill="none"></path></g><g stroke-linecap="round" transform="translate(1164.7756455415351 939.7639037808815) rotate(0 59.90409695724884 25.5)"><path d="M0 0 L119.81 0 L119.81 51 L0 51" stroke="none" stroke-width="0" fill="#53a7bc"></path><path d="M0 0 C26.77 0, 53.53 0, 119.81 0 M0 0 C31.22 0, 62.44 0, 119.81 0 M119.81 0 C119.81 19.84, 119.81 39.69, 119.81 51 M119.81 0 C119.81 16.26, 119.81 32.52, 119.81 51 M119.81 51 C76.96 51, 34.11 51, 0 51 M119.81 51 C92.04 51, 64.28 51, 0 51 M0 51 C0 36.38, 0 21.76, 0 0 M0 51 C0 31.47, 0 11.94, 0 0" stroke="transparent" stroke-width="2" fill="none"></path></g><g stroke-linecap="round" transform="translate(1164.7756455415351 341.1336122007779) rotate(0 59.90409695724884 32.5)"><path d="M0 0 L119.81 0 L119.81 65 L0 65" stroke="none" stroke-width="0" fill="#53a7bc"></path><path d="M0 0 C37.93 0, 75.86 0, 119.81 0 M0 0 C30.94 0, 61.88 0, 119.81 0 M119.81 0 C119.81 17.45, 119.81 34.89, 119.81 65 M119.81 0 C119.81 25.82, 119.81 51.65, 119.81 65 M119.81 65 C82.07 65, 44.33 65, 0 65 M119.81 65 C85.64 65, 51.48 65, 0 65 M0 65 C0 41.14, 0 17.28, 0 0 M0 65 C0 45.36, 0 25.73, 0 0" stroke="transparent" stroke-width="2" fill="none"></path></g><g stroke-linecap="round" transform="translate(1164.7756455415351 704.3432772680627) rotate(0 59.90409695724884 32.5)"><path d="M0 0 L119.81 0 L119.81 65 L0 65" stroke="none" stroke-width="0" fill="#53a7bc"></path><path d="M0 0 C23.97 0, 47.95 0, 119.81 0 M0 0 C44.29 0, 88.57 0, 119.81 0 M119.81 0 C119.81 16.68, 119.81 33.37, 119.81 65 M119.81 0 C119.81 21.97, 119.81 43.94, 119.81 65 M119.81 65 C86.26 65, 52.71 65, 0 65 M119.81 65 C77.7 65, 35.6 65, 0 65 M0 65 C0 47.36, 0 29.73, 0 0 M0 65 C0 41.6, 0 18.2, 0 0" stroke="transparent" stroke-width="2" fill="none"></path></g><g stroke-linecap="round" transform="translate(1164.7756455415351 1081.3519246392266) rotate(0 59.90409695724884 32.5)"><path d="M0 0 L119.81 0 L119.81 65 L0 65" stroke="none" stroke-width="0" fill="#53a7bc"></path><path d="M0 0 C46.73 0, 93.46 0, 119.81 0 M0 0 C25.36 0, 50.72 0, 119.81 0 M119.81 0 C119.81 17.74, 119.81 35.47, 119.81 65 M119.81 0 C119.81 23.71, 119.81 47.43, 119.81 65 M119.81 65 C83.26 65, 46.7 65, 0 65 M119.81 65 C72.36 65, 24.91 65, 0 65 M0 65 C0 51.57, 0 38.14, 0 0 M0 65 C0 49.62, 0 34.24, 0 0" stroke="transparent" stroke-width="2" fill="none"></path></g><g transform="translate(1191.179742498784 136.98589691877203) rotate(0 33.5 20.5)"><text x="33.5" y="33" font-family="Arial, Segoe UI Emoji" font-size="36px" fill="#ffffff" text-anchor="middle" style="white-space: pre;font-style: normal;" direction="ltr">PA0</text></g><g transform="translate(1189.679742498784 500.1955619860567) rotate(0 35 20.49999999999997)"><text x="35" y="33" font-family="Arial, Segoe UI Emoji" font-size="36px" fill="#ffffff" text-anchor="middle" style="white-space: pre;font-style: normal;" direction="ltr">PB0</text></g><g transform="translate(1188.679742498784 877.2042093572206) rotate(0 36 20.5)"><text x="36" y="33" font-family="Arial, Segoe UI Emoji" font-size="36px" fill="#ffffff" text-anchor="middle" style="white-space: pre;font-style: normal;" direction="ltr">PC0</text></g><g transform="translate(1191.179742498784 211.54559134243277) rotate(0 33.5 20.5)"><text x="33.5" y="33" font-family="Arial, Segoe UI Emoji" font-size="36px" fill="#ffffff" text-anchor="middle" style="white-space: pre;font-style: normal;" direction="ltr">PA1</text></g><g transform="translate(1189.679742498784 574.7552564097175) rotate(0 35 20.5)"><text x="35" y="33" font-family="Arial, Segoe UI Emoji" font-size="36px" fill="#ffffff" text-anchor="middle" style="white-space: pre;font-style: normal;" direction="ltr">PB1</text></g><g transform="translate(1188.679742498784 944.7639037808815) rotate(0 36 20.5)"><text x="36" y="33" font-family="Arial, Segoe UI Emoji" font-size="36px" fill="#ffffff" text-anchor="middle" style="white-space: pre;font-style: normal;" direction="ltr">PC1</text></g><g transform="translate(1181.179742498784 353.1336122007779) rotate(0 43.5 20.5)"><text x="43.5" y="33" font-family="Arial, Segoe UI Emoji" font-size="36px" fill="#ffffff" text-anchor="middle" style="white-space: pre;font-style: normal;" direction="ltr">PA15</text></g><g transform="translate(1179.679742498784 716.3432772680627) rotate(0 45 20.5)"><text x="45" y="33" font-family="Arial, Segoe UI Emoji" font-size="36px" fill="#ffffff" text-anchor="middle" style="white-space: pre;font-style: normal;" direction="ltr">PB15</text></g><g transform="translate(1178.679742498784 1093.3519246392266) rotate(0 46 20.5)"><text x="46" y="33" font-family="Arial, Segoe UI Emoji" font-size="36px" fill="#ffffff" text-anchor="middle" style="white-space: pre;font-style: normal;" direction="ltr">PC15</text></g><g transform="translate(1208.679742498784 282.4898703256567) rotate(0 16 20.5)"><text x="0" y="33" font-family="Arial, Segoe UI Emoji" font-size="36px" fill="#000000" text-anchor="start" style="white-space: pre;font-style: normal;" direction="ltr">...</text></g><g transform="translate(1208.679742498784 645.6995353929415) rotate(0 16 20.5)"><text x="0" y="33" font-family="Arial, Segoe UI Emoji" font-size="36px" fill="#000000" text-anchor="start" style="white-space: pre;font-style: normal;" direction="ltr">...</text></g><g transform="translate(1208.679742498784 1022.7081827641055) rotate(0 16 20.5)"><text x="0" y="33" font-family="Arial, Segoe UI Emoji" font-size="36px" fill="#000000" text-anchor="start" style="white-space: pre;font-style: normal;" direction="ltr">...</text></g><g stroke-linecap="round"><g transform="translate(999.2453995380203 206.34758696084222) rotate(0 81.82453651404677 -22.78656703521966)"><path d="M0 0 C30.84 0, 61.68 0, 105.65 0 M0 0 C30.95 0, 61.91 0, 105.65 0 M105.65 0 C106 -15.55, 106.35 -31.1, 106.68 -45.57 M105.65 0 C105.85 -9.13, 106.06 -18.25, 106.68 -45.57 M106.68 -45.57 C122.09 -45.57, 137.5 -45.57, 163.65 -45.57 M106.68 -45.57 C120.46 -45.57, 134.25 -45.57, 163.65 -45.57" stroke="#353a3f" stroke-width="4" fill="none"></path></g></g><g stroke-linecap="round"><g transform="translate(999.0550976688215 566.8305153022877) rotate(0 81.82453651404677 -22.78656703521966)"><path d="M0 0 C22.81 0, 45.62 0, 105.65 0 M0 0 C24.81 0, 49.62 0, 105.65 0 M105.65 0 C105.96 -13.76, 106.27 -27.52, 106.68 -45.57 M105.65 0 C105.91 -11.64, 106.18 -23.29, 106.68 -45.57 M106.68 -45.57 C121.21 -45.57, 135.73 -45.57, 163.65 -45.57 M106.68 -45.57 C127.78 -45.57, 148.88 -45.57, 163.65 -45.57" stroke="#353a3f" stroke-width="4" fill="none"></path></g></g><g stroke-linecap="round"><g transform="translate(998.6734708402354 939.27734342766) rotate(0 81.82453651404677 -22.78656703521966)"><path d="M0 0 C33.82 0, 67.64 0, 105.65 0 M0 0 C37.2 0, 74.41 0, 105.65 0 M105.65 0 C105.95 -13.22, 106.25 -26.44, 106.68 -45.57 M105.65 0 C105.91 -11.38, 106.16 -22.77, 106.68 -45.57 M106.68 -45.57 C126.48 -45.57, 146.28 -45.57, 163.65 -45.57 M106.68 -45.57 C127.22 -45.57, 147.76 -45.57, 163.65 -45.57" stroke="#353a3f" stroke-width="4" fill="none"></path></g></g><g stroke-linecap="round"><g transform="translate(998.1266673394816 232.04559134243277) rotate(0 82.8602265233369 0)"><path d="M0 0 C33.46 0, 66.91 0, 165.72 0 M0 0 C37.32 0, 74.65 0, 165.72 0" stroke="#353a3f" stroke-width="4" fill="none"></path></g></g><g stroke-linecap="round"><g transform="translate(997.9363654702829 592.5285196838781) rotate(0 82.8602265233369 0)"><path d="M0 0 C42.42 0, 84.85 0, 165.72 0 M0 0 C51.07 0, 102.15 0, 165.72 0" stroke="#353a3f" stroke-width="4" fill="none"></path></g></g><g stroke-linecap="round"><g transform="translate(997.5547386416968 964.9753478092504) rotate(0 82.8602265233369 0)"><path d="M0 0 C47 0, 94 0, 165.72 0 M0 0 C52.79 0, 105.58 0, 165.72 0" stroke="#353a3f" stroke-width="4" fill="none"></path></g></g><g stroke-linecap="round"><g transform="translate(998.20961470269 288.6011147816715) rotate(0 83.37816635402191 42.46587439048869)"><path d="M0 0 C39.36 0, 78.72 0, 129.47 0 M0 0 C47.55 0, 95.09 0, 129.47 0 M129.47 0 C129.25 18.28, 129.02 36.55, 128.43 84.93 M129.47 0 C129.24 19.15, 129 38.31, 128.43 84.93 M128.43 84.93 C137.34 84.93, 146.24 84.93, 166.76 84.93 M128.43 84.93 C138.63 84.93, 148.82 84.93, 166.76 84.93" stroke="#353a3f" stroke-width="4" fill="none"></path></g></g><g stroke-linecap="round"><g transform="translate(998.0193128334913 649.084043123117) rotate(0 83.37816635402191 42.46587439048869)"><path d="M0 0 C42.75 0, 85.5 0, 129.47 0 M0 0 C49.71 0, 99.41 0, 129.47 0 M129.47 0 C129.16 25.62, 128.84 51.25, 128.43 84.93 M129.47 0 C129.23 19.71, 128.99 39.41, 128.43 84.93 M128.43 84.93 C138.41 84.93, 148.4 84.93, 166.76 84.93 M128.43 84.93 C136.64 84.93, 144.85 84.93, 166.76 84.93" stroke="#353a3f" stroke-width="4" fill="none"></path></g></g><g stroke-linecap="round"><g transform="translate(997.6376860049052 1021.5308712484895) rotate(0 83.37816635402191 42.46587439048875)"><path d="M0 0 C50.68 0, 101.36 0, 129.47 0 M0 0 C40.17 0, 80.34 0, 129.47 0 M129.47 0 C129.23 20.02, 128.98 40.05, 128.43 84.93 M129.47 0 C129.08 32.03, 128.69 64.05, 128.43 84.93 M128.43 84.93 C142.57 84.93, 156.71 84.93, 166.76 84.93 M128.43 84.93 C142.09 84.93, 155.74 84.93, 166.76 84.93" stroke="#353a3f" stroke-width="4" fill="none"></path></g></g><g transform="translate(628.8996819478655 136.17073007941377) rotate(0 58 20.5)"><text x="0" y="33" font-family="Arial, Segoe UI Emoji" font-size="36px" fill="#ffffff" text-anchor="start" style="white-space: pre;font-style: normal;" direction="ltr">GPIOA</text></g><g transform="translate(628.8996819478655 500.19556198605676) rotate(0 58 20.5)"><text x="0" y="33" font-family="Arial, Segoe UI Emoji" font-size="36px" fill="#ffffff" text-anchor="start" style="white-space: pre;font-style: normal;" direction="ltr">GPIOB</text></g><g transform="translate(628.8996819478655 877.2042093572206) rotate(0 59 20.5)"><text x="0" y="33" font-family="Arial, Segoe UI Emoji" font-size="36px" fill="#ffffff" text-anchor="start" style="white-space: pre;font-style: normal;" direction="ltr">GPIOC</text></g><g stroke-linecap="round" transform="translate(1527.8000903317575 565.5445385003297) rotate(0 27.18221451345994 29.710717909387768)"><path d="M54.36 29.71 C54.36 31.43, 54.22 33.18, 53.95 34.87 C53.68 36.56, 53.26 38.26, 52.73 39.87 C52.19 41.49, 51.51 43.08, 50.72 44.57 C49.94 46.06, 49.02 47.49, 48 48.81 C46.99 50.13, 45.86 51.37, 44.65 52.47 C43.45 53.58, 42.14 54.58, 40.77 55.44 C39.41 56.3, 37.96 57.04, 36.48 57.63 C35 58.22, 33.45 58.67, 31.9 58.97 C30.35 59.27, 28.76 59.42, 27.18 59.42 C25.61 59.42, 24.01 59.27, 22.46 58.97 C20.91 58.67, 19.36 58.22, 17.89 57.63 C16.41 57.04, 14.95 56.3, 13.59 55.44 C12.23 54.58, 10.92 53.58, 9.71 52.47 C8.5 51.37, 7.37 50.13, 6.36 48.81 C5.35 47.49, 4.43 46.06, 3.64 44.57 C2.86 43.08, 2.18 41.49, 1.64 39.87 C1.1 38.26, 0.69 36.56, 0.41 34.87 C0.14 33.18, 0 31.43, 0 29.71 C0 27.99, 0.14 26.25, 0.41 24.55 C0.69 22.86, 1.1 21.17, 1.64 19.55 C2.18 17.93, 2.86 16.34, 3.64 14.86 C4.43 13.37, 5.35 11.93, 6.36 10.61 C7.37 9.3, 8.5 8.06, 9.71 6.95 C10.92 5.85, 12.23 4.84, 13.59 3.98 C14.95 3.12, 16.41 2.38, 17.89 1.79 C19.36 1.2, 20.91 0.75, 22.46 0.45 C24.01 0.15, 25.61 0, 27.18 0 C28.76 0, 30.35 0.15, 31.9 0.45 C33.45 0.75, 35 1.2, 36.48 1.79 C37.96 2.38, 39.41 3.12, 40.77 3.98 C42.14 4.84, 43.45 5.85, 44.65 6.95 C45.86 8.06, 46.99 9.3, 48 10.61 C49.02 11.93, 49.94 13.37, 50.72 14.86 C51.51 16.34, 52.19 17.93, 52.73 19.55 C53.26 21.17, 53.68 22.86, 53.95 24.55 C54.22 26.25, 54.3 28.85, 54.36 29.71 C54.43 30.57, 54.43 28.85, 54.36 29.71" stroke="transparent" stroke-width="1" fill="none"></path></g><g stroke-linecap="round" transform="translate(10 586.5845776463142) rotate(0 27.838294156830898 24.497702935881307)"><path d="M55.68 24.5 C55.68 25.92, 55.53 27.36, 55.25 28.75 C54.97 30.15, 54.55 31.54, 54 32.88 C53.45 34.21, 52.75 35.52, 51.95 36.75 C51.14 37.97, 50.2 39.16, 49.16 40.24 C48.13 41.33, 46.97 42.35, 45.73 43.26 C44.5 44.18, 43.15 45, 41.76 45.71 C40.36 46.42, 38.87 47.03, 37.36 47.52 C35.85 48, 34.26 48.38, 32.67 48.62 C31.09 48.87, 29.45 49, 27.84 49 C26.23 49, 24.59 48.87, 23 48.62 C21.42 48.38, 19.83 48, 18.32 47.52 C16.8 47.03, 15.31 46.42, 13.92 45.71 C12.52 45, 11.18 44.18, 9.94 43.26 C8.71 42.35, 7.55 41.33, 6.51 40.24 C5.48 39.16, 4.54 37.97, 3.73 36.75 C2.92 35.52, 2.23 34.21, 1.68 32.88 C1.13 31.54, 0.7 30.15, 0.42 28.75 C0.14 27.36, 0 25.92, 0 24.5 C0 23.08, 0.14 21.64, 0.42 20.24 C0.7 18.85, 1.13 17.45, 1.68 16.12 C2.23 14.79, 2.92 13.48, 3.73 12.25 C4.54 11.02, 5.48 9.84, 6.51 8.75 C7.55 7.66, 8.71 6.64, 9.94 5.73 C11.18 4.82, 12.52 3.99, 13.92 3.28 C15.31 2.57, 16.8 1.96, 18.32 1.48 C19.83 0.99, 21.42 0.62, 23 0.37 C24.59 0.13, 26.23 0, 27.84 0 C29.45 0, 31.09 0.13, 32.67 0.37 C34.26 0.62, 35.85 0.99, 37.36 1.48 C38.87 1.96, 40.36 2.57, 41.76 3.28 C43.15 3.99, 44.5 4.82, 45.73 5.73 C46.97 6.64, 48.13 7.66, 49.16 8.75 C50.2 9.84, 51.14 11.02, 51.95 12.25 C52.75 13.48, 53.45 14.79, 54 16.12 C54.55 17.45, 54.97 18.85, 55.25 20.24 C55.53 21.64, 55.61 23.79, 55.68 24.5 C55.75 25.21, 55.75 23.79, 55.68 24.5" stroke="transparent" stroke-width="1" fill="none"></path></g></svg>