<svg version="1.1" xmlns="http://www.w3.org/2000/svg" viewBox="0 0 938.8333282470703 535.3333740234375" width="938.8333282470703" height="535.3333740234375">
  <!-- svg-source:excalidraw -->
  
  <defs>
    <style>
      @font-face {
        font-family: "Virgil";
        src: url("https://oss-liuchengtu.hudunsoft.com/bgmuisc/1670404928.woff2"), url("https://excalidraw.com/Virgil.woff2");
        font-display: swap;
      }
      @font-face {
        font-family: "Cascadia";
        src: url("https://oss-liuchengtu.hudunsoft.com/bgmuisc/1670404879.woff2"), url("https://excalidraw.com/Cascadia.woff2");
        font-display: swap;
      }
    </style>
  </defs>
  <g stroke-linecap="round" transform="translate(10 10) rotate(0 128 255.3333282470703)"><path d="M0 0 L256 0 L256 510.67 L0 510.67" stroke="none" stroke-width="0" fill="#478bdf"></path><path d="M0 0 C56.24 0, 112.48 0, 256 0 M0 0 C73.61 0, 147.23 0, 256 0 M256 0 C256 138.49, 256 276.99, 256 510.67 M256 0 C256 185.05, 256 370.09, 256 510.67 M256 510.67 C204.75 510.67, 153.5 510.67, 0 510.67 M256 510.67 C158.42 510.67, 60.85 510.67, 0 510.67 M0 510.67 C0 363.2, 0 215.74, 0 0 M0 510.67 C0 392.33, 0 273.99, 0 0" stroke="transparent" stroke-width="1" fill="none"></path></g><g stroke-linecap="round" transform="translate(35.333343505859375 100.66667175292969) rotate(0 101.66667175292969 93)"><path d="M0 0 L203.33 0 L203.33 186 L0 186" stroke="none" stroke-width="0" fill="#eeb23f"></path><path d="M0 0 C67.04 0, 134.08 0, 203.33 0 M0 0 C51.48 0, 102.97 0, 203.33 0 M203.33 0 C203.33 42.3, 203.33 84.6, 203.33 186 M203.33 0 C203.33 43.22, 203.33 86.45, 203.33 186 M203.33 186 C125.15 186, 46.96 186, 0 186 M203.33 186 C158.29 186, 113.26 186, 0 186 M0 186 C0 142.42, 0 98.84, 0 0 M0 186 C0 127.71, 0 69.41, 0 0" stroke="transparent" stroke-width="1" fill="none"></path></g><g stroke-linecap="round" transform="translate(34.666656494140625 323.33331298828125) rotate(0 101.66667175292969 71.00001525878906)"><path d="M0 0 L203.33 0 L203.33 142 L0 142" stroke="none" stroke-width="0" fill="#eeb23f"></path><path d="M0 0 C63.1 0, 126.19 0, 203.33 0 M0 0 C73.87 0, 147.74 0, 203.33 0 M203.33 0 C203.33 35.86, 203.33 71.72, 203.33 142 M203.33 0 C203.33 31.67, 203.33 63.34, 203.33 142 M203.33 142 C153.74 142, 104.14 142, 0 142 M203.33 142 C135.07 142, 66.8 142, 0 142 M0 142 C0 109.75, 0 77.51, 0 0 M0 142 C0 94.44, 0 46.88, 0 0" stroke="transparent" stroke-width="1" fill="none"></path></g><g stroke-linecap="round" transform="translate(59.33332824707031 374.0000305175781) rotate(0 77 28)"><path d="M0 0 L154 0 L154 56 L0 56" stroke="none" stroke-width="0" fill="#6bbc63"></path><path d="M0 0 C48.55 0, 97.1 0, 154 0 M0 0 C55.65 0, 111.31 0, 154 0 M154 0 C154 22.14, 154 44.28, 154 56 M154 0 C154 19, 154 37.99, 154 56 M154 56 C111.67 56, 69.35 56, 0 56 M154 56 C117.59 56, 81.19 56, 0 56 M0 56 C0 42.01, 0 28.02, 0 0 M0 56 C0 37.96, 0 19.92, 0 0" stroke="transparent" stroke-width="1" fill="none"></path></g><g stroke-linecap="round" transform="translate(59.33332824707031 224.66661071777344) rotate(0 77 16.5)"><path d="M0 0 L154 0 L154 33 L0 33" stroke="none" stroke-width="0" fill="#6bbc63"></path><path d="M0 0 C35.17 0, 70.34 0, 154 0 M0 0 C56.25 0, 112.5 0, 154 0 M154 0 C154 6.67, 154 13.34, 154 33 M154 0 C154 12.59, 154 25.18, 154 33 M154 33 C120.78 33, 87.55 33, 0 33 M154 33 C97.53 33, 41.05 33, 0 33 M0 33 C0 20.82, 0 8.65, 0 0 M0 33 C0 22.77, 0 12.54, 0 0" stroke="transparent" stroke-width="1" fill="none"></path></g><g stroke-linecap="round" transform="translate(59.33332824707031 158.6666259765625) rotate(0 77 16.5)"><path d="M0 0 L154 0 L154 33 L0 33" stroke="none" stroke-width="0" fill="#6bbc63"></path><path d="M0 0 C45.59 0, 91.17 0, 154 0 M0 0 C47.68 0, 95.35 0, 154 0 M154 0 C154 11.38, 154 22.75, 154 33 M154 0 C154 7.42, 154 14.84, 154 33 M154 33 C109.18 33, 64.36 33, 0 33 M154 33 C119.78 33, 85.56 33, 0 33 M0 33 C0 24.21, 0 15.43, 0 0 M0 33 C0 25.17, 0 17.34, 0 0" stroke="transparent" stroke-width="1" fill="none"></path></g><g transform="translate(80.33332824707031 48.333343505859375) rotate(0 55 11.5)"><text x="0" y="18" font-family="Arial, Segoe UI Emoji" font-size="20px" fill="#ffffff" text-anchor="start" style="white-space: pre;font-style: normal;" direction="ltr">startup_xx.s</text></g><g transform="translate(95.33332824707031 116.33331298828125) rotate(0 41 13.5)"><text x="0" y="21" font-family="Arial, Segoe UI Emoji" font-size="20px" fill="#ffffff" text-anchor="start" style="white-space: pre;font-style: normal;" direction="ltr">复位中断</text></g><g transform="translate(69.33332824707031 163.6666259765625) rotate(0 67 11.5)"><text x="67" y="18" font-family="Arial, Segoe UI Emoji" font-size="20px" fill="#ffffff" text-anchor="middle" style="white-space: pre;font-style: normal;" direction="ltr">调用Systemlnit</text></g><g transform="translate(93.83332824707031 229.66661071777344) rotate(0 42.5 11.5)"><text x="42.5" y="18" font-family="Arial, Segoe UI Emoji" font-size="20px" fill="#ffffff" text-anchor="middle" style="white-space: pre;font-style: normal;" direction="ltr">调用main</text></g><g transform="translate(95.33332824707031 379.0000305175781) rotate(0 41 23)"><text x="41" y="18" font-family="Arial, Segoe UI Emoji" font-size="20px" fill="#ffffff" text-anchor="middle" style="white-space: pre;font-style: normal;" direction="ltr">调用中断</text><text x="41" y="41" font-family="Arial, Segoe UI Emoji" font-size="20px" fill="#ffffff" text-anchor="middle" style="white-space: pre;font-style: normal;" direction="ltr">处理函数</text></g><g transform="translate(95.33332824707031 336.3333435058594) rotate(0 41 13.5)"><text x="0" y="21" font-family="Arial, Segoe UI Emoji" font-size="20px" fill="#ffffff" text-anchor="start" style="white-space: pre;font-style: normal;" direction="ltr">其他中断</text></g><g stroke-linecap="round" transform="translate(341.3333282470703 10) rotate(0 127.66665649414062 68.00001525878906)"><path d="M0 0 L255.33 0 L255.33 136 L0 136" stroke="none" stroke-width="0" fill="#7256e9"></path><path d="M0 0 C61.8 0, 123.6 0, 255.33 0 M0 0 C95.46 0, 190.92 0, 255.33 0 M255.33 0 C255.33 41.21, 255.33 82.42, 255.33 136 M255.33 0 C255.33 36.98, 255.33 73.97, 255.33 136 M255.33 136 C187.48 136, 119.62 136, 0 136 M255.33 136 C169.33 136, 83.33 136, 0 136 M0 136 C0 87.06, 0 38.11, 0 0 M0 136 C0 96.33, 0 56.66, 0 0" stroke="transparent" stroke-width="1" fill="none"></path></g><g stroke-linecap="round" transform="translate(673.5000152587891 10) rotate(0 127.66665649414062 51.00001525878906)"><path d="M0 0 L255.33 0 L255.33 102 L0 102" stroke="none" stroke-width="0" fill="#e55f59"></path><path d="M0 0 C77.95 0, 155.89 0, 255.33 0 M0 0 C78 0, 156 0, 255.33 0 M255.33 0 C255.33 38.33, 255.33 76.67, 255.33 102 M255.33 0 C255.33 33.1, 255.33 66.2, 255.33 102 M255.33 102 C156.84 102, 58.35 102, 0 102 M255.33 102 C168.53 102, 81.73 102, 0 102 M0 102 C0 71.91, 0 41.82, 0 0 M0 102 C0 68.6, 0 35.19, 0 0" stroke="transparent" stroke-width="1" fill="none"></path></g><g stroke-linecap="round" transform="translate(673.5000152587891 426.6667175292969) rotate(0 127.66665649414062 49.33332824707031)"><path d="M0 0 L255.33 0 L255.33 98.67 L0 98.67" stroke="none" stroke-width="0" fill="#53a7bc"></path><path d="M0 0 C58.23 0, 116.47 0, 255.33 0 M0 0 C74.06 0, 148.13 0, 255.33 0 M255.33 0 C255.33 32.48, 255.33 64.95, 255.33 98.67 M255.33 0 C255.33 25.88, 255.33 51.76, 255.33 98.67 M255.33 98.67 C167.16 98.67, 78.98 98.67, 0 98.67 M255.33 98.67 C191.4 98.67, 127.46 98.67, 0 98.67 M0 98.67 C0 68.9, 0 39.13, 0 0 M0 98.67 C0 67.44, 0 36.22, 0 0" stroke="transparent" stroke-width="1" fill="none"></path></g><g stroke-linecap="round" transform="translate(673.5000152587891 121.333251953125) rotate(0 127.66665649414062 62.33335876464841)"><path d="M0 0 L255.33 0 L255.33 124.67 L0 124.67" stroke="none" stroke-width="0" fill="#e55f59"></path><path d="M0 0 C78.77 0, 157.54 0, 255.33 0 M0 0 C64.2 0, 128.41 0, 255.33 0 M255.33 0 C255.33 25.78, 255.33 51.56, 255.33 124.67 M255.33 0 C255.33 25.87, 255.33 51.74, 255.33 124.67 M255.33 124.67 C159.25 124.67, 63.17 124.67, 0 124.67 M255.33 124.67 C191.86 124.67, 128.38 124.67, 0 124.67 M0 124.67 C0 95.91, 0 67.15, 0 0 M0 124.67 C0 94.1, 0 63.54, 0 0" stroke="transparent" stroke-width="1" fill="none"></path></g><g stroke-linecap="round" transform="translate(673.5000152587891 257.33331298828125) rotate(0 127.66665649414062 76.66670227050784)"><path d="M0 0 L255.33 0 L255.33 153.33 L0 153.33" stroke="none" stroke-width="0" fill="#53a7bc"></path><path d="M0 0 C64.36 0, 128.71 0, 255.33 0 M0 0 C76.96 0, 153.92 0, 255.33 0 M255.33 0 C255.33 34.66, 255.33 69.32, 255.33 153.33 M255.33 0 C255.33 42.84, 255.33 85.68, 255.33 153.33 M255.33 153.33 C161.42 153.33, 67.51 153.33, 0 153.33 M255.33 153.33 C154.57 153.33, 53.81 153.33, 0 153.33 M0 153.33 C0 97.37, 0 41.4, 0 0 M0 153.33 C0 111.7, 0 70.07, 0 0" stroke="transparent" stroke-width="1" fill="none"></path></g><g stroke-linecap="round" transform="translate(341.9999542236328 161.16661071777344) rotate(0 127.66665649414062 58.00004577636719)"><path d="M0 0 L255.33 0 L255.33 116 L0 116" stroke="none" stroke-width="0" fill="#7256e9"></path><path d="M0 0 C90.92 0, 181.84 0, 255.33 0 M0 0 C80.53 0, 161.07 0, 255.33 0 M255.33 0 C255.33 30.09, 255.33 60.18, 255.33 116 M255.33 0 C255.33 35.04, 255.33 70.08, 255.33 116 M255.33 116 C182.17 116, 109.01 116, 0 116 M255.33 116 C162.57 116, 69.81 116, 0 116 M0 116 C0 83.54, 0 51.07, 0 0 M0 116 C0 84.29, 0 52.57, 0 0" stroke="transparent" stroke-width="1" fill="none"></path></g><g stroke-linecap="round" transform="translate(341.3333282470703 448.0000305175781) rotate(0 127.66665649414062 36.000030517578125)"><path d="M0 0 L255.33 0 L255.33 72 L0 72" stroke="none" stroke-width="0" fill="#7256e9"></path><path d="M0 0 C51.51 0, 103.02 0, 255.33 0 M0 0 C94.97 0, 189.95 0, 255.33 0 M255.33 0 C255.33 18.64, 255.33 37.28, 255.33 72 M255.33 0 C255.33 28.59, 255.33 57.18, 255.33 72 M255.33 72 C171.05 72, 86.77 72, 0 72 M255.33 72 C179.38 72, 103.42 72, 0 72 M0 72 C0 47.19, 0 22.39, 0 0 M0 72 C0 48.73, 0 25.46, 0 0" stroke="transparent" stroke-width="1" fill="none"></path></g><g stroke-linecap="round" transform="translate(341.3333282470703 290.6667175292969) rotate(0 127.66665649414062 69.66665649414062)"><path d="M0 0 L255.33 0 L255.33 139.33 L0 139.33" stroke="none" stroke-width="0" fill="#7256e9"></path><path d="M0 0 C74.52 0, 149.05 0, 255.33 0 M0 0 C91.84 0, 183.68 0, 255.33 0 M255.33 0 C255.33 34.72, 255.33 69.43, 255.33 139.33 M255.33 0 C255.33 41.86, 255.33 83.73, 255.33 139.33 M255.33 139.33 C185.36 139.33, 115.38 139.33, 0 139.33 M255.33 139.33 C164.93 139.33, 74.52 139.33, 0 139.33 M0 139.33 C0 103.88, 0 68.42, 0 0 M0 139.33 C0 89.33, 0 39.33, 0 0" stroke="transparent" stroke-width="1" fill="none"></path></g><g stroke-linecap="round" transform="translate(378.99998474121094 87.1666259765625) rotate(0 90 21.333343505859375)"><path d="M0 0 L180 0 L180 42.67 L0 42.67" stroke="none" stroke-width="0" fill="#6bbc63"></path><path d="M0 0 C42.96 0, 85.92 0, 180 0 M0 0 C62.01 0, 124.03 0, 180 0 M180 0 C180 13.99, 180 27.99, 180 42.67 M180 0 C180 11.72, 180 23.44, 180 42.67 M180 42.67 C132.84 42.67, 85.69 42.67, 0 42.67 M180 42.67 C136.11 42.67, 92.22 42.67, 0 42.67 M0 42.67 C0 30.78, 0 18.9, 0 0 M0 42.67 C0 30.47, 0 18.28, 0 0" stroke="transparent" stroke-width="1" fill="none"></path></g><g stroke-linecap="round" transform="translate(706.1666717529297 64.00001525878906) rotate(0 90 16.5)"><path d="M0 0 L180 0 L180 33 L0 33" stroke="none" stroke-width="0" fill="#6bbc63"></path><path d="M0 0 C39.92 0, 79.84 0, 180 0 M0 0 C38.08 0, 76.17 0, 180 0 M180 0 C180 11.84, 180 23.69, 180 33 M180 0 C180 8.45, 180 16.91, 180 33 M180 33 C131.11 33, 82.22 33, 0 33 M180 33 C136.79 33, 93.58 33, 0 33 M0 33 C0 23.88, 0 14.76, 0 0 M0 33 C0 20.23, 0 7.46, 0 0" stroke="transparent" stroke-width="1" fill="none"></path></g><g stroke-linecap="round" transform="translate(711.1666717529297 477.0000457763672) rotate(0 90 16.5)"><path d="M0 0 L180 0 L180 33 L0 33" stroke="none" stroke-width="0" fill="#6bbc63"></path><path d="M0 0 C46.92 0, 93.84 0, 180 0 M0 0 C68 0, 136 0, 180 0 M180 0 C180 7.6, 180 15.21, 180 33 M180 0 C180 12.46, 180 24.91, 180 33 M180 33 C142.51 33, 105.02 33, 0 33 M180 33 C118.31 33, 56.61 33, 0 33 M0 33 C0 22.27, 0 11.55, 0 0 M0 33 C0 21.24, 0 9.48, 0 0" stroke="transparent" stroke-width="1" fill="none"></path></g><g stroke-linecap="round" transform="translate(709.1666717529297 201.4998779296875) rotate(0 90 16.5)"><path d="M0 0 L180 0 L180 33 L0 33" stroke="none" stroke-width="0" fill="#6bbc63"></path><path d="M0 0 C45.12 0, 90.23 0, 180 0 M0 0 C50.09 0, 100.18 0, 180 0 M180 0 C180 10.53, 180 21.05, 180 33 M180 0 C180 11.37, 180 22.73, 180 33 M180 33 C122.43 33, 64.87 33, 0 33 M180 33 C113.65 33, 47.29 33, 0 33 M0 33 C0 21.91, 0 10.81, 0 0 M0 33 C0 25.26, 0 17.52, 0 0" stroke="transparent" stroke-width="1" fill="none"></path></g><g stroke-linecap="round" transform="translate(711.1666717529297 365.66664123535156) rotate(0 90 16.5)"><path d="M0 0 L180 0 L180 33 L0 33" stroke="none" stroke-width="0" fill="#6bbc63"></path><path d="M0 0 C36.77 0, 73.53 0, 180 0 M0 0 C50.78 0, 101.56 0, 180 0 M180 0 C180 10.03, 180 20.06, 180 33 M180 0 C180 13.15, 180 26.3, 180 33 M180 33 C135.57 33, 91.14 33, 0 33 M180 33 C112.97 33, 45.94 33, 0 33 M0 33 C0 20.64, 0 8.28, 0 0 M0 33 C0 21.87, 0 10.75, 0 0" stroke="transparent" stroke-width="1" fill="none"></path></g><g stroke-linecap="round" transform="translate(378.99998474121094 216.49993896484375) rotate(0 90 21.333343505859375)"><path d="M0 0 L180 0 L180 42.67 L0 42.67" stroke="none" stroke-width="0" fill="#6bbc63"></path><path d="M0 0 C47.93 0, 95.85 0, 180 0 M0 0 C44.9 0, 89.8 0, 180 0 M180 0 C180 11.72, 180 23.45, 180 42.67 M180 0 C180 11.86, 180 23.72, 180 42.67 M180 42.67 C136.18 42.67, 92.37 42.67, 0 42.67 M180 42.67 C136.69 42.67, 93.38 42.67, 0 42.67 M0 42.67 C0 27.82, 0 12.97, 0 0 M0 42.67 C0 33.85, 0 25.04, 0 0" stroke="transparent" stroke-width="1" fill="none"></path></g><g stroke-linecap="round" transform="translate(378.99998474121094 386.166748046875) rotate(0 90 16.5)"><path d="M0 0 L180 0 L180 33 L0 33" stroke="none" stroke-width="0" fill="#6bbc63"></path><path d="M0 0 C36.09 0, 72.19 0, 180 0 M0 0 C68.52 0, 137.03 0, 180 0 M180 0 C180 12.58, 180 25.17, 180 33 M180 0 C180 7.69, 180 15.38, 180 33 M180 33 C133.65 33, 87.29 33, 0 33 M180 33 C110.36 33, 40.72 33, 0 33 M0 33 C0 25.1, 0 17.2, 0 0 M0 33 C0 25.36, 0 17.72, 0 0" stroke="transparent" stroke-width="1" fill="none"></path></g><g transform="translate(401.99998474121094 96.99996948242188) rotate(0 67 11.5)"><text x="67" y="18" font-family="Arial, Segoe UI Emoji" font-size="20px" fill="#ffffff" text-anchor="middle" style="white-space: pre;font-style: normal;" direction="ltr">定义Systemlnit</text></g><g transform="translate(725.1666717529297 69.00001525878906) rotate(0 71 11.5)"><text x="71" y="18" font-family="Arial, Segoe UI Emoji" font-size="20px" fill="#ffffff" text-anchor="middle" style="white-space: pre;font-style: normal;" direction="ltr">外设寄存器描述</text></g><g transform="translate(750.1666717529297 482.0000457763672) rotate(0 51 11.5)"><text x="51" y="18" font-family="Arial, Segoe UI Emoji" font-size="20px" fill="#ffffff" text-anchor="middle" style="white-space: pre;font-style: normal;" direction="ltr">库函数配置</text></g><g transform="translate(728.1666717529297 206.4998779296875) rotate(0 71 11.5)"><text x="71" y="18" font-family="Arial, Segoe UI Emoji" font-size="20px" fill="#ffffff" text-anchor="middle" style="white-space: pre;font-style: normal;" direction="ltr">内核寄存器描述</text></g><g transform="translate(770.1666717529297 370.66664123535156) rotate(0 31 11.5)"><text x="31" y="18" font-family="Arial, Segoe UI Emoji" font-size="20px" fill="#ffffff" text-anchor="middle" style="white-space: pre;font-style: normal;" direction="ltr">库函数</text></g><g transform="translate(426.49998474121094 226.33328247070312) rotate(0 42.5 11.5)"><text x="42.5" y="18" font-family="Arial, Segoe UI Emoji" font-size="20px" fill="#ffffff" text-anchor="middle" style="white-space: pre;font-style: normal;" direction="ltr">定义main</text></g><g transform="translate(387.99998474121094 391.166748046875) rotate(0 81 11.5)"><text x="81" y="18" font-family="Arial, Segoe UI Emoji" font-size="20px" fill="#ffffff" text-anchor="middle" style="white-space: pre;font-style: normal;" direction="ltr">定义中断处理函数</text></g><g transform="translate(411.49998474121094 25.333343505859375) rotate(0 57.5 11.5)"><text x="0" y="18" font-family="Arial, Segoe UI Emoji" font-size="20px" fill="#ffffff" text-anchor="start" style="white-space: pre;font-style: normal;" direction="ltr">System_xx.c</text></g><g transform="translate(743.6666717529297 25.333343505859375) rotate(0 55.5 11.5)"><text x="0" y="18" font-family="Arial, Segoe UI Emoji" font-size="20px" fill="#ffffff" text-anchor="start" style="white-space: pre;font-style: normal;" direction="ltr">stm32f10x.h</text></g><g transform="translate(721.1666717529297 442.3333435058594) rotate(0 80 11.5)"><text x="0" y="18" font-family="Arial, Segoe UI Emoji" font-size="20px" fill="#ffffff" text-anchor="start" style="white-space: pre;font-style: normal;" direction="ltr">stm32f10x_conf.h</text></g><g transform="translate(743.6666717529297 136.66659545898438) rotate(0 52.5 11.5)"><text x="0" y="18" font-family="Arial, Segoe UI Emoji" font-size="20px" fill="#ffffff" text-anchor="start" style="white-space: pre;font-style: normal;" direction="ltr">core_cm3.c</text></g><g transform="translate(737.1666717529297 270.8333282470703) rotate(0 64 11.5)"><text x="0" y="18" font-family="Arial, Segoe UI Emoji" font-size="20px" fill="#ffffff" text-anchor="start" style="white-space: pre;font-style: normal;" direction="ltr">misc.c  misc.h</text></g><g transform="translate(743.6666717529297 167.16661071777344) rotate(0 53.5 11.5)"><text x="0" y="18" font-family="Arial, Segoe UI Emoji" font-size="20px" fill="#ffffff" text-anchor="start" style="white-space: pre;font-style: normal;" direction="ltr">core_cm3.h</text></g><g transform="translate(724.6666717529297 304.8332977294922) rotate(0 76.5 11.5)"><text x="0" y="18" font-family="Arial, Segoe UI Emoji" font-size="20px" fill="#ffffff" text-anchor="start" style="white-space: pre;font-style: normal;" direction="ltr">stm32f10x_adc.c</text></g><g transform="translate(411.49998474121094 51.66668701171875) rotate(0 58 11.5)"><text x="0" y="18" font-family="Arial, Segoe UI Emoji" font-size="20px" fill="#ffffff" text-anchor="start" style="white-space: pre;font-style: normal;" direction="ltr">System_xx.h</text></g><g transform="translate(438.49998474121094 180.83334350585938) rotate(0 30.5 11.5)"><text x="0" y="18" font-family="Arial, Segoe UI Emoji" font-size="20px" fill="#ffffff" text-anchor="start" style="white-space: pre;font-style: normal;" direction="ltr">main.c</text></g><g transform="translate(403.49998474121094 315.33338928222656) rotate(0 65.5 11.5)"><text x="0" y="18" font-family="Arial, Segoe UI Emoji" font-size="20px" fill="#ffffff" text-anchor="start" style="white-space: pre;font-style: normal;" direction="ltr">stm32f10x_it.c</text></g><g transform="translate(403.49998474121094 347.66668701171875) rotate(0 66 11.5)"><text x="0" y="18" font-family="Arial, Segoe UI Emoji" font-size="20px" fill="#ffffff" text-anchor="start" style="white-space: pre;font-style: normal;" direction="ltr">stm32f10x_it.h</text></g><g transform="translate(407.99998474121094 472.50006103515625) rotate(0 61 11.5)"><text x="61" y="18" font-family="Arial, Segoe UI Emoji" font-size="20px" fill="#ffffff" text-anchor="middle" style="white-space: pre;font-style: normal;" direction="ltr">其他用户文件</text></g><g stroke-linecap="round"><g transform="translate(370.3332977294922 110.33331298828125) rotate(0 -74.99996948242188 33)"><path d="M0 0 C-25 11, -125 55, -150 66 M0 0 C-25 11, -125 55, -150 66" stroke="#000000" stroke-width="2" fill="none"></path></g><g transform="translate(370.3332977294922 110.33331298828125) rotate(0 -74.99996948242188 33)"><path d="M-150 66 L-140.11 54.72 L-135 66.33 L-150 66" stroke="none" stroke-width="0" fill="#000000" fill-rule="evenodd"></path><path d="M-150 66 C-147.7 63.37, -145.39 60.75, -140.11 54.72 M-150 66 C-146.95 62.53, -143.91 59.05, -140.11 54.72 M-140.11 54.72 C-138.92 57.43, -137.73 60.13, -135 66.33 M-140.11 54.72 C-138.47 58.45, -136.83 62.18, -135 66.33 M-135 66.33 C-138.41 66.25, -141.81 66.18, -150 66 M-135 66.33 C-139.55 66.23, -144.09 66.13, -150 66 M-150 66 C-150 66, -150 66, -150 66 M-150 66 C-150 66, -150 66, -150 66" stroke="#000000" stroke-width="2" fill="none"></path></g></g><g stroke-linecap="round"><g transform="translate(374.3333740234375 238.66671752929688) rotate(0 -77 0.33331298828125)"><path d="M0 0 C-25.67 0.11, -128.33 0.56, -154 0.67 M0 0 C-25.67 0.11, -128.33 0.56, -154 0.67" stroke="#000000" stroke-width="2" fill="none"></path></g><g transform="translate(374.3333740234375 238.66671752929688) rotate(0 -77 0.33331298828125)"><path d="M-154 0.67 L-140.43 -5.73 L-140.38 6.95 L-154 0.67" stroke="none" stroke-width="0" fill="#000000" fill-rule="evenodd"></path><path d="M-154 0.67 C-149.27 -1.56, -144.55 -3.79, -140.43 -5.73 M-154 0.67 C-149.87 -1.28, -145.75 -3.23, -140.43 -5.73 M-140.43 -5.73 C-140.42 -2.64, -140.41 0.45, -140.38 6.95 M-140.43 -5.73 C-140.41 -1.39, -140.4 2.94, -140.38 6.95 M-140.38 6.95 C-144.53 5.03, -148.68 3.12, -154 0.67 M-140.38 6.95 C-144.45 5.07, -148.53 3.19, -154 0.67 M-154 0.67 C-154 0.67, -154 0.67, -154 0.67 M-154 0.67 C-154 0.67, -154 0.67, -154 0.67" stroke="#000000" stroke-width="2" fill="none"></path></g></g><g stroke-linecap="round"><g transform="translate(368.3333740234375 406.6667175292969) rotate(0 -73.66668701171875 0.33331298828125)"><path d="M0 0 C-24.56 0.11, -122.78 0.56, -147.33 0.67 M0 0 C-24.56 0.11, -122.78 0.56, -147.33 0.67" stroke="#000000" stroke-width="2" fill="none"></path></g><g transform="translate(368.3333740234375 406.6667175292969) rotate(0 -73.66668701171875 0.33331298828125)"><path d="M-147.33 0.67 L-133.77 -5.73 L-133.71 6.94 L-147.33 0.67" stroke="none" stroke-width="0" fill="#000000" fill-rule="evenodd"></path><path d="M-147.33 0.67 C-143.23 -1.27, -139.12 -3.21, -133.77 -5.73 M-147.33 0.67 C-142.06 -1.82, -136.78 -4.31, -133.77 -5.73 M-133.77 -5.73 C-133.75 -1.99, -133.73 1.75, -133.71 6.94 M-133.77 -5.73 C-133.75 -0.78, -133.72 4.18, -133.71 6.94 M-133.71 6.94 C-137.3 5.29, -140.9 3.63, -147.33 0.67 M-133.71 6.94 C-137.93 5, -142.16 3.05, -147.33 0.67 M-147.33 0.67 C-147.33 0.67, -147.33 0.67, -147.33 0.67 M-147.33 0.67 C-147.33 0.67, -147.33 0.67, -147.33 0.67" stroke="#000000" stroke-width="2" fill="none"></path></g></g><g transform="translate(786.6666717529297 328.99998474121094) rotate(0 9.5 11.5)"><text x="0" y="18" font-family="Arial, Segoe UI Emoji" font-size="20px" fill="#ffffff" text-anchor="start" style="white-space: pre;font-style: normal;" direction="ltr">...</text></g></svg>