<svg version="1.1" xmlns="http://www.w3.org/2000/svg" viewBox="0 0 1182.66650390625 450.6638687622749" width="1182.66650390625" height="450.6638687622749">
  <!-- svg-source:excalidraw -->
  
  <defs>
    <style>
      @font-face {
        font-family: "Virgil";
        src: url("https://oss-liuchengtu.hudunsoft.com/bgmuisc/1670404928.woff2"), url("https://excalidraw.com/Virgil.woff2");
        font-display: swap;
      }
      @font-face {
        font-family: "Cascadia";
        src: url("https://oss-liuchengtu.hudunsoft.com/bgmuisc/1670404879.woff2"), url("https://excalidraw.com/Cascadia.woff2");
        font-display: swap;
      }
    </style>
  </defs>
  <g stroke-linecap="round" transform="translate(10 58.369103835884204) rotate(0 36.33332824707031 34.33332824707031)"><path d="M0 0 L72.67 0 L72.67 68.67 L0 68.67" stroke="none" stroke-width="0" fill="#ffdd63"></path><path d="M0 0 C18.11 0, 36.22 0, 72.67 0 M0 0 C18.44 0, 36.88 0, 72.67 0 M72.67 0 C72.67 18.32, 72.67 36.63, 72.67 68.67 M72.67 0 C72.67 16.32, 72.67 32.64, 72.67 68.67 M72.67 68.67 C55.14 68.67, 37.61 68.67, 0 68.67 M72.67 68.67 C47.97 68.67, 23.27 68.67, 0 68.67 M0 68.67 C0 50.22, 0 31.77, 0 0 M0 68.67 C0 45.15, 0 21.63, 0 0" stroke="#000000" stroke-width="1" fill="none"></path></g><g stroke-linecap="round" transform="translate(10 226.06762846357063) rotate(0 36.33332824707031 34.33332824707031)"><path d="M0 0 L72.67 0 L72.67 68.67 L0 68.67" stroke="none" stroke-width="0" fill="#ffdd63"></path><path d="M0 0 C25.51 0, 51.02 0, 72.67 0 M0 0 C28.76 0, 57.52 0, 72.67 0 M72.67 0 C72.67 20.41, 72.67 40.82, 72.67 68.67 M72.67 0 C72.67 26.92, 72.67 53.85, 72.67 68.67 M72.67 68.67 C44 68.67, 15.33 68.67, 0 68.67 M72.67 68.67 C46.78 68.67, 20.9 68.67, 0 68.67 M0 68.67 C0 50, 0 31.33, 0 0 M0 68.67 C0 50.02, 0 31.37, 0 0" stroke="#000000" stroke-width="1" fill="none"></path></g><g stroke-linecap="round" transform="translate(82.66665649414062 58.369103835884204) rotate(0 36.33332824707031 34.33332824707031)"><path d="M0 0 L72.67 0 L72.67 68.67 L0 68.67" stroke="none" stroke-width="0" fill="#ffdd63"></path><path d="M0 0 C26.74 0, 53.48 0, 72.67 0 M0 0 C25.13 0, 50.26 0, 72.67 0 M72.67 0 C72.67 14.79, 72.67 29.57, 72.67 68.67 M72.67 0 C72.67 21.3, 72.67 42.61, 72.67 68.67 M72.67 68.67 C51.55 68.67, 30.44 68.67, 0 68.67 M72.67 68.67 C46.12 68.67, 19.58 68.67, 0 68.67 M0 68.67 C0 53.21, 0 37.75, 0 0 M0 68.67 C0 43.69, 0 18.71, 0 0" stroke="#000000" stroke-width="1" fill="none"></path></g><g stroke-linecap="round" transform="translate(82.66665649414062 226.06762846357063) rotate(0 36.33332824707031 34.33332824707031)"><path d="M0 0 L72.67 0 L72.67 68.67 L0 68.67" stroke="none" stroke-width="0" fill="#717273"></path><path d="M0 0 C18.37 0, 36.75 0, 72.67 0 M0 0 C21.98 0, 43.96 0, 72.67 0 M72.67 0 C72.67 23.75, 72.67 47.5, 72.67 68.67 M72.67 0 C72.67 19.62, 72.67 39.24, 72.67 68.67 M72.67 68.67 C48.75 68.67, 24.83 68.67, 0 68.67 M72.67 68.67 C55.96 68.67, 39.26 68.67, 0 68.67 M0 68.67 C0 54.29, 0 39.91, 0 0 M0 68.67 C0 54.82, 0 40.97, 0 0" stroke="#000000" stroke-width="1" fill="none"></path></g><g stroke-linecap="round" transform="translate(155.33331298828125 58.369103835884204) rotate(0 36.33332824707031 34.33332824707031)"><path d="M0 0 L72.67 0 L72.67 68.67 L0 68.67" stroke="none" stroke-width="0" fill="#ffdd63"></path><path d="M0 0 C21.51 0, 43.02 0, 72.67 0 M0 0 C24.19 0, 48.38 0, 72.67 0 M72.67 0 C72.67 23.68, 72.67 47.35, 72.67 68.67 M72.67 0 C72.67 24.04, 72.67 48.09, 72.67 68.67 M72.67 68.67 C48.89 68.67, 25.11 68.67, 0 68.67 M72.67 68.67 C51.88 68.67, 31.1 68.67, 0 68.67 M0 68.67 C0 54.67, 0 40.67, 0 0 M0 68.67 C0 52.12, 0 35.57, 0 0" stroke="#000000" stroke-width="1" fill="none"></path></g><g stroke-linecap="round" transform="translate(155.33331298828125 226.06762846357063) rotate(0 36.33332824707031 34.33332824707031)"><path d="M0 0 L72.67 0 L72.67 68.67 L0 68.67" stroke="none" stroke-width="0" fill="#ffdd63"></path><path d="M0 0 C15.61 0, 31.22 0, 72.67 0 M0 0 C24.9 0, 49.79 0, 72.67 0 M72.67 0 C72.67 26.88, 72.67 53.76, 72.67 68.67 M72.67 0 C72.67 21.89, 72.67 43.78, 72.67 68.67 M72.67 68.67 C45.94 68.67, 19.22 68.67, 0 68.67 M72.67 68.67 C57.12 68.67, 41.57 68.67, 0 68.67 M0 68.67 C0 45.71, 0 22.76, 0 0 M0 68.67 C0 51.28, 0 33.9, 0 0" stroke="#000000" stroke-width="1" fill="none"></path></g><g stroke-linecap="round" transform="translate(227.99996948242188 58.369103835884204) rotate(0 36.33332824707031 34.33332824707031)"><path d="M0 0 L72.67 0 L72.67 68.67 L0 68.67" stroke="none" stroke-width="0" fill="#ffdd63"></path><path d="M0 0 C21.78 0, 43.56 0, 72.67 0 M0 0 C25.73 0, 51.46 0, 72.67 0 M72.67 0 C72.67 24.29, 72.67 48.59, 72.67 68.67 M72.67 0 C72.67 24.8, 72.67 49.59, 72.67 68.67 M72.67 68.67 C47.63 68.67, 22.59 68.67, 0 68.67 M72.67 68.67 C46.58 68.67, 20.48 68.67, 0 68.67 M0 68.67 C0 46.62, 0 24.58, 0 0 M0 68.67 C0 44.17, 0 19.67, 0 0" stroke="#000000" stroke-width="1" fill="none"></path></g><g stroke-linecap="round" transform="translate(227.99996948242188 226.06762846357063) rotate(0 36.33332824707031 34.33332824707031)"><path d="M0 0 L72.67 0 L72.67 68.67 L0 68.67" stroke="none" stroke-width="0" fill="#53a7bc"></path><path d="M0 0 C19.16 0, 38.32 0, 72.67 0 M0 0 C19.24 0, 38.48 0, 72.67 0 M72.67 0 C72.67 18.35, 72.67 36.69, 72.67 68.67 M72.67 0 C72.67 23.6, 72.67 47.2, 72.67 68.67 M72.67 68.67 C50.37 68.67, 28.07 68.67, 0 68.67 M72.67 68.67 C51.19 68.67, 29.71 68.67, 0 68.67 M0 68.67 C0 48.95, 0 29.23, 0 0 M0 68.67 C0 45.56, 0 22.46, 0 0" stroke="#000000" stroke-width="1" fill="none"></path></g><g stroke-linecap="round" transform="translate(300.6666259765625 58.369103835884204) rotate(0 36.33332824707031 34.33332824707031)"><path d="M0 0 L72.67 0 L72.67 68.67 L0 68.67" stroke="none" stroke-width="0" fill="#ffdd63"></path><path d="M0 0 C18.33 0, 36.67 0, 72.67 0 M0 0 C28.41 0, 56.83 0, 72.67 0 M72.67 0 C72.67 26.66, 72.67 53.32, 72.67 68.67 M72.67 0 C72.67 19.49, 72.67 38.99, 72.67 68.67 M72.67 68.67 C57.15 68.67, 41.63 68.67, 0 68.67 M72.67 68.67 C47.29 68.67, 21.91 68.67, 0 68.67 M0 68.67 C0 51.21, 0 33.76, 0 0 M0 68.67 C0 49.24, 0 29.82, 0 0" stroke="#000000" stroke-width="1" fill="none"></path></g><g stroke-linecap="round" transform="translate(300.6666259765625 226.06762846357063) rotate(0 36.33332824707031 34.33332824707031)"><path d="M0 0 L72.67 0 L72.67 68.67 L0 68.67" stroke="none" stroke-width="0" fill="#6bbc63"></path><path d="M0 0 C20.29 0, 40.59 0, 72.67 0 M0 0 C16.74 0, 33.49 0, 72.67 0 M72.67 0 C72.67 14.91, 72.67 29.82, 72.67 68.67 M72.67 0 C72.67 23.51, 72.67 47.02, 72.67 68.67 M72.67 68.67 C49.94 68.67, 27.2 68.67, 0 68.67 M72.67 68.67 C56.37 68.67, 40.08 68.67, 0 68.67 M0 68.67 C0 44.67, 0 20.67, 0 0 M0 68.67 C0 54.14, 0 39.62, 0 0" stroke="#000000" stroke-width="1" fill="none"></path></g><g stroke-linecap="round" transform="translate(373.3332824707031 58.369103835884204) rotate(0 36.33332824707031 34.33332824707031)"><path d="M0 0 L72.67 0 L72.67 68.67 L0 68.67" stroke="none" stroke-width="0" fill="#ffdd63"></path><path d="M0 0 C24.94 0, 49.88 0, 72.67 0 M0 0 C17.23 0, 34.46 0, 72.67 0 M72.67 0 C72.67 19.27, 72.67 38.54, 72.67 68.67 M72.67 0 C72.67 16.09, 72.67 32.19, 72.67 68.67 M72.67 68.67 C53.81 68.67, 34.95 68.67, 0 68.67 M72.67 68.67 C58.12 68.67, 43.58 68.67, 0 68.67 M0 68.67 C0 41.51, 0 14.34, 0 0 M0 68.67 C0 41.64, 0 14.6, 0 0" stroke="#000000" stroke-width="1" fill="none"></path></g><g stroke-linecap="round" transform="translate(373.3332824707031 226.06762846357063) rotate(0 36.33332824707031 34.33332824707031)"><path d="M0 0 L72.67 0 L72.67 68.67 L0 68.67" stroke="none" stroke-width="0" fill="#e55f59"></path><path d="M0 0 C28.85 0, 57.71 0, 72.67 0 M0 0 C24.05 0, 48.1 0, 72.67 0 M72.67 0 C72.67 15.53, 72.67 31.05, 72.67 68.67 M72.67 0 C72.67 19.04, 72.67 38.07, 72.67 68.67 M72.67 68.67 C50.45 68.67, 28.24 68.67, 0 68.67 M72.67 68.67 C52.26 68.67, 31.85 68.67, 0 68.67 M0 68.67 C0 47.58, 0 26.49, 0 0 M0 68.67 C0 45.46, 0 22.26, 0 0" stroke="#000000" stroke-width="1" fill="none"></path></g><g stroke-linecap="round" transform="translate(445.99993896484375 58.369103835884204) rotate(0 36.33332824707031 34.33332824707031)"><path d="M0 0 L72.67 0 L72.67 68.67 L0 68.67" stroke="none" stroke-width="0" fill="#ffdd63"></path><path d="M0 0 C19.71 0, 39.41 0, 72.67 0 M0 0 C24.69 0, 49.38 0, 72.67 0 M72.67 0 C72.67 16.52, 72.67 33.05, 72.67 68.67 M72.67 0 C72.67 17.29, 72.67 34.57, 72.67 68.67 M72.67 68.67 C54.41 68.67, 36.15 68.67, 0 68.67 M72.67 68.67 C45.38 68.67, 18.1 68.67, 0 68.67 M0 68.67 C0 53.55, 0 38.42, 0 0 M0 68.67 C0 47.09, 0 25.51, 0 0" stroke="#000000" stroke-width="1" fill="none"></path></g><g stroke-linecap="round" transform="translate(445.99993896484375 226.06762846357063) rotate(0 36.33332824707031 34.33332824707031)"><path d="M0 0 L72.67 0 L72.67 68.67 L0 68.67" stroke="none" stroke-width="0" fill="#eb8437"></path><path d="M0 0 C28.49 0, 56.99 0, 72.67 0 M0 0 C24.26 0, 48.52 0, 72.67 0 M72.67 0 C72.67 15.5, 72.67 30.99, 72.67 68.67 M72.67 0 C72.67 24.85, 72.67 49.69, 72.67 68.67 M72.67 68.67 C45.17 68.67, 17.66 68.67, 0 68.67 M72.67 68.67 C49.64 68.67, 26.62 68.67, 0 68.67 M0 68.67 C0 50.97, 0 33.28, 0 0 M0 68.67 C0 47.15, 0 25.64, 0 0" stroke="#000000" stroke-width="1" fill="none"></path></g><g stroke-linecap="round" transform="translate(518.6665954589844 58.369103835884204) rotate(0 36.33332824707031 34.33332824707031)"><path d="M0 0 L72.67 0 L72.67 68.67 L0 68.67" stroke="none" stroke-width="0" fill="#ffdd63"></path><path d="M0 0 C17.49 0, 34.97 0, 72.67 0 M0 0 C18.29 0, 36.59 0, 72.67 0 M72.67 0 C72.67 17.26, 72.67 34.51, 72.67 68.67 M72.67 0 C72.67 25.78, 72.67 51.56, 72.67 68.67 M72.67 68.67 C56.66 68.67, 40.66 68.67, 0 68.67 M72.67 68.67 C49.83 68.67, 26.99 68.67, 0 68.67 M0 68.67 C0 49.55, 0 30.44, 0 0 M0 68.67 C0 43.03, 0 17.4, 0 0" stroke="#000000" stroke-width="1" fill="none"></path></g><g stroke-linecap="round" transform="translate(518.6665954589844 226.06762846357063) rotate(0 36.33332824707031 34.33332824707031)"><path d="M0 0 L72.67 0 L72.67 68.67 L0 68.67" stroke="none" stroke-width="0" fill="#ffdd63"></path><path d="M0 0 C24 0, 47.99 0, 72.67 0 M0 0 C16.12 0, 32.24 0, 72.67 0 M72.67 0 C72.67 15.83, 72.67 31.65, 72.67 68.67 M72.67 0 C72.67 20.49, 72.67 40.98, 72.67 68.67 M72.67 68.67 C53 68.67, 33.34 68.67, 0 68.67 M72.67 68.67 C44.88 68.67, 17.09 68.67, 0 68.67 M0 68.67 C0 44.15, 0 19.63, 0 0 M0 68.67 C0 49.33, 0 30, 0 0" stroke="#000000" stroke-width="1" fill="none"></path></g><g stroke-linecap="round" transform="translate(591.333251953125 58.369103835884204) rotate(0 36.33332824707031 34.33332824707031)"><path d="M0 0 L72.67 0 L72.67 68.67 L0 68.67" stroke="none" stroke-width="0" fill="#ffdd63"></path><path d="M0 0 C21.84 0, 43.67 0, 72.67 0 M0 0 C28.7 0, 57.39 0, 72.67 0 M72.67 0 C72.67 21.77, 72.67 43.53, 72.67 68.67 M72.67 0 C72.67 25.95, 72.67 51.9, 72.67 68.67 M72.67 68.67 C48.47 68.67, 24.28 68.67, 0 68.67 M72.67 68.67 C52.61 68.67, 32.56 68.67, 0 68.67 M0 68.67 C0 46.65, 0 24.64, 0 0 M0 68.67 C0 47.35, 0 26.04, 0 0" stroke="#000000" stroke-width="1" fill="none"></path></g><g stroke-linecap="round" transform="translate(591.333251953125 226.06762846357063) rotate(0 36.33332824707031 34.33332824707031)"><path d="M0 0 L72.67 0 L72.67 68.67 L0 68.67" stroke="none" stroke-width="0" fill="#ffdd63"></path><path d="M0 0 C17.24 0, 34.47 0, 72.67 0 M0 0 C27.31 0, 54.63 0, 72.67 0 M72.67 0 C72.67 26.5, 72.67 52.99, 72.67 68.67 M72.67 0 C72.67 23.58, 72.67 47.15, 72.67 68.67 M72.67 68.67 C49.98 68.67, 27.29 68.67, 0 68.67 M72.67 68.67 C50.34 68.67, 28.02 68.67, 0 68.67 M0 68.67 C0 49.52, 0 30.37, 0 0 M0 68.67 C0 52.89, 0 37.12, 0 0" stroke="#000000" stroke-width="1" fill="none"></path></g><g stroke-linecap="round" transform="translate(663.9999084472656 58.369103835884204) rotate(0 36.33332824707031 34.33332824707031)"><path d="M0 0 L72.67 0 L72.67 68.67 L0 68.67" stroke="none" stroke-width="0" fill="#ffdd63"></path><path d="M0 0 C25.18 0, 50.36 0, 72.67 0 M0 0 C22.92 0, 45.85 0, 72.67 0 M72.67 0 C72.67 16.49, 72.67 32.97, 72.67 68.67 M72.67 0 C72.67 24.29, 72.67 48.59, 72.67 68.67 M72.67 68.67 C52.34 68.67, 32.01 68.67, 0 68.67 M72.67 68.67 C50.27 68.67, 27.87 68.67, 0 68.67 M0 68.67 C0 45.7, 0 22.74, 0 0 M0 68.67 C0 50.48, 0 32.3, 0 0" stroke="#000000" stroke-width="1" fill="none"></path></g><g stroke-linecap="round" transform="translate(663.9999084472656 226.06762846357063) rotate(0 36.5 34.33332824707031)"><path d="M0 0 L73 0 L73 68.67 L0 68.67" stroke="none" stroke-width="0" fill="#ae55d4"></path><path d="M0 0 C22.43 0, 44.87 0, 73 0 M0 0 C26.03 0, 52.07 0, 73 0 M73 0 C73 18.81, 73 37.62, 73 68.67 M73 0 C73 27.4, 73 54.8, 73 68.67 M73 68.67 C47.39 68.67, 21.79 68.67, 0 68.67 M73 68.67 C54.13 68.67, 35.26 68.67, 0 68.67 M0 68.67 C0 44.75, 0 20.83, 0 0 M0 68.67 C0 42.2, 0 15.73, 0 0" stroke="#000000" stroke-width="1" fill="none"></path></g><g stroke-linecap="round" transform="translate(736.6665649414062 58.369103835884204) rotate(0 36.33332824707031 34.33332824707031)"><path d="M0 0 L72.67 0 L72.67 68.67 L0 68.67" stroke="none" stroke-width="0" fill="#ffdd63"></path><path d="M0 0 C16.98 0, 33.96 0, 72.67 0 M0 0 C19.05 0, 38.1 0, 72.67 0 M72.67 0 C72.67 13.89, 72.67 27.79, 72.67 68.67 M72.67 0 C72.67 19.16, 72.67 38.31, 72.67 68.67 M72.67 68.67 C47.53 68.67, 22.39 68.67, 0 68.67 M72.67 68.67 C52.61 68.67, 32.55 68.67, 0 68.67 M0 68.67 C0 45.99, 0 23.31, 0 0 M0 68.67 C0 44.53, 0 20.39, 0 0" stroke="#000000" stroke-width="1" fill="none"></path></g><g stroke-linecap="round" transform="translate(736.6665649414062 226.06762846357063) rotate(0 37 34.33332824707031)"><path d="M0 0 L74 0 L74 68.67 L0 68.67" stroke="none" stroke-width="0" fill="#7256e9"></path><path d="M0 0 C27.99 0, 55.97 0, 74 0 M0 0 C28.4 0, 56.81 0, 74 0 M74 0 C74 15.63, 74 31.26, 74 68.67 M74 0 C74 25.83, 74 51.67, 74 68.67 M74 68.67 C51.5 68.67, 29 68.67, 0 68.67 M74 68.67 C47.89 68.67, 21.78 68.67, 0 68.67 M0 68.67 C0 44.19, 0 19.71, 0 0 M0 68.67 C0 41.71, 0 14.75, 0 0" stroke="#000000" stroke-width="1" fill="none"></path></g><g stroke-linecap="round" transform="translate(809.3332214355469 58.369103835884204) rotate(0 36.33332824707031 34.33332824707031)"><path d="M0 0 L72.67 0 L72.67 68.67 L0 68.67" stroke="none" stroke-width="0" fill="#ffdd63"></path><path d="M0 0 C14.7 0, 29.41 0, 72.67 0 M0 0 C20.27 0, 40.55 0, 72.67 0 M72.67 0 C72.67 23.75, 72.67 47.51, 72.67 68.67 M72.67 0 C72.67 18.95, 72.67 37.91, 72.67 68.67 M72.67 68.67 C48.67 68.67, 24.67 68.67, 0 68.67 M72.67 68.67 C47.12 68.67, 21.57 68.67, 0 68.67 M0 68.67 C0 51.66, 0 34.65, 0 0 M0 68.67 C0 48.54, 0 28.42, 0 0" stroke="#000000" stroke-width="1" fill="none"></path></g><g stroke-linecap="round" transform="translate(809.3332214355469 226.06762846357063) rotate(0 36.33332824707031 34.33332824707031)"><path d="M0 0 L72.67 0 L72.67 68.67 L0 68.67" stroke="none" stroke-width="0" fill="#5370ed"></path><path d="M0 0 C28.76 0, 57.52 0, 72.67 0 M0 0 C21.6 0, 43.2 0, 72.67 0 M72.67 0 C72.67 26.92, 72.67 53.85, 72.67 68.67 M72.67 0 C72.67 27.09, 72.67 54.18, 72.67 68.67 M72.67 68.67 C46.78 68.67, 20.9 68.67, 0 68.67 M72.67 68.67 C52.91 68.67, 33.15 68.67, 0 68.67 M0 68.67 C0 50.02, 0 31.37, 0 0 M0 68.67 C0 51.24, 0 33.81, 0 0" stroke="#000000" stroke-width="1" fill="none"></path></g><g stroke-linecap="round" transform="translate(881.9998779296875 58.369103835884204) rotate(0 36.33332824707031 34.33332824707031)"><path d="M0 0 L72.67 0 L72.67 68.67 L0 68.67" stroke="none" stroke-width="0" fill="#ffdd63"></path><path d="M0 0 C28.99 0, 57.97 0, 72.67 0 M0 0 C18.56 0, 37.12 0, 72.67 0 M72.67 0 C72.67 24.49, 72.67 48.98, 72.67 68.67 M72.67 0 C72.67 15.47, 72.67 30.95, 72.67 68.67 M72.67 68.67 C56.5 68.67, 40.33 68.67, 0 68.67 M72.67 68.67 C50.06 68.67, 27.45 68.67, 0 68.67 M0 68.67 C0 47.77, 0 26.87, 0 0 M0 68.67 C0 52.55, 0 36.44, 0 0" stroke="#000000" stroke-width="1" fill="none"></path></g><g stroke-linecap="round" transform="translate(881.9998779296875 226.06762846357063) rotate(0 36.33332824707031 34.33332824707031)"><path d="M0 0 L72.67 0 L72.67 68.67 L0 68.67" stroke="none" stroke-width="0" fill="#478bdf"></path><path d="M0 0 C21.98 0, 43.96 0, 72.67 0 M0 0 C25.14 0, 50.27 0, 72.67 0 M72.67 0 C72.67 19.62, 72.67 39.24, 72.67 68.67 M72.67 0 C72.67 22.6, 72.67 45.21, 72.67 68.67 M72.67 68.67 C55.96 68.67, 39.26 68.67, 0 68.67 M72.67 68.67 C57.45 68.67, 42.23 68.67, 0 68.67 M0 68.67 C0 54.82, 0 40.97, 0 0 M0 68.67 C0 51.44, 0 34.21, 0 0" stroke="#000000" stroke-width="1" fill="none"></path></g><g stroke-linecap="round" transform="translate(954.6665344238281 58.369103835884204) rotate(0 36.33332824707031 34.33332824707031)"><path d="M0 0 L72.67 0 L72.67 68.67 L0 68.67" stroke="none" stroke-width="0" fill="#ffdd63"></path><path d="M0 0 C24.21 0, 48.42 0, 72.67 0 M0 0 C24.72 0, 49.44 0, 72.67 0 M72.67 0 C72.67 15.39, 72.67 30.79, 72.67 68.67 M72.67 0 C72.67 13.94, 72.67 27.88, 72.67 68.67 M72.67 68.67 C46 68.67, 19.34 68.67, 0 68.67 M72.67 68.67 C57.32 68.67, 41.97 68.67, 0 68.67 M0 68.67 C0 42.29, 0 15.92, 0 0 M0 68.67 C0 51.19, 0 33.72, 0 0" stroke="#000000" stroke-width="1" fill="none"></path></g><g stroke-linecap="round" transform="translate(954.6665344238281 226.06762846357063) rotate(0 36.33332824707031 34.33332824707031)"><path d="M0 0 L72.67 0 L72.67 68.67 L0 68.67" stroke="none" stroke-width="0" fill="#57b8ff"></path><path d="M0 0 C24.9 0, 49.79 0, 72.67 0 M0 0 C28.45 0, 56.89 0, 72.67 0 M72.67 0 C72.67 21.89, 72.67 43.78, 72.67 68.67 M72.67 0 C72.67 25.25, 72.67 50.51, 72.67 68.67 M72.67 68.67 C57.12 68.67, 41.57 68.67, 0 68.67 M72.67 68.67 C48.38 68.67, 24.09 68.67, 0 68.67 M0 68.67 C0 51.28, 0 33.9, 0 0 M0 68.67 C0 46.65, 0 24.64, 0 0" stroke="#000000" stroke-width="1" fill="none"></path></g><g stroke-linecap="round" transform="translate(1027.3331909179688 58.369103835884204) rotate(0 36.33332824707031 34.33332824707031)"><path d="M0 0 L72.67 0 L72.67 68.67 L0 68.67" stroke="none" stroke-width="0" fill="#ffdd63"></path><path d="M0 0 C16.29 0, 32.58 0, 72.67 0 M0 0 C14.75 0, 29.51 0, 72.67 0 M72.67 0 C72.67 25.2, 72.67 50.39, 72.67 68.67 M72.67 0 C72.67 14.5, 72.67 29.01, 72.67 68.67 M72.67 68.67 C44.75 68.67, 16.84 68.67, 0 68.67 M72.67 68.67 C54.18 68.67, 35.69 68.67, 0 68.67 M0 68.67 C0 41.62, 0 14.57, 0 0 M0 68.67 C0 50.72, 0 32.78, 0 0" stroke="#000000" stroke-width="1" fill="none"></path></g><g stroke-linecap="round" transform="translate(1027.3331909179688 226.06762846357063) rotate(0 36.33332824707031 34.33332824707031)"><path d="M0 0 L72.67 0 L72.67 68.67 L0 68.67" stroke="none" stroke-width="0" fill="#ffdd63"></path><path d="M0 0 C19.24 0, 38.48 0, 72.67 0 M0 0 C19.42 0, 38.83 0, 72.67 0 M72.67 0 C72.67 23.6, 72.67 47.2, 72.67 68.67 M72.67 0 C72.67 21.07, 72.67 42.14, 72.67 68.67 M72.67 68.67 C51.19 68.67, 29.71 68.67, 0 68.67 M72.67 68.67 C51.8 68.67, 30.93 68.67, 0 68.67 M0 68.67 C0 45.56, 0 22.46, 0 0 M0 68.67 C0 46.24, 0 23.81, 0 0" stroke="#000000" stroke-width="1" fill="none"></path></g><g stroke-linecap="round" transform="translate(1099.9998474121094 226.06762846357063) rotate(0 36.33332824707031 34.33332824707031)"><path d="M0 0 L72.67 0 L72.67 68.67 L0 68.67" stroke="none" stroke-width="0" fill="#9fd449"></path><path d="M0 0 C17.12 0, 34.23 0, 72.67 0 M0 0 C22.08 0, 44.16 0, 72.67 0 M72.67 0 C72.67 18.42, 72.67 36.84, 72.67 68.67 M72.67 0 C72.67 27.08, 72.67 54.16, 72.67 68.67 M72.67 68.67 C54.74 68.67, 36.8 68.67, 0 68.67 M72.67 68.67 C49.05 68.67, 25.43 68.67, 0 68.67 M0 68.67 C0 45.89, 0 23.11, 0 0 M0 68.67 C0 43.51, 0 18.35, 0 0" stroke="#000000" stroke-width="1" fill="none"></path></g><g stroke-linecap="round" transform="translate(1099.9998474121094 58.369103835884204) rotate(0 36.33332824707031 34.33332824707031)"><path d="M0 0 L72.67 0 L72.67 68.67 L0 68.67" stroke="none" stroke-width="0" fill="#ffdd63"></path><path d="M0 0 C18.75 0, 37.5 0, 72.67 0 M0 0 C15.27 0, 30.54 0, 72.67 0 M72.67 0 C72.67 22.94, 72.67 45.88, 72.67 68.67 M72.67 0 C72.67 18.26, 72.67 36.52, 72.67 68.67 M72.67 68.67 C47.68 68.67, 22.69 68.67, 0 68.67 M72.67 68.67 C53.21 68.67, 33.75 68.67, 0 68.67 M0 68.67 C0 52.19, 0 35.72, 0 0 M0 68.67 C0 43.95, 0 19.23, 0 0" stroke="#000000" stroke-width="1" fill="none"></path></g><g transform="translate(1129.8331756591797 190.4839085559889) rotate(0 6.5 11.5)"><text x="0" y="18" font-family="Arial, Segoe UI Emoji" font-size="20px" fill="#000000" text-anchor="start" style="white-space: pre;font-style: normal;" direction="ltr">0</text></g><g transform="translate(839.1665496826172 10) rotate(0 12 11.5)"><text x="0" y="18" font-family="Arial, Segoe UI Emoji" font-size="20px" fill="#000000" text-anchor="start" style="white-space: pre;font-style: normal;" direction="ltr">20</text></g><g transform="translate(693.8332366943359 190.4839085559889) rotate(0 6.5 11.5)"><text x="0" y="18" font-family="Arial, Segoe UI Emoji" font-size="20px" fill="#000000" text-anchor="start" style="white-space: pre;font-style: normal;" direction="ltr">6</text></g><g transform="translate(1129.8331756591797 10) rotate(0 12 11.5)"><text x="0" y="18" font-family="Arial, Segoe UI Emoji" font-size="20px" fill="#000000" text-anchor="start" style="white-space: pre;font-style: normal;" direction="ltr">16</text></g><g transform="translate(403.1666107177738 10) rotate(0 12 11.5)"><text x="0" y="18" font-family="Arial, Segoe UI Emoji" font-size="20px" fill="#000000" text-anchor="start" style="white-space: pre;font-style: normal;" direction="ltr">26</text></g><g transform="translate(1057.166519165039 190.4839085559889) rotate(0 6.5 11.5)"><text x="0" y="18" font-family="Arial, Segoe UI Emoji" font-size="20px" fill="#000000" text-anchor="start" style="white-space: pre;font-style: normal;" direction="ltr">1</text></g><g transform="translate(766.4998931884766 10) rotate(0 12 11.5)"><text x="0" y="18" font-family="Arial, Segoe UI Emoji" font-size="20px" fill="#000000" text-anchor="start" style="white-space: pre;font-style: normal;" direction="ltr">21</text></g><g transform="translate(621.1665802001953 190.4839085559889) rotate(0 6.5 11.5)"><text x="0" y="18" font-family="Arial, Segoe UI Emoji" font-size="20px" fill="#000000" text-anchor="start" style="white-space: pre;font-style: normal;" direction="ltr">7</text></g><g transform="translate(1057.166519165039 10) rotate(0 12 11.5)"><text x="0" y="18" font-family="Arial, Segoe UI Emoji" font-size="20px" fill="#000000" text-anchor="start" style="white-space: pre;font-style: normal;" direction="ltr">17</text></g><g transform="translate(330.49995422363315 10) rotate(0 12 11.5)"><text x="0" y="18" font-family="Arial, Segoe UI Emoji" font-size="20px" fill="#000000" text-anchor="start" style="white-space: pre;font-style: normal;" direction="ltr">27</text></g><g transform="translate(984.4998626708984 190.4839085559889) rotate(0 6.5 11.5)"><text x="0" y="18" font-family="Arial, Segoe UI Emoji" font-size="20px" fill="#000000" text-anchor="start" style="white-space: pre;font-style: normal;" direction="ltr">2</text></g><g transform="translate(256.83329772949253 190.4839085559889) rotate(0 12 11.5)"><text x="0" y="18" font-family="Arial, Segoe UI Emoji" font-size="20px" fill="#000000" text-anchor="start" style="white-space: pre;font-style: normal;" direction="ltr">12</text></g><g transform="translate(693.8332366943359 10) rotate(0 12 11.5)"><text x="0" y="18" font-family="Arial, Segoe UI Emoji" font-size="20px" fill="#000000" text-anchor="start" style="white-space: pre;font-style: normal;" direction="ltr">22</text></g><g transform="translate(548.4999237060547 190.4839085559889) rotate(0 6.5 11.5)"><text x="0" y="18" font-family="Arial, Segoe UI Emoji" font-size="20px" fill="#000000" text-anchor="start" style="white-space: pre;font-style: normal;" direction="ltr">8</text></g><g transform="translate(984.4998626708984 10) rotate(0 12 11.5)"><text x="0" y="18" font-family="Arial, Segoe UI Emoji" font-size="20px" fill="#000000" text-anchor="start" style="white-space: pre;font-style: normal;" direction="ltr">18</text></g><g transform="translate(257.83329772949253 10) rotate(0 12 11.5)"><text x="0" y="18" font-family="Arial, Segoe UI Emoji" font-size="20px" fill="#000000" text-anchor="start" style="white-space: pre;font-style: normal;" direction="ltr">28</text></g><g transform="translate(911.8332061767578 190.4839085559889) rotate(0 6.5 11.5)"><text x="0" y="18" font-family="Arial, Segoe UI Emoji" font-size="20px" fill="#000000" text-anchor="start" style="white-space: pre;font-style: normal;" direction="ltr">3</text></g><g transform="translate(184.1666412353519 190.4839085559889) rotate(0 12 11.5)"><text x="0" y="18" font-family="Arial, Segoe UI Emoji" font-size="20px" fill="#000000" text-anchor="start" style="white-space: pre;font-style: normal;" direction="ltr">13</text></g><g transform="translate(621.1665802001957 10) rotate(0 12.000000000000057 11.5)"><text x="0" y="18" font-family="Arial, Segoe UI Emoji" font-size="20px" fill="#000000" text-anchor="start" style="white-space: pre;font-style: normal;" direction="ltr">23</text></g><g transform="translate(475.83326721191406 190.4839085559889) rotate(0 6.5 11.5)"><text x="0" y="18" font-family="Arial, Segoe UI Emoji" font-size="20px" fill="#000000" text-anchor="start" style="white-space: pre;font-style: normal;" direction="ltr">9</text></g><g transform="translate(911.8332061767578 10) rotate(0 12 11.5)"><text x="0" y="18" font-family="Arial, Segoe UI Emoji" font-size="20px" fill="#000000" text-anchor="start" style="white-space: pre;font-style: normal;" direction="ltr">19</text></g><g transform="translate(185.1666412353519 10) rotate(0 12 11.5)"><text x="0" y="18" font-family="Arial, Segoe UI Emoji" font-size="20px" fill="#000000" text-anchor="start" style="white-space: pre;font-style: normal;" direction="ltr">29</text></g><g transform="translate(839.1665496826172 190.4839085559889) rotate(0 6.5 11.5)"><text x="0" y="18" font-family="Arial, Segoe UI Emoji" font-size="20px" fill="#000000" text-anchor="start" style="white-space: pre;font-style: normal;" direction="ltr">4</text></g><g transform="translate(111.49998474121128 190.4839085559889) rotate(0 12 11.5)"><text x="0" y="18" font-family="Arial, Segoe UI Emoji" font-size="20px" fill="#000000" text-anchor="start" style="white-space: pre;font-style: normal;" direction="ltr">14</text></g><g transform="translate(548.499923706055 10) rotate(0 12 11.5)"><text x="0" y="18" font-family="Arial, Segoe UI Emoji" font-size="20px" fill="#000000" text-anchor="start" style="white-space: pre;font-style: normal;" direction="ltr">24</text></g><g transform="translate(403.16661071777344 190.4839085559889) rotate(0 12 11.5)"><text x="0" y="18" font-family="Arial, Segoe UI Emoji" font-size="20px" fill="#000000" text-anchor="start" style="white-space: pre;font-style: normal;" direction="ltr">10</text></g><g transform="translate(112.49998474121128 10) rotate(0 12 11.5)"><text x="0" y="18" font-family="Arial, Segoe UI Emoji" font-size="20px" fill="#000000" text-anchor="start" style="white-space: pre;font-style: normal;" direction="ltr">30</text></g><g transform="translate(766.4998931884766 190.4839085559889) rotate(0 6.5 11.5)"><text x="0" y="18" font-family="Arial, Segoe UI Emoji" font-size="20px" fill="#000000" text-anchor="start" style="white-space: pre;font-style: normal;" direction="ltr">5</text></g><g transform="translate(38.833328247070654 190.4839085559889) rotate(0 12 11.5)"><text x="0" y="18" font-family="Arial, Segoe UI Emoji" font-size="20px" fill="#000000" text-anchor="start" style="white-space: pre;font-style: normal;" direction="ltr">15</text></g><g transform="translate(475.8332672119143 10) rotate(0 12 11.5)"><text x="0" y="18" font-family="Arial, Segoe UI Emoji" font-size="20px" fill="#000000" text-anchor="start" style="white-space: pre;font-style: normal;" direction="ltr">25</text></g><g transform="translate(325.4999542236328 190.4839085559889) rotate(0 11.5 11.5)"><text x="0" y="18" font-family="Arial, Segoe UI Emoji" font-size="20px" fill="#000000" text-anchor="start" style="white-space: pre;font-style: normal;" direction="ltr">11</text></g><g transform="translate(34.833328247070654 10) rotate(0 12 11.5)"><text x="0" y="18" font-family="Arial, Segoe UI Emoji" font-size="20px" fill="#000000" text-anchor="start" style="white-space: pre;font-style: normal;" direction="ltr">31</text></g><g transform="translate(90.49998474121094 237.40095671064094) rotate(0 28.5 23)"><text x="28.5" y="18" font-family="Arial, Segoe UI Emoji" font-size="20px" fill="#ffffff" text-anchor="middle" style="white-space: pre;font-style: normal;" direction="ltr">USAR</text><text x="28.5" y="41" font-family="Arial, Segoe UI Emoji" font-size="20px" fill="#ffffff" text-anchor="middle" style="white-space: pre;font-style: normal;" direction="ltr">T1EN</text></g><g transform="translate(242.3332977294922 237.40095671064094) rotate(0 22 23)"><text x="22" y="18" font-family="Arial, Segoe UI Emoji" font-size="20px" fill="#000000" text-anchor="middle" style="white-space: pre;font-style: normal;" direction="ltr">SPI1</text><text x="22" y="41" font-family="Arial, Segoe UI Emoji" font-size="20px" fill="#000000" text-anchor="middle" style="white-space: pre;font-style: normal;" direction="ltr">EN</text></g><g transform="translate(313.4999542236328 237.40095671064094) rotate(0 23.5 23)"><text x="23.5" y="18" font-family="Arial, Segoe UI Emoji" font-size="20px" fill="#000000" text-anchor="middle" style="white-space: pre;font-style: normal;" direction="ltr">TIM1</text><text x="23.5" y="41" font-family="Arial, Segoe UI Emoji" font-size="20px" fill="#000000" text-anchor="middle" style="white-space: pre;font-style: normal;" direction="ltr">EN</text></g><g transform="translate(382.66661071777344 237.40095671064094) rotate(0 27 23)"><text x="27" y="18" font-family="Arial, Segoe UI Emoji" font-size="20px" fill="#000000" text-anchor="middle" style="white-space: pre;font-style: normal;" direction="ltr">ADC2</text><text x="27" y="41" font-family="Arial, Segoe UI Emoji" font-size="20px" fill="#000000" text-anchor="middle" style="white-space: pre;font-style: normal;" direction="ltr">EN</text></g><g transform="translate(455.33326721191406 237.40095671064094) rotate(0 27 23)"><text x="27" y="18" font-family="Arial, Segoe UI Emoji" font-size="20px" fill="#000000" text-anchor="middle" style="white-space: pre;font-style: normal;" direction="ltr">ADC1</text><text x="27" y="41" font-family="Arial, Segoe UI Emoji" font-size="20px" fill="#000000" text-anchor="middle" style="white-space: pre;font-style: normal;" direction="ltr">EN</text></g><g transform="translate(675.8332366943359 237.40095671064094) rotate(0 24.5 23)"><text x="24.5" y="18" font-family="Arial, Segoe UI Emoji" font-size="20px" fill="#000000" text-anchor="middle" style="white-space: pre;font-style: normal;" direction="ltr">IOPE</text><text x="24.5" y="41" font-family="Arial, Segoe UI Emoji" font-size="20px" fill="#000000" text-anchor="middle" style="white-space: pre;font-style: normal;" direction="ltr">EN</text></g><g transform="translate(747.9998931884766 237.40095671064094) rotate(0 25 23)"><text x="25" y="18" font-family="Arial, Segoe UI Emoji" font-size="20px" fill="#000000" text-anchor="middle" style="white-space: pre;font-style: normal;" direction="ltr">IOPD</text><text x="25" y="41" font-family="Arial, Segoe UI Emoji" font-size="20px" fill="#000000" text-anchor="middle" style="white-space: pre;font-style: normal;" direction="ltr">EN</text></g><g transform="translate(820.6665496826172 237.40095671064094) rotate(0 25 23)"><text x="25" y="18" font-family="Arial, Segoe UI Emoji" font-size="20px" fill="#000000" text-anchor="middle" style="white-space: pre;font-style: normal;" direction="ltr">IOPC</text><text x="25" y="41" font-family="Arial, Segoe UI Emoji" font-size="20px" fill="#000000" text-anchor="middle" style="white-space: pre;font-style: normal;" direction="ltr">EN</text></g><g transform="translate(893.8332061767578 237.40095671064094) rotate(0 24.5 23)"><text x="24.5" y="18" font-family="Arial, Segoe UI Emoji" font-size="20px" fill="#000000" text-anchor="middle" style="white-space: pre;font-style: normal;" direction="ltr">IOPB</text><text x="24.5" y="41" font-family="Arial, Segoe UI Emoji" font-size="20px" fill="#000000" text-anchor="middle" style="white-space: pre;font-style: normal;" direction="ltr">EN</text></g><g transform="translate(967.4998626708984 237.40095671064094) rotate(0 23.5 23)"><text x="23.5" y="18" font-family="Arial, Segoe UI Emoji" font-size="20px" fill="#000000" text-anchor="middle" style="white-space: pre;font-style: normal;" direction="ltr">IOPA</text><text x="23.5" y="41" font-family="Arial, Segoe UI Emoji" font-size="20px" fill="#000000" text-anchor="middle" style="white-space: pre;font-style: normal;" direction="ltr">EN</text></g><g transform="translate(1114.8331756591797 237.40095671064094) rotate(0 21.5 23)"><text x="21.5" y="18" font-family="Arial, Segoe UI Emoji" font-size="20px" fill="#000000" text-anchor="middle" style="white-space: pre;font-style: normal;" direction="ltr">AFI0</text><text x="21.5" y="41" font-family="Arial, Segoe UI Emoji" font-size="20px" fill="#000000" text-anchor="middle" style="white-space: pre;font-style: normal;" direction="ltr">EN</text></g><g transform="translate(910.66650390625 372.6788514266607) rotate(0 131 13.5)"><text x="0" y="21" font-family="Arial, Segoe UI Emoji" font-size="20px" fill="#353a3f" text-anchor="start" style="white-space: pre;font-style: normal;" direction="ltr">黄色是保留位（未使用的位）</text></g><g transform="translate(107.49998474121094 314.27406413914923) rotate(0 11.5 11.5)"><text x="0" y="18" font-family="Arial, Segoe UI Emoji" font-size="20px" fill="#000000" text-anchor="start" style="white-space: pre;font-style: normal;" direction="ltr">rw</text></g><g transform="translate(252.8332977294922 314.27406413914923) rotate(0 11.5 11.5)"><text x="0" y="18" font-family="Arial, Segoe UI Emoji" font-size="20px" fill="#000000" text-anchor="start" style="white-space: pre;font-style: normal;" direction="ltr">rw</text></g><g transform="translate(325.4999542236328 314.27406413914923) rotate(0 11.5 11.5)"><text x="0" y="18" font-family="Arial, Segoe UI Emoji" font-size="20px" fill="#000000" text-anchor="start" style="white-space: pre;font-style: normal;" direction="ltr">rw</text></g><g transform="translate(398.16661071777344 314.27406413914923) rotate(0 11.5 11.5)"><text x="0" y="18" font-family="Arial, Segoe UI Emoji" font-size="20px" fill="#000000" text-anchor="start" style="white-space: pre;font-style: normal;" direction="ltr">rw</text></g><g transform="translate(470.83326721191406 314.27406413914923) rotate(0 11.5 11.5)"><text x="0" y="18" font-family="Arial, Segoe UI Emoji" font-size="20px" fill="#000000" text-anchor="start" style="white-space: pre;font-style: normal;" direction="ltr">rw</text></g><g transform="translate(688.8332366943359 314.27406413914923) rotate(0 11.5 11.5)"><text x="0" y="18" font-family="Arial, Segoe UI Emoji" font-size="20px" fill="#000000" text-anchor="start" style="white-space: pre;font-style: normal;" direction="ltr">rw</text></g><g transform="translate(762.4998931884766 314.27406413914923) rotate(0 11.5 11.5)"><text x="0" y="18" font-family="Arial, Segoe UI Emoji" font-size="20px" fill="#000000" text-anchor="start" style="white-space: pre;font-style: normal;" direction="ltr">rw</text></g><g transform="translate(834.1665496826172 315.1534797780638) rotate(0 11.5 11.5)"><text x="0" y="18" font-family="Arial, Segoe UI Emoji" font-size="20px" fill="#000000" text-anchor="start" style="white-space: pre;font-style: normal;" direction="ltr">rw</text></g><g transform="translate(906.8332061767578 314.27406413914923) rotate(0 11.5 11.5)"><text x="0" y="18" font-family="Arial, Segoe UI Emoji" font-size="20px" fill="#000000" text-anchor="start" style="white-space: pre;font-style: normal;" direction="ltr">rw</text></g><g transform="translate(979.4998626708984 314.27406413914923) rotate(0 11.5 11.5)"><text x="0" y="18" font-family="Arial, Segoe UI Emoji" font-size="20px" fill="#000000" text-anchor="start" style="white-space: pre;font-style: normal;" direction="ltr">rw</text></g><g transform="translate(1124.8331756591797 314.27406413914923) rotate(0 11.5 11.5)"><text x="0" y="18" font-family="Arial, Segoe UI Emoji" font-size="20px" fill="#000000" text-anchor="start" style="white-space: pre;font-style: normal;" direction="ltr">rw</text></g><g transform="translate(1004.8331756591797 413.6638687622749) rotate(0 74.5 13.5)"><text x="0" y="21" font-family="Arial, Segoe UI Emoji" font-size="20px" fill="#353a3f" text-anchor="start" style="white-space: pre;font-style: normal;" direction="ltr">rw 表示可读可写</text></g></svg>