<svg version="1.1" xmlns="http://www.w3.org/2000/svg" viewBox="0 0 505.3334503173828 442.6667175292968" width="505.3334503173828" height="442.6667175292968">
  <g stroke-linecap="round" transform="translate(146.3334503173828 37) rotate(0 110 18)"><path d="M9 0 L211 0 L214.94 0.56 L217.75 2.25 L219.44 5.06 L220 27 L219.44 30.94 L217.75 33.75 L214.94 35.44 L211 36 L9 36 L5.06 35.44 L2.25 33.75 L0.56 30.94 L0 27 L0.56 5.06 L2.25 2.25 L5.06 0.56 L9 0" stroke="none" stroke-width="0" fill="#6bbc63"></path><path d="M9 0 M9 0 C86.24 0, 163.49 0, 211 0 M9 0 C80.36 0, 151.73 0, 211 0 M211 0 C217 0, 220 3, 220 9 M211 0 C217 0, 220 3, 220 9 M220 9 C220 15.62, 220 22.25, 220 27 M220 9 C220 15.38, 220 21.76, 220 27 M220 27 C220 33, 217 36, 211 36 M220 27 C220 33, 217 36, 211 36 M211 36 C160.56 36, 110.12 36, 9 36 M211 36 C152.71 36, 94.41 36, 9 36 M9 36 C3 36, 0 33, 0 27 M9 36 C3 36, 0 33, 0 27 M0 27 C0 23.08, 0 19.16, 0 9 M0 27 C0 20.55, 0 14.1, 0 9 M0 9 C0 3, 3 0, 9 0 M0 9 C0 3, 3 0, 9 0" stroke="transparent" stroke-width="1" fill="none"></path></g><g stroke-linecap="round" transform="translate(146.3334503173828 177.33334350585938) rotate(0 103.5 18)"><path d="M9 0 L198 0 L201.94 0.56 L204.75 2.25 L206.44 5.06 L207 9 L206.44 30.94 L204.75 33.75 L201.94 35.44 L198 36 L9 36 L5.06 35.44 L2.25 33.75 L0.56 30.94 L0 9 L0.56 5.06 L2.25 2.25 L5.06 0.56 L9 0" stroke="none" stroke-width="0" fill="#6bbc63"></path><path d="M9 0 M9 0 C70.06 0, 131.11 0, 198 0 M9 0 C62 0, 115.01 0, 198 0 M198 0 C204 0, 207 3, 207 9 M198 0 C204 0, 207 3, 207 9 M207 9 C207 14.63, 207 20.27, 207 27 M207 9 C207 15.92, 207 22.84, 207 27 M207 27 C207 33, 204 36, 198 36 M207 27 C207 33, 204 36, 198 36 M198 36 C135.21 36, 72.42 36, 9 36 M198 36 C142.36 36, 86.72 36, 9 36 M9 36 C3 36, 0 33, 0 27 M9 36 C3 36, 0 33, 0 27 M0 27 C0 21.16, 0 15.31, 0 9 M0 27 C0 20.59, 0 14.19, 0 9 M0 9 C0 3, 3 0, 9 0 M0 9 C0 3, 3 0, 9 0" stroke="transparent" stroke-width="1" fill="none"></path></g><g stroke-linecap="round" transform="translate(350.66676330566406 177.33334350585938) rotate(0 27.5 18)"><path d="M9 0 L46 0 L49.94 0.56 L52.75 2.25 L54.44 5.06 L55 9 L55 27 L54.44 30.94 L52.75 33.75 L49.94 35.44 L46 36 L9 36 L5.06 35.44 L2.25 33.75 L0.56 30.94 L0 27 L0.56 5.06 L2.25 2.25 L5.06 0.56 L9 0" stroke="none" stroke-width="0" fill="#eeb23f"></path><path d="M9 0 M9 0 C21.36 0, 33.72 0, 46 0 M9 0 C17.89 0, 26.79 0, 46 0 M46 0 C52 0, 55 3, 55 9 M46 0 C52 0, 55 3, 55 9 M55 9 C55 13.49, 55 17.99, 55 27 M55 9 C55 15.63, 55 22.25, 55 27 M55 27 C55 33, 52 36, 46 36 M55 27 C55 33, 52 36, 46 36 M46 36 C32.5 36, 19 36, 9 36 M46 36 C35.72 36, 25.45 36, 9 36 M9 36 C3 36, 0 33, 0 27 M9 36 C3 36, 0 33, 0 27 M0 27 C0 23.22, 0 19.44, 0 9 M0 27 C0 21.59, 0 16.17, 0 9 M0 9 C0 3, 3 0, 9 0 M0 9 C0 3, 3 0, 9 0" stroke="transparent" stroke-width="1" fill="none"></path></g><g stroke-linecap="round" transform="translate(189.0000762939453 223.33334350585938) rotate(0 113 20)"><path d="M10 0 L216 0 L220.38 0.63 L223.5 2.5 L225.38 5.63 L226 10 L226 30 L225.38 34.38 L223.5 37.5 L220.38 39.38 L216 40 L10 40 L5.63 39.38 L2.5 37.5 L0.62 34.38 L0 30 L0 10 L0.63 5.63 L2.5 2.5 L5.63 0.62 L10 0" stroke="none" stroke-width="0" fill="#478bdf"></path><path d="M10 0 M10 0 C67.69 0, 125.38 0, 216 0 M10 0 C63.2 0, 116.4 0, 216 0 M216 0 C222.67 0, 226 3.33, 226 10 M216 0 C222.67 0, 226 3.33, 226 10 M226 10 C226 14.18, 226 18.37, 226 30 M226 10 C226 15.89, 226 21.79, 226 30 M226 30 C226 36.67, 222.67 40, 216 40 M226 30 C226 36.67, 222.67 40, 216 40 M216 40 C170.86 40, 125.72 40, 10 40 M216 40 C152.67 40, 89.34 40, 10 40 M10 40 C3.33 40, 0 36.67, 0 30 M10 40 C3.33 40, 0 36.67, 0 30 M0 30 C0 22.32, 0 14.64, 0 10 M0 30 C0 24.44, 0 18.89, 0 10 M0 10 C0 3.33, 3.33 0, 10 0 M0 10 C0 3.33, 3.33 0, 10 0" stroke="transparent" stroke-width="1" fill="none"></path></g><g stroke-linecap="round" transform="translate(145.0000762939453 392.6667175292968) rotate(0 135 20)"><path d="M10 0 L260 0 L264.38 0.63 L267.5 2.5 L269.38 5.63 L270 10 L270 30 L269.38 34.38 L267.5 37.5 L264.38 39.38 L260 40 L10 40 L5.63 39.38 L2.5 37.5 L0.62 34.38 L0 30 L0 10 L0.63 5.63 L2.5 2.5 L5.63 0.62 L10 0" stroke="none" stroke-width="0" fill="#53a7bc"></path><path d="M10 0 M10 0 C76.78 0, 143.56 0, 260 0 M10 0 C69.43 0, 128.86 0, 260 0 M260 0 C266.67 0, 270 3.33, 270 10 M260 0 C266.67 0, 270 3.33, 270 10 M270 10 C270 14.46, 270 18.93, 270 30 M270 10 C270 15.54, 270 21.08, 270 30 M270 30 C270 36.67, 266.67 40, 260 40 M270 30 C270 36.67, 266.67 40, 260 40 M260 40 C207.64 40, 155.29 40, 10 40 M260 40 C192.95 40, 125.9 40, 10 40 M10 40 C3.33 40, 0 36.67, 0 30 M10 40 C3.33 40, 0 36.67, 0 30 M0 30 C0 25.94, 0 21.89, 0 10 M0 30 C0 24.15, 0 18.3, 0 10 M0 10 C0 3.33, 3.33 0, 10 0 M0 10 C0 3.33, 3.33 0, 10 0" stroke="transparent" stroke-width="1" fill="none"></path></g><g transform="translate(157.8334503173828 43.5) rotate(0 98.5 11.5)"><text x="98.5" y="18" font-family="Helvetica, Segoe UI Emoji" font-size="20px" fill="#ffffff" text-anchor="middle" style="white-space: pre;" direction="ltr">0010 0000 0000 0000</text></g><g transform="translate(150.8334503173828 183.83334350585938) rotate(0 98.5 11.5)"><text x="98.5" y="18" font-family="Helvetica, Segoe UI Emoji" font-size="20px" fill="#ffffff" text-anchor="middle" style="white-space: pre;" direction="ltr">0010 0000 0000 0000</text></g><g transform="translate(354.66676330566406 183.83334350585938) rotate(0 23.5 11.5)"><text x="23.5" y="18" font-family="Helvetica, Segoe UI Emoji" font-size="20px" fill="#ffffff" text-anchor="middle" style="white-space: pre;" direction="ltr">0000</text></g><g transform="translate(204.5000762939453 231.83334350585938) rotate(0 97.5 11.5)"><text x="97.5" y="18" font-family="Helvetica, Segoe UI Emoji" font-size="20px" fill="#ffffff" text-anchor="middle" style="white-space: pre;" direction="ltr">0011 0000 0000 0000</text></g><g transform="translate(157.5000762939453 401.1667175292968) rotate(0 122.5 11.5)"><text x="122.5" y="18" font-family="Helvetica, Segoe UI Emoji" font-size="20px" fill="#ffffff" text-anchor="middle" style="white-space: pre;" direction="ltr">0010 0011 0000 0000 0000</text></g><g stroke-linecap="round"><g transform="translate(255.4009613916735 81.09090909090907) rotate(0 0.3142675480353887 43.74243441495031)"><path d="M0 0 C0.1 14.58, 0.52 72.9, 0.63 87.48 M0 0 C0.1 14.58, 0.52 72.9, 0.63 87.48" stroke="#e55f59" stroke-width="4" fill="none"></path></g><g transform="translate(255.4009613916735 81.09090909090907) rotate(0 0.3142675480353887 43.74243441495031)"><path d="M0.63 87.48 L-5.81 73.94 L6.87 73.85 L0.63 87.48" stroke="none" stroke-width="0" fill="#e55f59" fill-rule="evenodd"></path><path d="M0.63 87.48 C-1.33 83.36, -3.29 79.23, -5.81 73.94 M0.63 87.48 C-1.28 83.46, -3.19 79.44, -5.81 73.94 M-5.81 73.94 C-2.43 73.91, 0.94 73.89, 6.87 73.85 M-5.81 73.94 C-1.71 73.91, 2.39 73.88, 6.87 73.85 M6.87 73.85 C5.35 77.17, 3.83 80.49, 0.63 87.48 M6.87 73.85 C4.7 78.58, 2.53 83.32, 0.63 87.48 M0.63 87.48 C0.63 87.48, 0.63 87.48, 0.63 87.48 M0.63 87.48 C0.63 87.48, 0.63 87.48, 0.63 87.48" stroke="#e55f59" stroke-width="4" fill="none"></path></g></g><g stroke-linecap="round" transform="translate(216.8334503173828 101.33331298828125) rotate(0 39.5 16.5)"><path d="M8.25 0 L74.36 0.52 L76.94 2.06 L78.48 4.64 L79 8.25 L78.48 28.36 L76.94 30.94 L74.36 32.48 L70.75 33 L4.64 32.48 L2.06 30.94 L0.52 28.36 L0 8.25 L0.52 4.64 L2.06 2.06 L4.64 0.52 L8.25 0" stroke="none" stroke-width="0" fill="#e55f59"></path><path d="M8.25 0 M8.25 0 C22.24 0, 36.23 0, 70.75 0 M8.25 0 C28.04 0, 47.83 0, 70.75 0 M70.75 0 C76.25 0, 79 2.75, 79 8.25 M70.75 0 C76.25 0, 79 2.75, 79 8.25 M79 8.25 C79 13.53, 79 18.82, 79 24.75 M79 8.25 C79 12.38, 79 16.5, 79 24.75 M79 24.75 C79 30.25, 76.25 33, 70.75 33 M79 24.75 C79 30.25, 76.25 33, 70.75 33 M70.75 33 C56.86 33, 42.98 33, 8.25 33 M70.75 33 C54.83 33, 38.9 33, 8.25 33 M8.25 33 C2.75 33, 0 30.25, 0 24.75 M8.25 33 C2.75 33, 0 30.25, 0 24.75 M0 24.75 C0 19.96, 0 15.17, 0 8.25 M0 24.75 C0 18.39, 0 12.04, 0 8.25 M0 8.25 C0 2.75, 2.75 0, 8.25 0 M0 8.25 C0 2.75, 2.75 0, 8.25 0" stroke="transparent" stroke-width="4" fill="none"></path></g><g transform="translate(225.3334503173828 106.33331298828125) rotate(0 31 11.5)"><text x="31" y="18" font-family="Helvetica, Segoe UI Emoji" font-size="20px" fill="#ffffff" text-anchor="middle" style="white-space: pre;" direction="ltr">移位器</text></g><g stroke-linecap="round"><g transform="translate(178.00013732910156 221.66665649414062) rotate(0 0.2217347116172732 43.000030517578125)"><path d="M0 0 C0 5.94, -0.08 21.33, 0 35.67 C0.08 50, 0.4 77.61, 0.48 86 M0 0 C0 5.94, -0.08 21.33, 0 35.67 C0.08 50, 0.4 77.61, 0.48 86" stroke="#e55f59" stroke-width="4" fill="none"></path></g><g transform="translate(178.00013732910156 221.66665649414062) rotate(0 0.2217347116172732 43.000030517578125)"><path d="M0.48 86 L-6 72.47 L6.68 72.34 L0.48 86" stroke="none" stroke-width="0" fill="#e55f59" fill-rule="evenodd"></path><path d="M0.48 86 C-1.28 82.34, -3.03 78.67, -6 72.47 M0.48 86 C-1.15 82.59, -2.79 79.18, -6 72.47 M-6 72.47 C-3.26 72.44, -0.53 72.42, 6.68 72.34 M-6 72.47 C-2.91 72.44, 0.18 72.41, 6.68 72.34 M6.68 72.34 C4.62 76.87, 2.57 81.39, 0.48 86 M6.68 72.34 C5.39 75.18, 4.1 78.02, 0.48 86 M0.48 86 C0.48 86, 0.48 86, 0.48 86 M0.48 86 C0.48 86, 0.48 86, 0.48 86" stroke="#e55f59" stroke-width="4" fill="none"></path></g></g><g stroke-linecap="round"><g transform="translate(302.0000762939453 269.3333435058594) rotate(0 0 19.333343505859375)"><path d="M0 0 C0 2.72, 0 9.89, 0 16.33 C0 22.78, 0 34.94, 0 38.67 M0 0 C0 2.72, 0 9.89, 0 16.33 C0 22.78, 0 34.94, 0 38.67" stroke="#e55f59" stroke-width="4" fill="none"></path></g><g transform="translate(302.0000762939453 269.3333435058594) rotate(0 0 19.333343505859375)"><path d="M0 38.67 L-6.34 25.07 L6.34 25.07 L0 38.67" stroke="none" stroke-width="0" fill="#e55f59" fill-rule="evenodd"></path><path d="M0 38.67 C-2.49 33.33, -4.98 28, -6.34 25.07 M0 38.67 C-1.46 35.53, -2.92 32.4, -6.34 25.07 M-6.34 25.07 C-3.55 25.07, -0.75 25.07, 6.34 25.07 M-6.34 25.07 C-1.77 25.07, 2.8 25.07, 6.34 25.07 M6.34 25.07 C4.21 29.65, 2.07 34.22, 0 38.67 M6.34 25.07 C3.88 30.35, 1.42 35.62, 0 38.67 M0 38.67 C0 38.67, 0 38.67, 0 38.67 M0 38.67 C0 38.67, 0 38.67, 0 38.67" stroke="#e55f59" stroke-width="4" fill="none"></path></g></g><g stroke-linecap="round"><g transform="translate(280.66676330566406 366.6665649414062) rotate(0 -0.35803561740453915 8.283995300896947)"><path d="M0 0 C-0.11 -0.39, -0.56 -5.67, -0.67 -2.33 C-0.78 1, -0.67 16.28, -0.67 20 M0 0 C-0.11 -0.39, -0.56 -5.67, -0.67 -2.33 C-0.78 1, -0.67 16.28, -0.67 20" stroke="#e55f59" stroke-width="4" fill="none"></path></g><g transform="translate(280.66676330566406 366.6665649414062) rotate(0 -0.35803561740453915 8.283995300896947)"><path d="M-0.67 20 L-5.94 8.8 L4.52 8.76 L-0.67 20" stroke="none" stroke-width="0" fill="#e55f59" fill-rule="evenodd"></path><path d="M-0.67 20 C-2.53 16.05, -4.39 12.1, -5.94 8.8 M-0.67 20 C-2.32 16.49, -3.97 12.97, -5.94 8.8 M-5.94 8.8 C-3.63 8.79, -1.33 8.78, 4.52 8.76 M-5.94 8.8 C-3.65 8.79, -1.37 8.78, 4.52 8.76 M4.52 8.76 C3.11 11.82, 1.7 14.87, -0.67 20 M4.52 8.76 C3.07 11.91, 1.62 15.06, -0.67 20 M-0.67 20 C-0.67 20, -0.67 20, -0.67 20 M-0.67 20 C-0.67 20, -0.67 20, -0.67 20" stroke="#e55f59" stroke-width="4" fill="none"></path></g></g><g stroke-linecap="round" transform="translate(146.3334503173828 320.3332214355468) rotate(0 134.33331298828125 23)"><path d="M11.5 0 L259.86 0.18 L264.17 1.62 L265.79 2.88 L267.95 6.47 L268.67 11.5 L268.49 37.2 L265.79 43.13 L262.2 45.28 L257.17 46 L8.8 45.82 L2.87 43.13 L0.72 39.53 L0 34.5 L0 11.5 L0.72 6.47 L2.88 2.87 L6.47 0.72 L11.5 0" stroke="none" stroke-width="0" fill="#e55f59"></path><path d="M11.5 0 M11.5 0 C69.71 0, 127.91 0, 257.17 0 M11.5 0 C64.63 0, 117.76 0, 257.17 0 M257.17 0 C264.83 0, 268.67 3.83, 268.67 11.5 M257.17 0 C264.83 0, 268.67 3.83, 268.67 11.5 M268.67 11.5 C268.67 20.25, 268.67 29.01, 268.67 34.5 M268.67 11.5 C268.67 20.43, 268.67 29.35, 268.67 34.5 M268.67 34.5 C268.67 42.17, 264.83 46, 257.17 46 M268.67 34.5 C268.67 42.17, 264.83 46, 257.17 46 M257.17 46 C184.45 46, 111.72 46, 11.5 46 M257.17 46 C165.08 46, 72.99 46, 11.5 46 M11.5 46 C3.83 46, 0 42.17, 0 34.5 M11.5 46 C3.83 46, 0 42.17, 0 34.5 M0 34.5 C0 28.47, 0 22.43, 0 11.5 M0 34.5 C0 25.96, 0 17.42, 0 11.5 M0 11.5 C0 3.83, 3.83 0, 11.5 0 M0 11.5 C0 3.83, 3.83 0, 11.5 0" stroke="#e55f59" stroke-width="4" fill="none"></path></g><g transform="translate(229.66676330566406 331.8332214355468) rotate(0 51 11.5)"><text x="51" y="18" font-family="Helvetica, Segoe UI Emoji" font-size="20px" fill="#ffffff" text-anchor="middle" style="white-space: pre;" direction="ltr">地址加法器</text></g><g transform="translate(435.5000762939453 43.5) rotate(0 23.5 11.5)"><text x="23.5" y="18" font-family="Helvetica, Segoe UI Emoji" font-size="20px" fill="#6bbc63" text-anchor="middle" style="white-space: pre;" direction="ltr">2000</text></g><g transform="translate(435.5000762939453 231.16671752929688) rotate(0 23.5 11.5)"><text x="23.5" y="18" font-family="Helvetica, Segoe UI Emoji" font-size="20px" fill="#478bdf" text-anchor="middle" style="white-space: pre;" direction="ltr">3000</text></g><g transform="translate(430.5000762939453 401.1667175292968) rotate(0 29 11.5)"><text x="29" y="18" font-family="Helvetica, Segoe UI Emoji" font-size="20px" fill="#53a7bc" text-anchor="middle" style="white-space: pre;" direction="ltr">23000</text></g><g transform="translate(430.5000762939453 183.83334350585938) rotate(0 29 11.5)"><text x="29" y="18" font-family="Helvetica, Segoe UI Emoji" font-size="20px" fill="#6bbc63" text-anchor="middle" style="white-space: pre;" direction="ltr">2000  </text></g><g stroke-linecap="round" transform="translate(423.3334503173828 37) rotate(0 36 197.66670227050773)"><path d="M0 0 C23.76 0, 47.51 0, 72 0 M72 0 C72 95.94, 72 191.87, 72 395.33 M72 395.33 C53.57 395.33, 35.15 395.33, 0 395.33 M0 395.33 C0 255.73, 0 116.12, 0 0" stroke="#717273" stroke-width="2.5" fill="none" stroke-dasharray="8 10"></path></g><g stroke-linecap="round"><g transform="translate(459.0158289576434 73) rotate(0 0.0036786291220778367 51)"><path d="M0 0 C0 17, 0.01 85, 0.01 102 M0 0 C0 17, 0.01 85, 0.01 102" stroke="#717273" stroke-width="2" fill="none"></path></g><g transform="translate(459.0158289576434 73) rotate(0 0.0036786291220778367 51)"><path d="M0.01 102 L-6.33 88.41 L6.35 88.4 L0.01 102" stroke="none" stroke-width="0" fill="#717273" fill-rule="evenodd"></path><path d="M0.01 102 C-1.92 97.86, -3.85 93.73, -6.33 88.41 M0.01 102 C-1.63 98.49, -3.27 94.98, -6.33 88.41 M-6.33 88.41 C-2.29 88.41, 1.75 88.41, 6.35 88.4 M-6.33 88.41 C-1.95 88.41, 2.43 88.41, 6.35 88.4 M6.35 88.4 C3.95 93.54, 1.56 98.67, 0.01 102 M6.35 88.4 C4.39 92.59, 2.44 96.78, 0.01 102 M0.01 102 C0.01 102, 0.01 102, 0.01 102 M0.01 102 C0.01 102, 0.01 102, 0.01 102" stroke="#717273" stroke-width="2" fill="none"></path></g></g><g stroke-linecap="round"><g transform="translate(459.0140112799313 263.3334350585937) rotate(0 0.004608254697131997 64.66664123535156)"><path d="M0 0 C0 21.56, 0.01 107.78, 0.01 129.33 M0 0 C0 21.56, 0.01 107.78, 0.01 129.33" stroke="#717273" stroke-width="2" fill="none"></path></g><g transform="translate(459.0140112799313 263.3334350585937) rotate(0 0.004608254697131997 64.66664123535156)"><path d="M0.01 129.33 L-6.33 115.74 L6.35 115.74 L0.01 129.33" stroke="none" stroke-width="0" fill="#717273" fill-rule="evenodd"></path><path d="M0.01 129.33 C-1.55 126, -3.1 122.66, -6.33 115.74 M0.01 129.33 C-1.47 126.16, -2.95 122.98, -6.33 115.74 M-6.33 115.74 C-2.86 115.74, 0.61 115.74, 6.35 115.74 M-6.33 115.74 C-2.41 115.74, 1.52 115.74, 6.35 115.74 M6.35 115.74 C3.9 121, 1.45 126.25, 0.01 129.33 M6.35 115.74 C4.67 119.33, 3 122.92, 0.01 129.33 M0.01 129.33 C0.01 129.33, 0.01 129.33, 0.01 129.33 M0.01 129.33 C0.01 129.33, 0.01 129.33, 0.01 129.33" stroke="#717273" stroke-width="2" fill="none"></path></g></g><g transform="translate(452.0000762939453 208.83334350585938) rotate(0 7 11.5)"><text x="7" y="18" font-family="Helvetica, Segoe UI Emoji" font-size="20px" fill="#e55f59" text-anchor="middle" style="white-space: pre;" direction="ltr">+</text></g><g transform="translate(474.83338928222656 183.83334350585938) rotate(0 6.5 11.5)"><text x="6.500000000000001" y="18.000000000000004" font-family="Helvetica, Segoe UI Emoji" font-size="20.000000000000004px" fill="#eeb23f" text-anchor="middle" style="white-space: pre;" direction="ltr">0</text></g><g transform="translate(436.0000762939453 10) rotate(0 21.5 11.5)"><text x="21.5" y="18" font-family="Helvetica, Segoe UI Emoji" font-size="20px" fill="#717273" text-anchor="middle" style="white-space: pre;" direction="ltr">HEX</text></g><g stroke-linecap="round" transform="translate(458.0000762939453 88.83331298828125) rotate(0 15.5 28)"><path d="M0 0 C9.01 0, 18.02 0, 31 0 M0 0 C8.45 0, 16.91 0, 31 0 M31 0 C31 21.19, 31 42.37, 31 56 M31 0 C31 15.57, 31 31.15, 31 56 M31 56 C20.9 56, 10.8 56, 0 56 M31 56 C22.45 56, 13.9 56, 0 56 M0 56 C0 41.43, 0 26.86, 0 0 M0 56 C0 41.62, 0 27.24, 0 0" stroke="transparent" stroke-width="2" fill="none"></path></g><g transform="translate(462.5000762939453 93.83331298828125) rotate(0 11 23)"><text x="11" y="18" font-family="Helvetica, Segoe UI Emoji" font-size="20px" fill="#e55f59" text-anchor="middle" style="white-space: pre;" direction="ltr">移</text><text x="11" y="41" font-family="Helvetica, Segoe UI Emoji" font-size="20px" fill="#e55f59" text-anchor="middle" style="white-space: pre;" direction="ltr">位</text></g><g stroke-linecap="round" transform="translate(10 333.6667175292968) rotate(0 16.333343505859375 6.666656494140625)"><path d="M3.33 0 L30.79 0.21 L32.46 1.87 L32.46 11.46 L30.79 13.12 L29.33 13.33 L1.87 13.12 L0.21 11.46 L0 3.33 L0.83 0.83 L3.33 0" stroke="none" stroke-width="0" fill="#6bbc63"></path><path d="M3.33 0 M3.33 0 C10.51 0, 17.68 0, 29.33 0 M3.33 0 C8.63 0, 13.93 0, 29.33 0 M29.33 0 C31.56 0, 32.67 1.11, 32.67 3.33 M29.33 0 C31.56 0, 32.67 1.11, 32.67 3.33 M32.67 3.33 C32.67 5.46, 32.67 7.59, 32.67 10 M32.67 3.33 C32.67 4.73, 32.67 6.12, 32.67 10 M32.67 10 C32.67 12.22, 31.56 13.33, 29.33 13.33 M32.67 10 C32.67 12.22, 31.56 13.33, 29.33 13.33 M29.33 13.33 C22.51 13.33, 15.69 13.33, 3.33 13.33 M29.33 13.33 C23.65 13.33, 17.97 13.33, 3.33 13.33 M3.33 13.33 C1.11 13.33, 0 12.22, 0 10 M3.33 13.33 C1.11 13.33, 0 12.22, 0 10 M0 10 C0 7.93, 0 5.86, 0 3.33 M0 10 C0 7.45, 0 4.9, 0 3.33 M0 3.33 C0 1.11, 1.11 0, 3.33 0 M0 3.33 C0 1.11, 1.11 0, 3.33 0" stroke="transparent" stroke-width="2" fill="none"></path></g><g stroke-linecap="round" transform="translate(10 359.0000915527343) rotate(0 16.333343505859375 6.666656494140625)"><path d="M3.33 0 L30.79 0.21 L32.46 1.87 L32.46 11.46 L30.79 13.12 L29.33 13.33 L1.87 13.12 L0.21 11.46 L0 3.33 L0.83 0.83 L3.33 0" stroke="none" stroke-width="0" fill="#478bdf"></path><path d="M3.33 0 M3.33 0 C12.06 0, 20.78 0, 29.33 0 M3.33 0 C13.38 0, 23.42 0, 29.33 0 M29.33 0 C31.56 0, 32.67 1.11, 32.67 3.33 M29.33 0 C31.56 0, 32.67 1.11, 32.67 3.33 M32.67 3.33 C32.67 5.98, 32.67 8.62, 32.67 10 M32.67 3.33 C32.67 5.68, 32.67 8.02, 32.67 10 M32.67 10 C32.67 12.22, 31.56 13.33, 29.33 13.33 M32.67 10 C32.67 12.22, 31.56 13.33, 29.33 13.33 M29.33 13.33 C22.28 13.33, 15.22 13.33, 3.33 13.33 M29.33 13.33 C18.98 13.33, 8.64 13.33, 3.33 13.33 M3.33 13.33 C1.11 13.33, 0 12.22, 0 10 M3.33 13.33 C1.11 13.33, 0 12.22, 0 10 M0 10 C0 8.33, 0 6.65, 0 3.33 M0 10 C0 8.56, 0 7.12, 0 3.33 M0 3.33 C0 1.11, 1.11 0, 3.33 0 M0 3.33 C0 1.11, 1.11 0, 3.33 0" stroke="transparent" stroke-width="2" fill="none"></path></g><g stroke-linecap="round" transform="translate(10 384.66674804687494) rotate(0 16.333343505859375 6.666656494140625)"><path d="M3.33 0 L30.79 0.21 L32.46 1.87 L32.46 11.46 L30.79 13.12 L29.33 13.33 L1.87 13.12 L0.21 11.46 L0 3.33 L0.83 0.83 L3.33 0" stroke="none" stroke-width="0" fill="#eeb23f"></path><path d="M3.33 0 M3.33 0 C13.06 0, 22.78 0, 29.33 0 M3.33 0 C12.85 0, 22.36 0, 29.33 0 M29.33 0 C31.56 0, 32.67 1.11, 32.67 3.33 M29.33 0 C31.56 0, 32.67 1.11, 32.67 3.33 M32.67 3.33 C32.67 5.1, 32.67 6.86, 32.67 10 M32.67 3.33 C32.67 5.84, 32.67 8.34, 32.67 10 M32.67 10 C32.67 12.22, 31.56 13.33, 29.33 13.33 M32.67 10 C32.67 12.22, 31.56 13.33, 29.33 13.33 M29.33 13.33 C22.21 13.33, 15.1 13.33, 3.33 13.33 M29.33 13.33 C22 13.33, 14.67 13.33, 3.33 13.33 M3.33 13.33 C1.11 13.33, 0 12.22, 0 10 M3.33 13.33 C1.11 13.33, 0 12.22, 0 10 M0 10 C0 8.09, 0 6.18, 0 3.33 M0 10 C0 8.04, 0 6.08, 0 3.33 M0 3.33 C0 1.11, 1.11 0, 3.33 0 M0 3.33 C0 1.11, 1.11 0, 3.33 0" stroke="transparent" stroke-width="2" fill="none"></path></g><g stroke-linecap="round" transform="translate(10 411.0000915527342) rotate(0 16.333343505859375 6.666656494140625)"><path d="M3.33 0 L30.79 0.21 L32.46 1.87 L32.46 11.46 L30.79 13.12 L29.33 13.33 L1.87 13.12 L0.21 11.46 L0 3.33 L0.83 0.83 L3.33 0" stroke="none" stroke-width="0" fill="#53a7bc"></path><path d="M3.33 0 M3.33 0 C10.54 0, 17.75 0, 29.33 0 M3.33 0 C13.01 0, 22.68 0, 29.33 0 M29.33 0 C31.56 0, 32.67 1.11, 32.67 3.33 M29.33 0 C31.56 0, 32.67 1.11, 32.67 3.33 M32.67 3.33 C32.67 4.99, 32.67 6.64, 32.67 10 M32.67 3.33 C32.67 5.99, 32.67 8.64, 32.67 10 M32.67 10 C32.67 12.22, 31.56 13.33, 29.33 13.33 M32.67 10 C32.67 12.22, 31.56 13.33, 29.33 13.33 M29.33 13.33 C19.2 13.33, 9.06 13.33, 3.33 13.33 M29.33 13.33 C19.53 13.33, 9.72 13.33, 3.33 13.33 M3.33 13.33 C1.11 13.33, 0 12.22, 0 10 M3.33 13.33 C1.11 13.33, 0 12.22, 0 10 M0 10 C0 8.26, 0 6.51, 0 3.33 M0 10 C0 8.03, 0 6.06, 0 3.33 M0 3.33 C0 1.11, 1.11 0, 3.33 0 M0 3.33 C0 1.11, 1.11 0, 3.33 0" stroke="transparent" stroke-width="2" fill="none"></path></g><g transform="translate(55.33345031738281 329.83337402343744) rotate(0 25 10.5)"><text x="25" y="17" font-family="Helvetica, Segoe UI Emoji" font-size="16px" fill="#353a3f" text-anchor="middle" style="white-space: pre;" direction="ltr">段基值</text></g><g transform="translate(55.33345031738281 355.16674804687494) rotate(0 25 10.5)"><text x="25" y="17" font-family="Helvetica, Segoe UI Emoji" font-size="16px" fill="#353a3f" text-anchor="middle" style="white-space: pre;" direction="ltr">偏移量</text></g><g transform="translate(55.33345031738281 380.83340454101557) rotate(0 17 10.5)"><text x="17" y="17" font-family="Helvetica, Segoe UI Emoji" font-size="16px" fill="#353a3f" text-anchor="middle" style="white-space: pre;" direction="ltr">移位</text></g><g transform="translate(55.33345031738281 407.16674804687483) rotate(0 33 10.5)"><text x="33" y="17" font-family="Helvetica, Segoe UI Emoji" font-size="16px" fill="#353a3f" text-anchor="middle" style="white-space: pre;" direction="ltr">物理地址</text></g></svg>