<svg version="1.1" xmlns="http://www.w3.org/2000/svg" viewBox="0 0 976.2385271423772 912.7352243938462" width="976.2385271423772" height="912.7352243938462">
  <g stroke-linecap="round" transform="translate(10.065397982078707 477.5000915527344) rotate(0 302.6523917609803 28.41814302011312)"><path d="M0 0 L605.3 0 L605.3 56.84 L0 56.84" stroke="none" stroke-width="0" fill="#ffffff"></path><path d="M0 0 C188.97 0, 377.94 0, 605.3 0 M605.3 0 C605.3 12.89, 605.3 25.79, 605.3 56.84 M605.3 56.84 C392.56 56.84, 179.82 56.84, 0 56.84 M0 56.84 C0 45.06, 0 33.28, 0 0" stroke="#eb8851" stroke-width="2.5" fill="none" stroke-dasharray="8 10"></path></g><g stroke-linecap="round" transform="translate(460.4052141540959 227.16668701171875) rotate(0 70.33334350585938 21.666671752929688)"><path d="M0 0 L140.67 0 L140.67 43.33 L0 43.33" stroke="none" stroke-width="0" fill="#478bdf"></path><path d="M0 0 C34.23 0, 68.46 0, 140.67 0 M0 0 C44.31 0, 88.63 0, 140.67 0 M140.67 0 C140.67 8.8, 140.67 17.61, 140.67 43.33 M140.67 0 C140.67 10.74, 140.67 21.47, 140.67 43.33 M140.67 43.33 C108.68 43.33, 76.69 43.33, 0 43.33 M140.67 43.33 C90 43.33, 39.34 43.33, 0 43.33 M0 43.33 C0 32.37, 0 21.42, 0 0 M0 43.33 C0 32.69, 0 22.04, 0 0" stroke="#ffffff" stroke-width="1" fill="none"></path></g><g stroke-linecap="round" transform="translate(307.45280413735475 46.83331298828125) rotate(0 70.5 22.5)"><path d="M0 0 L141 0 L141 45 L0 45" stroke="none" stroke-width="0" fill="#eb8437"></path><path d="M0 0 C37.02 0, 74.04 0, 141 0 M0 0 C33.22 0, 66.45 0, 141 0 M141 0 C141 9.36, 141 18.73, 141 45 M141 0 C141 16.18, 141 32.35, 141 45 M141 45 C86.49 45, 31.99 45, 0 45 M141 45 C97.89 45, 54.78 45, 0 45 M0 45 C0 34.02, 0 23.05, 0 0 M0 45 C0 29.08, 0 13.16, 0 0" stroke="#ffffff" stroke-width="1" fill="none"></path></g><g stroke-linecap="round" transform="translate(307.45280413735475 91.83331298828125) rotate(0 70.5 22.5)"><path d="M0 0 L141 0 L141 45 L0 45" stroke="none" stroke-width="0" fill="#eb8437"></path><path d="M0 0 C55.45 0, 110.89 0, 141 0 M0 0 C47.3 0, 94.6 0, 141 0 M141 0 C141 15.15, 141 30.29, 141 45 M141 0 C141 15.44, 141 30.88, 141 45 M141 45 C91.16 45, 41.32 45, 0 45 M141 45 C108.18 45, 75.36 45, 0 45 M0 45 C0 33.81, 0 22.61, 0 0 M0 45 C0 33.47, 0 21.95, 0 0" stroke="#ffffff" stroke-width="1" fill="none"></path></g><g stroke-linecap="round" transform="translate(307.45280413735475 137.83331298828125) rotate(0 70.5 22.5)"><path d="M0 0 L141 0 L141 45 L0 45" stroke="none" stroke-width="0" fill="#eb8437"></path><path d="M0 0 C33.6 0, 67.21 0, 141 0 M0 0 C36.02 0, 72.04 0, 141 0 M141 0 C141 14.28, 141 28.55, 141 45 M141 0 C141 11.72, 141 23.45, 141 45 M141 45 C91.93 45, 42.87 45, 0 45 M141 45 C90.41 45, 39.81 45, 0 45 M0 45 C0 29.24, 0 13.47, 0 0 M0 45 C0 31.52, 0 18.04, 0 0" stroke="#ffffff" stroke-width="1" fill="none"></path></g><g stroke-linecap="round" transform="translate(307.45280413735475 182.83333587646484) rotate(0 70.5 22.5)"><path d="M0 0 L141 0 L141 45 L0 45" stroke="none" stroke-width="0" fill="#eb8437"></path><path d="M0 0 C33.47 0, 66.95 0, 141 0 M0 0 C41.4 0, 82.8 0, 141 0 M141 0 C141 17.85, 141 35.7, 141 45 M141 0 C141 11.17, 141 22.35, 141 45 M141 45 C106.84 45, 72.69 45, 0 45 M141 45 C91.5 45, 42 45, 0 45 M0 45 C0 35.6, 0 26.21, 0 0 M0 45 C0 33.8, 0 22.6, 0 0" stroke="#ffffff" stroke-width="1" fill="none"></path></g><g stroke-linecap="round" transform="translate(307.45280413735475 226.83334350585938) rotate(0 70.5 21)"><path d="M0 0 L141 0 L141 42 L0 42" stroke="none" stroke-width="0" fill="#eb8437"></path><path d="M0 0 C50.33 0, 100.65 0, 141 0 M0 0 C33.72 0, 67.45 0, 141 0 M141 0 C141 15.03, 141 30.07, 141 42 M141 0 C141 11.84, 141 23.68, 141 42 M141 42 C92.69 42, 44.38 42, 0 42 M141 42 C90.36 42, 39.72 42, 0 42 M0 42 C0 30.64, 0 19.29, 0 0 M0 42 C0 32.19, 0 22.37, 0 0" stroke="#ffffff" stroke-width="1" fill="none"></path></g><g stroke-linecap="round" transform="translate(307.45280413735475 268.8333435058594) rotate(0 70.5 21.5)"><path d="M0 0 L141 0 L141 43 L0 43" stroke="none" stroke-width="0" fill="#eb8437"></path><path d="M0 0 C41.08 0, 82.17 0, 141 0 M0 0 C32.53 0, 65.06 0, 141 0 M141 0 C141 10.55, 141 21.11, 141 43 M141 0 C141 14.66, 141 29.32, 141 43 M141 43 C95.37 43, 49.73 43, 0 43 M141 43 C107.1 43, 73.19 43, 0 43 M0 43 C0 26.21, 0 9.43, 0 0 M0 43 C0 27.03, 0 11.07, 0 0" stroke="#ffffff" stroke-width="1" fill="none"></path></g><g stroke-linecap="round" transform="translate(307.45280413735475 312.8333435058594) rotate(0 70.5 22.5)"><path d="M0 0 L141 0 L141 45 L0 45" stroke="none" stroke-width="0" fill="#eb8437"></path><path d="M0 0 C49.4 0, 98.79 0, 141 0 M0 0 C42.24 0, 84.48 0, 141 0 M141 0 C141 17.32, 141 34.63, 141 45 M141 0 C141 9.95, 141 19.89, 141 45 M141 45 C96.12 45, 51.24 45, 0 45 M141 45 C107.89 45, 74.78 45, 0 45 M0 45 C0 31.96, 0 18.93, 0 0 M0 45 C0 31.04, 0 17.08, 0 0" stroke="#ffffff" stroke-width="1" fill="none"></path></g><g stroke-linecap="round" transform="translate(307.45280413735475 357.8333435058594) rotate(0 70.5 21)"><path d="M0 0 L141 0 L141 42 L0 42" stroke="none" stroke-width="0" fill="#eb8437"></path><path d="M0 0 C54.24 0, 108.47 0, 141 0 M0 0 C54.44 0, 108.88 0, 141 0 M141 0 C141 13.55, 141 27.11, 141 42 M141 0 C141 13.89, 141 27.77, 141 42 M141 42 C108.91 42, 76.82 42, 0 42 M141 42 C105.74 42, 70.49 42, 0 42 M0 42 C0 29.57, 0 17.14, 0 0 M0 42 C0 27.25, 0 12.49, 0 0" stroke="#ffffff" stroke-width="1" fill="none"></path></g><g stroke-linecap="round" transform="translate(307.45280413735475 483.5000915527344) rotate(0 70.5 22.5)"><path d="M0 0 L141 0 L141 45 L0 45" stroke="none" stroke-width="0" fill="#eb8437"></path><path d="M0 0 C47.45 0, 94.9 0, 141 0 M0 0 C31.02 0, 62.04 0, 141 0 M141 0 C141 12.21, 141 24.42, 141 45 M141 0 C141 9.2, 141 18.41, 141 45 M141 45 C100.8 45, 60.6 45, 0 45 M141 45 C98.6 45, 56.21 45, 0 45 M0 45 C0 30.92, 0 16.84, 0 0 M0 45 C0 31.13, 0 17.27, 0 0" stroke="#ffffff" stroke-width="1" fill="none"></path></g><g stroke-linecap="round" transform="translate(307.45280413735475 548.8334045410156) rotate(0 70.5 22.5)"><path d="M0 0 L141 0 L141 45 L0 45" stroke="none" stroke-width="0" fill="#eb8437"></path><path d="M0 0 C56.07 0, 112.13 0, 141 0 M0 0 C43.23 0, 86.47 0, 141 0 M141 0 C141 17.54, 141 35.09, 141 45 M141 0 C141 11.03, 141 22.07, 141 45 M141 45 C111.56 45, 82.12 45, 0 45 M141 45 C93.09 45, 45.18 45, 0 45 M0 45 C0 29.22, 0 13.43, 0 0 M0 45 C0 30.91, 0 16.81, 0 0" stroke="#ffffff" stroke-width="1" fill="none"></path></g><g stroke-linecap="round" transform="translate(12.405214154095887 809.7629738669852) rotate(0 13.929555767436867 13.582901226445642)"><path d="M0 0 L27.86 0 L27.86 27.17 L0 27.17" stroke="none" stroke-width="0" fill="#478bdf"></path><path d="M0 0 C7 0, 13.99 0, 27.86 0 M0 0 C9.54 0, 19.08 0, 27.86 0 M27.86 0 C27.86 5.47, 27.86 10.94, 27.86 27.17 M27.86 0 C27.86 9.06, 27.86 18.11, 27.86 27.17 M27.86 27.17 C18.4 27.17, 8.94 27.17, 0 27.17 M27.86 27.17 C19.47 27.17, 11.08 27.17, 0 27.17 M0 27.17 C0 20.95, 0 14.74, 0 0 M0 27.17 C0 20.61, 0 14.05, 0 0" stroke="#ffffff" stroke-width="1" fill="none"></path></g><g stroke-linecap="round" transform="translate(12.405214154095887 840.8334350585938) rotate(0 13.929555767436867 13.582901226445642)"><path d="M0 0 L27.86 0 L27.86 27.17 L0 27.17" stroke="none" stroke-width="0" fill="#eb8437"></path><path d="M0 0 C7.41 0, 14.83 0, 27.86 0 M0 0 C9.98 0, 19.97 0, 27.86 0 M27.86 0 C27.86 5.52, 27.86 11.04, 27.86 27.17 M27.86 0 C27.86 8.48, 27.86 16.96, 27.86 27.17 M27.86 27.17 C19.07 27.17, 10.29 27.17, 0 27.17 M27.86 27.17 C21.59 27.17, 15.32 27.17, 0 27.17 M0 27.17 C0 19.41, 0 11.65, 0 0 M0 27.17 C0 19.89, 0 12.61, 0 0" stroke="#ffffff" stroke-width="1" fill="none"></path></g><g stroke-linecap="round" transform="translate(12.405214154095887 871.5838773380074) rotate(0 13.929555767436867 13.582901226445642)"><path d="M0 0 L27.86 0 L27.86 27.17 L0 27.17" stroke="none" stroke-width="0" fill="#6bbc63"></path><path d="M0 0 C7.84 0, 15.68 0, 27.86 0 M0 0 C10.95 0, 21.91 0, 27.86 0 M27.86 0 C27.86 9.66, 27.86 19.31, 27.86 27.17 M27.86 0 C27.86 9.37, 27.86 18.75, 27.86 27.17 M27.86 27.17 C20.16 27.17, 12.46 27.17, 0 27.17 M27.86 27.17 C21.54 27.17, 15.23 27.17, 0 27.17 M0 27.17 C0 17.77, 0 8.36, 0 0 M0 27.17 C0 17.12, 0 7.08, 0 0" stroke="#ffffff" stroke-width="1" fill="none"></path></g><g stroke-linecap="round" transform="translate(22.452804137354747 46.166656494140625) rotate(0 140.5 22)"><path d="M0 0 L281 0 L281 44 L0 44" stroke="none" stroke-width="0" fill="#6bbc63"></path><path d="M0 0 C91.63 0, 183.26 0, 281 0 M0 0 C63.26 0, 126.51 0, 281 0 M281 0 C281 10.51, 281 21.02, 281 44 M281 0 C281 11.34, 281 22.68, 281 44 M281 44 C220.89 44, 160.77 44, 0 44 M281 44 C198.36 44, 115.72 44, 0 44 M0 44 C0 31.95, 0 19.91, 0 0 M0 44 C0 34.86, 0 25.73, 0 0" stroke="#ffffff" stroke-width="1" fill="none"></path></g><g stroke-linecap="round" transform="translate(22.452804137354747 90.83331298828125) rotate(0 140.5 22)"><path d="M0 0 L281 0 L281 44 L0 44" stroke="none" stroke-width="0" fill="#6bbc63"></path><path d="M0 0 C63.77 0, 127.54 0, 281 0 M0 0 C87.01 0, 174.03 0, 281 0 M281 0 C281 11.88, 281 23.76, 281 44 M281 0 C281 16.77, 281 33.55, 281 44 M281 44 C177.26 44, 73.52 44, 0 44 M281 44 C190.71 44, 100.42 44, 0 44 M0 44 C0 28.2, 0 12.41, 0 0 M0 44 C0 32.56, 0 21.13, 0 0" stroke="#ffffff" stroke-width="1" fill="none"></path></g><g stroke-linecap="round" transform="translate(22.452804137354747 135.83331298828125) rotate(0 140.5 23)"><path d="M0 0 L281 0 L281 46 L0 46" stroke="none" stroke-width="0" fill="#6bbc63"></path><path d="M0 0 C66.2 0, 132.39 0, 281 0 M0 0 C92.32 0, 184.64 0, 281 0 M281 0 C281 13.39, 281 26.78, 281 46 M281 0 C281 14.86, 281 29.72, 281 46 M281 46 C183.61 46, 86.22 46, 0 46 M281 46 C211.69 46, 142.39 46, 0 46 M0 46 C0 28.85, 0 11.71, 0 0 M0 46 C0 28.62, 0 11.25, 0 0" stroke="#ffffff" stroke-width="1" fill="none"></path></g><g stroke-linecap="round" transform="translate(22.452804137354747 181.83333587646484) rotate(0 140.5 22.5)"><path d="M0 0 L281 0 L281 45 L0 45" stroke="none" stroke-width="0" fill="#6bbc63"></path><path d="M0 0 C80.75 0, 161.49 0, 281 0 M0 0 C67.21 0, 134.42 0, 281 0 M281 0 C281 16.04, 281 32.07, 281 45 M281 0 C281 10.21, 281 20.43, 281 45 M281 45 C214.39 45, 147.77 45, 0 45 M281 45 C213.54 45, 146.08 45, 0 45 M0 45 C0 27.9, 0 10.81, 0 0 M0 45 C0 33.25, 0 21.49, 0 0" stroke="#ffffff" stroke-width="1" fill="none"></path></g><g stroke-linecap="round" transform="translate(22.452804137354747 227.83333587646484) rotate(0 140.5 20)"><path d="M0 0 L281 0 L281 40 L0 40" stroke="none" stroke-width="0" fill="#6bbc63"></path><path d="M0 0 C66.61 0, 133.23 0, 281 0 M0 0 C67.46 0, 134.92 0, 281 0 M281 0 C281 15.2, 281 30.39, 281 40 M281 0 C281 10.45, 281 20.9, 281 40 M281 40 C184.8 40, 88.6 40, 0 40 M281 40 C184.23 40, 87.45 40, 0 40 M0 40 C0 24.71, 0 9.42, 0 0 M0 40 C0 27.15, 0 14.3, 0 0" stroke="#ffffff" stroke-width="1" fill="none"></path></g><g stroke-linecap="round" transform="translate(22.452804137354747 267.83333587646484) rotate(0 140.5 22)"><path d="M0 0 L281 0 L281 44 L0 44" stroke="none" stroke-width="0" fill="#6bbc63"></path><path d="M0 0 C75.38 0, 150.76 0, 281 0 M0 0 C81.34 0, 162.69 0, 281 0 M281 0 C281 8.92, 281 17.84, 281 44 M281 0 C281 13.12, 281 26.24, 281 44 M281 44 C219.89 44, 158.78 44, 0 44 M281 44 C211.04 44, 141.08 44, 0 44 M0 44 C0 29.98, 0 15.96, 0 0 M0 44 C0 26.8, 0 9.61, 0 0" stroke="#ffffff" stroke-width="1" fill="none"></path></g><g stroke-linecap="round" transform="translate(22.452804137354747 312.83333587646484) rotate(0 140.5 21.5)"><path d="M0 0 L281 0 L281 43 L0 43" stroke="none" stroke-width="0" fill="#6bbc63"></path><path d="M0 0 C63.63 0, 127.25 0, 281 0 M0 0 C93.35 0, 186.69 0, 281 0 M281 0 C281 16.93, 281 33.86, 281 43 M281 0 C281 11.37, 281 22.74, 281 43 M281 43 C186.69 43, 92.38 43, 0 43 M281 43 C222.65 43, 164.29 43, 0 43 M0 43 C0 30.54, 0 18.08, 0 0 M0 43 C0 32.73, 0 22.47, 0 0" stroke="#ffffff" stroke-width="1" fill="none"></path></g><g stroke-linecap="round" transform="translate(22.452804137354747 356.8333435058594) rotate(0 140.5 22)"><path d="M0 0 L281 0 L281 44 L0 44" stroke="none" stroke-width="0" fill="#6bbc63"></path><path d="M0 0 C94.31 0, 188.62 0, 281 0 M0 0 C58.35 0, 116.71 0, 281 0 M281 0 C281 12.75, 281 25.5, 281 44 M281 0 C281 10.51, 281 21.01, 281 44 M281 44 C186.01 44, 91.02 44, 0 44 M281 44 C177.47 44, 73.94 44, 0 44 M0 44 C0 35.17, 0 26.35, 0 0 M0 44 C0 33.11, 0 22.23, 0 0" stroke="#ffffff" stroke-width="1" fill="none"></path></g><g stroke-linecap="round" transform="translate(22.452804137354747 483.5000915527344) rotate(0 140.5 22)"><path d="M0 0 L281 0 L281 44 L0 44" stroke="none" stroke-width="0" fill="#6bbc63"></path><path d="M0 0 C99.99 0, 199.98 0, 281 0 M0 0 C111.8 0, 223.6 0, 281 0 M281 0 C281 11.76, 281 23.51, 281 44 M281 0 C281 10.42, 281 20.85, 281 44 M281 44 C187.92 44, 94.84 44, 0 44 M281 44 C198.48 44, 115.97 44, 0 44 M0 44 C0 32.36, 0 20.73, 0 0 M0 44 C0 26.65, 0 9.3, 0 0" stroke="#ffffff" stroke-width="1" fill="none"></path></g><g stroke-linecap="round" transform="translate(22.452804137354747 549.8334045410156) rotate(0 140.5 22)"><path d="M0 0 L281 0 L281 44 L0 44" stroke="none" stroke-width="0" fill="#6bbc63"></path><path d="M0 0 C98.2 0, 196.41 0, 281 0 M0 0 C71.14 0, 142.28 0, 281 0 M281 0 C281 13.86, 281 27.72, 281 44 M281 0 C281 16.72, 281 33.45, 281 44 M281 44 C216.44 44, 151.88 44, 0 44 M281 44 C194.13 44, 107.25 44, 0 44 M0 44 C0 26.9, 0 9.8, 0 0 M0 44 C0 28.29, 0 12.59, 0 0" stroke="#ffffff" stroke-width="1" fill="none"></path></g><g stroke-linecap="round" transform="translate(21.405214154095887 402.5744905872655) rotate(0 289.5 29.5)"><path d="M0 0 L579 0 L579 59 L0 59" stroke="none" stroke-width="0" fill="#6bbc63"></path><path d="M0 0 C216.17 0, 432.34 0, 579 0 M0 0 C213.75 0, 427.49 0, 579 0 M579 0 C579 18.85, 579 37.7, 579 59 M579 0 C579 15.57, 579 31.15, 579 59 M579 59 C395.15 59, 211.29 59, 0 59 M579 59 C451.72 59, 324.44 59, 0 59 M0 59 C0 38.79, 0 18.59, 0 0 M0 59 C0 46.2, 0 33.4, 0 0" stroke="#ffffff" stroke-width="1" fill="none"></path></g><g stroke-linecap="round" transform="translate(460.4052141540959 181.83334350585938) rotate(0 35 22.5)"><path d="M0 0 L70 0 L70 45 L0 45" stroke="none" stroke-width="0" fill="#478bdf"></path><path d="M0 0 C14.19 0, 28.39 0, 70 0 M0 0 C16.02 0, 32.04 0, 70 0 M70 0 C70 10.92, 70 21.83, 70 45 M70 0 C70 12.09, 70 24.18, 70 45 M70 45 C52.92 45, 35.84 45, 0 45 M70 45 C54.58 45, 39.15 45, 0 45 M0 45 C0 27.39, 0 9.78, 0 0 M0 45 C0 30.73, 0 16.45, 0 0" stroke="#ffffff" stroke-width="1" fill="none"></path></g><g stroke-linecap="round" transform="translate(460.07187064823654 137.5) rotate(0 35 22.5)"><path d="M0 0 L70 0 L70 45 L0 45" stroke="none" stroke-width="0" fill="#478bdf"></path><path d="M0 0 C20.22 0, 40.43 0, 70 0 M0 0 C26.65 0, 53.3 0, 70 0 M70 0 C70 13.79, 70 27.58, 70 45 M70 0 C70 12.68, 70 25.35, 70 45 M70 45 C51.21 45, 32.43 45, 0 45 M70 45 C50.21 45, 30.41 45, 0 45 M0 45 C0 34.3, 0 23.6, 0 0 M0 45 C0 34.64, 0 24.27, 0 0" stroke="#ffffff" stroke-width="1" fill="none"></path></g><g stroke-linecap="round" transform="translate(459.73852714237717 92.16665649414062) rotate(0 35 22.5)"><path d="M0 0 L70 0 L70 45 L0 45" stroke="none" stroke-width="0" fill="#478bdf"></path><path d="M0 0 C20.49 0, 40.98 0, 70 0 M0 0 C17.7 0, 35.39 0, 70 0 M70 0 C70 14.63, 70 29.26, 70 45 M70 0 C70 14.91, 70 29.82, 70 45 M70 45 C43.92 45, 17.83 45, 0 45 M70 45 C52.92 45, 35.85 45, 0 45 M0 45 C0 29.45, 0 13.91, 0 0 M0 45 C0 33.48, 0 21.96, 0 0" stroke="#ffffff" stroke-width="1" fill="none"></path></g><g stroke-linecap="round" transform="translate(459.4051836365178 46.83331298828125) rotate(0 35 22.5)"><path d="M0 0 L70 0 L70 45 L0 45" stroke="none" stroke-width="0" fill="#478bdf"></path><path d="M0 0 C17.08 0, 34.15 0, 70 0 M0 0 C24.18 0, 48.37 0, 70 0 M70 0 C70 11.52, 70 23.04, 70 45 M70 0 C70 16.26, 70 32.52, 70 45 M70 45 C47.57 45, 25.13 45, 0 45 M70 45 C46.9 45, 23.8 45, 0 45 M0 45 C0 29.53, 0 14.07, 0 0 M0 45 C0 34.3, 0 23.6, 0 0" stroke="#ffffff" stroke-width="1" fill="none"></path></g><g stroke-linecap="round" transform="translate(531.0719011658147 182.16668701171875) rotate(0 35 22.5)"><path d="M0 0 L70 0 L70 45 L0 45" stroke="none" stroke-width="0" fill="#478bdf"></path><path d="M0 0 C18.99 0, 37.99 0, 70 0 M0 0 C23.16 0, 46.31 0, 70 0 M70 0 C70 16.64, 70 33.29, 70 45 M70 0 C70 11.42, 70 22.85, 70 45 M70 45 C42.54 45, 15.07 45, 0 45 M70 45 C55.17 45, 40.33 45, 0 45 M0 45 C0 30.33, 0 15.66, 0 0 M0 45 C0 28.3, 0 11.59, 0 0" stroke="#ffffff" stroke-width="1" fill="none"></path></g><g stroke-linecap="round" transform="translate(530.7385576599553 137.83334350585938) rotate(0 35 22.5)"><path d="M0 0 L70 0 L70 45 L0 45" stroke="none" stroke-width="0" fill="#478bdf"></path><path d="M0 0 C25.48 0, 50.96 0, 70 0 M0 0 C27.62 0, 55.24 0, 70 0 M70 0 C70 17.06, 70 34.11, 70 45 M70 0 C70 15.26, 70 30.52, 70 45 M70 45 C51.99 45, 33.98 45, 0 45 M70 45 C55.04 45, 40.08 45, 0 45 M0 45 C0 30.6, 0 16.2, 0 0 M0 45 C0 34.35, 0 23.7, 0 0" stroke="#ffffff" stroke-width="1" fill="none"></path></g><g stroke-linecap="round" transform="translate(530.4052141540959 92.5) rotate(0 35 22.5)"><path d="M0 0 L70 0 L70 45 L0 45" stroke="none" stroke-width="0" fill="#478bdf"></path><path d="M0 0 C19.53 0, 39.05 0, 70 0 M0 0 C21.28 0, 42.57 0, 70 0 M70 0 C70 17.67, 70 35.34, 70 45 M70 0 C70 17.03, 70 34.06, 70 45 M70 45 C55.18 45, 40.36 45, 0 45 M70 45 C48.22 45, 26.44 45, 0 45 M0 45 C0 33.33, 0 21.65, 0 0 M0 45 C0 35.26, 0 25.52, 0 0" stroke="#ffffff" stroke-width="1" fill="none"></path></g><g stroke-linecap="round" transform="translate(530.0718706482365 47.166656494140625) rotate(0 35 22.5)"><path d="M0 0 L70 0 L70 45 L0 45" stroke="none" stroke-width="0" fill="#478bdf"></path><path d="M0 0 C21.78 0, 43.56 0, 70 0 M0 0 C18.16 0, 36.32 0, 70 0 M70 0 C70 9.74, 70 19.48, 70 45 M70 0 C70 11.81, 70 23.62, 70 45 M70 45 C53.52 45, 37.04 45, 0 45 M70 45 C47.87 45, 25.75 45, 0 45 M0 45 C0 30.6, 0 16.21, 0 0 M0 45 C0 29.24, 0 13.48, 0 0" stroke="#ffffff" stroke-width="1" fill="none"></path></g><g stroke-linecap="round" transform="translate(460.4052141540959 270.5000305175781) rotate(0 70.33334350585938 21.666671752929688)"><path d="M0 0 L140.67 0 L140.67 43.33 L0 43.33" stroke="none" stroke-width="0" fill="#478bdf"></path><path d="M0 0 C34.27 0, 68.54 0, 140.67 0 M0 0 C36.35 0, 72.7 0, 140.67 0 M140.67 0 C140.67 10.3, 140.67 20.6, 140.67 43.33 M140.67 0 C140.67 14.23, 140.67 28.46, 140.67 43.33 M140.67 43.33 C98.9 43.33, 57.14 43.33, 0 43.33 M140.67 43.33 C91.42 43.33, 42.17 43.33, 0 43.33 M0 43.33 C0 26.88, 0 10.43, 0 0 M0 43.33 C0 26.61, 0 9.89, 0 0" stroke="#ffffff" stroke-width="1" fill="none"></path></g><g stroke-linecap="round" transform="translate(460.4052141540959 313.8333740234375) rotate(0 70.33334350585938 21.666671752929688)"><path d="M0 0 L140.67 0 L140.67 43.33 L0 43.33" stroke="none" stroke-width="0" fill="#478bdf"></path><path d="M0 0 C31.37 0, 62.74 0, 140.67 0 M0 0 C32.98 0, 65.96 0, 140.67 0 M140.67 0 C140.67 14.9, 140.67 29.8, 140.67 43.33 M140.67 0 C140.67 8.82, 140.67 17.64, 140.67 43.33 M140.67 43.33 C107.85 43.33, 75.03 43.33, 0 43.33 M140.67 43.33 C98.4 43.33, 56.13 43.33, 0 43.33 M0 43.33 C0 34.52, 0 25.7, 0 0 M0 43.33 C0 27.44, 0 11.56, 0 0" stroke="#ffffff" stroke-width="1" fill="none"></path></g><g stroke-linecap="round" transform="translate(460.4052141540959 357.1667175292969) rotate(0 70.33334350585938 21.666671752929688)"><path d="M0 0 L140.67 0 L140.67 43.33 L0 43.33" stroke="none" stroke-width="0" fill="#478bdf"></path><path d="M0 0 C55.16 0, 110.32 0, 140.67 0 M0 0 C28.38 0, 56.77 0, 140.67 0 M140.67 0 C140.67 16.79, 140.67 33.57, 140.67 43.33 M140.67 0 C140.67 16.27, 140.67 32.53, 140.67 43.33 M140.67 43.33 C92.95 43.33, 45.23 43.33, 0 43.33 M140.67 43.33 C86.61 43.33, 32.56 43.33, 0 43.33 M0 43.33 C0 30.52, 0 17.7, 0 0 M0 43.33 C0 33.19, 0 23.05, 0 0" stroke="#ffffff" stroke-width="1" fill="none"></path></g><g stroke-linecap="round" transform="translate(460.4052141540959 484.50006103515625) rotate(0 70.33334350585938 21.666671752929688)"><path d="M0 0 L140.67 0 L140.67 43.33 L0 43.33" stroke="none" stroke-width="0" fill="#478bdf"></path><path d="M0 0 C30.08 0, 60.16 0, 140.67 0 M0 0 C51.92 0, 103.84 0, 140.67 0 M140.67 0 C140.67 16.31, 140.67 32.61, 140.67 43.33 M140.67 0 C140.67 14.99, 140.67 29.98, 140.67 43.33 M140.67 43.33 C109.75 43.33, 78.84 43.33, 0 43.33 M140.67 43.33 C92.76 43.33, 44.85 43.33, 0 43.33 M0 43.33 C0 31.05, 0 18.76, 0 0 M0 43.33 C0 32.9, 0 22.46, 0 0" stroke="#ffffff" stroke-width="1" fill="none"></path></g><g stroke-linecap="round" transform="translate(460.4052141540959 548.8334045410156) rotate(0 70.33334350585938 21.666671752929688)"><path d="M0 0 L140.67 0 L140.67 43.33 L0 43.33" stroke="none" stroke-width="0" fill="#478bdf"></path><path d="M0 0 C54.43 0, 108.86 0, 140.67 0 M0 0 C36.12 0, 72.23 0, 140.67 0 M140.67 0 C140.67 8.86, 140.67 17.72, 140.67 43.33 M140.67 0 C140.67 15.33, 140.67 30.66, 140.67 43.33 M140.67 43.33 C85.09 43.33, 29.51 43.33, 0 43.33 M140.67 43.33 C110.56 43.33, 80.46 43.33, 0 43.33 M0 43.33 C0 26.71, 0 10.09, 0 0 M0 43.33 C0 34.36, 0 25.39, 0 0" stroke="#ffffff" stroke-width="1" fill="none"></path></g><g stroke-linecap="round" transform="translate(460.4052141540959 634.166748046875) rotate(0 70.33334350585938 21.666671752929688)"><path d="M0 0 L140.67 0 L140.67 43.33 L0 43.33" stroke="none" stroke-width="0" fill="#478bdf"></path><path d="M0 0 C34.23 0, 68.45 0, 140.67 0 M0 0 C48.19 0, 96.39 0, 140.67 0 M140.67 0 C140.67 10.13, 140.67 20.27, 140.67 43.33 M140.67 0 C140.67 11.47, 140.67 22.95, 140.67 43.33 M140.67 43.33 C92.83 43.33, 44.99 43.33, 0 43.33 M140.67 43.33 C104.2 43.33, 67.72 43.33, 0 43.33 M0 43.33 C0 28.13, 0 12.92, 0 0 M0 43.33 C0 30.33, 0 17.33, 0 0" stroke="#ffffff" stroke-width="1" fill="none"></path></g><g stroke-linecap="round" transform="translate(460.4052141540959 677.5000915527344) rotate(0 70.33334350585938 21.666671752929688)"><path d="M0 0 L140.67 0 L140.67 43.33 L0 43.33" stroke="none" stroke-width="0" fill="#478bdf"></path><path d="M0 0 C32.9 0, 65.8 0, 140.67 0 M0 0 C37.25 0, 74.5 0, 140.67 0 M140.67 0 C140.67 14.74, 140.67 29.47, 140.67 43.33 M140.67 0 C140.67 11.24, 140.67 22.47, 140.67 43.33 M140.67 43.33 C91.31 43.33, 41.95 43.33, 0 43.33 M140.67 43.33 C98.46 43.33, 56.25 43.33, 0 43.33 M0 43.33 C0 30.86, 0 18.38, 0 0 M0 43.33 C0 33.64, 0 23.94, 0 0" stroke="#ffffff" stroke-width="1" fill="none"></path></g><g stroke-linecap="round" transform="translate(460.4052141540959 720.8334350585938) rotate(0 70.33334350585938 21.666671752929688)"><path d="M0 0 L140.67 0 L140.67 43.33 L0 43.33" stroke="none" stroke-width="0" fill="#478bdf"></path><path d="M0 0 C42.27 0, 84.53 0, 140.67 0 M0 0 C28.62 0, 57.23 0, 140.67 0 M140.67 0 C140.67 15.89, 140.67 31.78, 140.67 43.33 M140.67 0 C140.67 12.5, 140.67 25, 140.67 43.33 M140.67 43.33 C105.35 43.33, 70.04 43.33, 0 43.33 M140.67 43.33 C111.11 43.33, 81.56 43.33, 0 43.33 M0 43.33 C0 26.23, 0 9.13, 0 0 M0 43.33 C0 32.79, 0 22.24, 0 0" stroke="#ffffff" stroke-width="1" fill="none"></path></g><g stroke-linecap="round" transform="translate(460.4052141540959 764.1667785644531) rotate(0 70.33334350585938 21.666671752929688)"><path d="M0 0 L140.67 0 L140.67 43.33 L0 43.33" stroke="none" stroke-width="0" fill="#478bdf"></path><path d="M0 0 C31.98 0, 63.96 0, 140.67 0 M0 0 C37.55 0, 75.1 0, 140.67 0 M140.67 0 C140.67 13.59, 140.67 27.17, 140.67 43.33 M140.67 0 C140.67 10.07, 140.67 20.15, 140.67 43.33 M140.67 43.33 C104.6 43.33, 68.54 43.33, 0 43.33 M140.67 43.33 C88.53 43.33, 36.39 43.33, 0 43.33 M0 43.33 C0 29.91, 0 16.49, 0 0 M0 43.33 C0 26.75, 0 10.16, 0 0" stroke="#ffffff" stroke-width="1" fill="none"></path></g><g stroke-linecap="round" transform="translate(460.0718401306584 807.5001220703125) rotate(0 70.33334350585938 21.666671752929688)"><path d="M0 0 L140.67 0 L140.67 43.33 L0 43.33" stroke="none" stroke-width="0" fill="#eb8437"></path><path d="M0 0 C43.55 0, 87.1 0, 140.67 0 M0 0 C28.21 0, 56.43 0, 140.67 0 M140.67 0 C140.67 14.48, 140.67 28.95, 140.67 43.33 M140.67 0 C140.67 15.45, 140.67 30.91, 140.67 43.33 M140.67 43.33 C102.81 43.33, 64.95 43.33, 0 43.33 M140.67 43.33 C108.12 43.33, 75.57 43.33, 0 43.33 M0 43.33 C0 29.08, 0 14.83, 0 0 M0 43.33 C0 28.9, 0 14.47, 0 0" stroke="#ffffff" stroke-width="1" fill="none"></path></g><g stroke-linecap="round" transform="translate(460.07187064823654 850.8334655761719) rotate(0 70.33334350585938 21.666671752929688)"><path d="M0 0 L140.67 0 L140.67 43.33 L0 43.33" stroke="none" stroke-width="0" fill="#eb8437"></path><path d="M0 0 C45.45 0, 90.91 0, 140.67 0 M0 0 C51.65 0, 103.3 0, 140.67 0 M140.67 0 C140.67 10.65, 140.67 21.3, 140.67 43.33 M140.67 0 C140.67 13.24, 140.67 26.47, 140.67 43.33 M140.67 43.33 C92.54 43.33, 44.42 43.33, 0 43.33 M140.67 43.33 C90.72 43.33, 40.76 43.33, 0 43.33 M0 43.33 C0 27.02, 0 10.71, 0 0 M0 43.33 C0 29.77, 0 16.2, 0 0" stroke="#ffffff" stroke-width="1" fill="none"></path></g><g transform="translate(516.2385576599553 237.33335876464844) rotate(0 14.5 11.5)"><text x="14.5" y="18" font-family="Helvetica, Segoe UI Emoji" font-size="20px" fill="#ffffff" text-anchor="middle" style="white-space: pre;" direction="ltr">SP</text></g><g transform="translate(312.45280413735475 57.83331298828125) rotate(0 21 11.5)"><text x="0" y="18" font-family="Helvetica, Segoe UI Emoji" font-size="20px" fill="#ffffff" text-anchor="start" style="white-space: pre;" direction="ltr">EAX</text></g><g transform="translate(312.45280413735475 102.83331298828125) rotate(0 21 11.5)"><text x="0" y="18" font-family="Helvetica, Segoe UI Emoji" font-size="20px" fill="#ffffff" text-anchor="start" style="white-space: pre;" direction="ltr">EBX</text></g><g transform="translate(312.45280413735475 148.83331298828125) rotate(0 21.5 11.5)"><text x="0" y="18" font-family="Helvetica, Segoe UI Emoji" font-size="20px" fill="#ffffff" text-anchor="start" style="white-space: pre;" direction="ltr">ECX</text></g><g transform="translate(312.45280413735475 193.83333587646484) rotate(0 21.5 11.5)"><text x="0" y="18" font-family="Helvetica, Segoe UI Emoji" font-size="20px" fill="#ffffff" text-anchor="start" style="white-space: pre;" direction="ltr">EDX</text></g><g transform="translate(312.45280413735475 236.33334350585938) rotate(0 21 11.5)"><text x="0" y="18" font-family="Helvetica, Segoe UI Emoji" font-size="20px" fill="#ffffff" text-anchor="start" style="white-space: pre;" direction="ltr">ESP</text></g><g transform="translate(312.45280413735475 278.8333435058594) rotate(0 21 11.5)"><text x="0" y="18" font-family="Helvetica, Segoe UI Emoji" font-size="20px" fill="#ffffff" text-anchor="start" style="white-space: pre;" direction="ltr">EBP</text></g><g transform="translate(312.45280413735475 323.8333435058594) rotate(0 17 11.5)"><text x="0" y="18" font-family="Helvetica, Segoe UI Emoji" font-size="20px" fill="#ffffff" text-anchor="start" style="white-space: pre;" direction="ltr">ESI</text></g><g transform="translate(312.45280413735475 367.3333435058594) rotate(0 17.5 11.5)"><text x="0" y="18" font-family="Helvetica, Segoe UI Emoji" font-size="20px" fill="#ffffff" text-anchor="start" style="white-space: pre;" direction="ltr">EDI</text></g><g transform="translate(312.45280413735475 494.5000915527344) rotate(0 17 11.5)"><text x="0" y="18" font-family="Helvetica, Segoe UI Emoji" font-size="20px" fill="#ffffff" text-anchor="start" style="white-space: pre;" direction="ltr">EIP</text></g><g transform="translate(312.45280413735475 559.8334045410156) rotate(0 40.5 11.5)"><text x="0" y="18" font-family="Helvetica, Segoe UI Emoji" font-size="20px" fill="#ffffff" text-anchor="start" style="white-space: pre;" direction="ltr">EFLAGS</text></g><g transform="translate(27.452804137354747 56.666656494140625) rotate(0 21.5 11.5)"><text x="0" y="18" font-family="Helvetica, Segoe UI Emoji" font-size="20px" fill="#ffffff" text-anchor="start" style="white-space: pre;" direction="ltr">RAX</text></g><g transform="translate(27.452804137354747 101.33331298828125) rotate(0 21.5 11.5)"><text x="0" y="18" font-family="Helvetica, Segoe UI Emoji" font-size="20px" fill="#ffffff" text-anchor="start" style="white-space: pre;" direction="ltr">RBX</text></g><g transform="translate(27.452804137354747 147.33331298828125) rotate(0 22 11.5)"><text x="0" y="18" font-family="Helvetica, Segoe UI Emoji" font-size="20px" fill="#ffffff" text-anchor="start" style="white-space: pre;" direction="ltr">RCX</text></g><g transform="translate(27.452804137354747 192.83333587646484) rotate(0 22 11.5)"><text x="0" y="18" font-family="Helvetica, Segoe UI Emoji" font-size="20px" fill="#ffffff" text-anchor="start" style="white-space: pre;" direction="ltr">RDX</text></g><g transform="translate(27.452804137354747 236.33333587646484) rotate(0 21.5 11.5)"><text x="0" y="18" font-family="Helvetica, Segoe UI Emoji" font-size="20px" fill="#ffffff" text-anchor="start" style="white-space: pre;" direction="ltr">RSP</text></g><g transform="translate(27.452804137354747 278.33333587646484) rotate(0 21.5 11.5)"><text x="0" y="18" font-family="Helvetica, Segoe UI Emoji" font-size="20px" fill="#ffffff" text-anchor="start" style="white-space: pre;" direction="ltr">RBP</text></g><g transform="translate(27.452804137354747 322.83333587646484) rotate(0 17.5 11.5)"><text x="0" y="18" font-family="Helvetica, Segoe UI Emoji" font-size="20px" fill="#ffffff" text-anchor="start" style="white-space: pre;" direction="ltr">RSI</text></g><g transform="translate(27.452804137354747 367.3333435058594) rotate(0 18 11.5)"><text x="0" y="18" font-family="Helvetica, Segoe UI Emoji" font-size="20px" fill="#ffffff" text-anchor="start" style="white-space: pre;" direction="ltr">RDI</text></g><g transform="translate(27.452804137354747 494.0000915527344) rotate(0 17.5 11.5)"><text x="0" y="18" font-family="Helvetica, Segoe UI Emoji" font-size="20px" fill="#ffffff" text-anchor="start" style="white-space: pre;" direction="ltr">RIP</text></g><g transform="translate(27.452804137354747 560.3334045410156) rotate(0 41 11.5)"><text x="0" y="18" font-family="Helvetica, Segoe UI Emoji" font-size="20px" fill="#ffffff" text-anchor="start" style="white-space: pre;" direction="ltr">RFLAGS</text></g><g transform="translate(26.405214154095887 420.5744905872655) rotate(0 43.5 11.5)"><text x="0" y="18" font-family="Helvetica, Segoe UI Emoji" font-size="20px" fill="#ffffff" text-anchor="start" style="white-space: pre;" direction="ltr">R8 ~ R15</text></g><g transform="translate(479.9052141540959 192.83334350585938) rotate(0 15.5 11.5)"><text x="15.5" y="18" font-family="Helvetica, Segoe UI Emoji" font-size="20px" fill="#ffffff" text-anchor="middle" style="white-space: pre;" direction="ltr">DH</text></g><g transform="translate(479.57187064823654 148.5) rotate(0 15.5 11.5)"><text x="15.5" y="18" font-family="Helvetica, Segoe UI Emoji" font-size="20px" fill="#ffffff" text-anchor="middle" style="white-space: pre;" direction="ltr">CH</text></g><g transform="translate(479.73852714237717 103.16665649414062) rotate(0 15 11.5)"><text x="15" y="18" font-family="Helvetica, Segoe UI Emoji" font-size="20px" fill="#ffffff" text-anchor="middle" style="white-space: pre;" direction="ltr">BH</text></g><g transform="translate(479.4051836365178 57.83331298828125) rotate(0 15 11.5)"><text x="15" y="18" font-family="Helvetica, Segoe UI Emoji" font-size="20px" fill="#ffffff" text-anchor="middle" style="white-space: pre;" direction="ltr">AH</text></g><g transform="translate(552.0719011658147 193.16668701171875) rotate(0 14 11.5)"><text x="14" y="18" font-family="Helvetica, Segoe UI Emoji" font-size="20px" fill="#ffffff" text-anchor="middle" style="white-space: pre;" direction="ltr">DL</text></g><g transform="translate(551.7385576599553 148.83334350585938) rotate(0 14 11.5)"><text x="14" y="18" font-family="Helvetica, Segoe UI Emoji" font-size="20px" fill="#ffffff" text-anchor="middle" style="white-space: pre;" direction="ltr">CL</text></g><g transform="translate(552.4052141540959 103.5) rotate(0 13 11.5)"><text x="13" y="18" font-family="Helvetica, Segoe UI Emoji" font-size="20px" fill="#ffffff" text-anchor="middle" style="white-space: pre;" direction="ltr">BL</text></g><g transform="translate(552.0718706482365 58.166656494140625) rotate(0 13 11.5)"><text x="13" y="18" font-family="Helvetica, Segoe UI Emoji" font-size="20px" fill="#ffffff" text-anchor="middle" style="white-space: pre;" direction="ltr">AL</text></g><g transform="translate(516.2385576599553 280.6667022705078) rotate(0 14.5 11.5)"><text x="14.5" y="18" font-family="Helvetica, Segoe UI Emoji" font-size="20px" fill="#ffffff" text-anchor="middle" style="white-space: pre;" direction="ltr">BP</text></g><g transform="translate(520.2385576599553 324.0000457763672) rotate(0 10.5 11.5)"><text x="10.5" y="18" font-family="Helvetica, Segoe UI Emoji" font-size="20px" fill="#ffffff" text-anchor="middle" style="white-space: pre;" direction="ltr">SI</text></g><g transform="translate(519.7385576599553 367.33338928222656) rotate(0 11 11.5)"><text x="11" y="18" font-family="Helvetica, Segoe UI Emoji" font-size="20px" fill="#ffffff" text-anchor="middle" style="white-space: pre;" direction="ltr">DI</text></g><g transform="translate(520.2385576599553 494.66673278808594) rotate(0 10.5 11.5)"><text x="10.5" y="18" font-family="Helvetica, Segoe UI Emoji" font-size="20px" fill="#ffffff" text-anchor="middle" style="white-space: pre;" direction="ltr">IP</text></g><g transform="translate(496.7385576599553 559.0000762939453) rotate(0 34 11.5)"><text x="34" y="18" font-family="Helvetica, Segoe UI Emoji" font-size="20px" fill="#ffffff" text-anchor="middle" style="white-space: pre;" direction="ltr">FLAGS</text></g><g transform="translate(515.7385576599553 644.3334197998047) rotate(0 15 11.5)"><text x="15" y="18" font-family="Helvetica, Segoe UI Emoji" font-size="20px" fill="#ffffff" text-anchor="middle" style="white-space: pre;" direction="ltr">CS</text></g><g transform="translate(515.7385576599553 687.6667633056641) rotate(0 15 11.5)"><text x="15" y="18" font-family="Helvetica, Segoe UI Emoji" font-size="20px" fill="#ffffff" text-anchor="middle" style="white-space: pre;" direction="ltr">DS</text></g><g transform="translate(516.2385576599553 731.0001068115234) rotate(0 14.5 11.5)"><text x="14.5" y="18" font-family="Helvetica, Segoe UI Emoji" font-size="20px" fill="#ffffff" text-anchor="middle" style="white-space: pre;" direction="ltr">ES</text></g><g transform="translate(516.2385576599553 774.3334503173828) rotate(0 14.5 11.5)"><text x="14.5" y="18" font-family="Helvetica, Segoe UI Emoji" font-size="20px" fill="#ffffff" text-anchor="middle" style="white-space: pre;" direction="ltr">SS</text></g><g transform="translate(516.4051836365178 817.6667938232422) rotate(0 14 11.5)"><text x="14" y="18" font-family="Helvetica, Segoe UI Emoji" font-size="20px" fill="#ffffff" text-anchor="middle" style="white-space: pre;" direction="ltr">FS</text></g><g transform="translate(514.9052141540959 861.0001373291016) rotate(0 15.5 11.5)"><text x="15.5" y="18" font-family="Helvetica, Segoe UI Emoji" font-size="20px" fill="#ffffff" text-anchor="middle" style="white-space: pre;" direction="ltr">GS</text></g><g stroke-linecap="round" transform="translate(10.065397982078707 41.5) rotate(0 376.09586226895135 212.61911371761153)"><path d="M0 0 C166.04 0, 332.08 0, 752.19 0 M752.19 0 C752.19 129.96, 752.19 259.92, 752.19 425.24 M752.19 425.24 C477.75 425.24, 203.31 425.24, 0 425.24 M0 425.24 C0 260.6, 0 95.96, 0 0" stroke="#b6305a" stroke-width="2.5" fill="none" stroke-dasharray="8 10"></path></g><g stroke-linecap="round" transform="translate(10 544.8334045410156) rotate(0 303.2819741886944 26.934496704973753)"><path d="M0 0 C134.84 0, 269.67 0, 606.56 0 M606.56 0 C606.56 14.35, 606.56 28.7, 606.56 53.87 M606.56 53.87 C421.5 53.87, 236.45 53.87, 0 53.87 M0 53.87 C0 40.97, 0 28.07, 0 0" stroke="#4b8747" stroke-width="2.5" fill="none" stroke-dasharray="8 10"></path></g><g stroke-linecap="round" transform="translate(447.5690226637556 630.5001220703125) rotate(0 161.17702996984673 136.11755116176687)"><path d="M0 0 C70.73 0, 141.46 0, 322.35 0 M322.35 0 C322.35 56.21, 322.35 112.42, 322.35 272.24 M322.35 272.24 C209.26 272.24, 96.16 272.24, 0 272.24 M0 272.24 C0 179.81, 0 87.38, 0 0" stroke="#5586ed" stroke-width="2.5" fill="none" stroke-dasharray="8 10"></path></g><g transform="translate(620.2571225199814 492.0000915527344) rotate(0 71 13.5)"><text x="0" y="21" font-family="Helvetica, Segoe UI Emoji" font-size="20px" fill="#eb8851" text-anchor="start" style="white-space: pre;" direction="ltr">指令指针寄存器</text></g><g transform="translate(657.1494530535931 10) rotate(0 51 13.5)"><text x="0" y="21" font-family="Helvetica, Segoe UI Emoji" font-size="20px" fill="#b6305a" text-anchor="start" style="white-space: pre;" direction="ltr">通用寄存器</text></g><g transform="translate(609.7385271423772 57.83331298828125) rotate(0 14.5 11.5)"><text x="0" y="18" font-family="Helvetica, Segoe UI Emoji" font-size="20px" fill="#5586ed" text-anchor="start" style="white-space: pre;" direction="ltr">AX</text></g><g transform="translate(609.7386492126897 103.16665649414062) rotate(0 14.5 11.5)"><text x="0" y="18" font-family="Helvetica, Segoe UI Emoji" font-size="20px" fill="#5586ed" text-anchor="start" style="white-space: pre;" direction="ltr">BX</text></g><g transform="translate(609.7385271423772 148.5) rotate(0 15 11.5)"><text x="0" y="18" font-family="Helvetica, Segoe UI Emoji" font-size="20px" fill="#5586ed" text-anchor="start" style="white-space: pre;" direction="ltr">CX</text></g><g transform="translate(609.7385271423772 193.83334350585938) rotate(0 15 11.5)"><text x="0" y="18" font-family="Helvetica, Segoe UI Emoji" font-size="20px" fill="#5586ed" text-anchor="start" style="white-space: pre;" direction="ltr">DX</text></g><g transform="translate(622.2385271423772 557.0000762939453) rotate(0 51 13.5)"><text x="0" y="21" font-family="Helvetica, Segoe UI Emoji" font-size="20px" fill="#4b8747" text-anchor="start" style="white-space: pre;" direction="ltr">标志寄存器</text></g><g transform="translate(682.2385271423772 597.7023979509631) rotate(0 41 13.5)"><text x="0" y="21" font-family="Helvetica, Segoe UI Emoji" font-size="20px" fill="#5586ed" text-anchor="start" style="white-space: pre;" direction="ltr">段寄存器</text></g><g transform="translate(54.735397620821686 808.7842686910637) rotate(0 73.5 13.5)"><text x="0" y="21" font-family="Helvetica, Segoe UI Emoji" font-size="20px" fill="#353a3f" text-anchor="start" style="white-space: pre;" direction="ltr">8086寄存器模型</text></g><g transform="translate(54.735397620821686 841.5838773380074) rotate(0 115 13.5)"><text x="0" y="21" font-family="Helvetica, Segoe UI Emoji" font-size="20px" fill="#353a3f" text-anchor="start" style="white-space: pre;" direction="ltr">IA-32寄存器模型新增部分</text></g><g transform="translate(54.735397620821686 871.5001220703125) rotate(0 103.5 13.5)"><text x="0" y="21" font-family="Helvetica, Segoe UI Emoji" font-size="20px" fill="#353a3f" text-anchor="start" style="white-space: pre;" direction="ltr">X86-64寄存器新增部分</text></g><g stroke-linecap="round" transform="translate(459.7353976208217 47.11761219692312) rotate(0 92.00006103515625 21.666656494140625)"><path d="M0 0 C65.48 0, 130.96 0, 184 0 M0 0 C52.48 0, 104.96 0, 184 0 M184 0 C184 12.64, 184 25.29, 184 43.33 M184 0 C184 9.3, 184 18.6, 184 43.33 M184 43.33 C137.85 43.33, 91.7 43.33, 0 43.33 M184 43.33 C116.44 43.33, 48.89 43.33, 0 43.33 M0 43.33 C0 34.64, 0 25.96, 0 0 M0 43.33 C0 31.89, 0 20.44, 0 0" stroke="#5586ed" stroke-width="1" fill="none"></path></g><g stroke-linecap="round" transform="translate(460.4051836365178 93.33334350585938) rotate(0 92.00006103515625 21.666656494140625)"><path d="M0 0 C60.33 0, 120.65 0, 184 0 M0 0 C42.28 0, 84.56 0, 184 0 M184 0 C184 14.02, 184 28.03, 184 43.33 M184 0 C184 9.49, 184 18.98, 184 43.33 M184 43.33 C120.75 43.33, 57.51 43.33, 0 43.33 M184 43.33 C120.17 43.33, 56.34 43.33, 0 43.33 M0 43.33 C0 27.23, 0 11.12, 0 0 M0 43.33 C0 28.6, 0 13.87, 0 0" stroke="#5586ed" stroke-width="1" fill="none"></path></g><g stroke-linecap="round" transform="translate(460.4051836365178 138.66665649414062) rotate(0 92 21.666656494140625)"><path d="M0 0 C39.02 0, 78.05 0, 184 0 M0 0 C44.95 0, 89.91 0, 184 0 M184 0 C184 15.76, 184 31.52, 184 43.33 M184 0 C184 10.93, 184 21.86, 184 43.33 M184 43.33 C143.79 43.33, 103.57 43.33, 0 43.33 M184 43.33 C145.98 43.33, 107.95 43.33, 0 43.33 M0 43.33 C0 34.41, 0 25.49, 0 0 M0 43.33 C0 29.05, 0 14.76, 0 0" stroke="#5586ed" stroke-width="1" fill="none"></path></g><g stroke-linecap="round" transform="translate(460.4051836365178 184.66667938232422) rotate(0 92 20.666671752929688)"><path d="M0 0 C38.02 0, 76.05 0, 184 0 M0 0 C37.89 0, 75.78 0, 184 0 M184 0 C184 13.63, 184 27.25, 184 41.33 M184 0 C184 10.23, 184 20.45, 184 41.33 M184 41.33 C122.27 41.33, 60.54 41.33, 0 41.33 M184 41.33 C140.15 41.33, 96.31 41.33, 0 41.33 M0 41.33 C0 31.04, 0 20.74, 0 0 M0 41.33 C0 27.75, 0 14.16, 0 0" stroke="#5586ed" stroke-width="1" fill="none"></path></g><g transform="translate(754.0718401306584 18.5) rotate(0 39.97825688901156 102.16665649414062)"><text x="39.97825688901155" y="163.33331298828125" font-family="Helvetica, Segoe UI Emoji" font-size="177.68114172894013px" fill="#5586ed" text-anchor="middle" style="white-space: pre;" direction="ltr">}</text></g><g transform="translate(764.2385271423772 198.83334350585938) rotate(0 30.5 102)"><text x="30.5" y="163" font-family="Helvetica, Segoe UI Emoji" font-size="177.68114172894013px" fill="#4b8747" text-anchor="middle" style="white-space: pre;" direction="ltr">}</text></g><g transform="translate(772.4053972595647 603.7023979509631) rotate(0 30.5 102)"><text x="30.5" y="163" font-family="Helvetica, Segoe UI Emoji" font-size="177.68114172894013px" fill="#b6305a" text-anchor="middle" style="white-space: pre;" direction="ltr">}</text></g><g transform="translate(821.6950409204003 121.66665649414062) rotate(0 71 13.5)"><text x="71" y="21" font-family="Helvetica, Segoe UI Emoji" font-size="20px" fill="#5586ed" text-anchor="middle" style="white-space: pre;" direction="ltr">通用数据寄存器</text></g><g transform="translate(824.2385271423772 300.8333435058594) rotate(0 71 13.5)"><text x="71" y="21" font-family="Helvetica, Segoe UI Emoji" font-size="20px" fill="#4b8747" text-anchor="middle" style="white-space: pre;" direction="ltr">通用地址寄存器</text></g><g transform="translate(831.4053972595647 705.7023979509631) rotate(0 41 13.5)"><text x="41" y="21" font-family="Helvetica, Segoe UI Emoji" font-size="20px" fill="#b6305a" text-anchor="middle" style="white-space: pre;" direction="ltr">段寄存器</text></g><g transform="translate(648.1494530535931 54.666656494140625) rotate(0 31 13.5)"><text x="31" y="21" font-family="Helvetica, Segoe UI Emoji" font-size="20px" fill="#5586ed" text-anchor="middle" style="white-space: pre;" direction="ltr">累加器</text></g><g transform="translate(648.1494530535931 101.16665649414062) rotate(0 51 13.5)"><text x="51" y="21" font-family="Helvetica, Segoe UI Emoji" font-size="20px" fill="#5586ed" text-anchor="middle" style="white-space: pre;" direction="ltr">基址寄存器</text></g><g transform="translate(648.1494530535931 146.6123490390287) rotate(0 31 13.5)"><text x="31" y="21" font-family="Helvetica, Segoe UI Emoji" font-size="20px" fill="#5586ed" text-anchor="middle" style="white-space: pre;" direction="ltr">计数器</text></g><g transform="translate(648.8161400653119 192.94566202730994) rotate(0 51 13.5)"><text x="51" y="21" font-family="Helvetica, Segoe UI Emoji" font-size="20px" fill="#5586ed" text-anchor="middle" style="white-space: pre;" direction="ltr">数据寄存器</text></g><g transform="translate(604.8160790301556 236.28577021175215) rotate(0 41 13.5)"><text x="41" y="21" font-family="Helvetica, Segoe UI Emoji" font-size="20px" fill="#4b8747" text-anchor="middle" style="white-space: pre;" direction="ltr">基址指针</text></g><g transform="translate(604.8160790301556 278.6667022705078) rotate(0 81 13.5)"><text x="81" y="21" font-family="Helvetica, Segoe UI Emoji" font-size="20px" fill="#4b8747" text-anchor="middle" style="white-space: pre;" direction="ltr">堆栈指针（栈顶）</text></g><g transform="translate(604.8160790301556 321.8333435058594) rotate(0 61 13.5)"><text x="61" y="21" font-family="Helvetica, Segoe UI Emoji" font-size="20px" fill="#4b8747" text-anchor="middle" style="white-space: pre;" direction="ltr">源变址寄存器</text></g><g transform="translate(604.8160790301556 365.3333435058594) rotate(0 71 13.5)"><text x="71" y="21" font-family="Helvetica, Segoe UI Emoji" font-size="20px" fill="#4b8747" text-anchor="middle" style="white-space: pre;" direction="ltr">目的变址寄存器</text></g><g transform="translate(604.4053972595647 642.3334197998047) rotate(0 61 13.5)"><text x="61" y="21" font-family="Helvetica, Segoe UI Emoji" font-size="20px" fill="#b6305a" text-anchor="middle" style="white-space: pre;" direction="ltr">代码段寄存器</text></g><g transform="translate(604.4053972595647 685.6667633056641) rotate(0 61 13.5)"><text x="61" y="21" font-family="Helvetica, Segoe UI Emoji" font-size="20px" fill="#b6305a" text-anchor="middle" style="white-space: pre;" direction="ltr">数据段寄存器</text></g><g transform="translate(604.4053972595647 729.0001068115234) rotate(0 81 13.5)"><text x="81" y="21" font-family="Helvetica, Segoe UI Emoji" font-size="20px" fill="#b6305a" text-anchor="middle" style="white-space: pre;" direction="ltr">附加数据段寄存器</text></g><g transform="translate(604.4053972595647 772.3334503173828) rotate(0 81 13.5)"><text x="81" y="21" font-family="Helvetica, Segoe UI Emoji" font-size="20px" fill="#b6305a" text-anchor="middle" style="white-space: pre;" direction="ltr">堆栈数据段寄存器</text></g><g transform="translate(529.4051836365178 10) rotate(0 16.5 13.5)"><text x="16.5" y="21" font-family="Helvetica, Segoe UI Emoji" font-size="20px" fill="#353a3f" text-anchor="middle" style="white-space: pre;" direction="ltr">8位</text></g><g transform="translate(459.4051836365178 10) rotate(0 22 13.5)"><text x="22" y="21" font-family="Helvetica, Segoe UI Emoji" font-size="20px" fill="#353a3f" text-anchor="middle" style="white-space: pre;" direction="ltr">16位</text></g><g transform="translate(307.45280413735475 10) rotate(0 22 13.5)"><text x="22" y="21" font-family="Helvetica, Segoe UI Emoji" font-size="20px" fill="#353a3f" text-anchor="middle" style="white-space: pre;" direction="ltr">32位</text></g><g transform="translate(22.452804137354747 10) rotate(0 22 13.5)"><text x="22" y="21" font-family="Helvetica, Segoe UI Emoji" font-size="20px" fill="#353a3f" text-anchor="middle" style="white-space: pre;" direction="ltr">64位</text></g></svg>