<svg version="1.1" xmlns="http://www.w3.org/2000/svg" viewBox="0 0 552.333251953125 433" width="552.333251953125" height="433">
  <!-- svg-source:excalidraw -->
  
  <defs>
    <style>
      @font-face {
        font-family: "Virgil";
        src: url("https://oss-liuchengtu.hudunsoft.com/bgmuisc/1670404928.woff2"), url("https://excalidraw.com/Virgil.woff2");
        font-display: swap;
      }
      @font-face {
        font-family: "Cascadia";
        src: url("https://oss-liuchengtu.hudunsoft.com/bgmuisc/1670404879.woff2"), url("https://excalidraw.com/Cascadia.woff2");
        font-display: swap;
      }
    </style>
  </defs>
  <g stroke-linecap="round" transform="translate(71 68.66665649414062) rotate(0 61 16.5)"><path d="M0 0 L122 0 L122 33 L0 33" stroke="none" stroke-width="0" fill="#478bdf"></path><path d="M0 0 C24.86 0, 49.71 0, 122 0 M0 0 C44.24 0, 88.48 0, 122 0 M122 0 C122 7.74, 122 15.48, 122 33 M122 0 C122 8.41, 122 16.83, 122 33 M122 33 C79.9 33, 37.8 33, 0 33 M122 33 C76.67 33, 31.34 33, 0 33 M0 33 C0 22.24, 0 11.47, 0 0 M0 33 C0 24.15, 0 15.3, 0 0" stroke="#000000" stroke-width="1" fill="none"></path></g><g stroke-linecap="round" transform="translate(71 100.66665649414062) rotate(0 61 17.5)"><path d="M0 0 L122 0 L122 35 L0 35" stroke="none" stroke-width="0" fill="#478bdf"></path><path d="M0 0 C30.15 0, 60.31 0, 122 0 M0 0 C43.31 0, 86.62 0, 122 0 M122 0 C122 7.38, 122 14.77, 122 35 M122 0 C122 9.46, 122 18.93, 122 35 M122 35 C90.97 35, 59.93 35, 0 35 M122 35 C77.14 35, 32.27 35, 0 35 M0 35 C0 24.2, 0 13.41, 0 0 M0 35 C0 27.5, 0 20, 0 0" stroke="#000000" stroke-width="1" fill="none"></path></g><g stroke-linecap="round" transform="translate(71 132.66665649414062) rotate(0 61 16.5)"><path d="M0 0 L122 0 L122 33 L0 33" stroke="none" stroke-width="0" fill="#478bdf"></path><path d="M0 0 C42.35 0, 84.7 0, 122 0 M0 0 C25.33 0, 50.65 0, 122 0 M122 0 C122 7.49, 122 14.97, 122 33 M122 0 C122 10.33, 122 20.67, 122 33 M122 33 C78.98 33, 35.96 33, 0 33 M122 33 C85.71 33, 49.43 33, 0 33 M0 33 C0 20.99, 0 8.98, 0 0 M0 33 C0 22.53, 0 12.06, 0 0" stroke="#000000" stroke-width="1" fill="none"></path></g><g stroke-linecap="round" transform="translate(71 164.66665649414062) rotate(0 61 16.5)"><path d="M0 0 L122 0 L122 33 L0 33" stroke="none" stroke-width="0" fill="#ffffff"></path><path d="M0 0 C33.59 0, 67.18 0, 122 0 M0 0 C37.36 0, 74.71 0, 122 0 M122 0 C122 11.34, 122 22.68, 122 33 M122 0 C122 8.27, 122 16.54, 122 33 M122 33 C84.08 33, 46.16 33, 0 33 M122 33 C83.01 33, 44.01 33, 0 33 M0 33 C0 20.32, 0 7.64, 0 0 M0 33 C0 23.6, 0 14.21, 0 0" stroke="#000000" stroke-width="1" fill="none"></path></g><g stroke-linecap="round" transform="translate(71 196.66665649414062) rotate(0 61 16.5)"><path d="M0 0 L122 0 L122 33 L0 33" stroke="none" stroke-width="0" fill="#6bbc63"></path><path d="M0 0 C44.41 0, 88.82 0, 122 0 M0 0 C27.2 0, 54.41 0, 122 0 M122 0 C122 7.39, 122 14.78, 122 33 M122 0 C122 12.47, 122 24.95, 122 33 M122 33 C76.84 33, 31.69 33, 0 33 M122 33 C81.34 33, 40.69 33, 0 33 M0 33 C0 22.37, 0 11.75, 0 0 M0 33 C0 22.8, 0 12.6, 0 0" stroke="#000000" stroke-width="1" fill="none"></path></g><g stroke-linecap="round" transform="translate(71 228.66665649414062) rotate(0 61 16.5)"><path d="M0 0 L122 0 L122 33 L0 33" stroke="none" stroke-width="0" fill="#e55f59"></path><path d="M0 0 C43.02 0, 86.04 0, 122 0 M0 0 C36.29 0, 72.57 0, 122 0 M122 0 C122 12.01, 122 24.02, 122 33 M122 0 C122 10.47, 122 20.94, 122 33 M122 33 C92.76 33, 63.51 33, 0 33 M122 33 C89.85 33, 57.71 33, 0 33 M0 33 C0 23.87, 0 14.74, 0 0 M0 33 C0 22.03, 0 11.07, 0 0" stroke="#000000" stroke-width="1" fill="none"></path></g><g stroke-linecap="round" transform="translate(71 260.6666564941406) rotate(0 61 17.5)"><path d="M0 0 L122 0 L122 35 L0 35" stroke="none" stroke-width="0" fill="#e55f59"></path><path d="M0 0 C37.23 0, 74.47 0, 122 0 M0 0 C38.09 0, 76.18 0, 122 0 M122 0 C122 7.02, 122 14.04, 122 35 M122 0 C122 9.9, 122 19.81, 122 35 M122 35 C88.44 35, 54.88 35, 0 35 M122 35 C95.8 35, 69.6 35, 0 35 M0 35 C0 22.04, 0 9.07, 0 0 M0 35 C0 24.81, 0 14.63, 0 0" stroke="#000000" stroke-width="1" fill="none"></path></g><g stroke-linecap="round" transform="translate(71 295.6666564941406) rotate(0 61 17.5)"><path d="M0 0 L122 0 L122 35 L0 35" stroke="none" stroke-width="0" fill="#e55f59"></path><path d="M0 0 C40.66 0, 81.31 0, 122 0 M0 0 C39.29 0, 78.57 0, 122 0 M122 0 C122 10.82, 122 21.64, 122 35 M122 0 C122 12.29, 122 24.59, 122 35 M122 35 C91.81 35, 61.63 35, 0 35 M122 35 C90.33 35, 58.66 35, 0 35 M0 35 C0 21.58, 0 8.17, 0 0 M0 35 C0 26, 0 17.01, 0 0" stroke="#000000" stroke-width="1" fill="none"></path></g><g stroke-linecap="round" transform="translate(71 330.6666564941406) rotate(0 61 17.5)"><path d="M0 0 L122 0 L122 35 L0 35" stroke="none" stroke-width="0" fill="#e55f59"></path><path d="M0 0 C42 0, 83.99 0, 122 0 M0 0 C39.85 0, 79.69 0, 122 0 M122 0 C122 11.51, 122 23.02, 122 35 M122 0 C122 9.38, 122 18.76, 122 35 M122 35 C76.94 35, 31.88 35, 0 35 M122 35 C81.54 35, 41.08 35, 0 35 M0 35 C0 22.71, 0 10.41, 0 0 M0 35 C0 22.57, 0 10.14, 0 0" stroke="#000000" stroke-width="1" fill="none"></path></g><g stroke-linecap="round"><g transform="translate(71 39.33331298828125) rotate(0 0 179.33334350585938)"><path d="M0 0 C0 59.78, 0 298.89, 0 358.67 M0 0 C0 59.78, 0 298.89, 0 358.67" stroke="#000000" stroke-width="1" fill="none"></path></g></g><g stroke-linecap="round"><g transform="translate(193 39.33331298828125) rotate(0 0 179.33334350585938)"><path d="M0 0 C0 59.78, 0 298.89, 0 358.67 M0 0 C0 59.78, 0 298.89, 0 358.67" stroke="#000000" stroke-width="1" fill="none"></path></g></g><g transform="translate(110.5 106.66665649414062) rotate(0 21.5 11.5)"><text x="21.5" y="18" font-family="Helvetica, Segoe UI Emoji" font-size="20px" fill="#ffffff" text-anchor="middle" style="white-space: pre;" direction="ltr">AAH</text></g><g transform="translate(110.5 137.66665649414062) rotate(0 21.5 11.5)"><text x="21.5" y="18" font-family="Helvetica, Segoe UI Emoji" font-size="20px" fill="#ffffff" text-anchor="middle" style="white-space: pre;" direction="ltr">AAH</text></g><g transform="translate(122.5 73.66665649414062) rotate(0 9.5 11.5)"><text x="9.5" y="18" font-family="Helvetica, Segoe UI Emoji" font-size="20px" fill="#ffffff" text-anchor="middle" style="white-space: pre;" direction="ltr">...</text></g><g transform="translate(122.5 336.6666564941406) rotate(0 9.5 11.5)"><text x="9.5" y="18" font-family="Helvetica, Segoe UI Emoji" font-size="20px" fill="#ffffff" text-anchor="middle" style="white-space: pre;" direction="ltr">...</text></g><g transform="translate(112.5 301.6666564941406) rotate(0 19.5 11.5)"><text x="19.5" y="18" font-family="Helvetica, Segoe UI Emoji" font-size="20px" fill="#ffffff" text-anchor="middle" style="white-space: pre;" direction="ltr">88H</text></g><g transform="translate(112.5 266.6666564941406) rotate(0 19.5 11.5)"><text x="19.5" y="18" font-family="Helvetica, Segoe UI Emoji" font-size="20px" fill="#ffffff" text-anchor="middle" style="white-space: pre;" direction="ltr">88H</text></g><g transform="translate(122.5 233.66665649414062) rotate(0 9.5 11.5)"><text x="9.5" y="18" font-family="Helvetica, Segoe UI Emoji" font-size="20px" fill="#ffffff" text-anchor="middle" style="white-space: pre;" direction="ltr">...</text></g><g transform="translate(112.5 201.66665649414062) rotate(0 19.5 11.5)"><text x="19.5" y="18" font-family="Helvetica, Segoe UI Emoji" font-size="20px" fill="#ffffff" text-anchor="middle" style="white-space: pre;" direction="ltr">12H</text></g><g transform="translate(122.5 169.66665649414062) rotate(0 9.5 11.5)"><text x="9.5" y="18" font-family="Helvetica, Segoe UI Emoji" font-size="20px" fill="#000000" text-anchor="middle" style="white-space: pre;" direction="ltr">...</text></g><g transform="translate(337.333251953125 10) rotate(0 102.5 206.5)"><text x="0" y="20.8125" font-family="Cascadia, Segoe UI Emoji" font-size="20px" fill="#353a3f" text-anchor="start" style="white-space: pre;" direction="ltr">MOV CL，[2500H]； </text><text x="0" y="46.625" font-family="Cascadia, Segoe UI Emoji" font-size="20px" fill="#353a3f" text-anchor="start" style="white-space: pre;" direction="ltr">MOV SI， 2000H</text><text x="0" y="72.4375" font-family="Cascadia, Segoe UI Emoji" font-size="20px" fill="#353a3f" text-anchor="start" style="white-space: pre;" direction="ltr">MOV DI， 3000H</text><text x="0" y="98.25" font-family="Cascadia, Segoe UI Emoji" font-size="20px" fill="#353a3f" text-anchor="start" style="white-space: pre;" direction="ltr">CLC；</text><text x="0" y="124.0625" font-family="Cascadia, Segoe UI Emoji" font-size="20px" fill="#353a3f" text-anchor="start" style="white-space: pre;" direction="ltr">MOV AX，[SI]</text><text x="0" y="149.875" font-family="Cascadia, Segoe UI Emoji" font-size="20px" fill="#353a3f" text-anchor="start" style="white-space: pre;" direction="ltr">ADC AX，[DI]</text><text x="0" y="175.6875" font-family="Cascadia, Segoe UI Emoji" font-size="20px" fill="#353a3f" text-anchor="start" style="white-space: pre;" direction="ltr">MOV [SI]， AX</text><text x="0" y="201.5" font-family="Cascadia, Segoe UI Emoji" font-size="20px" fill="#353a3f" text-anchor="start" style="white-space: pre;" direction="ltr">INC SI</text><text x="0" y="227.3125" font-family="Cascadia, Segoe UI Emoji" font-size="20px" fill="#353a3f" text-anchor="start" style="white-space: pre;" direction="ltr">INC SI </text><text x="0" y="253.125" font-family="Cascadia, Segoe UI Emoji" font-size="20px" fill="#353a3f" text-anchor="start" style="white-space: pre;" direction="ltr">INC DI</text><text x="0" y="278.9375" font-family="Cascadia, Segoe UI Emoji" font-size="20px" fill="#353a3f" text-anchor="start" style="white-space: pre;" direction="ltr">INC DI</text><text x="0" y="304.75" font-family="Cascadia, Segoe UI Emoji" font-size="20px" fill="#353a3f" text-anchor="start" style="white-space: pre;" direction="ltr">DEC CL</text><text x="0" y="330.5625" font-family="Cascadia, Segoe UI Emoji" font-size="20px" fill="#353a3f" text-anchor="start" style="white-space: pre;" direction="ltr">JNZ LOOP1；</text><text x="0" y="356.375" font-family="Cascadia, Segoe UI Emoji" font-size="20px" fill="#353a3f" text-anchor="start" style="white-space: pre;" direction="ltr">MOV AX，OH</text><text x="0" y="382.1875" font-family="Cascadia, Segoe UI Emoji" font-size="20px" fill="#353a3f" text-anchor="start" style="white-space: pre;" direction="ltr">ADC AX，OH</text><text x="0" y="408" font-family="Cascadia, Segoe UI Emoji" font-size="20px" fill="#353a3f" text-anchor="start" style="white-space: pre;" direction="ltr">MOV [SI]，AX</text></g><g transform="translate(256.333251953125 112.5) rotate(0 40.5 13.5)"><text x="0" y="21" font-family="Cascadia, Segoe UI Emoji" font-size="20px" fill="#353a3f" text-anchor="start" style="white-space: pre;" direction="ltr">LOOP1：</text></g><g transform="translate(10 301.6666564941406) rotate(0 30.5 11.5)"><text x="0" y="18" font-family="Helvetica, Segoe UI Emoji" font-size="20px" fill="#353a3f" text-anchor="start" style="white-space: pre;" direction="ltr">2000H</text></g><g transform="translate(10 266.6666564941406) rotate(0 30.5 11.5)"><text x="0" y="18" font-family="Helvetica, Segoe UI Emoji" font-size="20px" fill="#353a3f" text-anchor="start" style="white-space: pre;" direction="ltr">2001H</text></g><g transform="translate(10 201.66665649414062) rotate(0 30.5 11.5)"><text x="0" y="18" font-family="Helvetica, Segoe UI Emoji" font-size="20px" fill="#353a3f" text-anchor="start" style="white-space: pre;" direction="ltr">2500H</text></g><g transform="translate(10 137.66665649414062) rotate(0 30.5 11.5)"><text x="0" y="18" font-family="Helvetica, Segoe UI Emoji" font-size="20px" fill="#353a3f" text-anchor="start" style="white-space: pre;" direction="ltr">3000H</text></g><g transform="translate(10 106.66665649414062) rotate(0 30.5 11.5)"><text x="0" y="18" font-family="Helvetica, Segoe UI Emoji" font-size="20px" fill="#353a3f" text-anchor="start" style="white-space: pre;" direction="ltr">3001H</text></g></svg>