<svg version="1.1" xmlns="http://www.w3.org/2000/svg" viewBox="0 0 652.3333435058594 361" width="652.3333435058594" height="361">
  <g stroke-linecap="round" transform="translate(231.6666259765625 44.33331298828125) rotate(0 93.66668701171875 38)"><path d="M19 0 L168.33 0 L176.65 1.19 L182.58 4.75 L184.66 7.42 L187.04 14.55 L187.33 57 L186.15 65.31 L184.66 68.58 L179.91 73.33 L176.65 74.81 L168.33 76 L19 76 L10.69 74.81 L4.75 71.25 L2.67 68.58 L0.3 61.45 L0.3 14.55 L2.67 7.42 L7.42 2.67 L14.55 0.3 L19 0" stroke="none" stroke-width="0" fill="#478bdf"></path><path d="M19 0 M19 0 C53.31 0, 87.62 0, 168.33 0 M19 0 C73.57 0, 128.13 0, 168.33 0 M168.33 0 C181 0, 187.33 6.33, 187.33 19 M168.33 0 C181 0, 187.33 6.33, 187.33 19 M187.33 19 C187.33 30.62, 187.33 42.24, 187.33 57 M187.33 19 C187.33 33.44, 187.33 47.89, 187.33 57 M187.33 57 C187.33 69.67, 181 76, 168.33 76 M187.33 57 C187.33 69.67, 181 76, 168.33 76 M168.33 76 C111.36 76, 54.39 76, 19 76 M168.33 76 C131.1 76, 93.87 76, 19 76 M19 76 C6.33 76, 0 69.67, 0 57 M19 76 C6.33 76, 0 69.67, 0 57 M0 57 C0 45.91, 0 34.82, 0 19 M0 57 C0 47.1, 0 37.2, 0 19 M0 19 C0 6.33, 6.33 0, 19 0 M0 19 C0 6.33, 6.33 0, 19 0" stroke="transparent" stroke-width="1" fill="none"></path></g><g stroke-linecap="round" transform="translate(231.33331298828125 275) rotate(0 93.66668701171875 38)"><path d="M19 0 L168.33 0 L176.65 1.19 L182.58 4.75 L184.66 7.42 L187.04 14.55 L187.33 57 L186.15 65.31 L184.66 68.58 L179.91 73.33 L176.65 74.81 L168.33 76 L19 76 L10.69 74.81 L4.75 71.25 L2.67 68.58 L0.3 61.45 L0.3 14.55 L2.67 7.42 L7.42 2.67 L14.55 0.3 L19 0" stroke="none" stroke-width="0" fill="#59b489"></path><path d="M19 0 M19 0 C61.49 0, 103.98 0, 168.33 0 M19 0 C60.01 0, 101.03 0, 168.33 0 M168.33 0 C181 0, 187.33 6.33, 187.33 19 M168.33 0 C181 0, 187.33 6.33, 187.33 19 M187.33 19 C187.33 31.11, 187.33 43.22, 187.33 57 M187.33 19 C187.33 29.93, 187.33 40.85, 187.33 57 M187.33 57 C187.33 69.67, 181 76, 168.33 76 M187.33 57 C187.33 69.67, 181 76, 168.33 76 M168.33 76 C137.34 76, 106.34 76, 19 76 M168.33 76 C131.88 76, 95.43 76, 19 76 M19 76 C6.33 76, 0 69.67, 0 57 M19 76 C6.33 76, 0 69.67, 0 57 M0 57 C0 43.06, 0 29.12, 0 19 M0 57 C0 46.41, 0 35.82, 0 19 M0 19 C0 6.33, 6.33 0, 19 0 M0 19 C0 6.33, 6.33 0, 19 0" stroke="transparent" stroke-width="1" fill="none"></path></g><g stroke-linecap="round" transform="translate(10 112.99996948242188) rotate(0 93.66668701171875 38)"><path d="M19 0 L168.33 0 L176.65 1.19 L182.58 4.75 L184.66 7.42 L187.04 14.55 L187.33 57 L186.15 65.31 L184.66 68.58 L179.91 73.33 L176.65 74.81 L168.33 76 L19 76 L10.69 74.81 L4.75 71.25 L2.67 68.58 L0.3 61.45 L0.3 14.55 L2.67 7.42 L7.42 2.67 L14.55 0.3 L19 0" stroke="none" stroke-width="0" fill="#d35680"></path><path d="M19 0 M19 0 C55.69 0, 92.37 0, 168.33 0 M19 0 C60.2 0, 101.4 0, 168.33 0 M168.33 0 C181 0, 187.33 6.33, 187.33 19 M168.33 0 C181 0, 187.33 6.33, 187.33 19 M187.33 19 C187.33 28.19, 187.33 37.37, 187.33 57 M187.33 19 C187.33 30.37, 187.33 41.74, 187.33 57 M187.33 57 C187.33 69.67, 181 76, 168.33 76 M187.33 57 C187.33 69.67, 181 76, 168.33 76 M168.33 76 C108.96 76, 49.59 76, 19 76 M168.33 76 C121.4 76, 74.46 76, 19 76 M19 76 C6.33 76, 0 69.67, 0 57 M19 76 C6.33 76, 0 69.67, 0 57 M0 57 C0 42.27, 0 27.54, 0 19 M0 57 C0 49.25, 0 41.5, 0 19 M0 19 C0 6.33, 6.33 0, 19 0 M0 19 C0 6.33, 6.33 0, 19 0" stroke="transparent" stroke-width="1" fill="none"></path></g><g stroke-linecap="round" transform="translate(454.9999694824219 110.33328247070312) rotate(0 93.66668701171875 38)"><path d="M19 0 L168.33 0 L176.65 1.19 L182.58 4.75 L184.66 7.42 L187.04 14.55 L187.33 57 L186.15 65.31 L184.66 68.58 L179.91 73.33 L176.65 74.81 L168.33 76 L19 76 L10.69 74.81 L4.75 71.25 L2.67 68.58 L0.3 61.45 L0.3 14.55 L2.67 7.42 L7.42 2.67 L14.55 0.3 L19 0" stroke="none" stroke-width="0" fill="#eb8437"></path><path d="M19 0 M19 0 C51.02 0, 83.03 0, 168.33 0 M19 0 C74.07 0, 129.14 0, 168.33 0 M168.33 0 C181 0, 187.33 6.33, 187.33 19 M168.33 0 C181 0, 187.33 6.33, 187.33 19 M187.33 19 C187.33 29.45, 187.33 39.91, 187.33 57 M187.33 19 C187.33 28.79, 187.33 38.59, 187.33 57 M187.33 57 C187.33 69.67, 181 76, 168.33 76 M187.33 57 C187.33 69.67, 181 76, 168.33 76 M168.33 76 C123.38 76, 78.42 76, 19 76 M168.33 76 C119.8 76, 71.27 76, 19 76 M19 76 C6.33 76, 0 69.67, 0 57 M19 76 C6.33 76, 0 69.67, 0 57 M0 57 C0 45.76, 0 34.52, 0 19 M0 57 C0 49.07, 0 41.14, 0 19 M0 19 C0 6.33, 6.33 0, 19 0 M0 19 C0 6.33, 6.33 0, 19 0" stroke="transparent" stroke-width="1" fill="none"></path></g><g stroke-linecap="round" transform="translate(232.99993896484375 134.99996948242188) rotate(0 93.66668701171875 38)"><path d="M19 0 L168.33 0 L176.65 1.19 L182.58 4.75 L184.66 7.42 L187.04 14.55 L187.33 57 L186.15 65.31 L184.66 68.58 L179.91 73.33 L176.65 74.81 L168.33 76 L19 76 L10.69 74.81 L4.75 71.25 L2.67 68.58 L0.3 61.45 L0.3 14.55 L2.67 7.42 L7.42 2.67 L14.55 0.3 L19 0" stroke="none" stroke-width="0" fill="#57b8ff"></path><path d="M19 0 M19 0 C61.89 0, 104.79 0, 168.33 0 M19 0 C77.86 0, 136.71 0, 168.33 0 M168.33 0 C181 0, 187.33 6.33, 187.33 19 M168.33 0 C181 0, 187.33 6.33, 187.33 19 M187.33 19 C187.33 26.87, 187.33 34.75, 187.33 57 M187.33 19 C187.33 30.34, 187.33 41.67, 187.33 57 M187.33 57 C187.33 69.67, 181 76, 168.33 76 M187.33 57 C187.33 69.67, 181 76, 168.33 76 M168.33 76 C125.62 76, 82.91 76, 19 76 M168.33 76 C135.05 76, 101.77 76, 19 76 M19 76 C6.33 76, 0 69.67, 0 57 M19 76 C6.33 76, 0 69.67, 0 57 M0 57 C0 44, 0 31, 0 19 M0 57 C0 46.09, 0 35.18, 0 19 M0 19 C0 6.33, 6.33 0, 19 0 M0 19 C0 6.33, 6.33 0, 19 0" stroke="transparent" stroke-width="1" fill="none"></path></g><g stroke-linecap="round" transform="translate(225.666748046875 37.666656494140625) rotate(0 100.66665649414062 90.99998474121094)"><path d="M0 0 C44.71 0, 89.42 0, 201.33 0 M201.33 0 C201.33 71.73, 201.33 143.46, 201.33 182 M201.33 182 C145.98 182, 90.62 182, 0 182 M0 182 C0 127.7, 0 73.41, 0 0" stroke="#367083" stroke-width="2.5" fill="none" stroke-dasharray="8 10"></path></g><g transform="translate(228.33343505859375 10) rotate(0 22 11.5)"><text x="0" y="18" font-family="Helvetica, Segoe UI Emoji" font-size="20px" fill="#367083" text-anchor="start" style="white-space: pre;" direction="ltr">CPU</text></g><g transform="translate(62.66668701171875 139.49996948242188) rotate(0 41 11.5)"><text x="41" y="18" font-family="Helvetica, Segoe UI Emoji" font-size="20px" fill="#ffffff" text-anchor="middle" style="white-space: pre;" direction="ltr">输入设备</text></g><g transform="translate(507.6666564941406 136.83328247070312) rotate(0 41 11.5)"><text x="41" y="18" font-family="Helvetica, Segoe UI Emoji" font-size="20px" fill="#ffffff" text-anchor="middle" style="white-space: pre;" direction="ltr">输出设备</text></g><g stroke-linecap="round"><g transform="translate(83.66671752929688 204.08340454101562) rotate(0 63.33335876464844 56)"><path d="M0 0 C-0.17 27.69, -0.33 55.39, -0.67 111.33 M0 0 C-0.25 41.74, -0.5 83.49, -0.67 111.33 M-0.67 111.33 C33.83 111.51, 68.33 111.69, 127.33 112 M-0.67 111.33 C38.33 111.54, 77.32 111.74, 127.33 112" stroke="#000000" stroke-width="2" fill="none"></path></g><g transform="translate(83.66671752929688 204.08340454101562) rotate(0 63.33335876464844 56)"><path d="M127.33 112 L113.71 118.27 L113.77 105.59 L127.33 112" stroke="none" stroke-width="0" fill="#000000" fill-rule="evenodd"></path><path d="M127.33 112 C123.94 113.56, 120.55 115.12, 113.71 118.27 M127.33 112 C122.22 114.35, 117.11 116.7, 113.71 118.27 M113.71 118.27 C113.72 114.85, 113.74 111.43, 113.77 105.59 M113.71 118.27 C113.73 114.41, 113.75 110.54, 113.77 105.59 M113.77 105.59 C118.79 107.96, 123.8 110.33, 127.33 112 M113.77 105.59 C118.7 107.92, 123.62 110.25, 127.33 112 M127.33 112 C127.33 112, 127.33 112, 127.33 112 M127.33 112 C127.33 112, 127.33 112, 127.33 112" stroke="#000000" stroke-width="2" fill="none"></path></g></g><g transform="translate(294.33331298828125 70.83331298828125) rotate(0 31 11.5)"><text x="31" y="18" font-family="Helvetica, Segoe UI Emoji" font-size="20px" fill="#ffffff" text-anchor="middle" style="white-space: pre;" direction="ltr">控制器</text></g><g transform="translate(295.6666259765625 161.49996948242188) rotate(0 31 11.5)"><text x="31" y="18" font-family="Helvetica, Segoe UI Emoji" font-size="20px" fill="#ffffff" text-anchor="middle" style="white-space: pre;" direction="ltr">运算器</text></g><g transform="translate(294 301.5) rotate(0 31 11.5)"><text x="31" y="18" font-family="Helvetica, Segoe UI Emoji" font-size="20px" fill="#ffffff" text-anchor="middle" style="white-space: pre;" direction="ltr">存储器</text></g><g stroke-linecap="round"><g transform="translate(437.0001525878906 316.7499694824219) rotate(0 58.333343505859375 -57.33331298828125)"><path d="M0 0 C40.16 0, 80.33 0, 116.67 0 M0 0 C38.13 0, 76.26 0, 116.67 0 M116.67 0 C116.67 -40.9, 116.67 -81.8, 116.67 -114.67 M116.67 0 C116.67 -24.06, 116.67 -48.13, 116.67 -114.67" stroke="#000000" stroke-width="2" fill="none"></path></g><g transform="translate(437.0001525878906 316.7499694824219) rotate(0 58.333343505859375 -57.33331298828125)"><path d="M116.67 -114.67 L123.01 -101.07 L110.33 -101.07 L116.67 -114.67" stroke="none" stroke-width="0" fill="#000000" fill-rule="evenodd"></path><path d="M116.67 -114.67 C118.85 -109.99, 121.03 -105.31, 123.01 -101.07 M116.67 -114.67 C118.74 -110.22, 120.81 -105.78, 123.01 -101.07 M123.01 -101.07 C118.48 -101.07, 113.96 -101.07, 110.33 -101.07 M123.01 -101.07 C120.35 -101.07, 117.68 -101.07, 110.33 -101.07 M110.33 -101.07 C111.93 -104.5, 113.53 -107.93, 116.67 -114.67 M110.33 -101.07 C111.97 -104.59, 113.61 -108.1, 116.67 -114.67 M116.67 -114.67 C116.67 -114.67, 116.67 -114.67, 116.67 -114.67 M116.67 -114.67 C116.67 -114.67, 116.67 -114.67, 116.67 -114.67" stroke="#000000" stroke-width="2" fill="none"></path></g></g><g stroke-linecap="round"><g transform="translate(325.6667175292969 212.41659545898438) rotate(180 -0.333343505859375 23)"><path d="M0 0 C-0.26 17.69, -0.51 35.38, -0.67 46 M0 0 C-0.2 14.1, -0.41 28.19, -0.67 46" stroke="#000000" stroke-width="2" fill="none"></path></g><g transform="translate(325.6667175292969 212.41659545898438) rotate(180 -0.333343505859375 23)"><path d="M-0.67 46 L-6.81 32.31 L5.87 32.5 L-0.67 46" stroke="none" stroke-width="0" fill="#000000" fill-rule="evenodd"></path><path d="M-0.67 46 C-3.03 40.74, -5.39 35.47, -6.81 32.31 M-0.67 46 C-2.55 41.81, -4.43 37.61, -6.81 32.31 M-6.81 32.31 C-3.1 32.37, 0.62 32.42, 5.87 32.5 M-6.81 32.31 C-2.03 32.38, 2.76 32.45, 5.87 32.5 M5.87 32.5 C3.62 37.15, 1.37 41.8, -0.67 46 M5.87 32.5 C4.28 35.79, 2.69 39.08, -0.67 46 M-0.67 46 C-0.67 46, -0.67 46, -0.67 46 M-0.67 46 C-0.67 46, -0.67 46, -0.67 46" stroke="#000000" stroke-width="2" fill="none"></path></g></g><g stroke-linecap="round"><g transform="translate(325.0000305175781 228.41659545898438) rotate(0 0.333343505859375 23)"><path d="M0 0 C0.19 12.78, 0.37 25.56, 0.67 46 M0 0 C0.26 17.89, 0.52 35.79, 0.67 46" stroke="#000000" stroke-width="2" fill="none"></path></g><g transform="translate(325.0000305175781 228.41659545898438) rotate(0 0.333343505859375 23)"><path d="M0.67 46 L-5.87 32.5 L6.81 32.31 L0.67 46" stroke="none" stroke-width="0" fill="#000000" fill-rule="evenodd"></path><path d="M0.67 46 C-1.15 42.25, -2.97 38.5, -5.87 32.5 M0.67 46 C-1.88 40.75, -4.42 35.5, -5.87 32.5 M-5.87 32.5 C-3.21 32.46, -0.55 32.42, 6.81 32.31 M-5.87 32.5 C-2.4 32.45, 1.06 32.4, 6.81 32.31 M6.81 32.31 C5.39 35.47, 3.98 38.62, 0.67 46 M6.81 32.31 C5.43 35.39, 4.04 38.47, 0.67 46 M0.67 46 C0.67 46, 0.67 46, 0.67 46 M0.67 46 C0.67 46, 0.67 46, 0.67 46" stroke="#000000" stroke-width="2" fill="none"></path></g></g><g stroke-linecap="round"><g transform="translate(430.6667785644531 301.0833435058594) rotate(0 8.6666259765625 -106.00001525878906)"><path d="M0 0 C7.23 0, 14.45 0, 20 0 M0 0 C4.44 0, 8.88 0, 20 0 M20 0 C19.82 -14.94, 19.63 -29.88, 19.33 -54 M20 0 C19.8 -16.55, 19.59 -33.1, 19.33 -54 M19.33 -54 C19.15 -96.82, 18.97 -139.64, 18.67 -211.33 M19.33 -54 C19.15 -98.37, 18.96 -142.75, 18.67 -211.33 M18.67 -211.33 C12.16 -211.54, 5.65 -211.74, -2.67 -212 M18.67 -211.33 C11.99 -211.54, 5.31 -211.75, -2.67 -212" stroke="#000000" stroke-width="2" fill="none"></path></g><g transform="translate(430.6667785644531 301.0833435058594) rotate(0 8.6666259765625 -106.00001525878906)"><path d="M-2.67 -212 L11.12 -217.91 L10.72 -205.24 L-2.67 -212" stroke="none" stroke-width="0" fill="#000000" fill-rule="evenodd"></path><path d="M-2.67 -212 C2.31 -214.14, 7.3 -216.27, 11.12 -217.91 M-2.67 -212 C0.39 -213.31, 3.45 -214.62, 11.12 -217.91 M11.12 -217.91 C11.01 -214.41, 10.9 -210.9, 10.72 -205.24 M11.12 -217.91 C11 -214.03, 10.88 -210.14, 10.72 -205.24 M10.72 -205.24 C7.08 -207.08, 3.43 -208.92, -2.67 -212 M10.72 -205.24 C6.95 -207.15, 3.17 -209.05, -2.67 -212 M-2.67 -212 C-2.67 -212, -2.67 -212, -2.67 -212 M-2.67 -212 C-2.67 -212, -2.67 -212, -2.67 -212" stroke="#000000" stroke-width="2" fill="none"></path></g></g><g stroke-linecap="round"><g transform="translate(222.00003051757812 301.0833435058594) rotate(0 -8.6666259765625 -106.00001525878906)"><path d="M0 0 C-5.26 0, -10.52 0, -20 0 M0 0 C-4.29 0, -8.59 0, -20 0 M-20 0 C-19.74 -20.67, -19.49 -41.34, -19.33 -54 M-20 0 C-19.74 -21.19, -19.48 -42.39, -19.33 -54 M-19.33 -54 C-19.15 -96.46, -18.97 -138.92, -18.67 -211.33 M-19.33 -54 C-19.1 -108.28, -18.87 -162.56, -18.67 -211.33 M-18.67 -211.33 C-10.29 -211.6, -1.9 -211.86, 2.67 -212 M-18.67 -211.33 C-10.79 -211.58, -2.91 -211.83, 2.67 -212" stroke="#000000" stroke-width="2" fill="none"></path></g><g transform="translate(222.00003051757812 301.0833435058594) rotate(0 -8.6666259765625 -106.00001525878906)"><path d="M2.67 -212 L-10.72 -205.24 L-11.12 -217.91 L2.67 -212" stroke="none" stroke-width="0" fill="#000000" fill-rule="evenodd"></path><path d="M2.67 -212 C-0.86 -210.22, -4.38 -208.44, -10.72 -205.24 M2.67 -212 C-0.21 -210.55, -3.08 -209.1, -10.72 -205.24 M-10.72 -205.24 C-10.87 -210.09, -11.03 -214.94, -11.12 -217.91 M-10.72 -205.24 C-10.88 -210.21, -11.03 -215.19, -11.12 -217.91 M-11.12 -217.91 C-7.4 -216.32, -3.68 -214.72, 2.67 -212 M-11.12 -217.91 C-6.36 -215.87, -1.61 -213.83, 2.67 -212 M2.67 -212 C2.67 -212, 2.67 -212, 2.67 -212 M2.67 -212 C2.67 -212, 2.67 -212, 2.67 -212" stroke="#000000" stroke-width="2" fill="none"></path></g></g></svg>