<svg version="1.1" xmlns="http://www.w3.org/2000/svg" viewBox="0 0 457.666748046875 431.0000305175781" width="457.666748046875" height="431.0000305175781">
  <!-- svg-source:excalidraw -->
  
  <defs>
    <style>
      @font-face {
        font-family: "Virgil";
        src: url("https://oss-liuchengtu.hudunsoft.com/bgmuisc/1670404928.woff2"), url("https://excalidraw.com/Virgil.woff2");
        font-display: swap;
      }
      @font-face {
        font-family: "Cascadia";
        src: url("https://oss-liuchengtu.hudunsoft.com/bgmuisc/1670404879.woff2"), url("https://excalidraw.com/Cascadia.woff2");
        font-display: swap;
      }
    </style>
  </defs>
  <g transform="translate(16.33343505859375 95.16659545898438) rotate(0 22 11.5)"><text x="0" y="18" font-family="Helvetica, Segoe UI Emoji" font-size="20px" fill="#b6305a" text-anchor="start" style="white-space: pre;" direction="ltr">ADD</text></g><g transform="translate(16.666748046875 279.1666259765625) rotate(0 14 11.5)"><text x="0" y="18" font-family="Helvetica, Segoe UI Emoji" font-size="20px" fill="#3b7d5d" text-anchor="start" style="white-space: pre;" direction="ltr">R2</text></g><g transform="translate(15.33331298828125 56.499969482421875) rotate(0 28 11.5)"><text x="0" y="18" font-family="Helvetica, Segoe UI Emoji" font-size="20px" fill="#b6305a" text-anchor="start" style="white-space: pre;" direction="ltr">LOAD</text></g><g transform="translate(15.6666259765625 240.5) rotate(0 14 11.5)"><text x="0" y="18" font-family="Helvetica, Segoe UI Emoji" font-size="20px" fill="#3b7d5d" text-anchor="start" style="white-space: pre;" direction="ltr">R1</text></g><g transform="translate(16.00006103515625 132.49996948242188) rotate(0 35.5 11.5)"><text x="0" y="18" font-family="Helvetica, Segoe UI Emoji" font-size="20px" fill="#b6305a" text-anchor="start" style="white-space: pre;" direction="ltr">STORE</text></g><g transform="translate(16.3333740234375 316.5) rotate(0 14 11.5)"><text x="0" y="18" font-family="Helvetica, Segoe UI Emoji" font-size="20px" fill="#3b7d5d" text-anchor="start" style="white-space: pre;" direction="ltr">R3</text></g><g transform="translate(16.66668701171875 169.83328247070312) rotate(0 21 11.5)"><text x="0" y="18" font-family="Helvetica, Segoe UI Emoji" font-size="20px" fill="#b6305a" text-anchor="start" style="white-space: pre;" direction="ltr">JMP</text></g><g transform="translate(17 353.83331298828125) rotate(0 14 11.5)"><text x="0" y="18" font-family="Helvetica, Segoe UI Emoji" font-size="20px" fill="#3b7d5d" text-anchor="start" style="white-space: pre;" direction="ltr">R4</text></g><g transform="translate(101.33343505859375 168.49996948242188) rotate(0 22.5 11.5)"><text x="0" y="18" font-family="Helvetica, Segoe UI Emoji" font-size="20px" fill="#000000" text-anchor="start" style="white-space: pre;" direction="ltr">0011</text></g><g transform="translate(101.666748046875 352.5) rotate(0 22.5 11.5)"><text x="0" y="18" font-family="Helvetica, Segoe UI Emoji" font-size="20px" fill="#000000" text-anchor="start" style="white-space: pre;" direction="ltr">0011</text></g><g transform="translate(101.00006103515625 131.83331298828125) rotate(0 23.5 11.5)"><text x="0" y="18" font-family="Helvetica, Segoe UI Emoji" font-size="20px" fill="#000000" text-anchor="start" style="white-space: pre;" direction="ltr">0010</text></g><g transform="translate(101.3333740234375 315.8333435058594) rotate(0 23.5 11.5)"><text x="0" y="18" font-family="Helvetica, Segoe UI Emoji" font-size="20px" fill="#000000" text-anchor="start" style="white-space: pre;" direction="ltr">0010</text></g><g stroke-linecap="round" transform="translate(11.333343505859375 46.83331298828125) rotate(0 72.33335876464844 76.66665649414062)"><path d="M0 0 C50 0, 100.01 0, 144.67 0 M0 0 C55.04 0, 110.07 0, 144.67 0 M144.67 0 C144.67 59.3, 144.67 118.6, 144.67 153.33 M144.67 0 C144.67 57.03, 144.67 114.06, 144.67 153.33 M144.67 153.33 C92.69 153.33, 40.71 153.33, 0 153.33 M144.67 153.33 C89.31 153.33, 33.95 153.33, 0 153.33 M0 153.33 C0 103.74, 0 54.14, 0 0 M0 153.33 C0 114.63, 0 75.93, 0 0" stroke="#b6305a" stroke-width="2" fill="none"></path></g><g stroke-linecap="round" transform="translate(11.666656494140625 230.83334350585938) rotate(0 72.66670227050781 76.66665649414062)"><path d="M0 0 C57.18 0, 114.36 0, 145.33 0 M0 0 C50.05 0, 100.11 0, 145.33 0 M145.33 0 C145.33 36.85, 145.33 73.71, 145.33 153.33 M145.33 0 C145.33 49.54, 145.33 99.07, 145.33 153.33 M145.33 153.33 C99.71 153.33, 54.09 153.33, 0 153.33 M145.33 153.33 C101.2 153.33, 57.07 153.33, 0 153.33 M0 153.33 C0 112.04, 0 70.74, 0 0 M0 153.33 C0 112.42, 0 71.5, 0 0" stroke="#3b7d5d" stroke-width="2" fill="none"></path></g><g transform="translate(101 94.49996948242188) rotate(0 23.5 11.5)"><text x="0" y="18" font-family="Helvetica, Segoe UI Emoji" font-size="20px" fill="#000000" text-anchor="start" style="white-space: pre;" direction="ltr">0001</text></g><g transform="translate(101.33331298828125 278.5) rotate(0 23.5 11.5)"><text x="0" y="18" font-family="Helvetica, Segoe UI Emoji" font-size="20px" fill="#000000" text-anchor="start" style="white-space: pre;" direction="ltr">0001</text></g><g transform="translate(101.3333740234375 55.83331298828125) rotate(0 23.5 11.5)"><text x="0" y="18" font-family="Helvetica, Segoe UI Emoji" font-size="20px" fill="#000000" text-anchor="start" style="white-space: pre;" direction="ltr">0000</text></g><g transform="translate(101.66668701171875 239.83334350585938) rotate(0 23.5 11.5)"><text x="0" y="18" font-family="Helvetica, Segoe UI Emoji" font-size="20px" fill="#000000" text-anchor="start" style="white-space: pre;" direction="ltr">0000</text></g><g transform="translate(10 21.499969482421875) rotate(0 33 10.5)"><text x="0" y="17" font-family="Helvetica, Segoe UI Emoji" font-size="16px" fill="#b6305a" text-anchor="start" style="white-space: pre;" direction="ltr">指令系统</text></g><g transform="translate(10.33331298828125 205.5) rotate(0 25 10.5)"><text x="0" y="17" font-family="Helvetica, Segoe UI Emoji" font-size="16px" fill="#3b7d5d" text-anchor="start" style="white-space: pre;" direction="ltr">寄存器</text></g><g stroke-linecap="round" transform="translate(89.666748046875 35.8333740234375) rotate(0 42.666656494140625 87.33334350585938)"><path d="M0 0 C29.97 0, 59.94 0, 85.33 0 M85.33 0 C85.33 45.89, 85.33 91.78, 85.33 174.67 M85.33 174.67 C56.08 174.67, 26.83 174.67, 0 174.67 M0 174.67 C0 115.66, 0 56.66, 0 0" stroke="#353a3f" stroke-width="1.5" fill="none" stroke-dasharray="8 9"></path></g><g stroke-linecap="round" transform="translate(90.3333740234375 220.16668701171875) rotate(0 41.999969482421875 87.33334350585938)"><path d="M0 0 C29.53 0, 59.07 0, 84 0 M84 0 C84 67.54, 84 135.08, 84 174.67 M84 174.67 C65.06 174.67, 46.12 174.67, 0 174.67 M0 174.67 C0 125, 0 75.34, 0 0" stroke="#353a3f" stroke-width="1.5" fill="none" stroke-dasharray="8 9"></path></g><g transform="translate(90.33331298828125 10) rotate(0 25 10.5)"><text x="0" y="17" font-family="Helvetica, Segoe UI Emoji" font-size="16px" fill="#353a3f" text-anchor="start" style="white-space: pre;" direction="ltr">操作码</text></g><g transform="translate(207.66656494140625 105.66668701171875) rotate(0 25 10.5)"><text x="0" y="17" font-family="Helvetica, Segoe UI Emoji" font-size="16px" fill="#b6305a" text-anchor="start" style="white-space: pre;" direction="ltr">操作码</text></g><g transform="translate(92 400.0000305175781) rotate(0 33 10.5)"><text x="0" y="17" font-family="Helvetica, Segoe UI Emoji" font-size="16px" fill="#353a3f" text-anchor="start" style="white-space: pre;" direction="ltr">寄存器号</text></g><g transform="translate(261.99993896484375 106.33334350585938) rotate(0 33 10.5)"><text x="0" y="17" font-family="Helvetica, Segoe UI Emoji" font-size="16px" fill="#3b7d5d" text-anchor="start" style="white-space: pre;" direction="ltr">寄存器号</text></g><g stroke-linecap="round" transform="translate(264 71.5) rotate(0 27.333343505859375 15.333328247070312)"><path d="M7.67 0 L47 0 L50.35 0.48 L52.75 1.92 L54.19 4.31 L54.67 7.67 L54.67 23 L54.19 26.35 L52.75 28.75 L50.35 30.19 L47 30.67 L7.67 30.67 L4.31 30.19 L1.92 28.75 L0.48 26.35 L0 23 L0.48 4.31 L1.92 1.92 L4.31 0.48 L7.67 0" stroke="none" stroke-width="0" fill="#59b489"></path><path d="M7.67 0 M7.67 0 C20.01 0, 32.35 0, 47 0 M7.67 0 C15.72 0, 23.78 0, 47 0 M47 0 C52.11 0, 54.67 2.56, 54.67 7.67 M47 0 C52.11 0, 54.67 2.56, 54.67 7.67 M54.67 7.67 C54.67 12.24, 54.67 16.81, 54.67 23 M54.67 7.67 C54.67 12.89, 54.67 18.11, 54.67 23 M54.67 23 C54.67 28.11, 52.11 30.67, 47 30.67 M54.67 23 C54.67 28.11, 52.11 30.67, 47 30.67 M47 30.67 C38.43 30.67, 29.86 30.67, 7.67 30.67 M47 30.67 C33.98 30.67, 20.96 30.67, 7.67 30.67 M7.67 30.67 C2.56 30.67, 0 28.11, 0 23 M7.67 30.67 C2.56 30.67, 0 28.11, 0 23 M0 23 C0 17.4, 0 11.8, 0 7.67 M0 23 C0 19.12, 0 15.24, 0 7.67 M0 7.67 C0 2.56, 2.56 0, 7.67 0 M0 7.67 C0 2.56, 2.56 0, 7.67 0" stroke="transparent" stroke-width="2" fill="none"></path></g><g stroke-linecap="round" transform="translate(332 69.5) rotate(0 49 16.5)"><path d="M8.25 0 L93.36 0.52 L95.94 2.06 L97.48 4.64 L98 8.25 L97.48 28.36 L95.94 30.94 L93.36 32.48 L89.75 33 L4.64 32.48 L2.06 30.94 L0.52 28.36 L0 8.25 L0.52 4.64 L2.06 2.06 L4.64 0.52 L8.25 0" stroke="none" stroke-width="0" fill="#478bdf"></path><path d="M8.25 0 M8.25 0 C27.3 0, 46.36 0, 89.75 0 M8.25 0 C33.73 0, 59.22 0, 89.75 0 M89.75 0 C95.25 0, 98 2.75, 98 8.25 M89.75 0 C95.25 0, 98 2.75, 98 8.25 M98 8.25 C98 12.57, 98 16.89, 98 24.75 M98 8.25 C98 13.31, 98 18.38, 98 24.75 M98 24.75 C98 30.25, 95.25 33, 89.75 33 M98 24.75 C98 30.25, 95.25 33, 89.75 33 M89.75 33 C64.48 33, 39.2 33, 8.25 33 M89.75 33 C58.5 33, 27.25 33, 8.25 33 M8.25 33 C2.75 33, 0 30.25, 0 24.75 M8.25 33 C2.75 33, 0 30.25, 0 24.75 M0 24.75 C0 20.25, 0 15.76, 0 8.25 M0 24.75 C0 20.57, 0 16.4, 0 8.25 M0 8.25 C0 2.75, 2.75 0, 8.25 0 M0 8.25 C0 2.75, 2.75 0, 8.25 0" stroke="transparent" stroke-width="2" fill="none"></path></g><g stroke-linecap="round" transform="translate(204.66668701171875 70.83331298828125) rotate(0 27.333343505859375 15.333328247070312)"><path d="M7.67 0 L47 0 L50.35 0.48 L52.75 1.92 L54.19 4.31 L54.67 7.67 L54.67 23 L54.19 26.35 L52.75 28.75 L50.35 30.19 L47 30.67 L7.67 30.67 L4.31 30.19 L1.92 28.75 L0.48 26.35 L0 23 L0.48 4.31 L1.92 1.92 L4.31 0.48 L7.67 0" stroke="none" stroke-width="0" fill="#d35680"></path><path d="M7.67 0 M7.67 0 C18.9 0, 30.13 0, 47 0 M7.67 0 C20.88 0, 34.09 0, 47 0 M47 0 C52.11 0, 54.67 2.56, 54.67 7.67 M47 0 C52.11 0, 54.67 2.56, 54.67 7.67 M54.67 7.67 C54.67 12.13, 54.67 16.59, 54.67 23 M54.67 7.67 C54.67 11.57, 54.67 15.48, 54.67 23 M54.67 23 C54.67 28.11, 52.11 30.67, 47 30.67 M54.67 23 C54.67 28.11, 52.11 30.67, 47 30.67 M47 30.67 C37.38 30.67, 27.76 30.67, 7.67 30.67 M47 30.67 C35.31 30.67, 23.63 30.67, 7.67 30.67 M7.67 30.67 C2.56 30.67, 0 28.11, 0 23 M7.67 30.67 C2.56 30.67, 0 28.11, 0 23 M0 23 C0 19.59, 0 16.18, 0 7.67 M0 23 C0 19.31, 0 15.62, 0 7.67 M0 7.67 C0 2.56, 2.56 0, 7.67 0 M0 7.67 C0 2.56, 2.56 0, 7.67 0" stroke="transparent" stroke-width="2" fill="none"></path></g><g transform="translate(334.66668701171875 106.50003051757812) rotate(0 49 10.5)"><text x="0" y="17" font-family="Helvetica, Segoe UI Emoji" font-size="16px" fill="#5586ed" text-anchor="start" style="white-space: pre;" direction="ltr">存储单元地址</text></g><g transform="translate(219.6666259765625 37.66668701171875) rotate(0 41 10.5)"><text x="0" y="17" font-family="Helvetica, Segoe UI Emoji" font-size="16px" fill="#353a3f" text-anchor="start" style="white-space: pre;" direction="ltr">第一个字节</text></g><g transform="translate(339.66668701171875 37.66668701171875) rotate(0 41 10.5)"><text x="0" y="17" font-family="Helvetica, Segoe UI Emoji" font-size="16px" fill="#353a3f" text-anchor="start" style="white-space: pre;" direction="ltr">第二个字节</text></g><g transform="translate(272.3333435058594 77.33332824707031) rotate(0 19 9.5)"><text x="19" y="15" font-family="Helvetica, Segoe UI Emoji" font-size="16px" fill="#ffffff" text-anchor="middle" style="white-space: pre;" direction="ltr">0010</text></g><g transform="translate(342 76.5) rotate(0 39 9.5)"><text x="39" y="15" font-family="Helvetica, Segoe UI Emoji" font-size="16px" fill="#ffffff" text-anchor="middle" style="white-space: pre;" direction="ltr">0000 1001</text></g><g transform="translate(213.00003051757812 76.66664123535156) rotate(0 19 9.5)"><text x="19" y="15" font-family="Helvetica, Segoe UI Emoji" font-size="16px" fill="#ffffff" text-anchor="middle" style="white-space: pre;" direction="ltr">0001</text></g><g transform="translate(215 196) rotate(0 101 11.5)"><text x="0" y="18" font-family="Helvetica, Segoe UI Emoji" font-size="20px" fill="#000000" text-anchor="start" style="white-space: pre;" direction="ltr">0001 0010  0000 1001</text></g><g transform="translate(218.666748046875 284.50006103515625) rotate(0 22 11.5)"><text x="0" y="18" font-family="Helvetica, Segoe UI Emoji" font-size="20px" fill="#000000" text-anchor="start" style="white-space: pre;" direction="ltr">ADD</text></g><g transform="translate(273.3333740234375 280.5) rotate(0 24 13.5)"><text x="0" y="21" font-family="Helvetica, Segoe UI Emoji" font-size="20px" fill="#000000" text-anchor="start" style="white-space: pre;" direction="ltr">R2，</text></g><g transform="translate(330.3333740234375 282.83331298828125) rotate(0 12 11.5)"><text x="0" y="18" font-family="Helvetica, Segoe UI Emoji" font-size="20px" fill="#000000" text-anchor="start" style="white-space: pre;" direction="ltr">[9]</text></g><g stroke-linecap="round"><g transform="translate(236.3333740234375 223.5) rotate(0 0 24.333343505859375)"><path d="M0 0 C0 8.11, 0 40.56, 0 48.67 M0 0 C0 8.11, 0 40.56, 0 48.67" stroke="#000000" stroke-width="1" fill="none"></path></g><g transform="translate(236.3333740234375 223.5) rotate(0 0 24.333343505859375)"><path d="M0 48.67 L-6.34 35.07 L6.34 35.07 L0 48.67" stroke="none" stroke-width="0" fill="#000000" fill-rule="evenodd"></path><path d="M0 48.67 C-1.88 44.63, -3.76 40.59, -6.34 35.07 M0 48.67 C-1.79 44.82, -3.59 40.97, -6.34 35.07 M-6.34 35.07 C-3.22 35.07, -0.1 35.07, 6.34 35.07 M-6.34 35.07 C-1.97 35.07, 2.4 35.07, 6.34 35.07 M6.34 35.07 C3.95 40.19, 1.56 45.32, 0 48.67 M6.34 35.07 C4.91 38.13, 3.48 41.2, 0 48.67 M0 48.67 C0 48.67, 0 48.67, 0 48.67 M0 48.67 C0 48.67, 0 48.67, 0 48.67" stroke="#000000" stroke-width="1" fill="none"></path></g></g><g stroke-linecap="round"><g transform="translate(286.3333740234375 224.16668701171875) rotate(0 0 24.333343505859375)"><path d="M0 0 C0 8.11, 0 40.56, 0 48.67 M0 0 C0 8.11, 0 40.56, 0 48.67" stroke="#000000" stroke-width="1" fill="none"></path></g><g transform="translate(286.3333740234375 224.16668701171875) rotate(0 0 24.333343505859375)"><path d="M0 48.67 L-6.34 35.07 L6.34 35.07 L0 48.67" stroke="none" stroke-width="0" fill="#000000" fill-rule="evenodd"></path><path d="M0 48.67 C-1.63 45.17, -3.26 41.68, -6.34 35.07 M0 48.67 C-1.63 45.17, -3.26 41.67, -6.34 35.07 M-6.34 35.07 C-3.76 35.07, -1.17 35.07, 6.34 35.07 M-6.34 35.07 C-2.35 35.07, 1.65 35.07, 6.34 35.07 M6.34 35.07 C4.46 39.09, 2.59 43.11, 0 48.67 M6.34 35.07 C3.91 40.28, 1.49 45.48, 0 48.67 M0 48.67 C0 48.67, 0 48.67, 0 48.67 M0 48.67 C0 48.67, 0 48.67, 0 48.67" stroke="#000000" stroke-width="1" fill="none"></path></g></g><g stroke-linecap="round"><g transform="translate(339.3333740234375 224.83331298828125) rotate(0 0 24.333343505859375)"><path d="M0 0 C0 8.11, 0 40.56, 0 48.67 M0 0 C0 8.11, 0 40.56, 0 48.67" stroke="#000000" stroke-width="1" fill="none"></path></g><g transform="translate(339.3333740234375 224.83331298828125) rotate(0 0 24.333343505859375)"><path d="M0 48.67 L-6.34 35.07 L6.34 35.07 L0 48.67" stroke="none" stroke-width="0" fill="#000000" fill-rule="evenodd"></path><path d="M0 48.67 C-1.62 45.2, -3.23 41.74, -6.34 35.07 M0 48.67 C-1.35 45.78, -2.69 42.9, -6.34 35.07 M-6.34 35.07 C-3.18 35.07, -0.01 35.07, 6.34 35.07 M-6.34 35.07 C-2.5 35.07, 1.34 35.07, 6.34 35.07 M6.34 35.07 C4.44 39.14, 2.54 43.21, 0 48.67 M6.34 35.07 C4.95 38.05, 3.56 41.02, 0 48.67 M0 48.67 C0 48.67, 0 48.67, 0 48.67 M0 48.67 C0 48.67, 0 48.67, 0 48.67" stroke="#000000" stroke-width="1" fill="none"></path></g></g><g stroke-linecap="round" transform="translate(189.6666259765625 323.16668701171875) rotate(0 126.5 33.5)"><path d="M0 0 C56.75 0, 113.51 0, 253 0 M0 0 C83.87 0, 167.73 0, 253 0 M253 0 C253 21.43, 253 42.86, 253 67 M253 0 C253 20.45, 253 40.89, 253 67 M253 67 C186.86 67, 120.72 67, 0 67 M253 67 C184.54 67, 116.07 67, 0 67 M0 67 C0 40.95, 0 14.9, 0 0 M0 67 C0 51.73, 0 36.47, 0 0" stroke="transparent" stroke-width="1" fill="none"></path></g><g transform="translate(198.6666259765625 337.66668701171875) rotate(0 117.5 19)"><text x="117.5" y="15" font-family="Helvetica, Segoe UI Emoji" font-size="16px" fill="#000000" text-anchor="middle" style="white-space: pre;" direction="ltr">表示将R2寄存器中的数与存储单</text><text x="117.5" y="34" font-family="Helvetica, Segoe UI Emoji" font-size="16px" fill="#000000" text-anchor="middle" style="white-space: pre;" direction="ltr">元9中的数相加，并存到寄存器中</text></g><g stroke-linecap="round" transform="translate(184.3333740234375 168.833251953125) rotate(0 131.66668701171875 113.33334350585938)"><path d="M0 0 C85.78 0, 171.55 0, 263.33 0 M0 0 C86.37 0, 172.73 0, 263.33 0 M263.33 0 C263.33 56.82, 263.33 113.65, 263.33 226.67 M263.33 0 C263.33 61.7, 263.33 123.4, 263.33 226.67 M263.33 226.67 C179.94 226.67, 96.55 226.67, 0 226.67 M263.33 226.67 C201.32 226.67, 139.31 226.67, 0 226.67 M0 226.67 C0 177.91, 0 129.15, 0 0 M0 226.67 C0 152.69, 0 78.72, 0 0" stroke="#353a3f" stroke-width="1" fill="none"></path></g><g transform="translate(185.33346557617188 143.50001525878906) rotate(0 17 10.5)"><text x="0" y="17" font-family="Helvetica, Segoe UI Emoji" font-size="16px" fill="#353a3f" text-anchor="start" style="white-space: pre;" direction="ltr">示例</text></g></svg>