<svg version="1.1" xmlns="http://www.w3.org/2000/svg" viewBox="0 0 760.3336486816406 151.02574334416943" width="760.3336486816406" height="151.02574334416943">
  <g stroke-linecap="round" transform="translate(10 35) rotate(0 22.333343505859375 21.333343505859375)"><path d="M0 0 L44.67 0 L44.67 42.67 L0 42.67" stroke="none" stroke-width="0" fill="#717273"></path><path d="M0 0 C17.09 0, 34.18 0, 44.67 0 M0 0 C15.46 0, 30.92 0, 44.67 0 M44.67 0 C44.67 15.47, 44.67 30.94, 44.67 42.67 M44.67 0 C44.67 15.19, 44.67 30.38, 44.67 42.67 M44.67 42.67 C34.11 42.67, 23.55 42.67, 0 42.67 M44.67 42.67 C35.05 42.67, 25.44 42.67, 0 42.67 M0 42.67 C0 30.82, 0 18.97, 0 0 M0 42.67 C0 27.4, 0 12.13, 0 0" stroke="transparent" stroke-width="1" fill="none"></path></g><g stroke-linecap="round" transform="translate(55.66668701171875 35) rotate(0 22.333343505859375 21.333343505859375)"><path d="M0 0 L44.67 0 L44.67 42.67 L0 42.67" stroke="none" stroke-width="0" fill="#717273"></path><path d="M0 0 C11.98 0, 23.97 0, 44.67 0 M0 0 C15.62 0, 31.23 0, 44.67 0 M44.67 0 C44.67 17.06, 44.67 34.12, 44.67 42.67 M44.67 0 C44.67 10.51, 44.67 21.03, 44.67 42.67 M44.67 42.67 C32.49 42.67, 20.32 42.67, 0 42.67 M44.67 42.67 C34.97 42.67, 25.27 42.67, 0 42.67 M0 42.67 C0 33.75, 0 24.83, 0 0 M0 42.67 C0 28.81, 0 14.96, 0 0" stroke="transparent" stroke-width="1" fill="none"></path></g><g stroke-linecap="round" transform="translate(101.3333740234375 35) rotate(0 22.333343505859375 21.333343505859375)"><path d="M0 0 L44.67 0 L44.67 42.67 L0 42.67" stroke="none" stroke-width="0" fill="#717273"></path><path d="M0 0 C15.33 0, 30.66 0, 44.67 0 M0 0 C15.82 0, 31.64 0, 44.67 0 M44.67 0 C44.67 10.04, 44.67 20.09, 44.67 42.67 M44.67 0 C44.67 13.94, 44.67 27.87, 44.67 42.67 M44.67 42.67 C34.73 42.67, 24.79 42.67, 0 42.67 M44.67 42.67 C33.84 42.67, 23.01 42.67, 0 42.67 M0 42.67 C0 31.28, 0 19.9, 0 0 M0 42.67 C0 30.81, 0 18.95, 0 0" stroke="transparent" stroke-width="1" fill="none"></path></g><g stroke-linecap="round" transform="translate(147.00006103515625 35) rotate(0 22.333343505859375 21.333343505859375)"><path d="M0 0 L44.67 0 L44.67 42.67 L0 42.67" stroke="none" stroke-width="0" fill="#717273"></path><path d="M0 0 C15.9 0, 31.8 0, 44.67 0 M0 0 C10.56 0, 21.12 0, 44.67 0 M44.67 0 C44.67 9.18, 44.67 18.37, 44.67 42.67 M44.67 0 C44.67 11.85, 44.67 23.7, 44.67 42.67 M44.67 42.67 C28.68 42.67, 12.69 42.67, 0 42.67 M44.67 42.67 C30.35 42.67, 16.04 42.67, 0 42.67 M0 42.67 C0 28.01, 0 13.35, 0 0 M0 42.67 C0 29.33, 0 15.99, 0 0" stroke="transparent" stroke-width="1" fill="none"></path></g><g stroke-linecap="round" transform="translate(192.666748046875 35) rotate(0 22.333343505859375 21.333343505859375)"><path d="M0 0 L44.67 0 L44.67 42.67 L0 42.67" stroke="none" stroke-width="0" fill="#e55f59"></path><path d="M0 0 C16.33 0, 32.66 0, 44.67 0 M0 0 C12.33 0, 24.66 0, 44.67 0 M44.67 0 C44.67 10.68, 44.67 21.36, 44.67 42.67 M44.67 0 C44.67 12.81, 44.67 25.62, 44.67 42.67 M44.67 42.67 C29.07 42.67, 13.46 42.67, 0 42.67 M44.67 42.67 C32.74 42.67, 20.82 42.67, 0 42.67 M0 42.67 C0 26.91, 0 11.16, 0 0 M0 42.67 C0 27.93, 0 13.19, 0 0" stroke="transparent" stroke-width="1" fill="none"></path></g><g stroke-linecap="round" transform="translate(10 116.16659545898438) rotate(0 11.636208473259956 12.429573942592526)"><path d="M0 0 L23.27 0 L23.27 24.86 L0 24.86" stroke="none" stroke-width="0" fill="#e55f59"></path><path d="M0 0 C8.65 0, 17.29 0, 23.27 0 M0 0 C7.12 0, 14.24 0, 23.27 0 M23.27 0 C23.27 7.74, 23.27 15.47, 23.27 24.86 M23.27 0 C23.27 5.54, 23.27 11.09, 23.27 24.86 M23.27 24.86 C14.26 24.86, 5.26 24.86, 0 24.86 M23.27 24.86 C14.15 24.86, 5.03 24.86, 0 24.86 M0 24.86 C0 18.92, 0 12.98, 0 0 M0 24.86 C0 18.19, 0 11.52, 0 0" stroke="transparent" stroke-width="1" fill="none"></path></g><g stroke-linecap="round" transform="translate(118.69277624188885 116.16659545898438) rotate(0 11.636208473259956 12.429573942592526)"><path d="M0 0 L23.27 0 L23.27 24.86 L0 24.86" stroke="none" stroke-width="0" fill="#6bbc63"></path><path d="M0 0 C7.05 0, 14.1 0, 23.27 0 M0 0 C5.55 0, 11.1 0, 23.27 0 M23.27 0 C23.27 9, 23.27 18.01, 23.27 24.86 M23.27 0 C23.27 7.86, 23.27 15.72, 23.27 24.86 M23.27 24.86 C17.47 24.86, 11.67 24.86, 0 24.86 M23.27 24.86 C15.79 24.86, 8.32 24.86, 0 24.86 M0 24.86 C0 15.5, 0 6.13, 0 0 M0 24.86 C0 19.3, 0 13.74, 0 0" stroke="transparent" stroke-width="1" fill="none"></path></g><g stroke-linecap="round" transform="translate(238.33343505859375 35) rotate(0 22.333343505859375 21.333343505859375)"><path d="M0 0 L44.67 0 L44.67 42.67 L0 42.67" stroke="none" stroke-width="0" fill="#6bbc63"></path><path d="M0 0 C16.17 0, 32.35 0, 44.67 0 M0 0 C13.4 0, 26.81 0, 44.67 0 M44.67 0 C44.67 10.84, 44.67 21.68, 44.67 42.67 M44.67 0 C44.67 12.36, 44.67 24.72, 44.67 42.67 M44.67 42.67 C28.19 42.67, 11.71 42.67, 0 42.67 M44.67 42.67 C28.82 42.67, 12.97 42.67, 0 42.67 M0 42.67 C0 31.85, 0 21.04, 0 0 M0 42.67 C0 29.79, 0 16.92, 0 0" stroke="transparent" stroke-width="1" fill="none"></path></g><g stroke-linecap="round" transform="translate(284.0001220703125 35) rotate(0 22.333343505859375 21.333343505859375)"><path d="M0 0 L44.67 0 L44.67 42.67 L0 42.67" stroke="none" stroke-width="0" fill="#6bbc63"></path><path d="M0 0 C9.52 0, 19.04 0, 44.67 0 M0 0 C14.09 0, 28.19 0, 44.67 0 M44.67 0 C44.67 8.94, 44.67 17.88, 44.67 42.67 M44.67 0 C44.67 8.85, 44.67 17.69, 44.67 42.67 M44.67 42.67 C30.95 42.67, 17.24 42.67, 0 42.67 M44.67 42.67 C27.72 42.67, 10.76 42.67, 0 42.67 M0 42.67 C0 27.16, 0 11.65, 0 0 M0 42.67 C0 30.46, 0 18.25, 0 0" stroke="transparent" stroke-width="1" fill="none"></path></g><g stroke-linecap="round" transform="translate(329.66680908203125 35) rotate(0 22.333343505859375 21.333343505859375)"><path d="M0 0 L44.67 0 L44.67 42.67 L0 42.67" stroke="none" stroke-width="0" fill="#6bbc63"></path><path d="M0 0 C10.92 0, 21.84 0, 44.67 0 M0 0 C15.25 0, 30.51 0, 44.67 0 M44.67 0 C44.67 14.51, 44.67 29.02, 44.67 42.67 M44.67 0 C44.67 11.45, 44.67 22.9, 44.67 42.67 M44.67 42.67 C30.77 42.67, 16.88 42.67, 0 42.67 M44.67 42.67 C30.37 42.67, 16.08 42.67, 0 42.67 M0 42.67 C0 28.37, 0 14.08, 0 0 M0 42.67 C0 31.87, 0 21.08, 0 0" stroke="transparent" stroke-width="1" fill="none"></path></g><g stroke-linecap="round" transform="translate(375.33349609375 35) rotate(0 22.333343505859375 21.333343505859375)"><path d="M0 0 L44.67 0 L44.67 42.67 L0 42.67" stroke="none" stroke-width="0" fill="#e55f59"></path><path d="M0 0 C13.46 0, 26.92 0, 44.67 0 M0 0 C13.82 0, 27.63 0, 44.67 0 M44.67 0 C44.67 13.6, 44.67 27.2, 44.67 42.67 M44.67 0 C44.67 12.37, 44.67 24.74, 44.67 42.67 M44.67 42.67 C28.02 42.67, 11.37 42.67, 0 42.67 M44.67 42.67 C34.44 42.67, 24.21 42.67, 0 42.67 M0 42.67 C0 30.3, 0 17.93, 0 0 M0 42.67 C0 32.75, 0 22.84, 0 0" stroke="transparent" stroke-width="1" fill="none"></path></g><g stroke-linecap="round" transform="translate(421.00018310546875 35) rotate(0 22.333343505859375 21.333343505859375)"><path d="M0 0 L44.67 0 L44.67 42.67 L0 42.67" stroke="none" stroke-width="0" fill="#e55f59"></path><path d="M0 0 C10.28 0, 20.57 0, 44.67 0 M0 0 C13.91 0, 27.81 0, 44.67 0 M44.67 0 C44.67 15.69, 44.67 31.38, 44.67 42.67 M44.67 0 C44.67 17.03, 44.67 34.05, 44.67 42.67 M44.67 42.67 C33.95 42.67, 23.23 42.67, 0 42.67 M44.67 42.67 C28.81 42.67, 12.96 42.67, 0 42.67 M0 42.67 C0 33.68, 0 24.7, 0 0 M0 42.67 C0 27.56, 0 12.45, 0 0" stroke="transparent" stroke-width="1" fill="none"></path></g><g stroke-linecap="round" transform="translate(466.6668701171875 35) rotate(0 22.333343505859375 21.333343505859375)"><path d="M0 0 L44.67 0 L44.67 42.67 L0 42.67" stroke="none" stroke-width="0" fill="#478bdf"></path><path d="M0 0 C10.15 0, 20.31 0, 44.67 0 M0 0 C17.71 0, 35.42 0, 44.67 0 M44.67 0 C44.67 9.24, 44.67 18.48, 44.67 42.67 M44.67 0 C44.67 12.21, 44.67 24.43, 44.67 42.67 M44.67 42.67 C29.53 42.67, 14.39 42.67, 0 42.67 M44.67 42.67 C35.11 42.67, 25.55 42.67, 0 42.67 M0 42.67 C0 27.93, 0 13.2, 0 0 M0 42.67 C0 30.59, 0 18.51, 0 0" stroke="transparent" stroke-width="1" fill="none"></path></g><g stroke-linecap="round" transform="translate(512.3335571289062 35) rotate(0 22.333343505859375 21.333343505859375)"><path d="M0 0 L44.67 0 L44.67 42.67 L0 42.67" stroke="none" stroke-width="0" fill="#e55f59"></path><path d="M0 0 C17.72 0, 35.45 0, 44.67 0 M0 0 C13.27 0, 26.55 0, 44.67 0 M44.67 0 C44.67 12.94, 44.67 25.89, 44.67 42.67 M44.67 0 C44.67 10.06, 44.67 20.12, 44.67 42.67 M44.67 42.67 C33.17 42.67, 21.68 42.67, 0 42.67 M44.67 42.67 C27.03 42.67, 9.4 42.67, 0 42.67 M0 42.67 C0 31.26, 0 19.86, 0 0 M0 42.67 C0 27.49, 0 12.31, 0 0" stroke="transparent" stroke-width="1" fill="none"></path></g><g stroke-linecap="round" transform="translate(558.000244140625 35) rotate(0 22.333343505859375 21.333343505859375)"><path d="M0 0 L44.67 0 L44.67 42.67 L0 42.67" stroke="none" stroke-width="0" fill="#478bdf"></path><path d="M0 0 C12.79 0, 25.57 0, 44.67 0 M0 0 C15.14 0, 30.27 0, 44.67 0 M44.67 0 C44.67 9.13, 44.67 18.27, 44.67 42.67 M44.67 0 C44.67 14.74, 44.67 29.47, 44.67 42.67 M44.67 42.67 C32.02 42.67, 19.38 42.67, 0 42.67 M44.67 42.67 C32.81 42.67, 20.95 42.67, 0 42.67 M0 42.67 C0 29.57, 0 16.47, 0 0 M0 42.67 C0 29.7, 0 16.73, 0 0" stroke="transparent" stroke-width="1" fill="none"></path></g><g stroke-linecap="round" transform="translate(603.6669311523438 35) rotate(0 22.333343505859375 21.333343505859375)"><path d="M0 0 L44.67 0 L44.67 42.67 L0 42.67" stroke="none" stroke-width="0" fill="#e55f59"></path><path d="M0 0 C15.85 0, 31.7 0, 44.67 0 M0 0 C9.4 0, 18.81 0, 44.67 0 M44.67 0 C44.67 15.11, 44.67 30.21, 44.67 42.67 M44.67 0 C44.67 10.3, 44.67 20.6, 44.67 42.67 M44.67 42.67 C33.07 42.67, 21.48 42.67, 0 42.67 M44.67 42.67 C33.7 42.67, 22.73 42.67, 0 42.67 M0 42.67 C0 33.33, 0 23.99, 0 0 M0 42.67 C0 28.14, 0 13.62, 0 0" stroke="transparent" stroke-width="1" fill="none"></path></g><g stroke-linecap="round" transform="translate(649.3336181640625 35) rotate(0 22.333343505859375 21.333343505859375)"><path d="M0 0 L44.67 0 L44.67 42.67 L0 42.67" stroke="none" stroke-width="0" fill="#478bdf"></path><path d="M0 0 C10.38 0, 20.76 0, 44.67 0 M0 0 C16.49 0, 32.97 0, 44.67 0 M44.67 0 C44.67 9.49, 44.67 18.98, 44.67 42.67 M44.67 0 C44.67 11.86, 44.67 23.73, 44.67 42.67 M44.67 42.67 C31.63 42.67, 18.6 42.67, 0 42.67 M44.67 42.67 C33.47 42.67, 22.27 42.67, 0 42.67 M0 42.67 C0 27.47, 0 12.27, 0 0 M0 42.67 C0 26.31, 0 9.95, 0 0" stroke="transparent" stroke-width="1" fill="none"></path></g><g stroke-linecap="round" transform="translate(695.0003051757812 35) rotate(0 22.333343505859375 21.333343505859375)"><path d="M0 0 L44.67 0 L44.67 42.67 L0 42.67" stroke="none" stroke-width="0" fill="#e55f59"></path><path d="M0 0 C17.64 0, 35.27 0, 44.67 0 M0 0 C11.94 0, 23.88 0, 44.67 0 M44.67 0 C44.67 15.18, 44.67 30.36, 44.67 42.67 M44.67 0 C44.67 11.67, 44.67 23.33, 44.67 42.67 M44.67 42.67 C30.92 42.67, 17.18 42.67, 0 42.67 M44.67 42.67 C29.3 42.67, 13.93 42.67, 0 42.67 M0 42.67 C0 29.86, 0 17.05, 0 0 M0 42.67 C0 26.74, 0 10.81, 0 0" stroke="transparent" stroke-width="1" fill="none"></path></g><g transform="translate(702.8336486816406 44.833343505859375) rotate(0 14.5 11.5)"><text x="14.5" y="18" font-family="Helvetica, Segoe UI Emoji" font-size="20px" fill="#ffffff" text-anchor="middle" style="white-space: pre;" direction="ltr">CF</text></g><g transform="translate(612.0002746582031 44.833343505859375) rotate(0 14 11.5)"><text x="14" y="18" font-family="Helvetica, Segoe UI Emoji" font-size="20px" fill="#ffffff" text-anchor="middle" style="white-space: pre;" direction="ltr">PF</text></g><g transform="translate(520.6669006347656 44.833343505859375) rotate(0 14 11.5)"><text x="14" y="18" font-family="Helvetica, Segoe UI Emoji" font-size="20px" fill="#ffffff" text-anchor="middle" style="white-space: pre;" direction="ltr">AF</text></g><g transform="translate(430.3335266113281 44.833343505859375) rotate(0 13 11.5)"><text x="13" y="18" font-family="Helvetica, Segoe UI Emoji" font-size="20px" fill="#ffffff" text-anchor="middle" style="white-space: pre;" direction="ltr">ZF</text></g><g transform="translate(383.6668395996094 44.833343505859375) rotate(0 14 11.5)"><text x="14" y="18" font-family="Helvetica, Segoe UI Emoji" font-size="20px" fill="#ffffff" text-anchor="middle" style="white-space: pre;" direction="ltr">SF</text></g><g transform="translate(339.0001525878906 44.833343505859375) rotate(0 13 11.5)"><text x="13" y="18" font-family="Helvetica, Segoe UI Emoji" font-size="20px" fill="#ffffff" text-anchor="middle" style="white-space: pre;" direction="ltr">TF</text></g><g transform="translate(296.3334655761719 44.833343505859375) rotate(0 10 11.5)"><text x="10" y="18" font-family="Helvetica, Segoe UI Emoji" font-size="20px" fill="#ffffff" text-anchor="middle" style="white-space: pre;" direction="ltr">IF</text></g><g transform="translate(246.16677856445312 44.833343505859375) rotate(0 14.5 11.5)"><text x="14.5" y="18" font-family="Helvetica, Segoe UI Emoji" font-size="20px" fill="#ffffff" text-anchor="middle" style="white-space: pre;" direction="ltr">DF</text></g><g transform="translate(200.00009155273438 44.833343505859375) rotate(0 15 11.5)"><text x="15" y="18" font-family="Helvetica, Segoe UI Emoji" font-size="20px" fill="#ffffff" text-anchor="middle" style="white-space: pre;" direction="ltr">OF</text></g><g transform="translate(35.91704114684819 117.88557213484313) rotate(0 32.52848058785804 10.710597266733743)"><text x="0" y="17.42119453346748" font-family="Helvetica, Segoe UI Emoji" font-size="15.867551506272209px" fill="#353a3f" text-anchor="start" style="white-space: pre;" direction="ltr">状态标志</text></g><g transform="translate(144.60981738873704 117.88557213484313) rotate(0 32.52848058785804 10.710597266733743)"><text x="0" y="17.42119453346748" font-family="Helvetica, Segoe UI Emoji" font-size="15.867551506272209px" fill="#353a3f" text-anchor="start" style="white-space: pre;" direction="ltr">控制标志</text></g><g transform="translate(684.3336486816406 82.66668701171875) rotate(0 33 10.5)"><text x="0" y="17" font-family="Helvetica, Segoe UI Emoji" font-size="16px" fill="#b6305a" text-anchor="start" style="white-space: pre;" direction="ltr">进位标志</text></g><g transform="translate(593.0002746582031 82.66668701171875) rotate(0 33 10.5)"><text x="0" y="17" font-family="Helvetica, Segoe UI Emoji" font-size="16px" fill="#b6305a" text-anchor="start" style="white-space: pre;" direction="ltr">奇偶标志</text></g><g transform="translate(493.6669006347656 82.66668701171875) rotate(0 41 10.5)"><text x="0" y="17" font-family="Helvetica, Segoe UI Emoji" font-size="16px" fill="#b6305a" text-anchor="start" style="white-space: pre;" direction="ltr">半进位标志</text></g><g transform="translate(417.8335266113281 82.66668701171875) rotate(0 25 10.5)"><text x="0" y="17" font-family="Helvetica, Segoe UI Emoji" font-size="16px" fill="#b6305a" text-anchor="start" style="white-space: pre;" direction="ltr">零标志</text></g><g transform="translate(364.6668395996094 10) rotate(0 33 10.5)"><text x="0" y="17" font-family="Helvetica, Segoe UI Emoji" font-size="16px" fill="#b6305a" text-anchor="start" style="white-space: pre;" direction="ltr">符号标志</text></g><g transform="translate(227.66677856445312 82.66668701171875) rotate(0 33 10.5)"><text x="0" y="17" font-family="Helvetica, Segoe UI Emoji" font-size="16px" fill="#4b8747" text-anchor="start" style="white-space: pre;" direction="ltr">方向标志</text></g><g transform="translate(273.3334655761719 10) rotate(0 33 10.5)"><text x="0" y="17" font-family="Helvetica, Segoe UI Emoji" font-size="16px" fill="#4b8747" text-anchor="start" style="white-space: pre;" direction="ltr">中断标志</text></g><g transform="translate(319.0001525878906 82.66668701171875) rotate(0 33 10.5)"><text x="0" y="17" font-family="Helvetica, Segoe UI Emoji" font-size="16px" fill="#4b8747" text-anchor="start" style="white-space: pre;" direction="ltr">跟踪标志</text></g><g transform="translate(182.00009155273438 10) rotate(0 33 10.5)"><text x="0" y="17" font-family="Helvetica, Segoe UI Emoji" font-size="16px" fill="#b6305a" text-anchor="start" style="white-space: pre;" direction="ltr">溢出标志</text></g></svg>