<svg version="1.1" xmlns="http://www.w3.org/2000/svg" viewBox="0 0 498.1915167438352 325.17492846717937" width="498.1915167438352" height="325.17492846717937">
  <g stroke-linecap="round" transform="translate(10.582027911459988 218.02318475872576) rotate(0 235.56037810746844 35.76351650921637)"><path d="M0 0 L471.12 0 L471.12 71.53 L0 71.53" stroke="none" stroke-width="0" fill="#478bdf"></path><path d="M0 0 C109.08 0, 218.16 0, 471.12 0 M0 0 C183.18 0, 366.35 0, 471.12 0 M471.12 0 C471.12 19.35, 471.12 38.69, 471.12 71.53 M471.12 0 C471.12 22.81, 471.12 45.62, 471.12 71.53 M471.12 71.53 C339.82 71.53, 208.52 71.53, 0 71.53 M471.12 71.53 C328.6 71.53, 186.08 71.53, 0 71.53 M0 71.53 C0 43.25, 0 14.98, 0 0 M0 71.53 C0 51.46, 0 31.4, 0 0" stroke="transparent" stroke-width="2" fill="none"></path></g><g stroke-linecap="round" transform="translate(10.476788236800132 84.16266902399437) rotate(0 235.39534869041935 61.51913942904497)"><path d="M0 0 L470.79 0 L470.79 123.04 L0 123.04" stroke="none" stroke-width="0" fill="#59b489"></path><path d="M0 0 C97 0, 193.99 0, 470.79 0 M0 0 C157.72 0, 315.45 0, 470.79 0 M470.79 0 C470.79 44.9, 470.79 89.79, 470.79 123.04 M470.79 0 C470.79 30.24, 470.79 60.49, 470.79 123.04 M470.79 123.04 C352.16 123.04, 233.52 123.04, 0 123.04 M470.79 123.04 C284.38 123.04, 97.97 123.04, 0 123.04 M0 123.04 C0 86.34, 0 49.64, 0 0 M0 123.04 C0 97.14, 0 71.25, 0 0" stroke="transparent" stroke-width="2" fill="none"></path></g><g stroke-linecap="round" transform="translate(10 10) rotate(0 235.98581802348792 31.763531768005464)"><path d="M0 0 L471.97 0 L471.97 63.53 L0 63.53" stroke="none" stroke-width="0" fill="#eb8437"></path><path d="M0 0 C155.28 0, 310.55 0, 471.97 0 M0 0 C97.21 0, 194.42 0, 471.97 0 M471.97 0 C471.97 20.27, 471.97 40.54, 471.97 63.53 M471.97 0 C471.97 14.73, 471.97 29.46, 471.97 63.53 M471.97 63.53 C347.12 63.53, 222.26 63.53, 0 63.53 M471.97 63.53 C306.91 63.53, 141.85 63.53, 0 63.53 M0 63.53 C0 42.15, 0 20.78, 0 0 M0 63.53 C0 50.44, 0 37.35, 0 0" stroke="transparent" stroke-width="2" fill="none"></path></g><g transform="translate(16.03175746301997 17.217562116294545) rotate(0 57.87438364314045 14.468595910785112)"><text x="0" y="22.93719182157023" font-family="Helvetica, Segoe UI Emoji" font-size="25.32004284387395px" fill="#c75228" text-anchor="start" style="white-space: pre;" direction="ltr">ADD  R,M</text></g><g transform="translate(16.572374548589437 91.11227373701033) rotate(0 65.56082522074504 14.468595910785112)"><text x="0" y="22.93719182157023" font-family="Helvetica, Segoe UI Emoji" font-size="25.32004284387395px" fill="#3b7d5d" text-anchor="start" style="white-space: pre;" direction="ltr">LOAD  R,M</text></g><g transform="translate(15.701558982361462 151.51345497118828) rotate(0 74.60369766498576 14.468595910785126)"><text x="0" y="22.93719182157023" font-family="Helvetica, Segoe UI Emoji" font-size="25.320042843873956px" fill="#3b7d5d" text-anchor="start" style="white-space: pre;" direction="ltr">STORE  M,R</text></g><g transform="translate(16.677614513996673 223.56926559543442) rotate(0 40.240782376871095 14.468595910785126)"><text x="0" y="22.93719182157023" font-family="Helvetica, Segoe UI Emoji" font-size="25.32004284387395px" fill="#94c8ff" text-anchor="start" style="white-space: pre;" direction="ltr">JMP  L</text></g><g transform="translate(383.8978745422154 15.915269471218636) rotate(0 46.118649465627584 12.20787779972494)"><text x="0" y="19.41575559944988" font-family="Helvetica, Segoe UI Emoji" font-size="18.085744888481397px" fill="#c75228" text-anchor="start" style="white-space: pre;" direction="ltr">运算类指令</text></g><g transform="translate(383.74153943434817 223.2470309055299) rotate(0 46 12)"><text x="0" y="19" font-family="Helvetica, Segoe UI Emoji" font-size="18.085744888481397px" fill="#94c8ff" text-anchor="start" style="white-space: pre;" direction="ltr">转移类指令</text></g><g transform="translate(383.5040308997509 90.25736110923074) rotate(0 46.11864946562753 12.20787779972494)"><text x="0" y="19.41575559944988" font-family="Helvetica, Segoe UI Emoji" font-size="18.085744888481397px" fill="#3b7d5d" text-anchor="start" style="white-space: pre;" direction="ltr">传送类指令</text></g><g stroke-linecap="round" transform="translate(13.191516743835223 39.68932725921897) rotate(0 237.5 15.5)"><path d="M0 0 C126.13 0, 252.27 0, 475 0 M475 0 C475 12.27, 475 24.55, 475 31 M475 31 C312.2 31, 149.4 31, 0 31 M0 31 C0 19.15, 0 7.29, 0 0" stroke="transparent" stroke-width="2.5" fill="none" stroke-dasharray="8 10"></path></g><g stroke-linecap="round" transform="translate(15.456943735294317 113.66717109858669) rotate(0 169 15.5)"><path d="M0 0 C96.98 0, 193.97 0, 338 0 M338 0 C338 7.97, 338 15.94, 338 31 M338 31 C237.99 31, 137.97 31, 0 31 M0 31 C0 21.4, 0 11.8, 0 0" stroke="transparent" stroke-width="2.5" fill="none" stroke-dasharray="8 10"></path></g><g stroke-linecap="round" transform="translate(15.461707049462575 172.61158237891098) rotate(0 161.5 16)"><path d="M0 0 C97.25 0, 194.51 0, 323 0 M323 0 C323 8.98, 323 17.95, 323 32 M323 32 C212.61 32, 102.23 32, 0 32 M0 32 C0 21.33, 0 10.65, 0 0" stroke="transparent" stroke-width="2.5" fill="none" stroke-dasharray="8 10"></path></g><g stroke-linecap="round" transform="translate(14.795081072900075 251.27820835547348) rotate(0 161.5 16)"><path d="M0 0 C103.63 0, 207.26 0, 323 0 M323 0 C323 7.29, 323 14.58, 323 32 M323 32 C254.47 32, 185.93 32, 0 32 M0 32 C0 20.04, 0 8.09, 0 0" stroke="transparent" stroke-width="2.5" fill="none" stroke-dasharray="8 10"></path></g><g transform="translate(18.191516743835223 44.68932725921897) rotate(0 230.5 10.5)"><text x="0" y="17" font-family="Helvetica, Segoe UI Emoji" font-size="18.165438099490537px" fill="#ffffff" text-anchor="start" style="white-space: pre;" direction="ltr">将寄存器R中的数与内存单元M中的数相加后存入寄存器R</text></g><g transform="translate(20.456943735294317 118.66717109858669) rotate(0 156.5 10.5)"><text x="0" y="17" font-family="Helvetica, Segoe UI Emoji" font-size="18.76815066507023px" fill="#ffffff" text-anchor="start" style="white-space: pre;" direction="ltr">将内存单元M中的内容放入寄存器R中</text></g><g transform="translate(20.461707049462575 177.61158237891098) rotate(0 147.5 11)"><text x="0" y="17" font-family="Helvetica, Segoe UI Emoji" font-size="18.827568392057632px" fill="#ffffff" text-anchor="start" style="white-space: pre;" direction="ltr">将寄存器R的内容存入内存单元M中</text></g><g transform="translate(19.795081072900075 256.27820835547345) rotate(0 110 11)"><text x="0" y="17" font-family="Helvetica, Segoe UI Emoji" font-size="18.827568392057632px" fill="#ffffff" text-anchor="start" style="white-space: pre;" direction="ltr">将目标地址指向内存单元L</text></g><g transform="translate(12.212098365155612 294.17492846717937) rotate(0 146 10.5)"><text x="0" y="17" font-family="Helvetica, Segoe UI Emoji" font-size="16px" fill="#353a3f" text-anchor="start" style="white-space: pre;" direction="ltr">注：M和L为存储器地址，R为寄存器编号</text></g></svg>