<svg version="1.1" xmlns="http://www.w3.org/2000/svg" viewBox="0 0 727.0000610351562 563.0000152587891" width="727.0000610351562" height="563.0000152587891">
  <g stroke-linecap="round" transform="translate(38.666748046875 37) rotate(0 145.3333282470703 152.99998474121105)"><path d="M0 0 C58.79 0, 117.59 0, 290.67 0 M290.67 0 C290.67 93.69, 290.67 187.37, 290.67 306 M290.67 306 C209.57 306, 128.48 306, 0 306 M0 306 C0 192.19, 0 78.38, 0 0" stroke="#5586ed" stroke-width="1.5" fill="none" stroke-dasharray="8 9"></path></g><g stroke-linecap="round" transform="translate(399.0000915527344 36.333358764648324) rotate(0 158.99998474121094 258.33332824707037)"><path d="M0 0 C102.3 0, 204.6 0, 318 0 M318 0 C318 170.18, 318 340.35, 318 516.67 M318 516.67 C216.42 516.67, 114.84 516.67, 0 516.67 M0 516.67 C0 371.55, 0 226.43, 0 0" stroke="#b6305a" stroke-width="1.5" fill="none" stroke-dasharray="8 9"></path></g><g stroke-linecap="round" transform="translate(108.33338928222656 45.00001525878906) rotate(0 67.5 17.833328247070312)"><path d="M8.92 0 L126.08 0 L129.98 0.56 L132.77 2.23 L134.44 5.02 L135 8.92 L134.44 30.65 L132.77 33.44 L129.98 35.11 L126.08 35.67 L8.92 35.67 L5.02 35.11 L2.23 33.44 L0.56 30.65 L0 8.92 L0.56 5.02 L2.23 2.23 L5.02 0.56 L8.92 0" stroke="none" stroke-width="0" fill="#59b489"></path><path d="M8.92 0 M8.92 0 C38.56 0, 68.2 0, 126.08 0 M8.92 0 C51.59 0, 94.26 0, 126.08 0 M126.08 0 C132.03 0, 135 2.97, 135 8.92 M126.08 0 C132.03 0, 135 2.97, 135 8.92 M135 8.92 C135 12.74, 135 16.56, 135 26.75 M135 8.92 C135 14.97, 135 21.03, 135 26.75 M135 26.75 C135 32.69, 132.03 35.67, 126.08 35.67 M135 26.75 C135 32.69, 132.03 35.67, 126.08 35.67 M126.08 35.67 C94.09 35.67, 62.1 35.67, 8.92 35.67 M126.08 35.67 C88.79 35.67, 51.51 35.67, 8.92 35.67 M8.92 35.67 C2.97 35.67, 0 32.69, 0 26.75 M8.92 35.67 C2.97 35.67, 0 32.69, 0 26.75 M0 26.75 C0 20.99, 0 15.23, 0 8.92 M0 26.75 C0 22.02, 0 17.3, 0 8.92 M0 8.92 C0 2.97, 2.97 0, 8.92 0 M0 8.92 C0 2.97, 2.97 0, 8.92 0" stroke="transparent" stroke-width="1" fill="none"></path></g><g stroke-linecap="round" transform="translate(108.66670227050781 85.33334350585938) rotate(0 67.5 16.5)"><path d="M8.25 0 L126.75 0 L130.36 0.52 L132.94 2.06 L134.48 4.64 L135 8.25 L134.48 28.36 L132.94 30.94 L130.36 32.48 L126.75 33 L8.25 33 L4.64 32.48 L2.06 30.94 L0.52 28.36 L0 8.25 L0.52 4.64 L2.06 2.06 L4.64 0.52 L8.25 0" stroke="none" stroke-width="0" fill="#59b489"></path><path d="M8.25 0 M8.25 0 C42.89 0, 77.53 0, 126.75 0 M8.25 0 C43.53 0, 78.81 0, 126.75 0 M126.75 0 C132.25 0, 135 2.75, 135 8.25 M126.75 0 C132.25 0, 135 2.75, 135 8.25 M135 8.25 C135 13.94, 135 19.64, 135 24.75 M135 8.25 C135 11.58, 135 14.9, 135 24.75 M135 24.75 C135 30.25, 132.25 33, 126.75 33 M135 24.75 C135 30.25, 132.25 33, 126.75 33 M126.75 33 C95.38 33, 64 33, 8.25 33 M126.75 33 C92.27 33, 57.8 33, 8.25 33 M8.25 33 C2.75 33, 0 30.25, 0 24.75 M8.25 33 C2.75 33, 0 30.25, 0 24.75 M0 24.75 C0 19.77, 0 14.79, 0 8.25 M0 24.75 C0 18.35, 0 11.95, 0 8.25 M0 8.25 C0 2.75, 2.75 0, 8.25 0 M0 8.25 C0 2.75, 2.75 0, 8.25 0" stroke="transparent" stroke-width="1" fill="none"></path></g><g stroke-linecap="round" transform="translate(108.66670227050781 121.33334350585938) rotate(0 67.5 16.5)"><path d="M8.25 0 L126.75 0 L130.36 0.52 L132.94 2.06 L134.48 4.64 L135 8.25 L134.48 28.36 L132.94 30.94 L130.36 32.48 L126.75 33 L8.25 33 L4.64 32.48 L2.06 30.94 L0.52 28.36 L0 8.25 L0.52 4.64 L2.06 2.06 L4.64 0.52 L8.25 0" stroke="none" stroke-width="0" fill="#59b489"></path><path d="M8.25 0 M8.25 0 C50.67 0, 93.1 0, 126.75 0 M8.25 0 C32.16 0, 56.07 0, 126.75 0 M126.75 0 C132.25 0, 135 2.75, 135 8.25 M126.75 0 C132.25 0, 135 2.75, 135 8.25 M135 8.25 C135 12.23, 135 16.22, 135 24.75 M135 8.25 C135 14.15, 135 20.04, 135 24.75 M135 24.75 C135 30.25, 132.25 33, 126.75 33 M135 24.75 C135 30.25, 132.25 33, 126.75 33 M126.75 33 C87.27 33, 47.8 33, 8.25 33 M126.75 33 C90.37 33, 53.99 33, 8.25 33 M8.25 33 C2.75 33, 0 30.25, 0 24.75 M8.25 33 C2.75 33, 0 30.25, 0 24.75 M0 24.75 C0 20.04, 0 15.33, 0 8.25 M0 24.75 C0 19.15, 0 13.54, 0 8.25 M0 8.25 C0 2.75, 2.75 0, 8.25 0 M0 8.25 C0 2.75, 2.75 0, 8.25 0" stroke="transparent" stroke-width="1" fill="none"></path></g><g stroke-linecap="round" transform="translate(108.66670227050781 157.33334350585938) rotate(0 67.5 16.5)"><path d="M8.25 0 L126.75 0 L130.36 0.52 L132.94 2.06 L134.48 4.64 L135 8.25 L134.48 28.36 L132.94 30.94 L130.36 32.48 L126.75 33 L8.25 33 L4.64 32.48 L2.06 30.94 L0.52 28.36 L0 8.25 L0.52 4.64 L2.06 2.06 L4.64 0.52 L8.25 0" stroke="none" stroke-width="0" fill="#59b489"></path><path d="M8.25 0 M8.25 0 C43.74 0, 79.23 0, 126.75 0 M8.25 0 C49.18 0, 90.11 0, 126.75 0 M126.75 0 C132.25 0, 135 2.75, 135 8.25 M126.75 0 C132.25 0, 135 2.75, 135 8.25 M135 8.25 C135 12.97, 135 17.69, 135 24.75 M135 8.25 C135 13.89, 135 19.53, 135 24.75 M135 24.75 C135 30.25, 132.25 33, 126.75 33 M135 24.75 C135 30.25, 132.25 33, 126.75 33 M126.75 33 C79.84 33, 32.93 33, 8.25 33 M126.75 33 C82.68 33, 38.6 33, 8.25 33 M8.25 33 C2.75 33, 0 30.25, 0 24.75 M8.25 33 C2.75 33, 0 30.25, 0 24.75 M0 24.75 C0 19.17, 0 13.59, 0 8.25 M0 24.75 C0 18.9, 0 13.04, 0 8.25 M0 8.25 C0 2.75, 2.75 0, 8.25 0 M0 8.25 C0 2.75, 2.75 0, 8.25 0" stroke="transparent" stroke-width="1" fill="none"></path></g><g stroke-linecap="round" transform="translate(108.66670227050781 193.33334350585938) rotate(0 67.5 16.5)"><path d="M8.25 0 L126.75 0 L130.36 0.52 L132.94 2.06 L134.48 4.64 L135 8.25 L134.48 28.36 L132.94 30.94 L130.36 32.48 L126.75 33 L8.25 33 L4.64 32.48 L2.06 30.94 L0.52 28.36 L0 8.25 L0.52 4.64 L2.06 2.06 L4.64 0.52 L8.25 0" stroke="none" stroke-width="0" fill="#59b489"></path><path d="M8.25 0 M8.25 0 C55.48 0, 102.7 0, 126.75 0 M8.25 0 C41.57 0, 74.89 0, 126.75 0 M126.75 0 C132.25 0, 135 2.75, 135 8.25 M126.75 0 C132.25 0, 135 2.75, 135 8.25 M135 8.25 C135 12.06, 135 15.88, 135 24.75 M135 8.25 C135 12.74, 135 17.23, 135 24.75 M135 24.75 C135 30.25, 132.25 33, 126.75 33 M135 24.75 C135 30.25, 132.25 33, 126.75 33 M126.75 33 C80.29 33, 33.82 33, 8.25 33 M126.75 33 C98.09 33, 69.43 33, 8.25 33 M8.25 33 C2.75 33, 0 30.25, 0 24.75 M8.25 33 C2.75 33, 0 30.25, 0 24.75 M0 24.75 C0 19.59, 0 14.44, 0 8.25 M0 24.75 C0 21.16, 0 17.57, 0 8.25 M0 8.25 C0 2.75, 2.75 0, 8.25 0 M0 8.25 C0 2.75, 2.75 0, 8.25 0" stroke="transparent" stroke-width="1" fill="none"></path></g><g stroke-linecap="round" transform="translate(108.66670227050781 229.33334350585938) rotate(0 67.5 16.5)"><path d="M8.25 0 L126.75 0 L130.36 0.52 L132.94 2.06 L134.48 4.64 L135 8.25 L134.48 28.36 L132.94 30.94 L130.36 32.48 L126.75 33 L8.25 33 L4.64 32.48 L2.06 30.94 L0.52 28.36 L0 8.25 L0.52 4.64 L2.06 2.06 L4.64 0.52 L8.25 0" stroke="none" stroke-width="0" fill="#59b489"></path><path d="M8.25 0 M8.25 0 C36.25 0, 64.25 0, 126.75 0 M8.25 0 C47.73 0, 87.2 0, 126.75 0 M126.75 0 C132.25 0, 135 2.75, 135 8.25 M126.75 0 C132.25 0, 135 2.75, 135 8.25 M135 8.25 C135 11.77, 135 15.29, 135 24.75 M135 8.25 C135 12.96, 135 17.67, 135 24.75 M135 24.75 C135 30.25, 132.25 33, 126.75 33 M135 24.75 C135 30.25, 132.25 33, 126.75 33 M126.75 33 C99.6 33, 72.44 33, 8.25 33 M126.75 33 C89.41 33, 52.06 33, 8.25 33 M8.25 33 C2.75 33, 0 30.25, 0 24.75 M8.25 33 C2.75 33, 0 30.25, 0 24.75 M0 24.75 C0 19.28, 0 13.82, 0 8.25 M0 24.75 C0 20.62, 0 16.5, 0 8.25 M0 8.25 C0 2.75, 2.75 0, 8.25 0 M0 8.25 C0 2.75, 2.75 0, 8.25 0" stroke="transparent" stroke-width="1" fill="none"></path></g><g stroke-linecap="round" transform="translate(108.66670227050781 265.3333435058594) rotate(0 67.5 16.5)"><path d="M8.25 0 L126.75 0 L130.36 0.52 L132.94 2.06 L134.48 4.64 L135 8.25 L134.48 28.36 L132.94 30.94 L130.36 32.48 L126.75 33 L8.25 33 L4.64 32.48 L2.06 30.94 L0.52 28.36 L0 8.25 L0.52 4.64 L2.06 2.06 L4.64 0.52 L8.25 0" stroke="none" stroke-width="0" fill="#59b489"></path><path d="M8.25 0 M8.25 0 C51.13 0, 94.02 0, 126.75 0 M8.25 0 C39.61 0, 70.98 0, 126.75 0 M126.75 0 C132.25 0, 135 2.75, 135 8.25 M126.75 0 C132.25 0, 135 2.75, 135 8.25 M135 8.25 C135 13.1, 135 17.96, 135 24.75 M135 8.25 C135 12.65, 135 17.05, 135 24.75 M135 24.75 C135 30.25, 132.25 33, 126.75 33 M135 24.75 C135 30.25, 132.25 33, 126.75 33 M126.75 33 C90.36 33, 53.96 33, 8.25 33 M126.75 33 C102.16 33, 77.58 33, 8.25 33 M8.25 33 C2.75 33, 0 30.25, 0 24.75 M8.25 33 C2.75 33, 0 30.25, 0 24.75 M0 24.75 C0 20.11, 0 15.47, 0 8.25 M0 24.75 C0 19.83, 0 14.92, 0 8.25 M0 8.25 C0 2.75, 2.75 0, 8.25 0 M0 8.25 C0 2.75, 2.75 0, 8.25 0" stroke="transparent" stroke-width="1" fill="none"></path></g><g stroke-linecap="round" transform="translate(108.66670227050781 301.3333435058594) rotate(0 67.5 16.5)"><path d="M8.25 0 L126.75 0 L130.36 0.52 L132.94 2.06 L134.48 4.64 L135 8.25 L134.48 28.36 L132.94 30.94 L130.36 32.48 L126.75 33 L8.25 33 L4.64 32.48 L2.06 30.94 L0.52 28.36 L0 8.25 L0.52 4.64 L2.06 2.06 L4.64 0.52 L8.25 0" stroke="none" stroke-width="0" fill="#59b489"></path><path d="M8.25 0 M8.25 0 C48.5 0, 88.75 0, 126.75 0 M8.25 0 C43.37 0, 78.5 0, 126.75 0 M126.75 0 C132.25 0, 135 2.75, 135 8.25 M126.75 0 C132.25 0, 135 2.75, 135 8.25 M135 8.25 C135 14.44, 135 20.62, 135 24.75 M135 8.25 C135 12.47, 135 16.7, 135 24.75 M135 24.75 C135 30.25, 132.25 33, 126.75 33 M135 24.75 C135 30.25, 132.25 33, 126.75 33 M126.75 33 C83.33 33, 39.9 33, 8.25 33 M126.75 33 C92.82 33, 58.89 33, 8.25 33 M8.25 33 C2.75 33, 0 30.25, 0 24.75 M8.25 33 C2.75 33, 0 30.25, 0 24.75 M0 24.75 C0 21.36, 0 17.98, 0 8.25 M0 24.75 C0 19.39, 0 14.04, 0 8.25 M0 8.25 C0 2.75, 2.75 0, 8.25 0 M0 8.25 C0 2.75, 2.75 0, 8.25 0" stroke="transparent" stroke-width="1" fill="none"></path></g><g transform="translate(55.333404541015625 49.333343505859375) rotate(0 22 13.5)"><text x="0" y="21" font-family="Virgil, Segoe UI Emoji" font-size="20px" fill="#000000" text-anchor="start" style="white-space: pre;" direction="ltr">0000</text></g><g transform="translate(54.666748046875 85.33334350585938) rotate(0 22 13.5)"><text x="0" y="21" font-family="Virgil, Segoe UI Emoji" font-size="20px" fill="#000000" text-anchor="start" style="white-space: pre;" direction="ltr">0001</text></g><g transform="translate(54.666748046875 121.33334350585938) rotate(0 22 13.5)"><text x="0" y="21" font-family="Virgil, Segoe UI Emoji" font-size="20px" fill="#000000" text-anchor="start" style="white-space: pre;" direction="ltr">0010</text></g><g transform="translate(54.666748046875 157.33334350585938) rotate(0 22 13.5)"><text x="0" y="21" font-family="Virgil, Segoe UI Emoji" font-size="20px" fill="#000000" text-anchor="start" style="white-space: pre;" direction="ltr">0011</text></g><g transform="translate(54.666748046875 191.33334350585938) rotate(0 22 13.5)"><text x="0" y="21" font-family="Virgil, Segoe UI Emoji" font-size="20px" fill="#000000" text-anchor="start" style="white-space: pre;" direction="ltr">0100</text></g><g transform="translate(54.666748046875 229.33334350585938) rotate(0 22 13.5)"><text x="0" y="21" font-family="Virgil, Segoe UI Emoji" font-size="20px" fill="#000000" text-anchor="start" style="white-space: pre;" direction="ltr">0101</text></g><g transform="translate(54.666748046875 265.3333435058594) rotate(0 22 13.5)"><text x="0" y="21" font-family="Virgil, Segoe UI Emoji" font-size="20px" fill="#000000" text-anchor="start" style="white-space: pre;" direction="ltr">0110</text></g><g transform="translate(54.666748046875 301.3333435058594) rotate(0 22 13.5)"><text x="0" y="21" font-family="Virgil, Segoe UI Emoji" font-size="20px" fill="#000000" text-anchor="start" style="white-space: pre;" direction="ltr">0111</text></g><g transform="translate(38.666748046875 10) rotate(0 30.5 13.5)"><text x="0" y="21" font-family="Helvetica, Segoe UI Emoji" font-size="20px" fill="#4b8747" text-anchor="start" style="white-space: pre;" direction="ltr">存储器</text></g><g stroke-linecap="round"><g transform="translate(78.666748046875 335.66668701171875) rotate(0 0 14.666656494140625)"><path d="M0 0 C0 4.89, 0 24.44, 0 29.33 M0 0 C0 4.89, 0 24.44, 0 29.33" stroke="#000000" stroke-width="1" fill="none"></path></g></g><g stroke-linecap="round"><g transform="translate(179.83338928222656 336.3333435058594) rotate(0 0 14.666656494140625)"><path d="M0 0 C0 4.89, 0 24.44, 0 29.33 M0 0 C0 4.89, 0 24.44, 0 29.33" stroke="#000000" stroke-width="1" fill="none"></path></g></g><g transform="translate(59.166748046875 365.0000305175781) rotate(0 20.5 13.5)"><text x="0" y="21" font-family="Helvetica, Segoe UI Emoji" font-size="20px" fill="#000000" text-anchor="start" style="white-space: pre;" direction="ltr">地址</text></g><g transform="translate(159.33338928222656 366) rotate(0 20.5 13.5)"><text x="0" y="21" font-family="Helvetica, Segoe UI Emoji" font-size="20px" fill="#000000" text-anchor="start" style="white-space: pre;" direction="ltr">数据</text></g><g stroke-linecap="round" transform="translate(248.83346557617188 124.33334350585938) rotate(0 37 31)"><path d="M15.5 0 L62.13 0.24 L65.28 0.97 L70.13 3.87 L73.03 8.72 L74 15.5 L73.76 50.13 L73.03 53.28 L70.13 58.13 L65.28 61.03 L58.5 62 L11.87 61.76 L8.72 61.03 L3.87 58.13 L2.18 55.95 L0.24 50.13 L0.24 11.87 L2.18 6.05 L3.87 3.87 L8.72 0.97 L15.5 0" stroke="none" stroke-width="0" fill="#53a7bc"></path><path d="M15.5 0 M15.5 0 C28.07 0, 40.63 0, 58.5 0 M15.5 0 C25.08 0, 34.66 0, 58.5 0 M58.5 0 C68.83 0, 74 5.17, 74 15.5 M58.5 0 C68.83 0, 74 5.17, 74 15.5 M74 15.5 C74 25.81, 74 36.11, 74 46.5 M74 15.5 C74 25.53, 74 35.56, 74 46.5 M74 46.5 C74 56.83, 68.83 62, 58.5 62 M74 46.5 C74 56.83, 68.83 62, 58.5 62 M58.5 62 C48.24 62, 37.99 62, 15.5 62 M58.5 62 C42.62 62, 26.75 62, 15.5 62 M15.5 62 C5.17 62, 0 56.83, 0 46.5 M15.5 62 C5.17 62, 0 56.83, 0 46.5 M0 46.5 C0 39.06, 0 31.63, 0 15.5 M0 46.5 C0 35.14, 0 23.79, 0 15.5 M0 15.5 C0 5.17, 5.17 0, 15.5 0 M0 15.5 C0 5.17, 5.17 0, 15.5 0" stroke="transparent" stroke-width="1" fill="none"></path></g><g stroke-linecap="round" transform="translate(248.83346557617188 49.333343505859375) rotate(0 37 31)"><path d="M15.5 0 L62.13 0.24 L65.28 0.97 L70.13 3.87 L73.03 8.72 L74 15.5 L73.76 50.13 L73.03 53.28 L70.13 58.13 L65.28 61.03 L58.5 62 L11.87 61.76 L8.72 61.03 L3.87 58.13 L2.18 55.95 L0.24 50.13 L0.24 11.87 L2.18 6.05 L3.87 3.87 L8.72 0.97 L15.5 0" stroke="none" stroke-width="0" fill="#53a7bc"></path><path d="M15.5 0 M15.5 0 C32.6 0, 49.69 0, 58.5 0 M15.5 0 C28.02 0, 40.53 0, 58.5 0 M58.5 0 C68.83 0, 74 5.17, 74 15.5 M58.5 0 C68.83 0, 74 5.17, 74 15.5 M74 15.5 C74 24.8, 74 34.1, 74 46.5 M74 15.5 C74 27.77, 74 40.03, 74 46.5 M74 46.5 C74 56.83, 68.83 62, 58.5 62 M74 46.5 C74 56.83, 68.83 62, 58.5 62 M58.5 62 C46.75 62, 35 62, 15.5 62 M58.5 62 C47.58 62, 36.67 62, 15.5 62 M15.5 62 C5.17 62, 0 56.83, 0 46.5 M15.5 62 C5.17 62, 0 56.83, 0 46.5 M0 46.5 C0 34.59, 0 22.67, 0 15.5 M0 46.5 C0 38.6, 0 30.69, 0 15.5 M0 15.5 C0 5.17, 5.17 0, 15.5 0 M0 15.5 C0 5.17, 5.17 0, 15.5 0" stroke="transparent" stroke-width="1" fill="none"></path></g><g stroke-linecap="round" transform="translate(252.50009155273438 228.83334350585938) rotate(0 31.5 16.5)"><path d="M8.25 0 L58.36 0.52 L60.94 2.06 L62.48 4.64 L63 8.25 L62.48 28.36 L60.94 30.94 L58.36 32.48 L54.75 33 L4.64 32.48 L2.06 30.94 L0.52 28.36 L0 8.25 L0.52 4.64 L2.06 2.06 L4.64 0.52 L8.25 0" stroke="none" stroke-width="0" fill="#478bdf"></path><path d="M8.25 0 M8.25 0 C26.67 0, 45.1 0, 54.75 0 M8.25 0 C18.9 0, 29.54 0, 54.75 0 M54.75 0 C60.25 0, 63 2.75, 63 8.25 M54.75 0 C60.25 0, 63 2.75, 63 8.25 M63 8.25 C63 14.26, 63 20.26, 63 24.75 M63 8.25 C63 14.77, 63 21.28, 63 24.75 M63 24.75 C63 30.25, 60.25 33, 54.75 33 M63 24.75 C63 30.25, 60.25 33, 54.75 33 M54.75 33 C36.66 33, 18.57 33, 8.25 33 M54.75 33 C43.17 33, 31.58 33, 8.25 33 M8.25 33 C2.75 33, 0 30.25, 0 24.75 M8.25 33 C2.75 33, 0 30.25, 0 24.75 M0 24.75 C0 18.28, 0 11.81, 0 8.25 M0 24.75 C0 21.15, 0 17.55, 0 8.25 M0 8.25 C0 2.75, 2.75 0, 8.25 0 M0 8.25 C0 2.75, 2.75 0, 8.25 0" stroke="transparent" stroke-width="1" fill="none"></path></g><g stroke-linecap="round" transform="translate(418.166748046875 175.83334350585938) rotate(0 105 16.5)"><path d="M8.25 0 L201.75 0 L205.36 0.52 L207.94 2.06 L209.48 4.64 L210 24.75 L209.48 28.36 L207.94 30.94 L205.36 32.48 L201.75 33 L8.25 33 L4.64 32.48 L2.06 30.94 L0.52 28.36 L0 24.75 L0.52 4.64 L2.06 2.06 L4.64 0.52 L8.25 0" stroke="none" stroke-width="0" fill="#478bdf"></path><path d="M8.25 0 M8.25 0 C52.65 0, 97.05 0, 201.75 0 M8.25 0 C53.2 0, 98.14 0, 201.75 0 M201.75 0 C207.25 0, 210 2.75, 210 8.25 M201.75 0 C207.25 0, 210 2.75, 210 8.25 M210 8.25 C210 11.9, 210 15.55, 210 24.75 M210 8.25 C210 14.47, 210 20.69, 210 24.75 M210 24.75 C210 30.25, 207.25 33, 201.75 33 M210 24.75 C210 30.25, 207.25 33, 201.75 33 M201.75 33 C129 33, 56.24 33, 8.25 33 M201.75 33 C159.5 33, 117.25 33, 8.25 33 M8.25 33 C2.75 33, 0 30.25, 0 24.75 M8.25 33 C2.75 33, 0 30.25, 0 24.75 M0 24.75 C0 21.29, 0 17.84, 0 8.25 M0 24.75 C0 19.44, 0 14.13, 0 8.25 M0 8.25 C0 2.75, 2.75 0, 8.25 0 M0 8.25 C0 2.75, 2.75 0, 8.25 0" stroke="transparent" stroke-width="1" fill="none"></path></g><g stroke-linecap="round" transform="translate(418.5000915527344 214.33334350585938) rotate(0 105 16.5)"><path d="M8.25 0 L201.75 0 L205.36 0.52 L207.94 2.06 L209.48 4.64 L210 24.75 L209.48 28.36 L207.94 30.94 L205.36 32.48 L201.75 33 L8.25 33 L4.64 32.48 L2.06 30.94 L0.52 28.36 L0 24.75 L0.52 4.64 L2.06 2.06 L4.64 0.52 L8.25 0" stroke="none" stroke-width="0" fill="#478bdf"></path><path d="M8.25 0 M8.25 0 C50.6 0, 92.94 0, 201.75 0 M8.25 0 C48.45 0, 88.65 0, 201.75 0 M201.75 0 C207.25 0, 210 2.75, 210 8.25 M201.75 0 C207.25 0, 210 2.75, 210 8.25 M210 8.25 C210 12.72, 210 17.19, 210 24.75 M210 8.25 C210 13.46, 210 18.68, 210 24.75 M210 24.75 C210 30.25, 207.25 33, 201.75 33 M210 24.75 C210 30.25, 207.25 33, 201.75 33 M201.75 33 C130.83 33, 59.91 33, 8.25 33 M201.75 33 C142.71 33, 83.67 33, 8.25 33 M8.25 33 C2.75 33, 0 30.25, 0 24.75 M8.25 33 C2.75 33, 0 30.25, 0 24.75 M0 24.75 C0 19.8, 0 14.85, 0 8.25 M0 24.75 C0 20.25, 0 15.75, 0 8.25 M0 8.25 C0 2.75, 2.75 0, 8.25 0 M0 8.25 C0 2.75, 2.75 0, 8.25 0" stroke="transparent" stroke-width="1" fill="none"></path></g><g stroke-linecap="round" transform="translate(253.00009155273438 297.3333435058594) rotate(0 31.5 16.5)"><path d="M8.25 0 L58.36 0.52 L60.94 2.06 L62.48 4.64 L63 8.25 L62.48 28.36 L60.94 30.94 L58.36 32.48 L54.75 33 L4.64 32.48 L2.06 30.94 L0.52 28.36 L0 8.25 L0.52 4.64 L2.06 2.06 L4.64 0.52 L8.25 0" stroke="none" stroke-width="0" fill="#478bdf"></path><path d="M8.25 0 M8.25 0 C25.39 0, 42.53 0, 54.75 0 M8.25 0 C20.88 0, 33.51 0, 54.75 0 M54.75 0 C60.25 0, 63 2.75, 63 8.25 M54.75 0 C60.25 0, 63 2.75, 63 8.25 M63 8.25 C63 12.82, 63 17.4, 63 24.75 M63 8.25 C63 13.1, 63 17.94, 63 24.75 M63 24.75 C63 30.25, 60.25 33, 54.75 33 M63 24.75 C63 30.25, 60.25 33, 54.75 33 M54.75 33 C37.32 33, 19.9 33, 8.25 33 M54.75 33 C41.57 33, 28.39 33, 8.25 33 M8.25 33 C2.75 33, 0 30.25, 0 24.75 M8.25 33 C2.75 33, 0 30.25, 0 24.75 M0 24.75 C0 18.21, 0 11.67, 0 8.25 M0 24.75 C0 19.77, 0 14.79, 0 8.25 M0 8.25 C0 2.75, 2.75 0, 8.25 0 M0 8.25 C0 2.75, 2.75 0, 8.25 0" stroke="transparent" stroke-width="1" fill="none"></path></g><g transform="translate(257.5000915527344 233.83334350585938) rotate(0 26.5 11.5)"><text x="26.5" y="18" font-family="Helvetica, Segoe UI Emoji" font-size="20px" fill="#ffffff" text-anchor="middle" style="white-space: pre;" direction="ltr">MAR</text></g><g transform="translate(258.0000915527344 302.3333435058594) rotate(0 26.5 11.5)"><text x="26.5" y="18" font-family="Helvetica, Segoe UI Emoji" font-size="20px" fill="#ffffff" text-anchor="middle" style="white-space: pre;" direction="ltr">MDR</text></g><g transform="translate(253.83346557617188 132.33334350585938) rotate(0 32 23)"><text x="32" y="18" font-family="Helvetica, Segoe UI Emoji" font-size="20px" fill="#ffffff" text-anchor="middle" style="white-space: pre;" direction="ltr">地址译</text><text x="32" y="41" font-family="Helvetica, Segoe UI Emoji" font-size="20px" fill="#ffffff" text-anchor="middle" style="white-space: pre;" direction="ltr">码器</text></g><g transform="translate(253.83346557617188 57.333343505859375) rotate(0 32 23)"><text x="32" y="18" font-family="Helvetica, Segoe UI Emoji" font-size="20px" fill="#ffffff" text-anchor="middle" style="white-space: pre;" direction="ltr">控制</text><text x="32" y="41" font-family="Helvetica, Segoe UI Emoji" font-size="20px" fill="#ffffff" text-anchor="middle" style="white-space: pre;" direction="ltr">逻辑</text></g><g transform="translate(406.3334045410156 10) rotate(0 21.5 11.5)"><text x="0" y="18" font-family="Helvetica, Segoe UI Emoji" font-size="20px" fill="#b6305a" text-anchor="start" style="white-space: pre;" direction="ltr">CPU</text></g><g stroke-linecap="round" transform="translate(417.8334045410156 44.333343505859375) rotate(0 48 21)"><path d="M10.5 0 L85.5 0 L90.09 0.66 L93.38 2.63 L95.34 5.91 L96 10.5 L96 31.5 L95.34 36.09 L93.38 39.38 L90.09 41.34 L85.5 42 L10.5 42 L5.91 41.34 L2.63 39.38 L0.66 36.09 L0 31.5 L0 10.5 L0.66 5.91 L2.63 2.63 L5.91 0.66 L10.5 0" stroke="none" stroke-width="0" fill="#d35680"></path><path d="M10.5 0 M10.5 0 C32.43 0, 54.36 0, 85.5 0 M10.5 0 C33.86 0, 57.22 0, 85.5 0 M85.5 0 C92.5 0, 96 3.5, 96 10.5 M85.5 0 C92.5 0, 96 3.5, 96 10.5 M96 10.5 C96 16.59, 96 22.68, 96 31.5 M96 10.5 C96 16.48, 96 22.47, 96 31.5 M96 31.5 C96 38.5, 92.5 42, 85.5 42 M96 31.5 C96 38.5, 92.5 42, 85.5 42 M85.5 42 C61.17 42, 36.83 42, 10.5 42 M85.5 42 C69.4 42, 53.31 42, 10.5 42 M10.5 42 C3.5 42, 0 38.5, 0 31.5 M10.5 42 C3.5 42, 0 38.5, 0 31.5 M0 31.5 C0 24.32, 0 17.13, 0 10.5 M0 31.5 C0 23.2, 0 14.89, 0 10.5 M0 10.5 C0 3.5, 3.5 0, 10.5 0 M0 10.5 C0 3.5, 3.5 0, 10.5 0" stroke="transparent" stroke-width="1" fill="none"></path></g><g stroke-linecap="round" transform="translate(533.0001068115234 44.333343505859375) rotate(0 48 21)"><path d="M10.5 0 L85.5 0 L90.09 0.66 L93.38 2.63 L95.34 5.91 L96 10.5 L96 31.5 L95.34 36.09 L93.38 39.38 L90.09 41.34 L85.5 42 L10.5 42 L5.91 41.34 L2.63 39.38 L0.66 36.09 L0 31.5 L0 10.5 L0.66 5.91 L2.63 2.63 L5.91 0.66 L10.5 0" stroke="none" stroke-width="0" fill="#d35680"></path><path d="M10.5 0 M10.5 0 C29.91 0, 49.32 0, 85.5 0 M10.5 0 C34.35 0, 58.21 0, 85.5 0 M85.5 0 C92.5 0, 96 3.5, 96 10.5 M85.5 0 C92.5 0, 96 3.5, 96 10.5 M96 10.5 C96 15.3, 96 20.1, 96 31.5 M96 10.5 C96 16.38, 96 22.26, 96 31.5 M96 31.5 C96 38.5, 92.5 42, 85.5 42 M96 31.5 C96 38.5, 92.5 42, 85.5 42 M85.5 42 C56.17 42, 26.84 42, 10.5 42 M85.5 42 C65.41 42, 45.33 42, 10.5 42 M10.5 42 C3.5 42, 0 38.5, 0 31.5 M10.5 42 C3.5 42, 0 38.5, 0 31.5 M0 31.5 C0 24.96, 0 18.43, 0 10.5 M0 31.5 C0 23.43, 0 15.35, 0 10.5 M0 10.5 C0 3.5, 3.5 0, 10.5 0 M0 10.5 C0 3.5, 3.5 0, 10.5 0" stroke="transparent" stroke-width="1" fill="none"></path></g><g transform="translate(422.8334045410156 53.833343505859375) rotate(0 43 11.5)"><text x="43" y="18" font-family="Helvetica, Segoe UI Emoji" font-size="20px" fill="#ffffff" text-anchor="middle" style="white-space: pre;" direction="ltr">控制电路</text></g><g transform="translate(538.0001068115234 53.833343505859375) rotate(0 43 11.5)"><text x="43" y="18" font-family="Helvetica, Segoe UI Emoji" font-size="20px" fill="#ffffff" text-anchor="middle" style="white-space: pre;" direction="ltr">指令译码</text></g><g stroke-linecap="round" transform="translate(676.333251953125 41.00001525878906) rotate(0 15.5 251.99996948242188)"><path d="M7.75 0 L26.64 0.48 L29.06 1.94 L30.52 4.36 L31 7.75 L31 496.25 L30.52 499.64 L29.06 502.06 L26.64 503.52 L23.25 504 L4.36 503.52 L1.94 502.06 L0.48 499.64 L0 496.25 L0 7.75 L0.48 4.36 L1.94 1.94 L4.36 0.48 L7.75 0" stroke="none" stroke-width="0" fill="#d35680"></path><path d="M7.75 0 M7.75 0 C11.55 0, 15.36 0, 23.25 0 M7.75 0 C11.69 0, 15.62 0, 23.25 0 M23.25 0 C28.42 0, 31 2.58, 31 7.75 M23.25 0 C28.42 0, 31 2.58, 31 7.75 M31 7.75 C31 117.01, 31 226.26, 31 496.25 M31 7.75 C31 200.82, 31 393.88, 31 496.25 M31 496.25 C31 501.42, 28.42 504, 23.25 504 M31 496.25 C31 501.42, 28.42 504, 23.25 504 M23.25 504 C18.02 504, 12.8 504, 7.75 504 M23.25 504 C19.76 504, 16.26 504, 7.75 504 M7.75 504 C2.58 504, 0 501.42, 0 496.25 M7.75 504 C2.58 504, 0 501.42, 0 496.25 M0 496.25 C0 363.99, 0 231.73, 0 7.75 M0 496.25 C0 381.27, 0 266.29, 0 7.75 M0 7.75 C0 2.58, 2.58 0, 7.75 0 M0 7.75 C0 2.58, 2.58 0, 7.75 0" stroke="transparent" stroke-width="1" fill="none"></path></g><g stroke-linecap="round" transform="translate(417.8334045410156 94.16665649414062) rotate(0 105.5 18.333343505859375)"><path d="M9.17 0 L201.83 0 L205.84 0.57 L208.71 2.29 L210.43 5.16 L211 9.17 L210.43 31.51 L208.71 34.38 L205.84 36.09 L201.83 36.67 L9.17 36.67 L5.16 36.09 L2.29 34.38 L0.57 31.51 L0 9.17 L0.57 5.16 L2.29 2.29 L5.16 0.57 L9.17 0" stroke="none" stroke-width="0" fill="#6965db"></path><path d="M9.17 0 M9.17 0 C76.1 0, 143.03 0, 201.83 0 M9.17 0 C81.97 0, 154.77 0, 201.83 0 M201.83 0 C207.94 0, 211 3.06, 211 9.17 M201.83 0 C207.94 0, 211 3.06, 211 9.17 M211 9.17 C211 13.65, 211 18.13, 211 27.5 M211 9.17 C211 12.85, 211 16.53, 211 27.5 M211 27.5 C211 33.61, 207.94 36.67, 201.83 36.67 M211 27.5 C211 33.61, 207.94 36.67, 201.83 36.67 M201.83 36.67 C162.2 36.67, 122.57 36.67, 9.17 36.67 M201.83 36.67 C139.67 36.67, 77.51 36.67, 9.17 36.67 M9.17 36.67 C3.06 36.67, 0 33.61, 0 27.5 M9.17 36.67 C3.06 36.67, 0 33.61, 0 27.5 M0 27.5 C0 22.71, 0 17.93, 0 9.17 M0 27.5 C0 23.41, 0 19.32, 0 9.17 M0 9.17 C0 3.06, 3.06 0, 9.17 0 M0 9.17 C0 3.06, 3.06 0, 9.17 0" stroke="transparent" stroke-width="1" fill="none"></path></g><g stroke-linecap="round" transform="translate(417.8334045410156 135) rotate(0 105.5 18.333343505859375)"><path d="M9.17 0 L201.83 0 L205.84 0.57 L208.71 2.29 L210.43 5.16 L211 9.17 L210.43 31.51 L208.71 34.38 L205.84 36.09 L201.83 36.67 L9.17 36.67 L5.16 36.09 L2.29 34.38 L0.57 31.51 L0 9.17 L0.57 5.16 L2.29 2.29 L5.16 0.57 L9.17 0" stroke="none" stroke-width="0" fill="#6965db"></path><path d="M9.17 0 M9.17 0 C78.13 0, 147.09 0, 201.83 0 M9.17 0 C77.04 0, 144.91 0, 201.83 0 M201.83 0 C207.94 0, 211 3.06, 211 9.17 M201.83 0 C207.94 0, 211 3.06, 211 9.17 M211 9.17 C211 16.37, 211 23.57, 211 27.5 M211 9.17 C211 13.84, 211 18.51, 211 27.5 M211 27.5 C211 33.61, 207.94 36.67, 201.83 36.67 M211 27.5 C211 33.61, 207.94 36.67, 201.83 36.67 M201.83 36.67 C134.35 36.67, 66.87 36.67, 9.17 36.67 M201.83 36.67 C158.28 36.67, 114.72 36.67, 9.17 36.67 M9.17 36.67 C3.06 36.67, 0 33.61, 0 27.5 M9.17 36.67 C3.06 36.67, 0 33.61, 0 27.5 M0 27.5 C0 23.3, 0 19.09, 0 9.17 M0 27.5 C0 23.63, 0 19.77, 0 9.17 M0 9.17 C0 3.06, 3.06 0, 9.17 0 M0 9.17 C0 3.06, 3.06 0, 9.17 0" stroke="transparent" stroke-width="1" fill="none"></path></g><g stroke-linecap="round" transform="translate(426.0001525878906 352.6666259765627) rotate(0 105.5 18.333343505859375)"><path d="M9.17 0 L201.83 0 L205.84 0.57 L208.71 2.29 L210.43 5.16 L211 9.17 L210.43 31.51 L208.71 34.38 L205.84 36.09 L201.83 36.67 L9.17 36.67 L5.16 36.09 L2.29 34.38 L0.57 31.51 L0 9.17 L0.57 5.16 L2.29 2.29 L5.16 0.57 L9.17 0" stroke="none" stroke-width="0" fill="#59b489"></path><path d="M9.17 0 M9.17 0 C63.21 0, 117.26 0, 201.83 0 M9.17 0 C74.15 0, 139.14 0, 201.83 0 M201.83 0 C207.94 0, 211 3.06, 211 9.17 M201.83 0 C207.94 0, 211 3.06, 211 9.17 M211 9.17 C211 14.93, 211 20.7, 211 27.5 M211 9.17 C211 13.81, 211 18.46, 211 27.5 M211 27.5 C211 33.61, 207.94 36.67, 201.83 36.67 M211 27.5 C211 33.61, 207.94 36.67, 201.83 36.67 M201.83 36.67 C125.87 36.67, 49.9 36.67, 9.17 36.67 M201.83 36.67 C149.95 36.67, 98.06 36.67, 9.17 36.67 M9.17 36.67 C3.06 36.67, 0 33.61, 0 27.5 M9.17 36.67 C3.06 36.67, 0 33.61, 0 27.5 M0 27.5 C0 22.94, 0 18.37, 0 9.17 M0 27.5 C0 22.89, 0 18.28, 0 9.17 M0 9.17 C0 3.06, 3.06 0, 9.17 0 M0 9.17 C0 3.06, 3.06 0, 9.17 0" stroke="transparent" stroke-width="1" fill="none"></path></g><g stroke-linecap="round" transform="translate(425.3334655761719 455.66668701171875) rotate(0 105.5 18.333343505859375)"><path d="M9.17 0 L201.83 0 L205.84 0.57 L208.71 2.29 L210.43 5.16 L211 9.17 L210.43 31.51 L208.71 34.38 L205.84 36.09 L201.83 36.67 L9.17 36.67 L5.16 36.09 L2.29 34.38 L0.57 31.51 L0 9.17 L0.57 5.16 L2.29 2.29 L5.16 0.57 L9.17 0" stroke="none" stroke-width="0" fill="#eeb23f"></path><path d="M9.17 0 M9.17 0 C55.85 0, 102.54 0, 201.83 0 M9.17 0 C60.89 0, 112.61 0, 201.83 0 M201.83 0 C207.94 0, 211 3.06, 211 9.17 M201.83 0 C207.94 0, 211 3.06, 211 9.17 M211 9.17 C211 13.23, 211 17.3, 211 27.5 M211 9.17 C211 13.37, 211 17.58, 211 27.5 M211 27.5 C211 33.61, 207.94 36.67, 201.83 36.67 M211 27.5 C211 33.61, 207.94 36.67, 201.83 36.67 M201.83 36.67 C129.96 36.67, 58.08 36.67, 9.17 36.67 M201.83 36.67 C156.46 36.67, 111.09 36.67, 9.17 36.67 M9.17 36.67 C3.06 36.67, 0 33.61, 0 27.5 M9.17 36.67 C3.06 36.67, 0 33.61, 0 27.5 M0 27.5 C0 22.68, 0 17.86, 0 9.17 M0 27.5 C0 20.97, 0 14.45, 0 9.17 M0 9.17 C0 3.06, 3.06 0, 9.17 0 M0 9.17 C0 3.06, 3.06 0, 9.17 0" stroke="transparent" stroke-width="1" fill="none"></path></g><g stroke-linecap="round" transform="translate(480.0001525878906 394) rotate(0 78 17.333343505859375)"><path d="M8.67 0 L147.33 0 L151.12 0.54 L153.83 2.17 L155.46 4.88 L156 8.67 L155.46 29.79 L153.83 32.5 L151.12 34.13 L147.33 34.67 L8.67 34.67 L4.88 34.13 L2.17 32.5 L0.54 29.79 L0 8.67 L0.54 4.88 L2.17 2.17 L4.88 0.54 L8.67 0" stroke="none" stroke-width="0" fill="#59b489"></path><path d="M8.67 0 M8.67 0 C37.19 0, 65.71 0, 147.33 0 M8.67 0 C55.3 0, 101.94 0, 147.33 0 M147.33 0 C153.11 0, 156 2.89, 156 8.67 M147.33 0 C153.11 0, 156 2.89, 156 8.67 M156 8.67 C156 15.14, 156 21.62, 156 26 M156 8.67 C156 14.99, 156 21.3, 156 26 M156 26 C156 31.78, 153.11 34.67, 147.33 34.67 M156 26 C156 31.78, 153.11 34.67, 147.33 34.67 M147.33 34.67 C111.81 34.67, 76.28 34.67, 8.67 34.67 M147.33 34.67 C92.71 34.67, 38.1 34.67, 8.67 34.67 M8.67 34.67 C2.89 34.67, 0 31.78, 0 26 M8.67 34.67 C2.89 34.67, 0 31.78, 0 26 M0 26 C0 19.09, 0 12.19, 0 8.67 M0 26 C0 20.58, 0 15.17, 0 8.67 M0 8.67 C0 2.89, 2.89 0, 8.67 0 M0 8.67 C0 2.89, 2.89 0, 8.67 0" stroke="transparent" stroke-width="1" fill="none"></path></g><g stroke-linecap="round" transform="translate(480.0001525878906 501.3333740234375) rotate(0 78 17.333343505859375)"><path d="M8.67 0 L147.33 0 L151.12 0.54 L153.83 2.17 L155.46 4.88 L156 8.67 L155.46 29.79 L153.83 32.5 L151.12 34.13 L147.33 34.67 L8.67 34.67 L4.88 34.13 L2.17 32.5 L0.54 29.79 L0 8.67 L0.54 4.88 L2.17 2.17 L4.88 0.54 L8.67 0" stroke="none" stroke-width="0" fill="#59b489"></path><path d="M8.67 0 M8.67 0 C44.75 0, 80.84 0, 147.33 0 M8.67 0 C41.14 0, 73.61 0, 147.33 0 M147.33 0 C153.11 0, 156 2.89, 156 8.67 M147.33 0 C153.11 0, 156 2.89, 156 8.67 M156 8.67 C156 14.04, 156 19.41, 156 26 M156 8.67 C156 14.83, 156 21, 156 26 M156 26 C156 31.78, 153.11 34.67, 147.33 34.67 M156 26 C156 31.78, 153.11 34.67, 147.33 34.67 M147.33 34.67 C117.44 34.67, 87.55 34.67, 8.67 34.67 M147.33 34.67 C94.99 34.67, 42.64 34.67, 8.67 34.67 M8.67 34.67 C2.89 34.67, 0 31.78, 0 26 M8.67 34.67 C2.89 34.67, 0 31.78, 0 26 M0 26 C0 20.08, 0 14.16, 0 8.67 M0 26 C0 21.91, 0 17.82, 0 8.67 M0 8.67 C0 2.89, 2.89 0, 8.67 0 M0 8.67 C0 2.89, 2.89 0, 8.67 0" stroke="transparent" stroke-width="1" fill="none"></path></g><g stroke-linecap="round" transform="translate(425.66680908203125 284.8333435058594) rotate(0 106 31)"><path d="M15.5 0 L196.5 0 L203.28 0.97 L205.95 2.18 L209.82 6.05 L211.76 11.87 L212 46.5 L211.03 53.28 L209.82 55.95 L205.95 59.82 L203.28 61.03 L196.5 62 L15.5 62 L8.72 61.03 L3.87 58.13 L2.18 55.95 L0.24 50.13 L0.24 11.87 L2.18 6.05 L3.87 3.87 L8.72 0.97 L15.5 0" stroke="none" stroke-width="0" fill="#53a7bc"></path><path d="M15.5 0 M15.5 0 C81.75 0, 148 0, 196.5 0 M15.5 0 C82.64 0, 149.78 0, 196.5 0 M196.5 0 C206.83 0, 212 5.17, 212 15.5 M196.5 0 C206.83 0, 212 5.17, 212 15.5 M212 15.5 C212 23.8, 212 32.1, 212 46.5 M212 15.5 C212 23.93, 212 32.36, 212 46.5 M212 46.5 C212 56.83, 206.83 62, 196.5 62 M212 46.5 C212 56.83, 206.83 62, 196.5 62 M196.5 62 C138.09 62, 79.68 62, 15.5 62 M196.5 62 C152.94 62, 109.39 62, 15.5 62 M15.5 62 C5.17 62, 0 56.83, 0 46.5 M15.5 62 C5.17 62, 0 56.83, 0 46.5 M0 46.5 C0 40.06, 0 33.62, 0 15.5 M0 46.5 C0 36.36, 0 26.23, 0 15.5 M0 15.5 C0 5.17, 5.17 0, 15.5 0 M0 15.5 C0 5.17, 5.17 0, 15.5 0" stroke="transparent" stroke-width="1" fill="none"></path></g><g stroke-linecap="round"><g transform="translate(453.4800129530422 398.6666564941406) rotate(0 0.05356945029245708 26.166656494140625)"><path d="M0 0 C0.02 8.72, 0.09 43.61, 0.11 52.33 M0 0 C0.02 8.72, 0.09 43.61, 0.11 52.33" stroke="#3b7d5d" stroke-width="1" fill="none"></path></g><g transform="translate(453.4800129530422 398.6666564941406) rotate(0 0.05356945029245708 26.166656494140625)"><path d="M0.11 52.33 L-6.26 38.75 L6.42 38.73 L0.11 52.33" stroke="none" stroke-width="0" fill="#3b7d5d" fill-rule="evenodd"></path><path d="M0.11 52.33 C-2.15 47.51, -4.41 42.7, -6.26 38.75 M0.11 52.33 C-1.31 49.32, -2.72 46.31, -6.26 38.75 M-6.26 38.75 C-2.41 38.74, 1.44 38.74, 6.42 38.73 M-6.26 38.75 C-1.53 38.74, 3.2 38.73, 6.42 38.73 M6.42 38.73 C3.97 44, 1.53 49.27, 0.11 52.33 M6.42 38.73 C4.76 42.3, 3.1 45.88, 0.11 52.33 M0.11 52.33 C0.11 52.33, 0.11 52.33, 0.11 52.33 M0.11 52.33 C0.11 52.33, 0.11 52.33, 0.11 52.33" stroke="#3b7d5d" stroke-width="1" fill="none"></path></g></g><g stroke-linecap="round"><g transform="translate(551.8335113525391 432.66668701171875) rotate(0 0 10)"><path d="M0 0 C0 3.33, 0 16.67, 0 20 M0 0 C0 3.33, 0 16.67, 0 20" stroke="#3b7d5d" stroke-width="1" fill="none"></path></g><g transform="translate(551.8335113525391 432.66668701171875) rotate(0 0 10)"><path d="M0 20 L-4.23 10.94 L4.23 10.94 L0 20" stroke="none" stroke-width="0" fill="#3b7d5d" fill-rule="evenodd"></path><path d="M0 20 C-1.36 17.08, -2.72 14.16, -4.23 10.94 M0 20 C-1.62 16.53, -3.23 13.07, -4.23 10.94 M-4.23 10.94 C-1.79 10.94, 0.65 10.94, 4.23 10.94 M-4.23 10.94 C-0.98 10.94, 2.27 10.94, 4.23 10.94 M4.23 10.94 C3.19 13.16, 2.15 15.38, 0 20 M4.23 10.94 C2.75 14.11, 1.27 17.28, 0 20 M0 20 C0 20, 0 20, 0 20 M0 20 C0 20, 0 20, 0 20" stroke="#3b7d5d" stroke-width="1" fill="none"></path></g></g><g transform="translate(430.3334655761719 462.5000305175781) rotate(0 100.5 11.5)"><text x="100.5" y="18" font-family="Helvetica, Segoe UI Emoji" font-size="20px" fill="#ffffff" text-anchor="middle" style="white-space: pre;" direction="ltr">ALU</text></g><g stroke-linecap="round" transform="translate(426.0001525878906 502.0000305175781) rotate(0 22.666656494140625 16.66668701171875)"><path d="M8.33 0 L37 0 L40.65 0.52 L43.25 2.08 L44.81 4.69 L45.33 8.33 L45.33 25 L44.81 28.65 L43.25 31.25 L40.65 32.81 L37 33.33 L8.33 33.33 L4.69 32.81 L2.08 31.25 L0.52 28.65 L0 25 L0.52 4.69 L2.08 2.08 L4.69 0.52 L8.33 0" stroke="none" stroke-width="0" fill="#478bdf"></path><path d="M8.33 0 M8.33 0 C16.14 0, 23.95 0, 37 0 M8.33 0 C15.76 0, 23.18 0, 37 0 M37 0 C42.56 0, 45.33 2.78, 45.33 8.33 M37 0 C42.56 0, 45.33 2.78, 45.33 8.33 M45.33 8.33 C45.33 12.04, 45.33 15.75, 45.33 25 M45.33 8.33 C45.33 12.68, 45.33 17.02, 45.33 25 M45.33 25 C45.33 30.56, 42.56 33.33, 37 33.33 M45.33 25 C45.33 30.56, 42.56 33.33, 37 33.33 M37 33.33 C29.07 33.33, 21.14 33.33, 8.33 33.33 M37 33.33 C27.24 33.33, 17.47 33.33, 8.33 33.33 M8.33 33.33 C2.78 33.33, 0 30.56, 0 25 M8.33 33.33 C2.78 33.33, 0 30.56, 0 25 M0 25 C0 20.82, 0 16.64, 0 8.33 M0 25 C0 21.26, 0 17.52, 0 8.33 M0 8.33 C0 2.78, 2.78 0, 8.33 0 M0 8.33 C0 2.78, 2.78 0, 8.33 0" stroke="transparent" stroke-width="1" fill="none"></path></g><g transform="translate(431.0001525878906 507.1667175292969) rotate(0 17.5 11.5)"><text x="17.5" y="18" font-family="Helvetica, Segoe UI Emoji" font-size="20px" fill="#ffffff" text-anchor="middle" style="white-space: pre;" direction="ltr">F</text></g><g transform="translate(424.16680908203125 251.33334350585938) rotate(0 24.5 10.5)"><text x="0" y="17" font-family="Helvetica, Segoe UI Emoji" font-size="16px" fill="#4b8747" text-anchor="start" style="white-space: pre;" direction="ltr">寄存器</text></g><g transform="translate(653.8334045410156 165.83334350585938) rotate(0 6 11.5)"><text x="0" y="18" font-family="Helvetica, Segoe UI Emoji" font-size="20px" fill="#5586ed" text-anchor="start" style="white-space: pre;" direction="ltr">1</text></g><g stroke-linecap="round" transform="translate(326.3334045410156 186.83334350585938) rotate(0 38.5 20)"><path d="M10 0 L67 0 L71.38 0.63 L74.5 2.5 L76.38 5.63 L77 10 L77 30 L76.38 34.38 L74.5 37.5 L71.38 39.38 L67 40 L10 40 L5.63 39.38 L2.5 37.5 L0.62 34.38 L0 30 L0 10 L0.63 5.63 L2.5 2.5 L5.63 0.62 L10 0" stroke="none" stroke-width="0" fill="#6bbc63"></path><path d="M10 0 M10 0 C31.44 0, 52.89 0, 67 0 M10 0 C24.24 0, 38.48 0, 67 0 M67 0 C73.67 0, 77 3.33, 77 10 M67 0 C73.67 0, 77 3.33, 77 10 M77 10 C77 15.93, 77 21.87, 77 30 M77 10 C77 15.49, 77 20.97, 77 30 M77 30 C77 36.67, 73.67 40, 67 40 M77 30 C77 36.67, 73.67 40, 67 40 M67 40 C53.9 40, 40.81 40, 10 40 M67 40 C55.33 40, 43.65 40, 10 40 M10 40 C3.33 40, 0 36.67, 0 30 M10 40 C3.33 40, 0 36.67, 0 30 M0 30 C0 23.03, 0 16.06, 0 10 M0 30 C0 22.31, 0 14.63, 0 10 M0 10 C0 3.33, 3.33 0, 10 0 M0 10 C0 3.33, 3.33 0, 10 0" stroke="transparent" stroke-width="1" fill="none"></path></g><g stroke-linecap="round" transform="translate(326.3334045410156 259.3333435058594) rotate(0 38.5 20)"><path d="M10 0 L67 0 L71.38 0.63 L74.5 2.5 L76.38 5.63 L77 10 L77 30 L76.38 34.38 L74.5 37.5 L71.38 39.38 L67 40 L10 40 L5.63 39.38 L2.5 37.5 L0.62 34.38 L0 30 L0 10 L0.63 5.63 L2.5 2.5 L5.63 0.62 L10 0" stroke="none" stroke-width="0" fill="#6bbc63"></path><path d="M10 0 M10 0 C31.79 0, 53.57 0, 67 0 M10 0 C23.85 0, 37.7 0, 67 0 M67 0 C73.67 0, 77 3.33, 77 10 M67 0 C73.67 0, 77 3.33, 77 10 M77 10 C77 17.96, 77 25.93, 77 30 M77 10 C77 15.44, 77 20.88, 77 30 M77 30 C77 36.67, 73.67 40, 67 40 M77 30 C77 36.67, 73.67 40, 67 40 M67 40 C51.51 40, 36.02 40, 10 40 M67 40 C55.17 40, 43.34 40, 10 40 M10 40 C3.33 40, 0 36.67, 0 30 M10 40 C3.33 40, 0 36.67, 0 30 M0 30 C0 22.18, 0 14.36, 0 10 M0 30 C0 24.39, 0 18.79, 0 10 M0 10 C0 3.33, 3.33 0, 10 0 M0 10 C0 3.33, 3.33 0, 10 0" stroke="transparent" stroke-width="1" fill="none"></path></g><g stroke-linecap="round" transform="translate(325.8334045410156 90.83334350585938) rotate(0 38.5 20)"><path d="M10 0 L67 0 L71.38 0.63 L74.5 2.5 L76.38 5.63 L77 10 L77 30 L76.38 34.38 L74.5 37.5 L71.38 39.38 L67 40 L10 40 L5.63 39.38 L2.5 37.5 L0.62 34.38 L0 30 L0 10 L0.63 5.63 L2.5 2.5 L5.63 0.62 L10 0" stroke="none" stroke-width="0" fill="#6bbc63"></path><path d="M10 0 M10 0 C25.93 0, 41.85 0, 67 0 M10 0 C31.93 0, 53.86 0, 67 0 M67 0 C73.67 0, 77 3.33, 77 10 M67 0 C73.67 0, 77 3.33, 77 10 M77 10 C77 17.39, 77 24.79, 77 30 M77 10 C77 16.1, 77 22.2, 77 30 M77 30 C77 36.67, 73.67 40, 67 40 M77 30 C77 36.67, 73.67 40, 67 40 M67 40 C49.29 40, 31.58 40, 10 40 M67 40 C48.28 40, 29.56 40, 10 40 M10 40 C3.33 40, 0 36.67, 0 30 M10 40 C3.33 40, 0 36.67, 0 30 M0 30 C0 24.2, 0 18.4, 0 10 M0 30 C0 22.14, 0 14.28, 0 10 M0 10 C0 3.33, 3.33 0, 10 0 M0 10 C0 3.33, 3.33 0, 10 0" stroke="transparent" stroke-width="1" fill="none"></path></g><g transform="translate(331.3334045410156 197.33334350585938) rotate(0 33.5 9.5)"><text x="33.5" y="15" font-family="Helvetica, Segoe UI Emoji" font-size="16px" fill="#ffffff" text-anchor="middle" style="white-space: pre;" direction="ltr">地址总线</text></g><g transform="translate(331.3334045410156 269.8333435058594) rotate(0 33.5 9.5)"><text x="33.5" y="15" font-family="Helvetica, Segoe UI Emoji" font-size="16px" fill="#ffffff" text-anchor="middle" style="white-space: pre;" direction="ltr">数据总线</text></g><g transform="translate(330.8334045410156 101.33334350585938) rotate(0 33.5 9.5)"><text x="33.5" y="15" font-family="Helvetica, Segoe UI Emoji" font-size="16px" fill="#ffffff" text-anchor="middle" style="white-space: pre;" direction="ltr">控制总线</text></g><g stroke-linecap="round"><g transform="translate(412.3333740234375 199) rotate(0 -46 23.333328247070312)"><path d="M0 0 C-3.93 0, -7.87 0, -12.67 0 M0 0 C-4.72 0, -9.45 0, -12.67 0 M-12.67 0 C-12.67 17.17, -12.67 34.34, -12.67 46.67 M-12.67 0 C-12.67 10.19, -12.67 20.38, -12.67 46.67 M-12.67 46.67 C-31.49 46.67, -50.31 46.67, -92 46.67 M-12.67 46.67 C-36.06 46.67, -59.46 46.67, -92 46.67" stroke="#353a3f" stroke-width="2" fill="none"></path></g><g transform="translate(412.3333740234375 199) rotate(0 -46 23.333328247070312)"><path d="M-92 46.67 L-78.41 40.33 L-78.41 53.01 L-92 46.67" stroke="none" stroke-width="0" fill="#353a3f" fill-rule="evenodd"></path><path d="M-92 46.67 C-87.78 44.7, -83.56 42.73, -78.41 40.33 M-92 46.67 C-86.93 44.3, -81.86 41.94, -78.41 40.33 M-78.41 40.33 C-78.41 44.99, -78.41 49.66, -78.41 53.01 M-78.41 40.33 C-78.41 43.1, -78.41 45.87, -78.41 53.01 M-78.41 53.01 C-81.63 51.5, -84.86 50, -92 46.67 M-78.41 53.01 C-82.41 51.14, -86.42 49.27, -92 46.67 M-92 46.67 C-92 46.67, -92 46.67, -92 46.67 M-92 46.67 C-92 46.67, -92 46.67, -92 46.67" stroke="#353a3f" stroke-width="2" fill="none"></path></g></g><g transform="translate(358.3334045410156 224.33334350585938) rotate(0 6 11.5)"><text x="0" y="18" font-family="Helvetica, Segoe UI Emoji" font-size="20px" fill="#000000" text-anchor="start" style="white-space: pre;" direction="ltr">2</text></g><g stroke-linecap="round"><g transform="translate(414.3333740234375 64.33334350585938) rotate(0 -49.66668701171875 17.333328247070312)"><path d="M0 0 C-7.04 0, -14.09 0, -26.67 0 M0 0 C-6.29 0, -12.58 0, -26.67 0 M-26.67 0 C-26.67 10.72, -26.67 21.45, -26.67 34 M-26.67 0 C-26.67 9.76, -26.67 19.53, -26.67 34 M-26.67 34 C-49.84 34.21, -73.01 34.43, -99.33 34.67 M-26.67 34 C-42.98 34.15, -59.29 34.3, -99.33 34.67" stroke="#353a3f" stroke-width="2" fill="none"></path></g><g transform="translate(414.3333740234375 64.33334350585938) rotate(0 -49.66668701171875 17.333328247070312)"><path d="M-99.33 34.67 L-85.8 28.2 L-85.68 40.88 L-99.33 34.67" stroke="none" stroke-width="0" fill="#353a3f" fill-rule="evenodd"></path><path d="M-99.33 34.67 C-95.76 32.96, -92.18 31.25, -85.8 28.2 M-99.33 34.67 C-96.14 33.14, -92.95 31.62, -85.8 28.2 M-85.8 28.2 C-85.76 32.2, -85.72 36.2, -85.68 40.88 M-85.8 28.2 C-85.76 31.84, -85.73 35.48, -85.68 40.88 M-85.68 40.88 C-90.03 38.9, -94.39 36.92, -99.33 34.67 M-85.68 40.88 C-88.75 39.49, -91.81 38.09, -99.33 34.67 M-99.33 34.67 C-99.33 34.67, -99.33 34.67, -99.33 34.67 M-99.33 34.67 C-99.33 34.67, -99.33 34.67, -99.33 34.67" stroke="#353a3f" stroke-width="2" fill="none"></path></g></g><g transform="translate(358.3334045410156 71.16665649414062) rotate(0 6 11.5)"><text x="0" y="18" font-family="Helvetica, Segoe UI Emoji" font-size="20px" fill="#000000" text-anchor="start" style="white-space: pre;" direction="ltr">2</text></g><g stroke-linecap="round"><g transform="translate(283.3334045410156 225.00003051757812) rotate(0 0.333343505859375 -16.333343505859375)"><path d="M0 0 C0.18 -8.84, 0.36 -17.68, 0.67 -32.67 M0 0 C0.19 -9.09, 0.37 -18.18, 0.67 -32.67" stroke="#353a3f" stroke-width="2" fill="none"></path></g><g transform="translate(283.3334045410156 225.00003051757812) rotate(0 0.333343505859375 -16.333343505859375)"><path d="M0.67 -32.67 L6.73 -18.95 L-5.95 -19.2 L0.67 -32.67" stroke="none" stroke-width="0" fill="#353a3f" fill-rule="evenodd"></path><path d="M0.67 -32.67 C2.31 -28.95, 3.95 -25.24, 6.73 -18.95 M0.67 -32.67 C2.35 -28.85, 4.04 -25.03, 6.73 -18.95 M6.73 -18.95 C2.4 -19.03, -1.93 -19.12, -5.95 -19.2 M6.73 -18.95 C2.15 -19.04, -2.43 -19.13, -5.95 -19.2 M-5.95 -19.2 C-4.29 -22.59, -2.63 -25.97, 0.67 -32.67 M-5.95 -19.2 C-4.5 -22.15, -3.06 -25.09, 0.67 -32.67 M0.67 -32.67 C0.67 -32.67, 0.67 -32.67, 0.67 -32.67 M0.67 -32.67 C0.67 -32.67, 0.67 -32.67, 0.67 -32.67" stroke="#353a3f" stroke-width="2" fill="none"></path></g></g><g stroke-linecap="round" transform="translate(52.666748046875 83.33334350585938) rotate(0 96.66665649414062 18.333328247070312)"><path d="M0 0 C65.08 0, 130.15 0, 193.33 0 M193.33 0 C193.33 11.59, 193.33 23.17, 193.33 36.67 M193.33 36.67 C132.97 36.67, 72.61 36.67, 0 36.67 M0 36.67 C0 28.9, 0 21.12, 0 0" stroke="#000000" stroke-width="2.5" fill="none" stroke-dasharray="8 10"></path></g><g stroke-linecap="round"><g transform="translate(283.66668701171875 121) rotate(0 -19 -3.6666717529296875)"><path d="M0 0 C0 -1.65, 0 -3.3, 0 -7.33 M0 0 C0 -2.48, 0 -4.96, 0 -7.33 M0 -7.33 C-8.98 -7.33, -17.97 -7.33, -38 -7.33 M0 -7.33 C-8.6 -7.33, -17.21 -7.33, -38 -7.33" stroke="#3f58d7" stroke-width="2" fill="none"></path></g></g><g transform="translate(267.66668701171875 207.83334350585938) rotate(0 6 11.5)"><text x="0" y="18" font-family="Helvetica, Segoe UI Emoji" font-size="20px" fill="#000000" text-anchor="start" style="white-space: pre;" direction="ltr">3</text></g><g stroke-linecap="round"><g transform="translate(47.33335876464844 101.84752047833626) rotate(0 105.33332824707031 147.81913601580436)"><path d="M0 0 C-14.57 -0.07, -29.15 -0.14, -36.67 -0.18 M0 0 C-12.74 -0.06, -25.48 -0.13, -36.67 -0.18 M-36.67 -0.18 C-36.87 91.18, -37.08 182.55, -37.33 295.15 M-36.67 -0.18 C-36.83 70.77, -36.99 141.72, -37.33 295.15 M-37.33 295.15 C59.18 295.38, 155.69 295.6, 247.33 295.82 M-37.33 295.15 C50.64 295.36, 138.62 295.56, 247.33 295.82 M247.33 295.82 C247.53 277.84, 247.73 259.86, 248 235.82 M247.33 295.82 C247.49 281.64, 247.65 267.45, 248 235.82" stroke="#3f58d7" stroke-width="2" fill="none"></path></g><g transform="translate(47.33335876464844 101.84752047833626) rotate(0 105.33332824707031 147.81913601580436)"><path d="M248 235.82 L254.19 249.48 L241.51 249.34 L248 235.82" stroke="none" stroke-width="0" fill="#3f58d7" fill-rule="evenodd"></path><path d="M248 235.82 C250.46 241.25, 252.92 246.68, 254.19 249.48 M248 235.82 C250.15 240.57, 252.3 245.32, 254.19 249.48 M254.19 249.48 C250.27 249.44, 246.34 249.4, 241.51 249.34 M254.19 249.48 C251.14 249.45, 248.1 249.42, 241.51 249.34 M241.51 249.34 C243.71 244.76, 245.91 240.17, 248 235.82 M241.51 249.34 C243.52 245.16, 245.52 240.98, 248 235.82 M248 235.82 C248 235.82, 248 235.82, 248 235.82 M248 235.82 C248 235.82, 248 235.82, 248 235.82" stroke="#3f58d7" stroke-width="2" fill="none"></path></g></g><g transform="translate(277.3333740234375 364.6666564941406) rotate(0 6 11.5)"><text x="0" y="18" font-family="Helvetica, Segoe UI Emoji" font-size="20px" fill="#3f58d7" text-anchor="start" style="white-space: pre;" direction="ltr">4</text></g><g stroke-linecap="round"><g transform="translate(316 321.0000305175781) rotate(0 50.66668701171875 -38.000030517578125)"><path d="M0 0 C6.7 0.14, 13.4 0.29, 31.33 0.67 M0 0 C8.81 0.19, 17.61 0.37, 31.33 0.67 M31.33 0.67 C31.33 -6.94, 31.33 -14.55, 31.33 -26.67 M31.33 0.67 C31.33 -10.15, 31.33 -20.96, 31.33 -26.67 M31.33 -26.67 C51.12 -26.67, 70.91 -26.67, 92.67 -26.67 M31.33 -26.67 C53.94 -26.67, 76.55 -26.67, 92.67 -26.67 M92.67 -26.67 C92.67 -37.38, 92.67 -48.08, 92.67 -66.67 M92.67 -26.67 C92.67 -42.4, 92.67 -58.13, 92.67 -66.67 M92.67 -66.67 C95.43 -69.86, 98.2 -73.05, 101.33 -76.67 M92.67 -66.67 C96.05 -70.56, 99.42 -74.46, 101.33 -76.67" stroke="#353a3f" stroke-width="2" fill="none"></path></g><g transform="translate(316 321.0000305175781) rotate(0 50.66668701171875 -38.000030517578125)"><path d="M101.33 -76.67 L97.22 -62.24 L87.64 -70.55 L101.33 -76.67" stroke="none" stroke-width="0" fill="#353a3f" fill-rule="evenodd"></path><path d="M101.33 -76.67 C100.45 -73.58, 99.57 -70.5, 97.22 -62.24 M101.33 -76.67 C100.18 -72.61, 99.02 -68.56, 97.22 -62.24 M97.22 -62.24 C94.55 -64.55, 91.89 -66.86, 87.64 -70.55 M97.22 -62.24 C93.43 -65.53, 89.64 -68.81, 87.64 -70.55 M87.64 -70.55 C92.06 -72.52, 96.48 -74.49, 101.33 -76.67 M87.64 -70.55 C92.69 -72.8, 97.73 -75.06, 101.33 -76.67 M101.33 -76.67 C101.33 -76.67, 101.33 -76.67, 101.33 -76.67 M101.33 -76.67 C101.33 -76.67, 101.33 -76.67, 101.33 -76.67" stroke="#353a3f" stroke-width="2" fill="none"></path></g></g><g transform="translate(358.3334045410156 124.5) rotate(0 6 11.5)"><text x="0" y="18" font-family="Helvetica, Segoe UI Emoji" font-size="20px" fill="#000000" text-anchor="start" style="white-space: pre;" direction="ltr">5</text></g><g stroke-linecap="round"><g transform="translate(291 113) rotate(0 65.33334350585938 -14.333328247070312)"><path d="M0 0 C0 1.8, 0 3.61, 0 8 M0 0 C0 1.88, 0 3.77, 0 8 M0 8 C24.87 8, 49.74 8, 111.33 8 M0 8 C26.6 8, 53.21 8, 111.33 8 M111.33 8 C111.52 -4.72, 111.71 -17.45, 112 -36.67 M111.33 8 C111.58 -8.48, 111.83 -24.96, 112 -36.67 M112 -36.67 C118.77 -36.67, 125.53 -36.67, 130.67 -36.67 M112 -36.67 C116.51 -36.67, 121.03 -36.67, 130.67 -36.67" stroke="#353a3f" stroke-width="2" fill="none"></path></g><g transform="translate(291 113) rotate(0 65.33334350585938 -14.333328247070312)"><path d="M130.67 -36.67 L117.07 -30.33 L117.07 -43.01 L130.67 -36.67" stroke="none" stroke-width="0" fill="#353a3f" fill-rule="evenodd"></path><path d="M130.67 -36.67 C127.6 -35.24, 124.54 -33.81, 117.07 -30.33 M130.67 -36.67 C127.46 -35.17, 124.26 -33.68, 117.07 -30.33 M117.07 -30.33 C117.07 -33.16, 117.07 -35.99, 117.07 -43.01 M117.07 -30.33 C117.07 -33.36, 117.07 -36.39, 117.07 -43.01 M117.07 -43.01 C120.94 -41.2, 124.82 -39.39, 130.67 -36.67 M117.07 -43.01 C122.09 -40.67, 127.1 -38.33, 130.67 -36.67 M130.67 -36.67 C130.67 -36.67, 130.67 -36.67, 130.67 -36.67 M130.67 -36.67 C130.67 -36.67, 130.67 -36.67, 130.67 -36.67" stroke="#353a3f" stroke-width="2" fill="none"></path></g></g><g transform="translate(371 298.6666564941406) rotate(0 6 11.5)"><text x="0" y="18" font-family="Helvetica, Segoe UI Emoji" font-size="20px" fill="#000000" text-anchor="start" style="white-space: pre;" direction="ltr">5</text></g><g transform="translate(422.8334045410156 101) rotate(0 100.5 11.5)"><text x="0" y="18" font-family="Helvetica, Segoe UI Emoji" font-size="20px" fill="#ffffff" text-anchor="start" style="white-space: pre;" direction="ltr">IR</text></g><g transform="translate(422.8334045410156 141.83334350585938) rotate(0 100.5 11.5)"><text x="0" y="18" font-family="Helvetica, Segoe UI Emoji" font-size="20px" fill="#ffffff" text-anchor="start" style="white-space: pre;" direction="ltr">PC</text></g><g transform="translate(423.166748046875 180.83334350585938) rotate(0 100 11.5)"><text x="0" y="18" font-family="Helvetica, Segoe UI Emoji" font-size="20px" fill="#ffffff" text-anchor="start" style="white-space: pre;" direction="ltr">MAR</text></g><g transform="translate(423.5000915527344 219.33334350585938) rotate(0 100 11.5)"><text x="0" y="18" font-family="Helvetica, Segoe UI Emoji" font-size="20px" fill="#ffffff" text-anchor="start" style="white-space: pre;" direction="ltr">MDR</text></g><g transform="translate(431.0001525878906 359.4999694824221) rotate(0 100.5 11.5)"><text x="0" y="18" font-family="Helvetica, Segoe UI Emoji" font-size="20px" fill="#ffffff" text-anchor="start" style="white-space: pre;" direction="ltr">X</text></g><g transform="translate(485.0001525878906 399.8333435058594) rotate(0 73 11.5)"><text x="0" y="18" font-family="Helvetica, Segoe UI Emoji" font-size="20px" fill="#ffffff" text-anchor="start" style="white-space: pre;" direction="ltr">Y</text></g><g transform="translate(485.0001525878906 507.1667175292969) rotate(0 73 11.5)"><text x="0" y="18" font-family="Helvetica, Segoe UI Emoji" font-size="20px" fill="#ffffff" text-anchor="start" style="white-space: pre;" direction="ltr">Z</text></g><g transform="translate(681.333251953125 246.99998474121094) rotate(0 10.5 46)"><text x="10.5" y="18" font-family="Helvetica, Segoe UI Emoji" font-size="20px" fill="#ffffff" text-anchor="middle" style="white-space: pre;" direction="ltr">内</text><text x="10.5" y="41" font-family="Helvetica, Segoe UI Emoji" font-size="20px" fill="#ffffff" text-anchor="middle" style="white-space: pre;" direction="ltr">部</text><text x="10.5" y="64" font-family="Helvetica, Segoe UI Emoji" font-size="20px" fill="#ffffff" text-anchor="middle" style="white-space: pre;" direction="ltr">总</text><text x="10.5" y="87" font-family="Helvetica, Segoe UI Emoji" font-size="20px" fill="#ffffff" text-anchor="middle" style="white-space: pre;" direction="ltr">线</text></g><g transform="translate(113.66670227050781 306.3333435058594) rotate(0 62.5 11.5)"><text x="62.5" y="18" font-family="Helvetica, Segoe UI Emoji" font-size="20px" fill="#ffffff" text-anchor="middle" style="white-space: pre;" direction="ltr">11010011</text></g><g transform="translate(113.66670227050781 270.3333435058594) rotate(0 62.5 11.5)"><text x="62.5" y="18" font-family="Helvetica, Segoe UI Emoji" font-size="20px" fill="#ffffff" text-anchor="middle" style="white-space: pre;" direction="ltr">00101011</text></g><g transform="translate(113.66670227050781 234.33334350585938) rotate(0 62.5 11.5)"><text x="62.5" y="18" font-family="Helvetica, Segoe UI Emoji" font-size="20px" fill="#ffffff" text-anchor="middle" style="white-space: pre;" direction="ltr">10101010</text></g><g transform="translate(113.66670227050781 198.33334350585938) rotate(0 62.5 11.5)"><text x="62.5" y="18" font-family="Helvetica, Segoe UI Emoji" font-size="20px" fill="#ffffff" text-anchor="middle" style="white-space: pre;" direction="ltr">01010101</text></g><g transform="translate(113.66670227050781 162.33334350585938) rotate(0 62.5 11.5)"><text x="62.5" y="18" font-family="Helvetica, Segoe UI Emoji" font-size="20px" fill="#ffffff" text-anchor="middle" style="white-space: pre;" direction="ltr">10010011</text></g><g transform="translate(113.66670227050781 126.33334350585938) rotate(0 62.5 11.5)"><text x="62.5" y="18" font-family="Helvetica, Segoe UI Emoji" font-size="20px" fill="#ffffff" text-anchor="middle" style="white-space: pre;" direction="ltr">00101011</text></g><g transform="translate(113.66670227050781 90.33334350585938) rotate(0 62.5 11.5)"><text x="62.5" y="18" font-family="Helvetica, Segoe UI Emoji" font-size="20px" fill="#ffffff" text-anchor="middle" style="white-space: pre;" direction="ltr">10101010</text></g><g transform="translate(113.33338928222656 51.333343505859375) rotate(0 62.5 11.5)"><text x="62.5" y="18" font-family="Helvetica, Segoe UI Emoji" font-size="20px" fill="#ffffff" text-anchor="middle" style="white-space: pre;" direction="ltr">01010101</text></g><g transform="translate(430.66680908203125 304.3333435058594) rotate(0 101 11.5)"><text x="101" y="18" font-family="Helvetica, Segoe UI Emoji" font-size="20px" fill="#ffffff" text-anchor="middle" style="white-space: pre;" direction="ltr">通用寄存器</text></g><g stroke-linecap="round"><g transform="translate(637 239.00003051757812) rotate(0 29 -60.66668701171875)"><path d="M0 0 C23.13 0, 46.26 0, 58 0 M0 0 C15.12 0, 30.24 0, 58 0 M58 0 C57.85 -28, 57.69 -56.01, 57.33 -121.33 M58 0 C57.8 -35.78, 57.61 -71.57, 57.33 -121.33 M57.33 -121.33 C39.82 -121.33, 22.32 -121.33, 0 -121.33 M57.33 -121.33 C45.23 -121.33, 33.13 -121.33, 0 -121.33" stroke="#5942bd" stroke-width="2" fill="none"></path></g><g transform="translate(637 239.00003051757812) rotate(0 29 -60.66668701171875)"><path d="M0 -121.33 L13.59 -127.67 L13.59 -114.99 L0 -121.33" stroke="none" stroke-width="0" fill="#5942bd" fill-rule="evenodd"></path><path d="M0 -121.33 C5.42 -123.86, 10.84 -126.39, 13.59 -127.67 M0 -121.33 C3.54 -122.99, 7.09 -124.64, 13.59 -127.67 M13.59 -127.67 C13.59 -124.75, 13.59 -121.82, 13.59 -114.99 M13.59 -127.67 C13.59 -123.93, 13.59 -120.19, 13.59 -114.99 M13.59 -114.99 C9.44 -116.93, 5.29 -118.87, 0 -121.33 M13.59 -114.99 C10.73 -116.33, 7.86 -117.67, 0 -121.33 M0 -121.33 C0 -121.33, 0 -121.33, 0 -121.33 M0 -121.33 C0 -121.33, 0 -121.33, 0 -121.33" stroke="#5942bd" stroke-width="2" fill="none"></path></g></g><g stroke-linecap="round"><g transform="translate(635.6666870117188 153) rotate(0 24.66668701171875 19.333343505859375)"><path d="M0 0 C11.5 -0.15, 23 -0.31, 50 -0.67 M0 0 C15.2 -0.2, 30.41 -0.41, 50 -0.67 M50 -0.67 C50 8.59, 50 17.84, 50 38.67 M50 -0.67 C50 8.41, 50 17.48, 50 38.67 M50 38.67 C36.46 38.84, 22.93 39.02, -0.67 39.33 M50 38.67 C32.05 38.9, 14.1 39.14, -0.67 39.33" stroke="#5586ed" stroke-width="2" fill="none"></path></g><g transform="translate(635.6666870117188 153) rotate(0 24.66668701171875 19.333343505859375)"><path d="M-0.67 39.33 L12.84 32.82 L13.01 45.49 L-0.67 39.33" stroke="none" stroke-width="0" fill="#5586ed" fill-rule="evenodd"></path><path d="M-0.67 39.33 C2.44 37.83, 5.55 36.34, 12.84 32.82 M-0.67 39.33 C3.44 37.35, 7.55 35.37, 12.84 32.82 M12.84 32.82 C12.88 35.8, 12.92 38.78, 13.01 45.49 M12.84 32.82 C12.88 35.74, 12.92 38.67, 13.01 45.49 M13.01 45.49 C9.36 43.85, 5.7 42.2, -0.67 39.33 M13.01 45.49 C8.16 43.31, 3.32 41.13, -0.67 39.33 M-0.67 39.33 C-0.67 39.33, -0.67 39.33, -0.67 39.33 M-0.67 39.33 C-0.67 39.33, -0.67 39.33, -0.67 39.33" stroke="#5586ed" stroke-width="2" fill="none"></path></g></g><g transform="translate(656.1667785644531 122.33334350585938) rotate(0 6 11.5)"><text x="0" y="18" font-family="Helvetica, Segoe UI Emoji" font-size="20px" fill="#5942bd" text-anchor="start" style="white-space: pre;" direction="ltr">6</text></g><g stroke-linecap="round"><g transform="translate(422.8333435058594 278.8333435058594) rotate(0 118.3333740234375 131.66665649414062)"><path d="M0 0 C91 0, 181.99 0, 238 0 M238 0 C238 76.27, 238 152.53, 238 262 M238 262 C187.1 262.28, 136.19 262.57, -0.67 263.33 M-0.67 263.33 C-0.67 247.48, -0.67 231.62, -0.67 218 M-0.67 218 C65.76 218, 132.19 218, 217.33 218 M217.33 218 C217.11 195.97, 216.88 173.93, 216.67 152.67 M216.67 152.67 C152.85 153.19, 89.03 153.71, 53.33 154 M53.33 154 C53.33 139.88, 53.33 125.77, 53.33 114 M53.33 114 C34.09 113.77, 14.84 113.53, -1.33 113.33 M-1.33 113.33 C-0.85 72.51, -0.37 31.68, 0 0" stroke="#4b8747" stroke-width="2.5" fill="none" stroke-dasharray="8 10"></path></g></g><g stroke-linecap="round"><g transform="translate(634.3333740234375 106.16665649414062) rotate(0 11.33331298828125 -20.666656494140625)"><path d="M0 0 C8.01 -0.24, 16.01 -0.47, 22.67 -0.67 M0 0 C6.6 -0.19, 13.2 -0.39, 22.67 -0.67 M22.67 -0.67 C22.92 -16.4, 23.18 -32.13, 23.33 -41.33 M22.67 -0.67 C22.9 -14.87, 23.13 -29.08, 23.33 -41.33 M23.33 -41.33 C17.21 -41.33, 11.08 -41.33, -0.67 -41.33 M23.33 -41.33 C15.84 -41.33, 8.35 -41.33, -0.67 -41.33" stroke="#b6305a" stroke-width="2" fill="none"></path></g><g transform="translate(634.3333740234375 106.16665649414062) rotate(0 11.33331298828125 -20.666656494140625)"><path d="M-0.67 -41.33 L12.93 -47.67 L12.93 -34.99 L-0.67 -41.33" stroke="none" stroke-width="0" fill="#b6305a" fill-rule="evenodd"></path><path d="M-0.67 -41.33 C4.14 -43.57, 8.94 -45.81, 12.93 -47.67 M-0.67 -41.33 C3.29 -43.18, 7.25 -45.03, 12.93 -47.67 M12.93 -47.67 C12.93 -42.77, 12.93 -37.86, 12.93 -34.99 M12.93 -47.67 C12.93 -43.24, 12.93 -38.81, 12.93 -34.99 M12.93 -34.99 C9.46 -36.61, 5.99 -38.23, -0.67 -41.33 M12.93 -34.99 C8.68 -36.97, 4.44 -38.95, -0.67 -41.33 M-0.67 -41.33 C-0.67 -41.33, -0.67 -41.33, -0.67 -41.33 M-0.67 -41.33 C-0.67 -41.33, -0.67 -41.33, -0.67 -41.33" stroke="#b6305a" stroke-width="2" fill="none"></path></g></g><g transform="translate(641.6666870117188 75.83334350585938) rotate(0 6 11.5)"><text x="0" y="18" font-family="Helvetica, Segoe UI Emoji" font-size="20px" fill="#b6305a" text-anchor="start" style="white-space: pre;" direction="ltr">7</text></g><g stroke-linecap="round"><g transform="translate(610.1666870117188 248.5) rotate(0 31 66.00001525878906)"><path d="M0 0 C0 3.04, 0 6.09, 0 14 M0 0 C0 3.3, 0 6.61, 0 14 M0 14 C17.35 14, 34.7 14, 61.33 14 M0 14 C12.41 14, 24.81 14, 61.33 14 M61.33 14 C61.47 38.08, 61.61 62.17, 62 132 M61.33 14 C61.5 43.19, 61.66 72.37, 62 132 M62 132 C54.62 132, 47.24 132, 31.33 132 M62 132 C53.91 132, 45.82 132, 31.33 132" stroke="#eb8851" stroke-width="2" fill="none"></path></g><g transform="translate(610.1666870117188 248.5) rotate(0 31 66.00001525878906)"><path d="M31.33 132 L44.93 125.66 L44.93 138.34 L31.33 132" stroke="none" stroke-width="0" fill="#eb8851" fill-rule="evenodd"></path><path d="M31.33 132 C34.29 130.62, 37.24 129.24, 44.93 125.66 M31.33 132 C34.54 130.5, 37.75 129.01, 44.93 125.66 M44.93 125.66 C44.93 129.25, 44.93 132.83, 44.93 138.34 M44.93 125.66 C44.93 128.23, 44.93 130.79, 44.93 138.34 M44.93 138.34 C42.15 137.05, 39.38 135.75, 31.33 132 M44.93 138.34 C41.57 136.77, 38.2 135.2, 31.33 132 M31.33 132 C31.33 132, 31.33 132, 31.33 132 M31.33 132 C31.33 132, 31.33 132, 31.33 132" stroke="#eb8851" stroke-width="2" fill="none"></path></g></g><g stroke-linecap="round"><g transform="translate(642.5 317.1666564941406) rotate(0 9.333343505859375 47.66668701171875)"><path d="M0 0 C7.28 0, 14.56 0, 22 0 M0 0 C5.56 0, 11.13 0, 22 0 M22 0 C21.81 26.54, 21.63 53.08, 21.33 95.33 M22 0 C21.78 31.54, 21.56 63.07, 21.33 95.33 M21.33 95.33 C12.79 95.33, 4.24 95.33, -3.33 95.33 M21.33 95.33 C13.16 95.33, 4.99 95.33, -3.33 95.33" stroke="#ed651d" stroke-width="2" fill="none"></path></g><g transform="translate(642.5 317.1666564941406) rotate(0 9.333343505859375 47.66668701171875)"><path d="M-3.33 95.33 L10.26 88.99 L10.26 101.67 L-3.33 95.33" stroke="none" stroke-width="0" fill="#ed651d" fill-rule="evenodd"></path><path d="M-3.33 95.33 C1.16 93.24, 5.66 91.14, 10.26 88.99 M-3.33 95.33 C0.11 93.73, 3.54 92.13, 10.26 88.99 M10.26 88.99 C10.26 92.52, 10.26 96.05, 10.26 101.67 M10.26 88.99 C10.26 93.19, 10.26 97.38, 10.26 101.67 M10.26 101.67 C5.55 99.48, 0.84 97.28, -3.33 95.33 M10.26 101.67 C5.76 99.57, 1.26 97.47, -3.33 95.33 M-3.33 95.33 C-3.33 95.33, -3.33 95.33, -3.33 95.33 M-3.33 95.33 C-3.33 95.33, -3.33 95.33, -3.33 95.33" stroke="#ed651d" stroke-width="2" fill="none"></path></g></g><g transform="translate(636.1667785644531 346.0000305175781) rotate(0 11.5 11.5)"><text x="0" y="18" font-family="Helvetica, Segoe UI Emoji" font-size="20px" fill="#eb8851" text-anchor="start" style="white-space: pre;" direction="ltr">10</text></g><g transform="translate(498.5 434.1666564941406) rotate(0 11 11.5)"><text x="0" y="18" font-family="Helvetica, Segoe UI Emoji" font-size="20px" fill="#4b8747" text-anchor="start" style="white-space: pre;" direction="ltr">11</text></g><g stroke-linecap="round"><g transform="translate(642.8333740234375 473.8333435058594) rotate(0 2.999969482421875 21.333343505859375)"><path d="M0 0 C2.75 0, 5.49 0, 11.33 0 M0 0 C2.28 0, 4.57 0, 11.33 0 M11.33 0 C11.33 14.64, 11.33 29.28, 11.33 42.67 M11.33 0 C11.33 16.92, 11.33 33.84, 11.33 42.67 M11.33 42.67 C7.85 42.53, 4.36 42.39, -5.33 42 M11.33 42.67 C7.92 42.53, 4.5 42.39, -5.33 42" stroke="#4b8747" stroke-width="2" fill="none"></path></g><g transform="translate(642.8333740234375 473.8333435058594) rotate(0 2.999969482421875 21.333343505859375)"><path d="M-5.33 42 L8.5 36.21 L8 48.88 L-5.33 42" stroke="none" stroke-width="0" fill="#4b8747" fill-rule="evenodd"></path><path d="M-5.33 42 C-1.98 40.6, 1.37 39.19, 8.5 36.21 M-5.33 42 C-2.55 40.83, 0.24 39.67, 8.5 36.21 M8.5 36.21 C8.33 40.56, 8.16 44.9, 8 48.88 M8.5 36.21 C8.3 41.23, 8.1 46.26, 8 48.88 M8 48.88 C5.21 47.44, 2.42 46, -5.33 42 M8 48.88 C5.26 47.47, 2.53 46.06, -5.33 42 M-5.33 42 C-5.33 42, -5.33 42, -5.33 42 M-5.33 42 C-5.33 42, -5.33 42, -5.33 42" stroke="#4b8747" stroke-width="2" fill="none"></path></g></g><g stroke-linecap="round"><g transform="translate(422.4999694824219 476.0000305175781) rotate(0 -2.999969482421875 21.333343505859375)"><path d="M0 0 C-4.29 0, -8.58 0, -11.33 0 M0 0 C-4.11 0, -8.22 0, -11.33 0 M-11.33 0 C-11.33 9.73, -11.33 19.47, -11.33 42.67 M-11.33 0 C-11.33 12.37, -11.33 24.74, -11.33 42.67 M-11.33 42.67 C-7.58 42.52, -3.83 42.37, 5.33 42 M-11.33 42.67 C-5 42.41, 1.33 42.16, 5.33 42" stroke="#4b8747" stroke-width="2" fill="none"></path></g><g transform="translate(422.4999694824219 476.0000305175781) rotate(0 -2.999969482421875 21.333343505859375)"><path d="M5.33 42 L-8 48.88 L-8.5 36.21 L5.33 42" stroke="none" stroke-width="0" fill="#4b8747" fill-rule="evenodd"></path><path d="M5.33 42 C0.29 44.6, -4.76 47.21, -8 48.88 M5.33 42 C0.5 44.49, -4.34 46.99, -8 48.88 M-8 48.88 C-8.11 45.99, -8.23 43.1, -8.5 36.21 M-8 48.88 C-8.14 45.2, -8.29 41.53, -8.5 36.21 M-8.5 36.21 C-5.39 37.51, -2.27 38.82, 5.33 42 M-8.5 36.21 C-3.25 38.41, 2.01 40.61, 5.33 42 M5.33 42 C5.33 42, 5.33 42, 5.33 42 M5.33 42 C5.33 42, 5.33 42, 5.33 42" stroke="#4b8747" stroke-width="2" fill="none"></path></g></g><g stroke-linecap="round"><g transform="translate(639.8333740234375 529.8333435058594) rotate(0 25.33331298828125 -101)"><path d="M0 0 C18.24 0, 36.48 0, 50.67 0 M0 0 C10.78 0, 21.56 0, 50.67 0 M50.67 0 C50.52 -42.69, 50.36 -85.39, 50 -188 M50.67 0 C50.44 -63.05, 50.22 -126.11, 50 -188 M50 -188 C34.86 -192.3, 19.72 -196.59, 0.67 -202 M50 -188 C34.18 -192.49, 18.35 -196.98, 0.67 -202" stroke="#353a3f" stroke-width="2" fill="none"></path></g><g transform="translate(639.8333740234375 529.8333435058594) rotate(0 25.33331298828125 -101)"><path d="M0.67 -202 L15.48 -204.39 L12.01 -192.19 L0.67 -202" stroke="none" stroke-width="0" fill="#353a3f" fill-rule="evenodd"></path><path d="M0.67 -202 C6 -202.86, 11.33 -203.72, 15.48 -204.39 M0.67 -202 C3.82 -202.51, 6.97 -203.02, 15.48 -204.39 M15.48 -204.39 C14.69 -201.62, 13.9 -198.85, 12.01 -192.19 M15.48 -204.39 C14.31 -200.3, 13.15 -196.21, 12.01 -192.19 M12.01 -192.19 C8.53 -195.2, 5.05 -198.21, 0.67 -202 M12.01 -192.19 C8.37 -195.34, 4.73 -198.48, 0.67 -202 M0.67 -202 C0.67 -202, 0.67 -202, 0.67 -202 M0.67 -202 C0.67 -202, 0.67 -202, 0.67 -202" stroke="#353a3f" stroke-width="2" fill="none"></path></g></g><g transform="translate(664.833251953125 422.6666564941406) rotate(0 11.5 11.5)"><text x="0" y="18" font-family="Helvetica, Segoe UI Emoji" font-size="20px" fill="#353a3f" text-anchor="start" style="white-space: pre;" direction="ltr">12</text></g></svg>