<svg version="1.1" xmlns="http://www.w3.org/2000/svg" viewBox="0 0 793.3333129882812 274.1666030883789" width="793.3333129882812" height="274.1666030883789">
  <g stroke-linecap="round" transform="translate(99.49995422363281 114.66666412353516) rotate(0 72 27.5)"><path d="M13.75 0 L130.25 0 L136.27 0.86 L140.56 3.44 L143.14 7.73 L143.79 10.53 L144 41.25 L143.14 47.27 L142.07 49.63 L138.63 53.07 L136.27 54.14 L130.25 55 L13.75 55 L7.73 54.14 L3.44 51.56 L1.93 49.63 L0.21 44.47 L0.21 10.53 L1.93 5.37 L5.37 1.93 L7.73 0.86 L13.75 0" stroke="none" stroke-width="0" fill="#d35680"></path><path d="M13.75 0 M13.75 0 C49 0, 84.25 0, 130.25 0 M13.75 0 C47.6 0, 81.45 0, 130.25 0 M130.25 0 C139.42 0, 144 4.58, 144 13.75 M130.25 0 C139.42 0, 144 4.58, 144 13.75 M144 13.75 C144 21.74, 144 29.73, 144 41.25 M144 13.75 C144 19.42, 144 25.08, 144 41.25 M144 41.25 C144 50.42, 139.42 55, 130.25 55 M144 41.25 C144 50.42, 139.42 55, 130.25 55 M130.25 55 C91.61 55, 52.98 55, 13.75 55 M130.25 55 C89.3 55, 48.34 55, 13.75 55 M13.75 55 C4.58 55, 0 50.42, 0 41.25 M13.75 55 C4.58 55, 0 50.42, 0 41.25 M0 41.25 C0 35.6, 0 29.96, 0 13.75 M0 41.25 C0 32.71, 0 24.18, 0 13.75 M0 13.75 C0 4.58, 4.58 0, 13.75 0 M0 13.75 C0 4.58, 4.58 0, 13.75 0" stroke="transparent" stroke-width="1" fill="none"></path></g><g stroke-linecap="round" transform="translate(540.1666717529297 110.16666412353516) rotate(0 72 28)"><path d="M14 0 L130 0 L136.13 0.87 L138.53 1.97 L142.03 5.47 L143.78 10.72 L144 42 L143.13 48.13 L142.03 50.53 L138.53 54.03 L136.13 55.13 L130 56 L14 56 L7.88 55.13 L5.47 54.03 L1.97 50.53 L0.22 45.28 L0.22 10.72 L1.97 5.47 L5.47 1.97 L7.88 0.87 L14 0" stroke="none" stroke-width="0" fill="#d35680"></path><path d="M14 0 M14 0 C60.09 0, 106.18 0, 130 0 M14 0 C57.23 0, 100.45 0, 130 0 M130 0 C139.33 0, 144 4.67, 144 14 M130 0 C139.33 0, 144 4.67, 144 14 M144 14 C144 21.75, 144 29.5, 144 42 M144 14 C144 22.45, 144 30.91, 144 42 M144 42 C144 51.33, 139.33 56, 130 56 M144 42 C144 51.33, 139.33 56, 130 56 M130 56 C84.36 56, 38.72 56, 14 56 M130 56 C101.93 56, 73.87 56, 14 56 M14 56 C4.67 56, 0 51.33, 0 42 M14 56 C4.67 56, 0 51.33, 0 42 M0 42 C0 30.97, 0 19.94, 0 14 M0 42 C0 32.64, 0 23.28, 0 14 M0 14 C0 4.67, 4.67 0, 14 0 M0 14 C0 4.67, 4.67 0, 14 0" stroke="transparent" stroke-width="1" fill="none"></path></g><g stroke-linecap="round"><g transform="translate(252.26273919544178 141.850689239855) rotate(2.151449998819176 12.975240497117113 -0.5032032790502967)"><path d="M0 0 C4.33 -0.17, 21.63 -0.84, 25.95 -1.01 M0 0 C4.33 -0.17, 21.63 -0.84, 25.95 -1.01" stroke="#000000" stroke-width="2" fill="none"></path></g><g transform="translate(252.26273919544178 141.850689239855) rotate(2.151449998819176 12.975240497117113 -0.5032032790502967)"><path d="M25.95 -1.01 L14.4 4.93 L13.98 -6.03 L25.95 -1.01" stroke="none" stroke-width="0" fill="#000000" fill-rule="evenodd"></path><path d="M25.95 -1.01 C23.62 0.19, 21.28 1.4, 14.4 4.93 M25.95 -1.01 C22.9 0.56, 19.85 2.13, 14.4 4.93 M14.4 4.93 C14.3 2.22, 14.19 -0.49, 13.98 -6.03 M14.4 4.93 C14.25 0.87, 14.09 -3.2, 13.98 -6.03 M13.98 -6.03 C17.88 -4.39, 21.79 -2.75, 25.95 -1.01 M13.98 -6.03 C16.42 -5.01, 18.86 -3.98, 25.95 -1.01 M25.95 -1.01 C25.95 -1.01, 25.95 -1.01, 25.95 -1.01 M25.95 -1.01 C25.95 -1.01, 25.95 -1.01, 25.95 -1.01" stroke="#000000" stroke-width="2" fill="none"></path></g></g><g stroke-linecap="round"><g transform="translate(61.5397288741284 142.6698674025855) rotate(2.151449998819176 12.975240497117113 -0.5032032790502967)"><path d="M0 0 C4.33 -0.17, 21.63 -0.84, 25.95 -1.01 M0 0 C4.33 -0.17, 21.63 -0.84, 25.95 -1.01" stroke="#000000" stroke-width="2" fill="none"></path></g><g transform="translate(61.5397288741284 142.6698674025855) rotate(2.151449998819176 12.975240497117113 -0.5032032790502967)"><path d="M25.95 -1.01 L14.4 4.93 L13.98 -6.03 L25.95 -1.01" stroke="none" stroke-width="0" fill="#000000" fill-rule="evenodd"></path><path d="M25.95 -1.01 C23.25 0.38, 20.55 1.77, 14.4 4.93 M25.95 -1.01 C23.46 0.27, 20.97 1.56, 14.4 4.93 M14.4 4.93 C14.3 2.17, 14.19 -0.6, 13.98 -6.03 M14.4 4.93 C14.29 1.96, 14.17 -1.02, 13.98 -6.03 M13.98 -6.03 C17.6 -4.51, 21.22 -2.99, 25.95 -1.01 M13.98 -6.03 C16.6 -4.93, 19.23 -3.83, 25.95 -1.01 M25.95 -1.01 C25.95 -1.01, 25.95 -1.01, 25.95 -1.01 M25.95 -1.01 C25.95 -1.01, 25.95 -1.01, 25.95 -1.01" stroke="#000000" stroke-width="2" fill="none"></path></g></g><g stroke-linecap="round"><g transform="translate(702.8730723799879 137.65412315450078) rotate(2.151449998819176 12.97524049711717 -0.5032032790502967)"><path d="M0 0 C4.33 -0.17, 21.63 -0.84, 25.95 -1.01 M0 0 C4.33 -0.17, 21.63 -0.84, 25.95 -1.01" stroke="#000000" stroke-width="2" fill="none"></path></g><g transform="translate(702.8730723799879 137.65412315450078) rotate(2.151449998819176 12.97524049711717 -0.5032032790502967)"><path d="M25.95 -1.01 L14.4 4.93 L13.98 -6.03 L25.95 -1.01" stroke="none" stroke-width="0" fill="#000000" fill-rule="evenodd"></path><path d="M25.95 -1.01 C22.21 0.92, 18.47 2.84, 14.4 4.93 M25.95 -1.01 C23.51 0.25, 21.07 1.5, 14.4 4.93 M14.4 4.93 C14.32 2.68, 14.23 0.43, 13.98 -6.03 M14.4 4.93 C14.3 2.31, 14.2 -0.32, 13.98 -6.03 M13.98 -6.03 C17.66 -4.49, 21.35 -2.94, 25.95 -1.01 M13.98 -6.03 C18.07 -4.32, 22.16 -2.6, 25.95 -1.01 M25.95 -1.01 C25.95 -1.01, 25.95 -1.01, 25.95 -1.01 M25.95 -1.01 C25.95 -1.01, 25.95 -1.01, 25.95 -1.01" stroke="#000000" stroke-width="2" fill="none"></path></g></g><g stroke-linecap="round"><g transform="translate(501.20136472988474 139.0200643370987) rotate(359.8612958462145 14.352538021777946 0.44760271420346953)"><path d="M0 0 C4.78 0.15, 23.92 0.75, 28.71 0.9 M0 0 C4.78 0.15, 23.92 0.75, 28.71 0.9" stroke="#000000" stroke-width="2" fill="none"></path></g><g transform="translate(501.20136472988474 139.0200643370987) rotate(359.8612958462145 14.352538021777946 0.44760271420346953)"><path d="M28.71 0.9 L15.51 6.56 L15.89 -5.58 L28.71 0.9" stroke="none" stroke-width="0" fill="#000000" fill-rule="evenodd"></path><path d="M28.71 0.9 C25.34 2.34, 21.98 3.78, 15.51 6.56 M28.71 0.9 C23.58 3.09, 18.46 5.29, 15.51 6.56 M15.51 6.56 C15.65 2.15, 15.78 -2.26, 15.89 -5.58 M15.51 6.56 C15.65 2.13, 15.78 -2.3, 15.89 -5.58 M15.89 -5.58 C20.59 -3.2, 25.29 -0.83, 28.71 0.9 M15.89 -5.58 C19.25 -3.88, 22.62 -2.18, 28.71 0.9 M28.71 0.9 C28.71 0.9, 28.71 0.9, 28.71 0.9 M28.71 0.9 C28.71 0.9, 28.71 0.9, 28.71 0.9" stroke="#000000" stroke-width="2" fill="none"></path></g></g><g stroke-linecap="round" transform="translate(320.99998474121094 110.16666412353516) rotate(0 71.5 27)"><path d="M13.5 0 L129.5 0 L135.41 0.84 L139.63 3.38 L141.1 5.27 L142.79 10.34 L143 40.5 L142.16 46.41 L141.1 48.73 L137.73 52.1 L135.41 53.16 L129.5 54 L13.5 54 L7.59 53.16 L3.38 50.63 L1.9 48.73 L0.21 43.66 L0.21 10.34 L1.9 5.27 L5.27 1.9 L7.59 0.84 L13.5 0" stroke="none" stroke-width="0" fill="#6bbc63"></path><path d="M13.5 0 M13.5 0 C55.31 0, 97.12 0, 129.5 0 M13.5 0 C47.84 0, 82.19 0, 129.5 0 M129.5 0 C138.5 0, 143 4.5, 143 13.5 M129.5 0 C138.5 0, 143 4.5, 143 13.5 M143 13.5 C143 20.32, 143 27.15, 143 40.5 M143 13.5 C143 22.48, 143 31.47, 143 40.5 M143 40.5 C143 49.5, 138.5 54, 129.5 54 M143 40.5 C143 49.5, 138.5 54, 129.5 54 M129.5 54 C94.53 54, 59.57 54, 13.5 54 M129.5 54 C97.89 54, 66.28 54, 13.5 54 M13.5 54 C4.5 54, 0 49.5, 0 40.5 M13.5 54 C4.5 54, 0 49.5, 0 40.5 M0 40.5 C0 30.47, 0 20.45, 0 13.5 M0 40.5 C0 29.76, 0 19.02, 0 13.5 M0 13.5 C0 4.5, 4.5 0, 13.5 0 M0 13.5 C0 4.5, 4.5 0, 13.5 0" stroke="transparent" stroke-width="2" fill="none"></path></g><g stroke-linecap="round" transform="translate(320.99998474121094 207.1666030883789) rotate(0 71.5 28.5)"><path d="M14.25 0 L128.75 0 L134.98 0.89 L139.44 3.56 L141 5.57 L142.78 10.91 L143 42.75 L142.11 48.98 L141 51.43 L137.43 55 L134.98 56.11 L128.75 57 L14.25 57 L8.02 56.11 L3.56 53.44 L0.89 48.98 L0.22 46.09 L0.22 10.91 L2 5.57 L5.57 2 L8.02 0.89 L14.25 0" stroke="none" stroke-width="0" fill="#478bdf"></path><path d="M14.25 0 M14.25 0 C38.27 0, 62.3 0, 128.75 0 M14.25 0 C48.56 0, 82.87 0, 128.75 0 M128.75 0 C138.25 0, 143 4.75, 143 14.25 M128.75 0 C138.25 0, 143 4.75, 143 14.25 M143 14.25 C143 23.72, 143 33.19, 143 42.75 M143 14.25 C143 25.42, 143 36.58, 143 42.75 M143 42.75 C143 52.25, 138.25 57, 128.75 57 M143 42.75 C143 52.25, 138.25 57, 128.75 57 M128.75 57 C97.27 57, 65.8 57, 14.25 57 M128.75 57 C85.48 57, 42.21 57, 14.25 57 M14.25 57 C4.75 57, 0 52.25, 0 42.75 M14.25 57 C4.75 57, 0 52.25, 0 42.75 M0 42.75 C0 34.2, 0 25.65, 0 14.25 M0 42.75 C0 35.7, 0 28.65, 0 14.25 M0 14.25 C0 4.75, 4.75 0, 14.25 0 M0 14.25 C0 4.75, 4.75 0, 14.25 0" stroke="transparent" stroke-width="2" fill="none"></path></g><g stroke-linecap="round" transform="translate(321.49998474121094 10) rotate(0 71 27)"><path d="M13.5 0 L128.5 0 L134.41 0.84 L138.63 3.38 L140.1 5.27 L141.79 10.34 L142 40.5 L141.16 46.41 L140.1 48.73 L136.73 52.1 L134.41 53.16 L128.5 54 L13.5 54 L7.59 53.16 L3.38 50.63 L1.9 48.73 L0.21 43.66 L0.21 10.34 L1.9 5.27 L5.27 1.9 L7.59 0.84 L13.5 0" stroke="none" stroke-width="0" fill="#478bdf"></path><path d="M13.5 0 M13.5 0 C52.06 0, 90.63 0, 128.5 0 M13.5 0 C48 0, 82.51 0, 128.5 0 M128.5 0 C137.5 0, 142 4.5, 142 13.5 M128.5 0 C137.5 0, 142 4.5, 142 13.5 M142 13.5 C142 20.3, 142 27.09, 142 40.5 M142 13.5 C142 21.5, 142 29.51, 142 40.5 M142 40.5 C142 49.5, 137.5 54, 128.5 54 M142 40.5 C142 49.5, 137.5 54, 128.5 54 M128.5 54 C95.96 54, 63.42 54, 13.5 54 M128.5 54 C101.97 54, 75.43 54, 13.5 54 M13.5 54 C4.5 54, 0 49.5, 0 40.5 M13.5 54 C4.5 54, 0 49.5, 0 40.5 M0 40.5 C0 33.42, 0 26.34, 0 13.5 M0 40.5 C0 34.47, 0 28.45, 0 13.5 M0 13.5 C0 4.5, 4.5 0, 13.5 0 M0 13.5 C0 4.5, 4.5 0, 13.5 0" stroke="transparent" stroke-width="2" fill="none"></path></g><g transform="translate(325.99998474121094 222.1666030883789) rotate(0 66.5 13.5)"><text x="66.5" y="21" font-family="Virgil, Segoe UI Emoji" font-size="20px" fill="#ffffff" text-anchor="middle" style="white-space: pre;" direction="ltr">控制器</text></g><g transform="translate(326.49998474121094 25.5) rotate(0 66 11.5)"><text x="66" y="18" font-family="Helvetica, Segoe UI Emoji" font-size="20px" fill="#ffffff" text-anchor="middle" style="white-space: pre;" direction="ltr">运算器</text></g><g transform="translate(325.99998474121094 123.66666412353516) rotate(0 66.5 13.5)"><text x="66.5" y="21" font-family="Virgil, Segoe UI Emoji" font-size="20px" fill="#ffffff" text-anchor="middle" style="white-space: pre;" direction="ltr">储存器</text></g><g transform="translate(104.49995422363281 128.66666412353516) rotate(0 67 13.5)"><text x="67" y="21" font-family="Virgil, Segoe UI Emoji" font-size="20px" fill="#ffffff" text-anchor="middle" style="white-space: pre;" direction="ltr">输入设备</text></g><g transform="translate(545.1666717529297 124.66666412353516) rotate(0 67 13.5)"><text x="67" y="21" font-family="Virgil, Segoe UI Emoji" font-size="20px" fill="#ffffff" text-anchor="middle" style="white-space: pre;" direction="ltr">输出设备</text></g><g stroke-linecap="round"><g transform="translate(313.16668701171875 236.7499885559082) rotate(0 -9.333343505859375 -100.66668701171875)"><path d="M0 0 C-6.25 0, -12.49 0, -20.67 0 M0 0 C-7.46 0, -14.92 0, -20.67 0 M-20.67 0 C-20.4 -80.01, -20.14 -160.02, -20 -201.33 M-20.67 0 C-20.44 -69.69, -20.21 -139.38, -20 -201.33 M-20 -201.33 C-14.07 -201.15, -8.14 -200.97, 2 -200.67 M-20 -201.33 C-15.47 -201.2, -10.93 -201.06, 2 -200.67" stroke="#000000" stroke-width="2" fill="none"></path></g><g transform="translate(313.16668701171875 236.7499885559082) rotate(0 -9.333343505859375 -100.66668701171875)"><path d="M2 -200.67 L-11.78 -194.74 L-11.4 -207.41 L2 -200.67" stroke="none" stroke-width="0" fill="#000000" fill-rule="evenodd"></path><path d="M2 -200.67 C-2.17 -198.88, -6.33 -197.08, -11.78 -194.74 M2 -200.67 C-2.97 -198.53, -7.95 -196.39, -11.78 -194.74 M-11.78 -194.74 C-11.63 -199.78, -11.48 -204.81, -11.4 -207.41 M-11.78 -194.74 C-11.65 -199.13, -11.51 -203.52, -11.4 -207.41 M-11.4 -207.41 C-7.79 -205.6, -4.17 -203.78, 2 -200.67 M-11.4 -207.41 C-8.64 -206.02, -5.88 -204.63, 2 -200.67 M2 -200.67 C2 -200.67, 2 -200.67, 2 -200.67 M2 -200.67 C2 -200.67, 2 -200.67, 2 -200.67" stroke="#000000" stroke-width="2" fill="none"></path></g></g><g stroke-linecap="round"><g transform="translate(495.83331298828125 235.71072565001236) rotate(180.30066494416997 -9.333343505859375 -100.66668701171875)"><path d="M0 0 C-7.63 0, -15.26 0, -20.67 0 M0 0 C-5.26 0, -10.53 0, -20.67 0 M-20.67 0 C-20.43 -72.05, -20.19 -144.09, -20 -201.33 M-20.67 0 C-20.41 -78.17, -20.15 -156.35, -20 -201.33 M-20 -201.33 C-12.63 -201.11, -5.26 -200.89, 2 -200.67 M-20 -201.33 C-12.28 -201.1, -4.57 -200.87, 2 -200.67" stroke="#000000" stroke-width="2" fill="none"></path></g><g transform="translate(495.83331298828125 235.71072565001236) rotate(180.30066494416997 -9.333343505859375 -100.66668701171875)"><path d="M2 -200.67 L-11.78 -194.74 L-11.4 -207.41 L2 -200.67" stroke="none" stroke-width="0" fill="#000000" fill-rule="evenodd"></path><path d="M2 -200.67 C-3.09 -198.48, -8.18 -196.29, -11.78 -194.74 M2 -200.67 C-1.51 -199.16, -5.02 -197.65, -11.78 -194.74 M-11.78 -194.74 C-11.64 -199.28, -11.51 -203.81, -11.4 -207.41 M-11.78 -194.74 C-11.63 -199.66, -11.48 -204.58, -11.4 -207.41 M-11.4 -207.41 C-6.91 -205.15, -2.42 -202.89, 2 -200.67 M-11.4 -207.41 C-6.7 -205.05, -2 -202.68, 2 -200.67 M2 -200.67 C2 -200.67, 2 -200.67, 2 -200.67 M2 -200.67 C2 -200.67, 2 -200.67, 2 -200.67" stroke="#000000" stroke-width="2" fill="none"></path></g></g><g stroke-linecap="round"><g transform="translate(361.83331298828125 74.74995803833008) rotate(0 0 12.666671752929688)"><path d="M0 0 C0 7.35, 0 14.7, 0 25.33 M0 0 C0 5.3, 0 10.6, 0 25.33" stroke="#000000" stroke-width="2" fill="none"></path></g><g transform="translate(361.83331298828125 74.74995803833008) rotate(0 0 12.666671752929688)"><path d="M0 25.33 L-5.35 13.85 L5.35 13.85 L0 25.33" stroke="none" stroke-width="0" fill="#000000" fill-rule="evenodd"></path><path d="M0 25.33 C-1.55 22, -3.11 18.67, -5.35 13.85 M0 25.33 C-1.12 22.93, -2.24 20.53, -5.35 13.85 M-5.35 13.85 C-2.97 13.85, -0.6 13.85, 5.35 13.85 M-5.35 13.85 C-2.55 13.85, 0.26 13.85, 5.35 13.85 M5.35 13.85 C4.05 16.64, 2.76 19.42, 0 25.33 M5.35 13.85 C3.79 17.21, 2.23 20.56, 0 25.33 M0 25.33 C0 25.33, 0 25.33, 0 25.33 M0 25.33 C0 25.33, 0 25.33, 0 25.33" stroke="#000000" stroke-width="2" fill="none"></path></g></g><g stroke-linecap="round"><g transform="translate(416.33331298828125 169.66666412353516) rotate(0 0 12.666671752929688)"><path d="M0 0 C0 8.66, 0 17.32, 0 25.33 M0 0 C0 8.47, 0 16.94, 0 25.33" stroke="#000000" stroke-width="2" fill="none"></path></g><g transform="translate(416.33331298828125 169.66666412353516) rotate(0 0 12.666671752929688)"><path d="M0 25.33 L-5.35 13.85 L5.35 13.85 L0 25.33" stroke="none" stroke-width="0" fill="#000000" fill-rule="evenodd"></path><path d="M0 25.33 C-1.83 21.41, -3.66 17.49, -5.35 13.85 M0 25.33 C-1.79 21.49, -3.58 17.65, -5.35 13.85 M-5.35 13.85 C-2.93 13.85, -0.51 13.85, 5.35 13.85 M-5.35 13.85 C-1.68 13.85, 2 13.85, 5.35 13.85 M5.35 13.85 C3.35 18.15, 1.34 22.45, 0 25.33 M5.35 13.85 C3.93 16.9, 2.52 19.94, 0 25.33 M0 25.33 C0 25.33, 0 25.33, 0 25.33 M0 25.33 C0 25.33, 0 25.33, 0 25.33" stroke="#000000" stroke-width="2" fill="none"></path></g></g><g stroke-linecap="round"><g transform="translate(425.833251953125 74.83332061767578) rotate(179.9999077698208 0 12.666671752929688)"><path d="M0 0 C0 8.28, 0 16.57, 0 25.33 M0 0 C0 7.95, 0 15.91, 0 25.33" stroke="#000000" stroke-width="2" fill="none"></path></g><g transform="translate(425.833251953125 74.83332061767578) rotate(179.9999077698208 0 12.666671752929688)"><path d="M0 25.33 L-5.35 13.85 L5.35 13.85 L0 25.33" stroke="none" stroke-width="0" fill="#000000" fill-rule="evenodd"></path><path d="M0 25.33 C-1.75 21.58, -3.5 17.83, -5.35 13.85 M0 25.33 C-1.68 21.73, -3.36 18.12, -5.35 13.85 M-5.35 13.85 C-2.69 13.85, -0.02 13.85, 5.35 13.85 M-5.35 13.85 C-1.74 13.85, 1.87 13.85, 5.35 13.85 M5.35 13.85 C4.01 16.73, 2.67 19.61, 0 25.33 M5.35 13.85 C3.55 17.72, 1.75 21.58, 0 25.33 M0 25.33 C0 25.33, 0 25.33, 0 25.33 M0 25.33 C0 25.33, 0 25.33, 0 25.33" stroke="#000000" stroke-width="2" fill="none"></path></g></g><g stroke-linecap="round"><g transform="translate(375.33329259848267 169.66666412351879) rotate(179.9999077698208 0 12.666671752929688)"><path d="M0 0 C0 9.91, 0 19.82, 0 25.33 M0 0 C0 9.89, 0 19.78, 0 25.33" stroke="#000000" stroke-width="2" fill="none"></path></g><g transform="translate(375.33329259848267 169.66666412351879) rotate(179.9999077698208 0 12.666671752929688)"><path d="M0 25.33 L-5.35 13.85 L5.35 13.85 L0 25.33" stroke="none" stroke-width="0" fill="#000000" fill-rule="evenodd"></path><path d="M0 25.33 C-2.09 20.84, -4.19 16.35, -5.35 13.85 M0 25.33 C-2.09 20.85, -4.18 16.37, -5.35 13.85 M-5.35 13.85 C-1.54 13.85, 2.26 13.85, 5.35 13.85 M-5.35 13.85 C-2.22 13.85, 0.91 13.85, 5.35 13.85 M5.35 13.85 C3.44 17.96, 1.52 22.07, 0 25.33 M5.35 13.85 C4.24 16.24, 3.13 18.62, 0 25.33 M0 25.33 C0 25.33, 0 25.33, 0 25.33 M0 25.33 C0 25.33, 0 25.33, 0 25.33" stroke="#000000" stroke-width="2" fill="none"></path></g></g><g transform="translate(375.33331298828125 77.58330154418945) rotate(0 20.5 13.5)"><text x="20.5" y="21" font-family="Virgil, Segoe UI Emoji" font-size="20px" fill="#000000" text-anchor="middle" style="white-space: pre;" direction="ltr">数据</text></g><g transform="translate(422.49998474121094 169.66666412353516) rotate(0 20.5 13.5)"><text x="20.5" y="21" font-family="Virgil, Segoe UI Emoji" font-size="20px" fill="#000000" text-anchor="middle" style="white-space: pre;" direction="ltr">指令</text></g><g transform="translate(322.66668701171875 171.58330154418945) rotate(0 20.5 13.5)"><text x="20.5" y="21" font-family="Virgil, Segoe UI Emoji" font-size="20px" fill="#000000" text-anchor="middle" style="white-space: pre;" direction="ltr">地址</text></g><g transform="translate(243.4999542236328 22.249958038330078) rotate(0 20.5 13.5)"><text x="20.5" y="21" font-family="Virgil, Segoe UI Emoji" font-size="20px" fill="#000000" text-anchor="middle" style="white-space: pre;" direction="ltr">命令</text></g><g transform="translate(509.33331298828125 22.249958038330078) rotate(0 20.5 13.5)"><text x="20.5" y="21" font-family="Virgil, Segoe UI Emoji" font-size="20px" fill="#000000" text-anchor="middle" style="white-space: pre;" direction="ltr">状态</text></g><g transform="translate(10 114.66666412353516) rotate(0 20.5 26.5)"><text x="20.5" y="21.5" font-family="Virgil, Segoe UI Emoji" font-size="20px" fill="#000000" text-anchor="middle" style="white-space: pre;" direction="ltr">程序</text><text x="20.5" y="48" font-family="Virgil, Segoe UI Emoji" font-size="20px" fill="#000000" text-anchor="middle" style="white-space: pre;" direction="ltr">数据</text></g><g transform="translate(742.3333129882812 123.66666412353516) rotate(0 20.5 13.5)"><text x="20.5" y="21" font-family="Virgil, Segoe UI Emoji" font-size="20px" fill="#000000" text-anchor="middle" style="white-space: pre;" direction="ltr">结果</text></g></svg>