<svg version="1.1" xmlns="http://www.w3.org/2000/svg" viewBox="0 0 665.9998779296875 482.3332824707031" width="665.9998779296875" height="482.3332824707031">
  <g stroke-linecap="round" transform="translate(10.666656494140739 41) rotate(0 144.66667175292963 97)"><path d="M0 0 C61.26 0, 122.52 0, 289.33 0 M289.33 0 C289.33 58.57, 289.33 117.14, 289.33 194 M289.33 194 C182.12 194, 74.91 194, 0 194 M0 194 C0 125.27, 0 56.54, 0 0" stroke="#5586ed" stroke-width="1.5" fill="none" stroke-dasharray="8 9"></path></g><g stroke-linecap="round" transform="translate(10 272.33331298828125) rotate(0 144.66665649414062 99.99998474121094)"><path d="M0 0 C108.31 0, 216.62 0, 289.33 0 M289.33 0 C289.33 62.94, 289.33 125.87, 289.33 200 M289.33 200 C202.92 200, 116.52 200, 0 200 M0 200 C0 152.6, 0 105.2, 0 0" stroke="#eb8851" stroke-width="1.5" fill="none" stroke-dasharray="8 9"></path></g><g stroke-linecap="round" transform="translate(352 40.33331298828125) rotate(0 85.66665649414062 214.00001525878906)"><path d="M0 0 C64.53 0, 129.05 0, 171.33 0 M171.33 0 C171.33 170.65, 171.33 341.31, 171.33 428 M171.33 428 C122.69 428, 74.04 428, 0 428 M0 428 C0 315.49, 0 202.98, 0 0" stroke="#b6305a" stroke-width="1.5" fill="none" stroke-dasharray="8 9"></path></g><g stroke-linecap="round" transform="translate(360.99993896484375 103.33334350585938) rotate(0 76.66668701171875 22)"><path d="M11 0 L142.33 0 L147.15 0.69 L150.58 2.75 L152.65 6.19 L153.33 11 L153.33 33 L152.65 37.81 L150.58 41.25 L147.15 43.31 L142.33 44 L11 44 L6.19 43.31 L2.75 41.25 L0.69 37.81 L0 33 L0 11 L0.69 6.19 L2.75 2.75 L6.19 0.69 L11 0" stroke="none" stroke-width="0" fill="#478bdf"></path><path d="M11 0 M11 0 C62.86 0, 114.72 0, 142.33 0 M11 0 C63.24 0, 115.49 0, 142.33 0 M142.33 0 C149.67 0, 153.33 3.67, 153.33 11 M142.33 0 C149.67 0, 153.33 3.67, 153.33 11 M153.33 11 C153.33 18.53, 153.33 26.05, 153.33 33 M153.33 11 C153.33 16.35, 153.33 21.71, 153.33 33 M153.33 33 C153.33 40.33, 149.67 44, 142.33 44 M153.33 33 C153.33 40.33, 149.67 44, 142.33 44 M142.33 44 C105.01 44, 67.68 44, 11 44 M142.33 44 C101.58 44, 60.83 44, 11 44 M11 44 C3.67 44, 0 40.33, 0 33 M11 44 C3.67 44, 0 40.33, 0 33 M0 33 C0 26.04, 0 19.08, 0 11 M0 33 C0 26.15, 0 19.31, 0 11 M0 11 C0 3.67, 3.67 0, 11 0 M0 11 C0 3.67, 3.67 0, 11 0" stroke="transparent" stroke-width="1" fill="none"></path></g><g stroke-linecap="round" transform="translate(360.6666259765625 51) rotate(0 76.66668701171875 22)"><path d="M11 0 L142.33 0 L147.15 0.69 L150.58 2.75 L152.65 6.19 L153.33 11 L153.33 33 L152.65 37.81 L150.58 41.25 L147.15 43.31 L142.33 44 L11 44 L6.19 43.31 L2.75 41.25 L0.69 37.81 L0 33 L0 11 L0.69 6.19 L2.75 2.75 L6.19 0.69 L11 0" stroke="none" stroke-width="0" fill="#d35680"></path><path d="M11 0 M11 0 C40.88 0, 70.76 0, 142.33 0 M11 0 C63.45 0, 115.91 0, 142.33 0 M142.33 0 C149.67 0, 153.33 3.67, 153.33 11 M142.33 0 C149.67 0, 153.33 3.67, 153.33 11 M153.33 11 C153.33 17.35, 153.33 23.69, 153.33 33 M153.33 11 C153.33 19.29, 153.33 27.59, 153.33 33 M153.33 33 C153.33 40.33, 149.67 44, 142.33 44 M153.33 33 C153.33 40.33, 149.67 44, 142.33 44 M142.33 44 C113.44 44, 84.55 44, 11 44 M142.33 44 C92.17 44, 42.01 44, 11 44 M11 44 C3.67 44, 0 40.33, 0 33 M11 44 C3.67 44, 0 40.33, 0 33 M0 33 C0 28.54, 0 24.09, 0 11 M0 33 C0 24.81, 0 16.62, 0 11 M0 11 C0 3.67, 3.67 0, 11 0 M0 11 C0 3.67, 3.67 0, 11 0" stroke="transparent" stroke-width="1" fill="none"></path></g><g stroke-linecap="round" transform="translate(361.99993896484375 156.66665649414062) rotate(0 76.66668701171875 22)"><path d="M11 0 L142.33 0 L147.15 0.69 L150.58 2.75 L152.65 6.19 L153.33 11 L153.33 33 L152.65 37.81 L150.58 41.25 L147.15 43.31 L142.33 44 L11 44 L6.19 43.31 L2.75 41.25 L0.69 37.81 L0 33 L0 11 L0.69 6.19 L2.75 2.75 L6.19 0.69 L11 0" stroke="none" stroke-width="0" fill="#478bdf"></path><path d="M11 0 M11 0 C41.79 0, 72.58 0, 142.33 0 M11 0 C47.62 0, 84.25 0, 142.33 0 M142.33 0 C149.67 0, 153.33 3.67, 153.33 11 M142.33 0 C149.67 0, 153.33 3.67, 153.33 11 M153.33 11 C153.33 19.33, 153.33 27.66, 153.33 33 M153.33 11 C153.33 18.22, 153.33 25.44, 153.33 33 M153.33 33 C153.33 40.33, 149.67 44, 142.33 44 M153.33 33 C153.33 40.33, 149.67 44, 142.33 44 M142.33 44 C115.23 44, 88.13 44, 11 44 M142.33 44 C100 44, 57.67 44, 11 44 M11 44 C3.67 44, 0 40.33, 0 33 M11 44 C3.67 44, 0 40.33, 0 33 M0 33 C0 24.34, 0 15.69, 0 11 M0 33 C0 24.22, 0 15.44, 0 11 M0 11 C0 3.67, 3.67 0, 11 0 M0 11 C0 3.67, 3.67 0, 11 0" stroke="transparent" stroke-width="1" fill="none"></path></g><g stroke-linecap="round" transform="translate(365 215.66665649414062) rotate(0 72.5 119)"><path d="M0 0 C0 0, 0 0, 0 0 M0 0 C0 0, 0 0, 0 0 M-0.26 6.4 C1.35 4.55, 2.95 2.7, 4.99 0.36 M-0.26 6.4 C0.89 5.08, 2.03 3.76, 4.99 0.36 M0.13 12.04 C3.9 7.7, 7.67 3.37, 10.63 -0.03 M0.13 12.04 C4.21 7.35, 8.29 2.66, 10.63 -0.03 M-0.13 18.44 C5.8 11.62, 11.72 4.8, 15.62 0.33 M-0.13 18.44 C5.64 11.8, 11.41 5.17, 15.62 0.33 M0.27 24.08 C6.08 17.4, 11.89 10.71, 21.26 -0.07 M0.27 24.08 C8.23 14.92, 16.2 5.75, 21.26 -0.07 M0 30.48 C7.92 21.37, 15.84 12.26, 26.25 0.29 M0 30.48 C9.96 19.03, 19.91 7.58, 26.25 0.29 M-0.26 36.88 C11.7 23.13, 23.65 9.38, 31.89 -0.1 M-0.26 36.88 C12.09 22.67, 24.45 8.46, 31.89 -0.1 M0.14 42.52 C9.06 32.26, 17.98 22, 36.88 0.26 M0.14 42.52 C8.4 33.02, 16.65 23.52, 36.88 0.26 M-0.12 48.92 C11.06 36.06, 22.23 23.2, 42.52 -0.14 M-0.12 48.92 C12.1 34.86, 24.32 20.8, 42.52 -0.14 M0.27 54.56 C15.63 36.89, 31 19.22, 47.51 0.22 M0.27 54.56 C12.28 40.74, 24.29 26.93, 47.51 0.22 M0.01 60.96 C12.31 46.81, 24.61 32.66, 53.15 -0.17 M0.01 60.96 C13.58 45.35, 27.15 29.74, 53.15 -0.17 M-0.25 67.36 C13.8 51.2, 27.85 35.03, 58.14 0.19 M-0.25 67.36 C11.64 53.67, 23.54 39.99, 58.14 0.19 M0.14 73 C14.72 56.23, 29.29 39.47, 63.78 -0.21 M0.14 73 C22.01 47.84, 43.88 22.68, 63.78 -0.21 M-0.12 79.4 C16.82 59.91, 33.77 40.42, 68.77 0.15 M-0.12 79.4 C26.98 48.23, 54.07 17.06, 68.77 0.15 M0.28 85.04 C20.27 62.04, 40.27 39.03, 74.41 -0.24 M0.28 85.04 C21.69 60.4, 43.11 35.77, 74.41 -0.24 M0.01 91.44 C28.91 58.2, 57.81 24.96, 79.4 0.12 M0.01 91.44 C26.04 61.5, 52.06 31.57, 79.4 0.12 M-0.25 97.84 C19.72 74.87, 39.68 51.9, 85.04 -0.28 M-0.25 97.84 C26.44 67.14, 53.12 36.44, 85.04 -0.28 M0.15 103.48 C34.58 63.87, 69.01 24.26, 90.03 0.08 M0.15 103.48 C26.76 72.87, 53.37 42.26, 90.03 0.08 M-0.11 109.88 C25.58 80.32, 51.27 50.76, 95.67 -0.31 M-0.11 109.88 C30.72 74.41, 61.55 38.94, 95.67 -0.31 M0.28 115.52 C26.09 85.83, 51.9 56.14, 100.66 0.05 M0.28 115.52 C37.57 72.62, 74.87 29.72, 100.66 0.05 M0.02 121.92 C40.83 74.97, 81.63 28.03, 106.3 -0.34 M0.02 121.92 C32.59 84.45, 65.15 46.99, 106.3 -0.34 M-0.24 128.32 C33.86 89.09, 67.96 49.86, 111.29 0.02 M-0.24 128.32 C23.4 101.12, 47.04 73.92, 111.29 0.02 M0.15 133.96 C30.19 99.41, 60.22 64.86, 116.27 0.38 M0.15 133.96 C39.8 88.35, 79.45 42.73, 116.27 0.38 M-0.11 140.36 C26.02 110.3, 52.15 80.24, 121.92 -0.02 M-0.11 140.36 C31.56 103.92, 63.24 67.48, 121.92 -0.02 M0.29 146 C30.08 111.73, 59.87 77.46, 126.91 0.34 M0.29 146 C49.2 89.73, 98.12 33.46, 126.91 0.34 M0.02 152.4 C30.91 116.86, 61.8 81.33, 132.55 -0.05 M0.02 152.4 C45.18 100.45, 90.34 48.5, 132.55 -0.05 M-0.24 158.8 C44.2 107.67, 88.64 56.55, 137.54 0.31 M-0.24 158.8 C38.99 113.67, 78.22 68.55, 137.54 0.31 M0.16 164.44 C54.38 102.07, 108.6 39.69, 143.18 -0.09 M0.16 164.44 C38.27 120.59, 76.39 76.75, 143.18 -0.09 M-0.1 170.84 C57.9 104.11, 115.91 37.38, 146.85 1.78 M-0.1 170.84 C53.49 109.18, 107.09 47.52, 146.85 1.78 M0.29 176.48 C34.71 136.88, 69.14 97.28, 147.25 7.42 M0.29 176.48 C34.39 137.26, 68.48 98.03, 147.25 7.42 M0.03 182.88 C57.58 116.67, 115.14 50.46, 146.99 13.82 M0.03 182.88 C35.12 142.51, 70.21 102.14, 146.99 13.82 M-0.23 189.27 C50.65 130.74, 101.53 72.21, 146.72 20.22 M-0.23 189.27 C31.65 152.6, 63.53 115.92, 146.72 20.22 M0.16 194.92 C47.02 141.01, 93.88 87.1, 147.12 25.86 M0.16 194.92 C30.1 160.48, 60.04 126.03, 147.12 25.86 M-0.1 201.32 C33.46 162.71, 67.02 124.1, 146.86 32.26 M-0.1 201.32 C56.53 136.17, 113.16 71.03, 146.86 32.26 M0.3 206.96 C36.67 165.11, 73.05 123.26, 147.25 37.9 M0.3 206.96 C35.68 166.26, 71.06 125.56, 147.25 37.9 M0.03 213.36 C52.88 152.56, 105.73 91.77, 146.99 44.3 M0.03 213.36 C42 165.09, 83.96 116.81, 146.99 44.3 M-0.23 219.75 C45.98 166.6, 92.18 113.45, 146.73 50.7 M-0.23 219.75 C31.43 183.33, 63.1 146.91, 146.73 50.7 M0.17 225.4 C56.68 160.38, 113.2 95.37, 147.12 56.34 M0.17 225.4 C36.95 183.08, 73.74 140.76, 147.12 56.34 M-0.09 231.8 C47.21 177.38, 94.51 122.96, 146.86 62.74 M-0.09 231.8 C40.72 184.84, 81.54 137.88, 146.86 62.74 M0.3 237.44 C46.36 184.45, 92.43 131.46, 147.26 68.38 M0.3 237.44 C58.62 170.35, 116.94 103.26, 147.26 68.38 M2.66 240.82 C51.44 184.7, 100.22 128.59, 147 74.78 M2.66 240.82 C40.48 197.32, 78.29 153.82, 147 74.78 M8.31 240.42 C52.89 189.14, 97.46 137.86, 146.73 81.18 M8.31 240.42 C39.68 204.34, 71.05 168.25, 146.73 81.18 M13.29 240.78 C52.95 195.16, 92.61 149.54, 147.13 86.82 M13.29 240.78 C51.69 196.61, 90.08 152.45, 147.13 86.82 M18.94 240.39 C63.95 188.61, 108.96 136.83, 146.87 93.22 M18.94 240.39 C47.79 207.2, 76.63 174.01, 146.87 93.22 M23.92 240.75 C72.79 184.53, 121.65 128.32, 147.26 98.86 M23.92 240.75 C67.77 190.31, 111.61 139.87, 147.26 98.86 M29.57 240.35 C65.96 198.49, 102.35 156.63, 147 105.26 M29.57 240.35 C60.54 204.72, 91.52 169.08, 147 105.26 M34.55 240.71 C68.49 201.68, 102.42 162.64, 146.74 111.66 M34.55 240.71 C74.41 194.87, 114.26 149.02, 146.74 111.66 M40.2 240.32 C68.95 207.24, 97.71 174.16, 147.13 117.3 M40.2 240.32 C82.56 191.59, 124.92 142.86, 147.13 117.3 M45.18 240.68 C80.34 200.24, 115.49 159.8, 146.87 123.7 M45.18 240.68 C71.42 210.5, 97.65 180.32, 146.87 123.7 M50.83 240.28 C76.42 210.84, 102.02 181.39, 146.61 130.1 M50.83 240.28 C75.87 211.47, 100.92 182.66, 146.61 130.1 M55.81 240.64 C85.18 206.86, 114.54 173.08, 147.01 135.74 M55.81 240.64 C84.99 207.08, 114.17 173.52, 147.01 135.74 M61.46 240.25 C87.8 209.95, 114.14 179.65, 146.74 142.14 M61.46 240.25 C85.62 212.46, 109.78 184.66, 146.74 142.14 M66.44 240.61 C90.1 213.4, 113.76 186.18, 147.14 147.78 M66.44 240.61 C89.17 214.46, 111.9 188.32, 147.14 147.78 M72.09 240.22 C99.26 208.96, 126.42 177.71, 146.88 154.18 M72.09 240.22 C92.23 217.05, 112.37 193.88, 146.88 154.18 M77.07 240.58 C103.96 209.65, 130.84 178.73, 146.62 160.58 M77.07 240.58 C102.67 211.13, 128.27 181.68, 146.62 160.58 M82.72 240.18 C106.23 213.13, 129.75 186.08, 147.01 166.22 M82.72 240.18 C96.32 224.53, 109.93 208.88, 147.01 166.22 M87.7 240.54 C111.04 213.7, 134.37 186.85, 146.75 172.62 M87.7 240.54 C104.74 220.94, 121.78 201.34, 146.75 172.62 M92.69 240.9 C104.51 227.3, 116.33 213.7, 147.14 178.26 M92.69 240.9 C108.31 222.93, 123.93 204.97, 147.14 178.26 M98.33 240.51 C116.67 219.41, 135.01 198.31, 146.88 184.66 M98.33 240.51 C109.83 227.28, 121.33 214.05, 146.88 184.66 M103.32 240.87 C119.94 221.75, 136.56 202.63, 146.62 191.06 M103.32 240.87 C114.39 228.13, 125.47 215.39, 146.62 191.06 M108.96 240.47 C118.8 229.16, 128.63 217.85, 147.02 196.7 M108.96 240.47 C120.03 227.74, 131.1 215, 147.02 196.7 M113.95 240.83 C123.72 229.59, 133.49 218.35, 146.75 203.1 M113.95 240.83 C122.6 230.88, 131.25 220.93, 146.75 203.1 M119.59 240.44 C125.86 233.24, 132.12 226.03, 147.15 208.74 M119.59 240.44 C125.47 233.68, 131.35 226.92, 147.15 208.74 M124.58 240.8 C132.55 231.64, 140.51 222.47, 146.89 215.14 M124.58 240.8 C129.94 234.63, 135.3 228.47, 146.89 215.14 M130.22 240.4 C135.79 234, 141.36 227.59, 146.63 221.54 M130.22 240.4 C134.34 235.67, 138.45 230.94, 146.63 221.54 M135.21 240.76 C139.05 236.35, 142.88 231.94, 147.02 227.18 M135.21 240.76 C138.75 236.69, 142.28 232.63, 147.02 227.18 M140.85 240.37 C142.72 238.22, 144.59 236.07, 146.76 233.58 M140.85 240.37 C142.83 238.1, 144.8 235.83, 146.76 233.58" stroke="#e55f59" stroke-width="0.5" fill="none"></path><path d="M0 0 C39.75 0, 79.5 0, 145 0 M0 0 C46 0, 92 0, 145 0 M145 0 C145 76.17, 145 152.33, 145 238 M145 0 C145 88.73, 145 177.46, 145 238 M145 238 C99.8 238, 54.6 238, 0 238 M145 238 C97.07 238, 49.14 238, 0 238 M0 238 C0 167.25, 0 96.5, 0 0 M0 238 C0 153.84, 0 69.68, 0 0" stroke="transparent" stroke-width="1" fill="none"></path></g><g transform="translate(396.5 323.1666564941406) rotate(0 41 11.5)"><text x="41" y="18" font-family="Helvetica, Segoe UI Emoji" font-size="20px" fill="#717273" text-anchor="middle" style="white-space: pre;" direction="ltr">其他部件</text></g><g stroke-linecap="round" transform="translate(86.66668701171875 53.66668701171875) rotate(0 66 19.333343505859375)"><path d="M9.67 0 L122.33 0 L126.56 0.6 L129.58 2.42 L131.4 5.44 L132 9.67 L131.4 33.23 L129.58 36.25 L126.56 38.06 L122.33 38.67 L9.67 38.67 L5.44 38.06 L2.42 36.25 L0.6 33.23 L0 9.67 L0.6 5.44 L2.42 2.42 L5.44 0.6 L9.67 0" stroke="none" stroke-width="0" fill="#59b489"></path><path d="M9.67 0 M9.67 0 C50.66 0, 91.65 0, 122.33 0 M9.67 0 C39.21 0, 68.76 0, 122.33 0 M122.33 0 C128.78 0, 132 3.22, 132 9.67 M122.33 0 C128.78 0, 132 3.22, 132 9.67 M132 9.67 C132 16.57, 132 23.47, 132 29 M132 9.67 C132 15.1, 132 20.53, 132 29 M132 29 C132 35.44, 128.78 38.67, 122.33 38.67 M132 29 C132 35.44, 128.78 38.67, 122.33 38.67 M122.33 38.67 C89.19 38.67, 56.04 38.67, 9.67 38.67 M122.33 38.67 C80.37 38.67, 38.4 38.67, 9.67 38.67 M9.67 38.67 C3.22 38.67, 0 35.44, 0 29 M9.67 38.67 C3.22 38.67, 0 35.44, 0 29 M0 29 C0 21.77, 0 14.54, 0 9.67 M0 29 C0 24.94, 0 20.87, 0 9.67 M0 9.67 C0 3.22, 3.22 0, 9.67 0 M0 9.67 C0 3.22, 3.22 0, 9.67 0" stroke="transparent" stroke-width="1" fill="none"></path></g><g stroke-linecap="round" transform="translate(85.33331298828125 96.66668701171875) rotate(0 66 19.333343505859375)"><path d="M9.67 0 L122.33 0 L126.56 0.6 L129.58 2.42 L131.4 5.44 L132 9.67 L131.4 33.23 L129.58 36.25 L126.56 38.06 L122.33 38.67 L9.67 38.67 L5.44 38.06 L2.42 36.25 L0.6 33.23 L0 9.67 L0.6 5.44 L2.42 2.42 L5.44 0.6 L9.67 0" stroke="none" stroke-width="0" fill="#59b489"></path><path d="M9.67 0 M9.67 0 C44.94 0, 80.2 0, 122.33 0 M9.67 0 C50.48 0, 91.29 0, 122.33 0 M122.33 0 C128.78 0, 132 3.22, 132 9.67 M122.33 0 C128.78 0, 132 3.22, 132 9.67 M132 9.67 C132 15.58, 132 21.5, 132 29 M132 9.67 C132 15.68, 132 21.7, 132 29 M132 29 C132 35.44, 128.78 38.67, 122.33 38.67 M132 29 C132 35.44, 128.78 38.67, 122.33 38.67 M122.33 38.67 C96.25 38.67, 70.17 38.67, 9.67 38.67 M122.33 38.67 C97.77 38.67, 73.2 38.67, 9.67 38.67 M9.67 38.67 C3.22 38.67, 0 35.44, 0 29 M9.67 38.67 C3.22 38.67, 0 35.44, 0 29 M0 29 C0 24.07, 0 19.13, 0 9.67 M0 29 C0 24.99, 0 20.98, 0 9.67 M0 9.67 C0 3.22, 3.22 0, 9.67 0 M0 9.67 C0 3.22, 3.22 0, 9.67 0" stroke="transparent" stroke-width="1" fill="none"></path></g><g stroke-linecap="round" transform="translate(79.99996948242188 327.0000305175781) rotate(0 66 19.333343505859375)"><path d="M9.67 0 L122.33 0 L126.56 0.6 L129.58 2.42 L131.4 5.44 L132 9.67 L131.4 33.23 L129.58 36.25 L126.56 38.06 L122.33 38.67 L9.67 38.67 L5.44 38.06 L2.42 36.25 L0.6 33.23 L0 9.67 L0.6 5.44 L2.42 2.42 L5.44 0.6 L9.67 0" stroke="none" stroke-width="0" fill="#eeb23f"></path><path d="M9.67 0 M9.67 0 C35.78 0, 61.89 0, 122.33 0 M9.67 0 C47.85 0, 86.03 0, 122.33 0 M122.33 0 C128.78 0, 132 3.22, 132 9.67 M122.33 0 C128.78 0, 132 3.22, 132 9.67 M132 9.67 C132 16.35, 132 23.04, 132 29 M132 9.67 C132 13.73, 132 17.8, 132 29 M132 29 C132 35.44, 128.78 38.67, 122.33 38.67 M132 29 C132 35.44, 128.78 38.67, 122.33 38.67 M122.33 38.67 C89.71 38.67, 57.09 38.67, 9.67 38.67 M122.33 38.67 C99.31 38.67, 76.29 38.67, 9.67 38.67 M9.67 38.67 C3.22 38.67, 0 35.44, 0 29 M9.67 38.67 C3.22 38.67, 0 35.44, 0 29 M0 29 C0 24.98, 0 20.97, 0 9.67 M0 29 C0 25.05, 0 21.1, 0 9.67 M0 9.67 C0 3.22, 3.22 0, 9.67 0 M0 9.67 C0 3.22, 3.22 0, 9.67 0" stroke="transparent" stroke-width="1" fill="none"></path></g><g stroke-linecap="round" transform="translate(79.99990844726562 379.0000305175781) rotate(0 66 19.333343505859375)"><path d="M9.67 0 L122.33 0 L126.56 0.6 L129.58 2.42 L131.4 5.44 L132 9.67 L131.4 33.23 L129.58 36.25 L126.56 38.06 L122.33 38.67 L9.67 38.67 L5.44 38.06 L2.42 36.25 L0.6 33.23 L0 9.67 L0.6 5.44 L2.42 2.42 L5.44 0.6 L9.67 0" stroke="none" stroke-width="0" fill="#eeb23f"></path><path d="M9.67 0 M9.67 0 C35.88 0, 62.09 0, 122.33 0 M9.67 0 C53.55 0, 97.44 0, 122.33 0 M122.33 0 C128.78 0, 132 3.22, 132 9.67 M122.33 0 C128.78 0, 132 3.22, 132 9.67 M132 9.67 C132 14.26, 132 18.85, 132 29 M132 9.67 C132 15.38, 132 21.1, 132 29 M132 29 C132 35.44, 128.78 38.67, 122.33 38.67 M132 29 C132 35.44, 128.78 38.67, 122.33 38.67 M122.33 38.67 C97.35 38.67, 72.36 38.67, 9.67 38.67 M122.33 38.67 C85.6 38.67, 48.86 38.67, 9.67 38.67 M9.67 38.67 C3.22 38.67, 0 35.44, 0 29 M9.67 38.67 C3.22 38.67, 0 35.44, 0 29 M0 29 C0 24.78, 0 20.56, 0 9.67 M0 29 C0 23.91, 0 18.82, 0 9.67 M0 9.67 C0 3.22, 3.22 0, 9.67 0 M0 9.67 C0 3.22, 3.22 0, 9.67 0" stroke="transparent" stroke-width="1" fill="none"></path></g><g stroke-linecap="round" transform="translate(86.6666259765625 140.3333740234375) rotate(0 66 19.333343505859375)"><path d="M9.67 0 L122.33 0 L126.56 0.6 L129.58 2.42 L131.4 5.44 L132 9.67 L131.4 33.23 L129.58 36.25 L126.56 38.06 L122.33 38.67 L9.67 38.67 L5.44 38.06 L2.42 36.25 L0.6 33.23 L0 9.67 L0.6 5.44 L2.42 2.42 L5.44 0.6 L9.67 0" stroke="none" stroke-width="0" fill="#59b489"></path><path d="M9.67 0 M9.67 0 C41.68 0, 73.69 0, 122.33 0 M9.67 0 C39.76 0, 69.86 0, 122.33 0 M122.33 0 C128.78 0, 132 3.22, 132 9.67 M122.33 0 C128.78 0, 132 3.22, 132 9.67 M132 9.67 C132 15.36, 132 21.05, 132 29 M132 9.67 C132 13.68, 132 17.69, 132 29 M132 29 C132 35.44, 128.78 38.67, 122.33 38.67 M132 29 C132 35.44, 128.78 38.67, 122.33 38.67 M122.33 38.67 C88.82 38.67, 55.31 38.67, 9.67 38.67 M122.33 38.67 C97.64 38.67, 72.95 38.67, 9.67 38.67 M9.67 38.67 C3.22 38.67, 0 35.44, 0 29 M9.67 38.67 C3.22 38.67, 0 35.44, 0 29 M0 29 C0 21.88, 0 14.77, 0 9.67 M0 29 C0 22.67, 0 16.33, 0 9.67 M0 9.67 C0 3.22, 3.22 0, 9.67 0 M0 9.67 C0 3.22, 3.22 0, 9.67 0" stroke="transparent" stroke-width="1" fill="none"></path></g><g stroke-linecap="round" transform="translate(85.99993896484375 183.00003051757812) rotate(0 66 19.333343505859375)"><path d="M9.67 0 L122.33 0 L126.56 0.6 L129.58 2.42 L131.4 5.44 L132 9.67 L131.4 33.23 L129.58 36.25 L126.56 38.06 L122.33 38.67 L9.67 38.67 L5.44 38.06 L2.42 36.25 L0.6 33.23 L0 9.67 L0.6 5.44 L2.42 2.42 L5.44 0.6 L9.67 0" stroke="none" stroke-width="0" fill="#59b489"></path><path d="M9.67 0 M9.67 0 C51.89 0, 94.12 0, 122.33 0 M9.67 0 C40.26 0, 70.86 0, 122.33 0 M122.33 0 C128.78 0, 132 3.22, 132 9.67 M122.33 0 C128.78 0, 132 3.22, 132 9.67 M132 9.67 C132 14.84, 132 20.01, 132 29 M132 9.67 C132 14.84, 132 20, 132 29 M132 29 C132 35.44, 128.78 38.67, 122.33 38.67 M132 29 C132 35.44, 128.78 38.67, 122.33 38.67 M122.33 38.67 C86.82 38.67, 51.32 38.67, 9.67 38.67 M122.33 38.67 C93.9 38.67, 65.47 38.67, 9.67 38.67 M9.67 38.67 C3.22 38.67, 0 35.44, 0 29 M9.67 38.67 C3.22 38.67, 0 35.44, 0 29 M0 29 C0 22.34, 0 15.68, 0 9.67 M0 29 C0 22.9, 0 16.8, 0 9.67 M0 9.67 C0 3.22, 3.22 0, 9.67 0 M0 9.67 C0 3.22, 3.22 0, 9.67 0" stroke="transparent" stroke-width="1" fill="none"></path></g><g stroke-linecap="round" transform="translate(237.6666259765625 44.999969482421875) rotate(0 27.5 28)"><path d="M13.75 0 L44.47 0.21 L49.63 1.93 L53.07 5.37 L54.14 7.73 L55 13.75 L54.79 45.47 L53.07 50.63 L49.63 54.07 L47.27 55.14 L41.25 56 L10.53 55.79 L5.37 54.07 L1.93 50.63 L0.86 48.27 L0 42.25 L0 13.75 L0.86 7.73 L3.44 3.44 L5.37 1.93 L7.73 0.86 L13.75 0" stroke="none" stroke-width="0" fill="#53a7bc"></path><path d="M13.75 0 M13.75 0 C23.56 0, 33.36 0, 41.25 0 M13.75 0 C21.88 0, 30.01 0, 41.25 0 M41.25 0 C50.42 0, 55 4.58, 55 13.75 M41.25 0 C50.42 0, 55 4.58, 55 13.75 M55 13.75 C55 22.45, 55 31.15, 55 42.25 M55 13.75 C55 21.52, 55 29.29, 55 42.25 M55 42.25 C55 51.42, 50.42 56, 41.25 56 M55 42.25 C55 51.42, 50.42 56, 41.25 56 M41.25 56 C33.38 56, 25.51 56, 13.75 56 M41.25 56 C34.49 56, 27.72 56, 13.75 56 M13.75 56 C4.58 56, 0 51.42, 0 42.25 M13.75 56 C4.58 56, 0 51.42, 0 42.25 M0 42.25 C0 31.67, 0 21.09, 0 13.75 M0 42.25 C0 35.98, 0 29.71, 0 13.75 M0 13.75 C0 4.58, 4.58 0, 13.75 0 M0 13.75 C0 4.58, 4.58 0, 13.75 0" stroke="transparent" stroke-width="1" fill="none"></path></g><g stroke-linecap="round" transform="translate(234.9998779296875 279.6666259765625) rotate(0 27.5 28)"><path d="M13.75 0 L44.47 0.21 L49.63 1.93 L53.07 5.37 L54.14 7.73 L55 13.75 L54.79 45.47 L53.07 50.63 L49.63 54.07 L47.27 55.14 L41.25 56 L10.53 55.79 L5.37 54.07 L1.93 50.63 L0.86 48.27 L0 42.25 L0 13.75 L0.86 7.73 L3.44 3.44 L5.37 1.93 L7.73 0.86 L13.75 0" stroke="none" stroke-width="0" fill="#53a7bc"></path><path d="M13.75 0 M13.75 0 C21.27 0, 28.79 0, 41.25 0 M13.75 0 C24.01 0, 34.27 0, 41.25 0 M41.25 0 C50.42 0, 55 4.58, 55 13.75 M41.25 0 C50.42 0, 55 4.58, 55 13.75 M55 13.75 C55 24.16, 55 34.58, 55 42.25 M55 13.75 C55 22.25, 55 30.75, 55 42.25 M55 42.25 C55 51.42, 50.42 56, 41.25 56 M55 42.25 C55 51.42, 50.42 56, 41.25 56 M41.25 56 C33.98 56, 26.7 56, 13.75 56 M41.25 56 C32.16 56, 23.07 56, 13.75 56 M13.75 56 C4.58 56, 0 51.42, 0 42.25 M13.75 56 C4.58 56, 0 51.42, 0 42.25 M0 42.25 C0 34.11, 0 25.98, 0 13.75 M0 42.25 C0 35.11, 0 27.96, 0 13.75 M0 13.75 C0 4.58, 4.58 0, 13.75 0 M0 13.75 C0 4.58, 4.58 0, 13.75 0" stroke="transparent" stroke-width="1" fill="none"></path></g><g stroke-linecap="round" transform="translate(232.00006103515625 105) rotate(0 30.5 24)"><path d="M12 0 L49 0 L54.25 0.75 L58 3 L60.25 6.75 L61 12 L60.81 38.81 L58 45 L54.25 47.25 L49 48 L12 48 L6.75 47.25 L3 45 L0.19 38.81 L0.19 9.19 L3 3 L6.75 0.75 L12 0" stroke="none" stroke-width="0" fill="#53a7bc"></path><path d="M12 0 M12 0 C19.91 0, 27.83 0, 49 0 M12 0 C23.02 0, 34.05 0, 49 0 M49 0 C57 0, 61 4, 61 12 M49 0 C57 0, 61 4, 61 12 M61 12 C61 17.78, 61 23.56, 61 36 M61 12 C61 18.58, 61 25.16, 61 36 M61 36 C61 44, 57 48, 49 48 M61 36 C61 44, 57 48, 49 48 M49 48 C35.72 48, 22.44 48, 12 48 M49 48 C40.55 48, 32.1 48, 12 48 M12 48 C4 48, 0 44, 0 36 M12 48 C4 48, 0 44, 0 36 M0 36 C0 26.5, 0 17, 0 12 M0 36 C0 26.82, 0 17.63, 0 12 M0 12 C0 4, 4 0, 12 0 M0 12 C0 4, 4 0, 12 0" stroke="transparent" stroke-width="1" fill="none"></path></g><g stroke-linecap="round" transform="translate(229.33331298828125 339.6666564941406) rotate(0 30.5 24)"><path d="M12 0 L49 0 L54.25 0.75 L58 3 L60.25 6.75 L61 12 L60.81 38.81 L58 45 L54.25 47.25 L49 48 L12 48 L6.75 47.25 L3 45 L0.19 38.81 L0.19 9.19 L3 3 L6.75 0.75 L12 0" stroke="none" stroke-width="0" fill="#53a7bc"></path><path d="M12 0 M12 0 C20.21 0, 28.42 0, 49 0 M12 0 C22.11 0, 32.23 0, 49 0 M49 0 C57 0, 61 4, 61 12 M49 0 C57 0, 61 4, 61 12 M61 12 C61 18.32, 61 24.65, 61 36 M61 12 C61 20.77, 61 29.54, 61 36 M61 36 C61 44, 57 48, 49 48 M61 36 C61 44, 57 48, 49 48 M49 48 C41.48 48, 33.95 48, 12 48 M49 48 C39.21 48, 29.42 48, 12 48 M12 48 C4 48, 0 44, 0 36 M12 48 C4 48, 0 44, 0 36 M0 36 C0 29.88, 0 23.76, 0 12 M0 36 C0 29.15, 0 22.3, 0 12 M0 12 C0 4, 4 0, 12 0 M0 12 C0 4, 4 0, 12 0" stroke="transparent" stroke-width="1" fill="none"></path></g><g transform="translate(248.1666259765625 53.999969482421875) rotate(0 17 19)"><text x="17" y="15" font-family="Helvetica, Segoe UI Emoji" font-size="16px" fill="#ffffff" text-anchor="middle" style="white-space: pre;" direction="ltr">控制</text><text x="17" y="34" font-family="Helvetica, Segoe UI Emoji" font-size="16px" fill="#ffffff" text-anchor="middle" style="white-space: pre;" direction="ltr">逻辑</text></g><g transform="translate(245.4998779296875 288.6666259765625) rotate(0 17 19)"><text x="17" y="15" font-family="Helvetica, Segoe UI Emoji" font-size="16px" fill="#ffffff" text-anchor="middle" style="white-space: pre;" direction="ltr">控制</text><text x="17" y="34" font-family="Helvetica, Segoe UI Emoji" font-size="16px" fill="#ffffff" text-anchor="middle" style="white-space: pre;" direction="ltr">逻辑</text></g><g transform="translate(238.00006103515625 110) rotate(0 24.5 19)"><text x="24.5" y="15" font-family="Helvetica, Segoe UI Emoji" font-size="16px" fill="#ffffff" text-anchor="middle" style="white-space: pre;" direction="ltr">地址译</text><text x="24.5" y="34" font-family="Helvetica, Segoe UI Emoji" font-size="16px" fill="#ffffff" text-anchor="middle" style="white-space: pre;" direction="ltr">码器</text></g><g transform="translate(235.33331298828125 344.6666564941406) rotate(0 24.5 19)"><text x="24.5" y="15" font-family="Helvetica, Segoe UI Emoji" font-size="16px" fill="#ffffff" text-anchor="middle" style="white-space: pre;" direction="ltr">地址译</text><text x="24.5" y="34" font-family="Helvetica, Segoe UI Emoji" font-size="16px" fill="#ffffff" text-anchor="middle" style="white-space: pre;" direction="ltr">码器</text></g><g stroke-linecap="round" transform="translate(233.333251953125 157.66665649414062) rotate(0 30.333343505859375 16.5)"><path d="M8.25 0 L56.03 0.52 L58.6 2.06 L60.15 4.64 L60.67 8.25 L60.15 28.36 L58.6 30.94 L56.03 32.48 L52.42 33 L4.64 32.48 L2.06 30.94 L0.52 28.36 L0 8.25 L0.52 4.64 L2.06 2.06 L4.64 0.52 L8.25 0" stroke="none" stroke-width="0" fill="#478bdf"></path><path d="M8.25 0 M8.25 0 C20.94 0, 33.63 0, 52.42 0 M8.25 0 C22.47 0, 36.69 0, 52.42 0 M52.42 0 C57.92 0, 60.67 2.75, 60.67 8.25 M52.42 0 C57.92 0, 60.67 2.75, 60.67 8.25 M60.67 8.25 C60.67 14.81, 60.67 21.38, 60.67 24.75 M60.67 8.25 C60.67 13.35, 60.67 18.44, 60.67 24.75 M60.67 24.75 C60.67 30.25, 57.92 33, 52.42 33 M60.67 24.75 C60.67 30.25, 57.92 33, 52.42 33 M52.42 33 C42.23 33, 32.04 33, 8.25 33 M52.42 33 C39.47 33, 26.52 33, 8.25 33 M8.25 33 C2.75 33, 0 30.25, 0 24.75 M8.25 33 C2.75 33, 0 30.25, 0 24.75 M0 24.75 C0 21.38, 0 18.02, 0 8.25 M0 24.75 C0 18.76, 0 12.76, 0 8.25 M0 8.25 C0 2.75, 2.75 0, 8.25 0 M0 8.25 C0 2.75, 2.75 0, 8.25 0" stroke="transparent" stroke-width="1" fill="none"></path></g><g stroke-linecap="round" transform="translate(230.66650390625 392.33331298828125) rotate(0 30.333343505859375 16.5)"><path d="M8.25 0 L56.03 0.52 L58.6 2.06 L60.15 4.64 L60.67 8.25 L60.15 28.36 L58.6 30.94 L56.03 32.48 L52.42 33 L4.64 32.48 L2.06 30.94 L0.52 28.36 L0 8.25 L0.52 4.64 L2.06 2.06 L4.64 0.52 L8.25 0" stroke="none" stroke-width="0" fill="#478bdf"></path><path d="M8.25 0 M8.25 0 C18.85 0, 29.44 0, 52.42 0 M8.25 0 C24.08 0, 39.9 0, 52.42 0 M52.42 0 C57.92 0, 60.67 2.75, 60.67 8.25 M52.42 0 C57.92 0, 60.67 2.75, 60.67 8.25 M60.67 8.25 C60.67 12.68, 60.67 17.12, 60.67 24.75 M60.67 8.25 C60.67 11.74, 60.67 15.23, 60.67 24.75 M60.67 24.75 C60.67 30.25, 57.92 33, 52.42 33 M60.67 24.75 C60.67 30.25, 57.92 33, 52.42 33 M52.42 33 C41.94 33, 31.47 33, 8.25 33 M52.42 33 C41.33 33, 30.25 33, 8.25 33 M8.25 33 C2.75 33, 0 30.25, 0 24.75 M8.25 33 C2.75 33, 0 30.25, 0 24.75 M0 24.75 C0 19.93, 0 15.12, 0 8.25 M0 24.75 C0 18.71, 0 12.66, 0 8.25 M0 8.25 C0 2.75, 2.75 0, 8.25 0 M0 8.25 C0 2.75, 2.75 0, 8.25 0" stroke="transparent" stroke-width="1" fill="none"></path></g><g stroke-linecap="round" transform="translate(233.333251953125 194.33331298828125) rotate(0 30.333343505859375 16.5)"><path d="M8.25 0 L56.03 0.52 L58.6 2.06 L60.15 4.64 L60.67 8.25 L60.15 28.36 L58.6 30.94 L56.03 32.48 L52.42 33 L4.64 32.48 L2.06 30.94 L0.52 28.36 L0 8.25 L0.52 4.64 L2.06 2.06 L4.64 0.52 L8.25 0" stroke="none" stroke-width="0" fill="#478bdf"></path><path d="M8.25 0 M8.25 0 C18.08 0, 27.9 0, 52.42 0 M8.25 0 C25.32 0, 42.4 0, 52.42 0 M52.42 0 C57.92 0, 60.67 2.75, 60.67 8.25 M52.42 0 C57.92 0, 60.67 2.75, 60.67 8.25 M60.67 8.25 C60.67 11.89, 60.67 15.54, 60.67 24.75 M60.67 8.25 C60.67 14.28, 60.67 20.32, 60.67 24.75 M60.67 24.75 C60.67 30.25, 57.92 33, 52.42 33 M60.67 24.75 C60.67 30.25, 57.92 33, 52.42 33 M52.42 33 C38.82 33, 25.22 33, 8.25 33 M52.42 33 C34.96 33, 17.51 33, 8.25 33 M8.25 33 C2.75 33, 0 30.25, 0 24.75 M8.25 33 C2.75 33, 0 30.25, 0 24.75 M0 24.75 C0 19.63, 0 14.5, 0 8.25 M0 24.75 C0 21.17, 0 17.59, 0 8.25 M0 8.25 C0 2.75, 2.75 0, 8.25 0 M0 8.25 C0 2.75, 2.75 0, 8.25 0" stroke="transparent" stroke-width="1" fill="none"></path></g><g stroke-linecap="round" transform="translate(230.66650390625 428.9999694824219) rotate(0 30.333343505859375 16.5)"><path d="M8.25 0 L56.03 0.52 L58.6 2.06 L60.15 4.64 L60.67 8.25 L60.15 28.36 L58.6 30.94 L56.03 32.48 L52.42 33 L4.64 32.48 L2.06 30.94 L0.52 28.36 L0 8.25 L0.52 4.64 L2.06 2.06 L4.64 0.52 L8.25 0" stroke="none" stroke-width="0" fill="#478bdf"></path><path d="M8.25 0 M8.25 0 C18.42 0, 28.59 0, 52.42 0 M8.25 0 C21.82 0, 35.39 0, 52.42 0 M52.42 0 C57.92 0, 60.67 2.75, 60.67 8.25 M52.42 0 C57.92 0, 60.67 2.75, 60.67 8.25 M60.67 8.25 C60.67 13.77, 60.67 19.28, 60.67 24.75 M60.67 8.25 C60.67 13.81, 60.67 19.37, 60.67 24.75 M60.67 24.75 C60.67 30.25, 57.92 33, 52.42 33 M60.67 24.75 C60.67 30.25, 57.92 33, 52.42 33 M52.42 33 C37.51 33, 22.61 33, 8.25 33 M52.42 33 C34.98 33, 17.54 33, 8.25 33 M8.25 33 C2.75 33, 0 30.25, 0 24.75 M8.25 33 C2.75 33, 0 30.25, 0 24.75 M0 24.75 C0 20.1, 0 15.46, 0 8.25 M0 24.75 C0 20.38, 0 16.02, 0 8.25 M0 8.25 C0 2.75, 2.75 0, 8.25 0 M0 8.25 C0 2.75, 2.75 0, 8.25 0" stroke="transparent" stroke-width="1" fill="none"></path></g><g transform="translate(244.66659545898438 164.66665649414062) rotate(0 19 9.5)"><text x="19" y="15" font-family="Helvetica, Segoe UI Emoji" font-size="16px" fill="#ffffff" text-anchor="middle" style="white-space: pre;" direction="ltr">MAR</text></g><g transform="translate(241.99984741210938 399.33331298828125) rotate(0 19 9.5)"><text x="19" y="15" font-family="Helvetica, Segoe UI Emoji" font-size="16px" fill="#ffffff" text-anchor="middle" style="white-space: pre;" direction="ltr">MAR</text></g><g transform="translate(244.66659545898438 201.33331298828125) rotate(0 19 9.5)"><text x="19" y="15" font-family="Helvetica, Segoe UI Emoji" font-size="16px" fill="#ffffff" text-anchor="middle" style="white-space: pre;" direction="ltr">MDR</text></g><g transform="translate(241.99984741210938 435.9999694824219) rotate(0 19 9.5)"><text x="19" y="15" font-family="Helvetica, Segoe UI Emoji" font-size="16px" fill="#ffffff" text-anchor="middle" style="white-space: pre;" direction="ltr">MDR</text></g><g transform="translate(365.99993896484375 113.83334350585938) rotate(0 23 11.5)"><text x="0" y="18" font-family="Helvetica, Segoe UI Emoji" font-size="20px" fill="#ffffff" text-anchor="start" style="white-space: pre;" direction="ltr">MAR</text></g><g transform="translate(366.99993896484375 167.16665649414062) rotate(0 24 11.5)"><text x="0" y="18" font-family="Helvetica, Segoe UI Emoji" font-size="20px" fill="#ffffff" text-anchor="start" style="white-space: pre;" direction="ltr">MDR</text></g><g transform="translate(396.33331298828125 61.5) rotate(0 41 11.5)"><text x="41" y="18" font-family="Helvetica, Segoe UI Emoji" font-size="20px" fill="#ffffff" text-anchor="middle" style="white-space: pre;" direction="ltr">控制电路</text></g><g transform="translate(107.16668701171875 61.500030517578125) rotate(0 45.5 11.5)"><text x="45.5" y="18" font-family="Helvetica, Segoe UI Emoji" font-size="20px" fill="#ffffff" text-anchor="middle" style="white-space: pre;" direction="ltr">01010101</text></g><g transform="translate(107.6666259765625 148.16671752929688) rotate(0 45 11.5)"><text x="45" y="18" font-family="Helvetica, Segoe UI Emoji" font-size="20px" fill="#ffffff" text-anchor="middle" style="white-space: pre;" direction="ltr">11001010</text></g><g transform="translate(106.99993896484375 190.8333740234375) rotate(0 45 11.5)"><text x="45" y="18" font-family="Helvetica, Segoe UI Emoji" font-size="20px" fill="#ffffff" text-anchor="middle" style="white-space: pre;" direction="ltr">00101100</text></g><g transform="translate(134.83331298828125 104.50003051757812) rotate(0 16.5 11.5)"><text x="16.5" y="18" font-family="Helvetica, Segoe UI Emoji" font-size="20px" fill="#ffffff" text-anchor="middle" style="white-space: pre;" direction="ltr">· · ·</text></g><g transform="translate(101.99996948242188 334.8333740234375) rotate(0 44 11.5)"><text x="44" y="18" font-family="Helvetica, Segoe UI Emoji" font-size="20px" fill="#ffffff" text-anchor="middle" style="white-space: pre;" direction="ltr">11001100</text></g><g transform="translate(102.49990844726562 386.8333740234375) rotate(0 43.5 11.5)"><text x="43.5" y="18" font-family="Helvetica, Segoe UI Emoji" font-size="20px" fill="#ffffff" text-anchor="middle" style="white-space: pre;" direction="ltr">11110000</text></g><g transform="translate(29.166595458984375 62.66668701171875) rotate(0 23.5 11.5)"><text x="23.5" y="18" font-family="Helvetica, Segoe UI Emoji" font-size="20px" fill="#000000" text-anchor="middle" style="white-space: pre;" direction="ltr">0000</text></g><g transform="translate(33.333282470703125 106.16668701171875) rotate(0 16.5 11.5)"><text x="16.5" y="18" font-family="Helvetica, Segoe UI Emoji" font-size="20px" fill="#000000" text-anchor="middle" style="white-space: pre;" direction="ltr">· · ·</text></g><g transform="translate(28.99993896484375 150.16668701171875) rotate(0 22.5 11.5)"><text x="22.5" y="18" font-family="Helvetica, Segoe UI Emoji" font-size="20px" fill="#000000" text-anchor="middle" style="white-space: pre;" direction="ltr">0110</text></g><g transform="translate(29.166595458984375 190.16668701171875) rotate(0 22 11.5)"><text x="22" y="18" font-family="Helvetica, Segoe UI Emoji" font-size="20px" fill="#000000" text-anchor="middle" style="white-space: pre;" direction="ltr">0111</text></g><g transform="translate(23.833251953125 335.8333435058594) rotate(0 22 11.5)"><text x="22" y="18" font-family="Helvetica, Segoe UI Emoji" font-size="20px" fill="#000000" text-anchor="middle" style="white-space: pre;" direction="ltr">1110</text></g><g transform="translate(24.833251953125 389.1666564941406) rotate(0 21 11.5)"><text x="21" y="18" font-family="Helvetica, Segoe UI Emoji" font-size="20px" fill="#000000" text-anchor="middle" style="white-space: pre;" direction="ltr">1111</text></g><g transform="translate(355.33331298828125 12.66668701171875) rotate(0 22 11.5)"><text x="22" y="18" font-family="Helvetica, Segoe UI Emoji" font-size="20px" fill="#b6305a" text-anchor="middle" style="white-space: pre;" direction="ltr">CPU</text></g><g transform="translate(13.6666259765625 10) rotate(0 31 13.5)"><text x="31" y="21" font-family="Helvetica, Segoe UI Emoji" font-size="20px" fill="#3b7d5d" text-anchor="middle" style="white-space: pre;" direction="ltr">存储器</text></g><g transform="translate(12.333251953125 240) rotate(0 41 13.5)"><text x="41" y="21" font-family="Helvetica, Segoe UI Emoji" font-size="20px" fill="#eb8851" text-anchor="middle" style="white-space: pre;" direction="ltr">输入输出</text></g><g stroke-linecap="round"><g transform="translate(109.99993896484375 419.0000305175781) rotate(0 0 8.666656494140625)"><path d="M0 0 C0 2.89, 0 14.44, 0 17.33 M0 0 C0 2.89, 0 14.44, 0 17.33" stroke="#717273" stroke-width="2" fill="none"></path></g><g transform="translate(109.99993896484375 419.0000305175781) rotate(0 0 8.666656494140625)"><path d="M-2.96 9.19 C-2.31 11, -1.65 12.81, 0 17.33 M-2.96 9.19 C-1.8 12.4, -0.63 15.61, 0 17.33" stroke="#717273" stroke-width="2" fill="none"></path></g><g transform="translate(109.99993896484375 419.0000305175781) rotate(0 0 8.666656494140625)"><path d="M2.96 9.19 C2.31 11, 1.65 12.81, 0 17.33 M2.96 9.19 C1.8 12.4, 0.63 15.61, 0 17.33" stroke="#717273" stroke-width="2" fill="none"></path></g></g><g stroke-linecap="round"><g transform="translate(183.33703932264984 308.14757240862184) rotate(179.70692025108528 0 8.666656494140625)"><path d="M0 0 C0 2.89, 0 14.44, 0 17.33 M0 0 C0 2.89, 0 14.44, 0 17.33" stroke="#717273" stroke-width="2" fill="none"></path></g><g transform="translate(183.33703932264984 308.14757240862184) rotate(179.70692025108528 0 8.666656494140625)"><path d="M-2.96 9.19 C-1.91 12.07, -0.87 14.96, 0 17.33 M-2.96 9.19 C-1.8 12.4, -0.63 15.6, 0 17.33" stroke="#717273" stroke-width="2" fill="none"></path></g><g transform="translate(183.33703932264984 308.14757240862184) rotate(179.70692025108528 0 8.666656494140625)"><path d="M2.96 9.19 C1.91 12.07, 0.87 14.96, 0 17.33 M2.96 9.19 C1.8 12.4, 0.63 15.6, 0 17.33" stroke="#717273" stroke-width="2" fill="none"></path></g></g><g stroke-linecap="round"><g transform="translate(120.6666259765625 419.0000305175781) rotate(0 0 8.666656494140625)"><path d="M0 0 C0 2.89, 0 14.44, 0 17.33 M0 0 C0 2.89, 0 14.44, 0 17.33" stroke="#717273" stroke-width="2" fill="none"></path></g><g transform="translate(120.6666259765625 419.0000305175781) rotate(0 0 8.666656494140625)"><path d="M-2.96 9.19 C-1.99 11.86, -1.02 14.53, 0 17.33 M-2.96 9.19 C-2.12 11.5, -1.28 13.81, 0 17.33" stroke="#717273" stroke-width="2" fill="none"></path></g><g transform="translate(120.6666259765625 419.0000305175781) rotate(0 0 8.666656494140625)"><path d="M2.96 9.19 C1.99 11.86, 1.02 14.53, 0 17.33 M2.96 9.19 C2.12 11.5, 1.28 13.81, 0 17.33" stroke="#717273" stroke-width="2" fill="none"></path></g></g><g stroke-linecap="round"><g transform="translate(171.66537667508192 308.2021475610133) rotate(179.70692025108528 0 8.666656494140625)"><path d="M0 0 C0 2.89, 0 14.44, 0 17.33 M0 0 C0 2.89, 0 14.44, 0 17.33" stroke="#717273" stroke-width="2" fill="none"></path></g><g transform="translate(171.66537667508192 308.2021475610133) rotate(179.70692025108528 0 8.666656494140625)"><path d="M-2.96 9.19 C-2.19 11.33, -1.41 13.46, 0 17.33 M-2.96 9.19 C-2.05 11.7, -1.14 14.21, 0 17.33" stroke="#717273" stroke-width="2" fill="none"></path></g><g transform="translate(171.66537667508192 308.2021475610133) rotate(179.70692025108528 0 8.666656494140625)"><path d="M2.96 9.19 C2.19 11.33, 1.41 13.46, 0 17.33 M2.96 9.19 C2.05 11.7, 1.14 14.21, 0 17.33" stroke="#717273" stroke-width="2" fill="none"></path></g></g><g stroke-linecap="round"><g transform="translate(131.6666259765625 419.0000305175781) rotate(0 0 8.666656494140625)"><path d="M0 0 C0 2.89, 0 14.44, 0 17.33 M0 0 C0 2.89, 0 14.44, 0 17.33" stroke="#717273" stroke-width="2" fill="none"></path></g><g transform="translate(131.6666259765625 419.0000305175781) rotate(0 0 8.666656494140625)"><path d="M-2.96 9.19 C-1.84 12.28, -0.72 15.37, 0 17.33 M-2.96 9.19 C-2.24 11.18, -1.51 13.18, 0 17.33" stroke="#717273" stroke-width="2" fill="none"></path></g><g transform="translate(131.6666259765625 419.0000305175781) rotate(0 0 8.666656494140625)"><path d="M2.96 9.19 C1.84 12.28, 0.72 15.37, 0 17.33 M2.96 9.19 C2.24 11.18, 1.51 13.18, 0 17.33" stroke="#717273" stroke-width="2" fill="none"></path></g></g><g stroke-linecap="round"><g transform="translate(161.6655205841298 308.25841458812243) rotate(179.70692025108528 0 8.666656494140625)"><path d="M0 0 C0 2.89, 0 14.44, 0 17.33 M0 0 C0 2.89, 0 14.44, 0 17.33" stroke="#717273" stroke-width="2" fill="none"></path></g><g transform="translate(161.6655205841298 308.25841458812243) rotate(179.70692025108528 0 8.666656494140625)"><path d="M-2.96 9.19 C-2.23 11.21, -1.5 13.22, 0 17.33 M-2.96 9.19 C-1.9 12.11, -0.84 15.03, 0 17.33" stroke="#717273" stroke-width="2" fill="none"></path></g><g transform="translate(161.6655205841298 308.25841458812243) rotate(179.70692025108528 0 8.666656494140625)"><path d="M2.96 9.19 C2.23 11.21, 1.5 13.22, 0 17.33 M2.96 9.19 C1.9 12.11, 0.84 15.03, 0 17.33" stroke="#717273" stroke-width="2" fill="none"></path></g></g><g stroke-linecap="round"><g transform="translate(141.6666259765625 419.0000305175781) rotate(0 0 8.666656494140625)"><path d="M0 0 C0 2.89, 0 14.44, 0 17.33 M0 0 C0 2.89, 0 14.44, 0 17.33" stroke="#717273" stroke-width="2" fill="none"></path></g><g transform="translate(141.6666259765625 419.0000305175781) rotate(0 0 8.666656494140625)"><path d="M-2.96 9.19 C-2.28 11.06, -1.6 12.93, 0 17.33 M-2.96 9.19 C-2.12 11.52, -1.27 13.84, 0 17.33" stroke="#717273" stroke-width="2" fill="none"></path></g><g transform="translate(141.6666259765625 419.0000305175781) rotate(0 0 8.666656494140625)"><path d="M2.96 9.19 C2.28 11.06, 1.6 12.93, 0 17.33 M2.96 9.19 C2.12 11.52, 1.27 13.84, 0 17.33" stroke="#717273" stroke-width="2" fill="none"></path></g></g><g stroke-linecap="round"><g transform="translate(151.6656514105366 308.3095664309495) rotate(179.70692025108528 0 8.666656494140625)"><path d="M0 0 C0 2.89, 0 14.44, 0 17.33 M0 0 C0 2.89, 0 14.44, 0 17.33" stroke="#717273" stroke-width="2" fill="none"></path></g><g transform="translate(151.6656514105366 308.3095664309495) rotate(179.70692025108528 0 8.666656494140625)"><path d="M-2.96 9.19 C-2.33 10.92, -1.7 12.65, 0 17.33 M-2.96 9.19 C-2.22 11.24, -1.47 13.3, 0 17.33" stroke="#717273" stroke-width="2" fill="none"></path></g><g transform="translate(151.6656514105366 308.3095664309495) rotate(179.70692025108528 0 8.666656494140625)"><path d="M2.96 9.19 C2.33 10.92, 1.7 12.65, 0 17.33 M2.96 9.19 C2.22 11.24, 1.47 13.3, 0 17.33" stroke="#717273" stroke-width="2" fill="none"></path></g></g><g stroke-linecap="round"><g transform="translate(151.6666259765625 419.0000305175781) rotate(0 0 8.666656494140625)"><path d="M0 0 C0 2.89, 0 14.44, 0 17.33 M0 0 C0 2.89, 0 14.44, 0 17.33" stroke="#717273" stroke-width="2" fill="none"></path></g><g transform="translate(151.6666259765625 419.0000305175781) rotate(0 0 8.666656494140625)"><path d="M-2.96 9.19 C-1.88 12.17, -0.79 15.15, 0 17.33 M-2.96 9.19 C-2.08 11.62, -1.19 14.06, 0 17.33" stroke="#717273" stroke-width="2" fill="none"></path></g><g transform="translate(151.6666259765625 419.0000305175781) rotate(0 0 8.666656494140625)"><path d="M2.96 9.19 C1.88 12.17, 0.79 15.15, 0 17.33 M2.96 9.19 C2.08 11.62, 1.19 14.06, 0 17.33" stroke="#717273" stroke-width="2" fill="none"></path></g></g><g stroke-linecap="round"><g transform="translate(139.66578223694341 308.3607182737757) rotate(179.70692025108528 0 8.666656494140625)"><path d="M0 0 C0 2.89, 0 14.44, 0 17.33 M0 0 C0 2.89, 0 14.44, 0 17.33" stroke="#717273" stroke-width="2" fill="none"></path></g><g transform="translate(139.66578223694341 308.3607182737757) rotate(179.70692025108528 0 8.666656494140625)"><path d="M-2.96 9.19 C-1.98 11.89, -1 14.59, 0 17.33 M-2.96 9.19 C-2.18 11.36, -1.39 13.52, 0 17.33" stroke="#717273" stroke-width="2" fill="none"></path></g><g transform="translate(139.66578223694341 308.3607182737757) rotate(179.70692025108528 0 8.666656494140625)"><path d="M2.96 9.19 C1.98 11.89, 1 14.59, 0 17.33 M2.96 9.19 C2.18 11.36, 1.39 13.52, 0 17.33" stroke="#717273" stroke-width="2" fill="none"></path></g></g><g stroke-linecap="round"><g transform="translate(161.6666259765625 419.6667175292969) rotate(0 0 8.666656494140625)"><path d="M0 0 C0 2.89, 0 14.44, 0 17.33 M0 0 C0 2.89, 0 14.44, 0 17.33" stroke="#717273" stroke-width="2" fill="none"></path></g><g transform="translate(161.6666259765625 419.6667175292969) rotate(0 0 8.666656494140625)"><path d="M-2.96 9.19 C-1.83 12.31, -0.7 15.42, 0 17.33 M-2.96 9.19 C-1.93 12.02, -0.9 14.85, 0 17.33" stroke="#717273" stroke-width="2" fill="none"></path></g><g transform="translate(161.6666259765625 419.6667175292969) rotate(0 0 8.666656494140625)"><path d="M2.96 9.19 C1.83 12.31, 0.7 15.42, 0 17.33 M2.96 9.19 C1.93 12.02, 0.9 14.85, 0 17.33" stroke="#717273" stroke-width="2" fill="none"></path></g></g><g stroke-linecap="round"><g transform="translate(129.66250283642677 307.74519182691057) rotate(179.70692025108528 0 8.666656494140625)"><path d="M0 0 C0 2.89, 0 14.44, 0 17.33 M0 0 C0 2.89, 0 14.44, 0 17.33" stroke="#717273" stroke-width="2" fill="none"></path></g><g transform="translate(129.66250283642677 307.74519182691057) rotate(179.70692025108528 0 8.666656494140625)"><path d="M-2.96 9.19 C-1.8 12.4, -0.63 15.61, 0 17.33 M-2.96 9.19 C-2.11 11.54, -1.25 13.9, 0 17.33" stroke="#717273" stroke-width="2" fill="none"></path></g><g transform="translate(129.66250283642677 307.74519182691057) rotate(179.70692025108528 0 8.666656494140625)"><path d="M2.96 9.19 C1.8 12.4, 0.63 15.61, 0 17.33 M2.96 9.19 C2.11 11.54, 1.25 13.9, 0 17.33" stroke="#717273" stroke-width="2" fill="none"></path></g></g><g stroke-linecap="round"><g transform="translate(171.6666259765625 419.6667175292969) rotate(0 0 8.666656494140625)"><path d="M0 0 C0 2.89, 0 14.44, 0 17.33 M0 0 C0 2.89, 0 14.44, 0 17.33" stroke="#717273" stroke-width="2" fill="none"></path></g><g transform="translate(171.6666259765625 419.6667175292969) rotate(0 0 8.666656494140625)"><path d="M-2.96 9.19 C-2.01 11.8, -1.06 14.41, 0 17.33 M-2.96 9.19 C-2.13 11.47, -1.3 13.76, 0 17.33" stroke="#717273" stroke-width="2" fill="none"></path></g><g transform="translate(171.6666259765625 419.6667175292969) rotate(0 0 8.666656494140625)"><path d="M2.96 9.19 C2.01 11.8, 1.06 14.41, 0 17.33 M2.96 9.19 C2.13 11.47, 1.3 13.76, 0 17.33" stroke="#717273" stroke-width="2" fill="none"></path></g></g><g stroke-linecap="round"><g transform="translate(119.66263366283391 307.79634366973727) rotate(179.70692025108528 0 8.666656494140625)"><path d="M0 0 C0 2.89, 0 14.44, 0 17.33 M0 0 C0 2.89, 0 14.44, 0 17.33" stroke="#717273" stroke-width="2" fill="none"></path></g><g transform="translate(119.66263366283391 307.79634366973727) rotate(179.70692025108528 0 8.666656494140625)"><path d="M-2.96 9.19 C-1.92 12.07, -0.87 14.95, 0 17.33 M-2.96 9.19 C-2.14 11.46, -1.31 13.74, 0 17.33" stroke="#717273" stroke-width="2" fill="none"></path></g><g transform="translate(119.66263366283391 307.79634366973727) rotate(179.70692025108528 0 8.666656494140625)"><path d="M2.96 9.19 C1.92 12.07, 0.87 14.95, 0 17.33 M2.96 9.19 C2.14 11.46, 1.31 13.74, 0 17.33" stroke="#717273" stroke-width="2" fill="none"></path></g></g><g stroke-linecap="round"><g transform="translate(182.6666259765625 419.6667175292969) rotate(0 0 8.666656494140625)"><path d="M0 0 C0 2.89, 0 14.44, 0 17.33 M0 0 C0 2.89, 0 14.44, 0 17.33" stroke="#717273" stroke-width="2" fill="none"></path></g><g transform="translate(182.6666259765625 419.6667175292969) rotate(0 0 8.666656494140625)"><path d="M-2.96 9.19 C-1.99 11.87, -1.01 14.55, 0 17.33 M-2.96 9.19 C-2.28 11.07, -1.59 12.96, 0 17.33" stroke="#717273" stroke-width="2" fill="none"></path></g><g transform="translate(182.6666259765625 419.6667175292969) rotate(0 0 8.666656494140625)"><path d="M2.96 9.19 C1.99 11.87, 1.01 14.55, 0 17.33 M2.96 9.19 C2.28 11.07, 1.59 12.96, 0 17.33" stroke="#717273" stroke-width="2" fill="none"></path></g></g><g stroke-linecap="round"><g transform="translate(108.66277757188203 307.8526106968471) rotate(179.70692025108528 0 8.666656494140625)"><path d="M0 0 C0 2.89, 0 14.44, 0 17.33 M0 0 C0 2.89, 0 14.44, 0 17.33" stroke="#717273" stroke-width="2" fill="none"></path></g><g transform="translate(108.66277757188203 307.8526106968471) rotate(179.70692025108528 0 8.666656494140625)"><path d="M-2.96 9.19 C-1.88 12.17, -0.8 15.14, 0 17.33 M-2.96 9.19 C-2.34 10.91, -1.71 12.62, 0 17.33" stroke="#717273" stroke-width="2" fill="none"></path></g><g transform="translate(108.66277757188203 307.8526106968471) rotate(179.70692025108528 0 8.666656494140625)"><path d="M2.96 9.19 C1.88 12.17, 0.8 15.14, 0 17.33 M2.96 9.19 C2.34 10.91, 1.71 12.62, 0 17.33" stroke="#717273" stroke-width="2" fill="none"></path></g></g><g transform="translate(99.49996948242188 277.3333435058594) rotate(0 46.5 13.5)"><text x="46.5" y="21" font-family="Helvetica, Segoe UI Emoji" font-size="20px" fill="#353a3f" text-anchor="middle" style="white-space: pre;" direction="ltr">8个小灯泡</text></g><g transform="translate(90.83328247070312 439.3333435058594) rotate(0 56.5 13.5)"><text x="56.5" y="21" font-family="Helvetica, Segoe UI Emoji" font-size="20px" fill="#353a3f" text-anchor="middle" style="white-space: pre;" direction="ltr">8个手动开关</text></g><g stroke-linecap="round"><g transform="translate(360.33331298828125 69.66665649414062) rotate(0 -34 0.0000152587890625)"><path d="M0 0 C-11.33 0, -56.67 0, -68 0 M0 0 C-11.33 0, -56.67 0, -68 0" stroke="#4b8747" stroke-width="4" fill="none"></path></g></g><g stroke-linecap="round"><g transform="translate(327.99993896484375 70.33334350585938) rotate(0 -19 121)"><path d="M0 0 C0 49.64, 0 99.28, 0 242 M0 0 C0 75.46, 0 150.92, 0 242 M0 242 C-8.93 242, -17.87 242, -38 242 M0 242 C-8.89 242, -17.78 242, -38 242" stroke="#4b8747" stroke-width="4" fill="none"></path></g></g><g stroke-linecap="round"><g transform="translate(359.33331298828125 125) rotate(0 -34.333343505859375 141.6666717529297)"><path d="M0 0 C-18.35 0, -36.69 0, -46 0 M0 0 C-15.51 0, -31.03 0, -46 0 M-46 0 C-46 61.24, -46 122.48, -46 283.33 M-46 0 C-46 94.24, -46 188.49, -46 283.33 M-46 283.33 C-52.93 283.33, -59.87 283.33, -68.67 283.33 M-46 283.33 C-52.53 283.33, -59.06 283.33, -68.67 283.33" stroke="#5586ed" stroke-width="4" fill="none"></path></g></g><g stroke-linecap="round"><g transform="translate(313.33331298828125 175) rotate(0 -12.66668701171875 0)"><path d="M0 0 C-8.52 0, -17.05 0, -25.33 0 M0 0 C-8.28 0, -16.56 0, -25.33 0" stroke="#5586ed" stroke-width="4" fill="none"></path></g></g><g stroke-linecap="round"><g transform="translate(362.33331298828125 179.66665649414062) rotate(0 -35 133.66668701171875)"><path d="M0 0 C-4.78 0, -9.56 0, -21.33 0 M0 0 C-5.72 0, -11.43 0, -21.33 0 M-21.33 0 C-21.33 77.91, -21.33 155.82, -21.33 267.33 M-21.33 0 C-21.33 89.18, -21.33 178.36, -21.33 267.33 M-21.33 267.33 C-37.02 267.33, -52.7 267.33, -70 267.33 M-21.33 267.33 C-35.01 267.33, -48.68 267.33, -70 267.33" stroke="#b6305a" stroke-width="4" fill="none"></path></g></g><g stroke-linecap="round"><g transform="translate(340.6666259765625 211) rotate(0 -23 -0.3333282470703125)"><path d="M0 0 C-16.41 -0.24, -32.82 -0.48, -46 -0.67 M0 0 C-17.78 -0.26, -35.57 -0.52, -46 -0.67" stroke="#b6305a" stroke-width="4" fill="none"></path></g></g><g stroke-linecap="round"><g transform="translate(549.9999389648438 450.3333435058594) rotate(0 17.000030517578125 0)"><path d="M0 0 C10.21 0, 20.41 0, 34 0 M0 0 C12.85 0, 25.69 0, 34 0" stroke="#b6305a" stroke-width="4" fill="none"></path></g></g><g stroke-linecap="round"><g transform="translate(550.3333129882812 431.0000305175781) rotate(0 17.000030517578125 0)"><path d="M0 0 C9.55 0, 19.1 0, 34 0 M0 0 C9.43 0, 18.87 0, 34 0" stroke="#5586ed" stroke-width="4" fill="none"></path></g></g><g stroke-linecap="round"><g transform="translate(550 413.0000305175781) rotate(0 17.000030517578125 0)"><path d="M0 0 C8.98 0, 17.96 0, 34 0 M0 0 C7.44 0, 14.88 0, 34 0" stroke="#4b8747" stroke-width="4" fill="none"></path></g></g><g transform="translate(589.6666259765625 400.9999694824219) rotate(0 33 10.5)"><text x="33" y="17" font-family="Helvetica, Segoe UI Emoji" font-size="16px" fill="#353a3f" text-anchor="middle" style="white-space: pre;" direction="ltr">控制总线</text></g><g transform="translate(588.9999389648438 420.6666564941406) rotate(0 33 10.5)"><text x="33" y="17" font-family="Helvetica, Segoe UI Emoji" font-size="16px" fill="#353a3f" text-anchor="middle" style="white-space: pre;" direction="ltr">地址总线</text></g><g transform="translate(589.9998779296875 440.3332824707031) rotate(0 33 10.5)"><text x="33" y="17" font-family="Helvetica, Segoe UI Emoji" font-size="16px" fill="#353a3f" text-anchor="middle" style="white-space: pre;" direction="ltr">数据总线</text></g></svg>