<svg version="1.1" xmlns="http://www.w3.org/2000/svg" viewBox="0 0 442.33326721191406 454" width="442.33326721191406" height="454">
  <g stroke-linecap="round" transform="translate(143.333251953125 226.6666717529297) rotate(0 91 32.5)"><path d="M16.25 0 L165.75 0 L172.86 1.02 L175.65 2.29 L179.71 6.35 L181.75 12.44 L182 48.75 L180.98 55.86 L179.71 58.65 L175.65 62.71 L172.86 63.98 L165.75 65 L16.25 65 L9.14 63.98 L4.06 60.94 L2.29 58.65 L0.25 52.56 L0.25 12.44 L2.29 6.35 L6.35 2.29 L9.14 1.02 L16.25 0" stroke="none" stroke-width="0" fill="#eeb23f"></path><path d="M16.25 0 M16.25 0 C66.05 0, 115.86 0, 165.75 0 M16.25 0 C49.29 0, 82.34 0, 165.75 0 M165.75 0 C176.58 0, 182 5.42, 182 16.25 M165.75 0 C176.58 0, 182 5.42, 182 16.25 M182 16.25 C182 22.88, 182 29.5, 182 48.75 M182 16.25 C182 26.71, 182 37.17, 182 48.75 M182 48.75 C182 59.58, 176.58 65, 165.75 65 M182 48.75 C182 59.58, 176.58 65, 165.75 65 M165.75 65 C124.27 65, 82.78 65, 16.25 65 M165.75 65 C122.82 65, 79.9 65, 16.25 65 M16.25 65 C5.42 65, 0 59.58, 0 48.75 M16.25 65 C5.42 65, 0 59.58, 0 48.75 M0 48.75 C0 37.22, 0 25.7, 0 16.25 M0 48.75 C0 41.26, 0 33.77, 0 16.25 M0 16.25 C0 5.42, 5.42 0, 16.25 0 M0 16.25 C0 5.42, 5.42 0, 16.25 0" stroke="transparent" stroke-width="1" fill="none"></path></g><g stroke-linecap="round" transform="translate(237.6666259765625 330) rotate(0 41 30)"><path d="M15 0 L67 0 L73.56 0.94 L78.25 3.75 L81.06 8.44 L82 15 L81.77 48.52 L81.06 51.56 L78.25 56.25 L73.56 59.06 L67 60 L15 60 L8.44 59.06 L3.75 56.25 L2.11 54.14 L0.23 48.52 L0.23 11.48 L2.11 5.86 L3.75 3.75 L8.44 0.94 L15 0" stroke="none" stroke-width="0" fill="#59b489"></path><path d="M15 0 M15 0 C29.86 0, 44.71 0, 67 0 M15 0 C26.67 0, 38.33 0, 67 0 M67 0 C77 0, 82 5, 82 15 M67 0 C77 0, 82 5, 82 15 M82 15 C82 21.67, 82 28.33, 82 45 M82 15 C82 22.26, 82 29.53, 82 45 M82 45 C82 55, 77 60, 67 60 M82 45 C82 55, 77 60, 67 60 M67 60 C54.72 60, 42.44 60, 15 60 M67 60 C46.69 60, 26.37 60, 15 60 M15 60 C5 60, 0 55, 0 45 M15 60 C5 60, 0 55, 0 45 M0 45 C0 33.92, 0 22.84, 0 15 M0 45 C0 37.82, 0 30.64, 0 15 M0 15 C0 5, 5 0, 15 0 M0 15 C0 5, 5 0, 15 0" stroke="transparent" stroke-width="1" fill="none"></path></g><g stroke-linecap="round" transform="translate(142.6666259765625 10.666671752929688) rotate(0 91 42.33332824707031)"><path d="M21.17 0 L160.83 0 L170.09 1.32 L173.73 2.98 L179.02 8.27 L181.67 16.21 L182 63.5 L181.67 68.46 L179.02 76.4 L173.73 81.69 L170.09 83.34 L160.83 84.67 L21.17 84.67 L16.21 84.34 L8.27 81.69 L2.98 76.4 L0.33 68.46 L0.33 16.21 L2.98 8.27 L8.27 2.98 L16.21 0.33 L21.17 0" stroke="none" stroke-width="0" fill="#53a7bc"></path><path d="M21.17 0 M21.17 0 C52.94 0, 84.71 0, 160.83 0 M21.17 0 C61.35 0, 101.53 0, 160.83 0 M160.83 0 C174.94 0, 182 7.06, 182 21.17 M160.83 0 C174.94 0, 182 7.06, 182 21.17 M182 21.17 C182 35.45, 182 49.74, 182 63.5 M182 21.17 C182 31.91, 182 42.65, 182 63.5 M182 63.5 C182 77.61, 174.94 84.67, 160.83 84.67 M182 63.5 C182 77.61, 174.94 84.67, 160.83 84.67 M160.83 84.67 C121.75 84.67, 82.66 84.67, 21.17 84.67 M160.83 84.67 C118.04 84.67, 75.24 84.67, 21.17 84.67 M21.17 84.67 C7.06 84.67, 0 77.61, 0 63.5 M21.17 84.67 C7.06 84.67, 0 77.61, 0 63.5 M0 63.5 C0 49.12, 0 34.73, 0 21.17 M0 63.5 C0 49.76, 0 36.02, 0 21.17 M0 21.17 C0 7.06, 7.06 0, 21.17 0 M0 21.17 C0 7.06, 7.06 0, 21.17 0" stroke="transparent" stroke-width="1" fill="none"></path></g><g stroke-linecap="round" transform="translate(142.6666259765625 120) rotate(0 40 32.66667175292969)"><path d="M16.33 0 L67.49 0.26 L70.81 1.02 L75.92 4.08 L78.98 9.19 L80 16.33 L79.74 52.83 L78.98 56.15 L75.92 61.25 L70.81 64.31 L63.67 65.33 L12.51 65.08 L9.19 64.31 L4.08 61.25 L1.02 56.15 L0.26 52.83 L0.26 12.51 L2.3 6.38 L6.38 2.3 L9.19 1.02 L16.33 0" stroke="none" stroke-width="0" fill="#59b489"></path><path d="M16.33 0 M16.33 0 C32.93 0, 49.52 0, 63.67 0 M16.33 0 C26.56 0, 36.79 0, 63.67 0 M63.67 0 C74.56 0, 80 5.44, 80 16.33 M63.67 0 C74.56 0, 80 5.44, 80 16.33 M80 16.33 C80 25.88, 80 35.42, 80 49 M80 16.33 C80 23.58, 80 30.83, 80 49 M80 49 C80 59.89, 74.56 65.33, 63.67 65.33 M80 49 C80 59.89, 74.56 65.33, 63.67 65.33 M63.67 65.33 C51.67 65.33, 39.68 65.33, 16.33 65.33 M63.67 65.33 C52.63 65.33, 41.59 65.33, 16.33 65.33 M16.33 65.33 C5.44 65.33, 0 59.89, 0 49 M16.33 65.33 C5.44 65.33, 0 59.89, 0 49 M0 49 C0 40.61, 0 32.23, 0 16.33 M0 49 C0 36.2, 0 23.4, 0 16.33 M0 16.33 C0 5.44, 5.44 0, 16.33 0 M0 16.33 C0 5.44, 5.44 0, 16.33 0" stroke="transparent" stroke-width="1" fill="none"></path></g><g stroke-linecap="round" transform="translate(143.333251953125 330) rotate(0 40 29.5)"><path d="M14.75 0 L65.25 0 L71.7 0.92 L76.31 3.69 L79.08 8.3 L80 14.75 L79.77 47.71 L79.08 50.7 L76.31 55.31 L71.7 58.08 L65.25 59 L14.75 59 L8.3 58.08 L3.69 55.31 L0.92 50.7 L0.23 47.71 L0.23 11.29 L2.07 5.76 L3.69 3.69 L8.3 0.92 L14.75 0" stroke="none" stroke-width="0" fill="#478bdf"></path><path d="M14.75 0 M14.75 0 C33.78 0, 52.81 0, 65.25 0 M14.75 0 C30.38 0, 46 0, 65.25 0 M65.25 0 C75.08 0, 80 4.92, 80 14.75 M65.25 0 C75.08 0, 80 4.92, 80 14.75 M80 14.75 C80 22.51, 80 30.28, 80 44.25 M80 14.75 C80 23.32, 80 31.9, 80 44.25 M80 44.25 C80 54.08, 75.08 59, 65.25 59 M80 44.25 C80 54.08, 75.08 59, 65.25 59 M65.25 59 C51.73 59, 38.2 59, 14.75 59 M65.25 59 C50.23 59, 35.22 59, 14.75 59 M14.75 59 C4.92 59, 0 54.08, 0 44.25 M14.75 59 C4.92 59, 0 54.08, 0 44.25 M0 44.25 C0 37.58, 0 30.92, 0 14.75 M0 44.25 C0 36.62, 0 28.98, 0 14.75 M0 14.75 C0 4.92, 4.92 0, 14.75 0 M0 14.75 C0 4.92, 4.92 0, 14.75 0" stroke="transparent" stroke-width="1" fill="none"></path></g><g stroke-linecap="round" transform="translate(244.6666259765625 120) rotate(0 40 32.66667175292969)"><path d="M16.33 0 L67.49 0.26 L70.81 1.02 L75.92 4.08 L78.98 9.19 L80 16.33 L79.74 52.83 L78.98 56.15 L75.92 61.25 L70.81 64.31 L63.67 65.33 L12.51 65.08 L9.19 64.31 L4.08 61.25 L1.02 56.15 L0.26 52.83 L0.26 12.51 L2.3 6.38 L6.38 2.3 L9.19 1.02 L16.33 0" stroke="none" stroke-width="0" fill="#59b489"></path><path d="M16.33 0 M16.33 0 C31.78 0, 47.23 0, 63.67 0 M16.33 0 C32.45 0, 48.56 0, 63.67 0 M63.67 0 C74.56 0, 80 5.44, 80 16.33 M63.67 0 C74.56 0, 80 5.44, 80 16.33 M80 16.33 C80 23.69, 80 31.05, 80 49 M80 16.33 C80 26.23, 80 36.12, 80 49 M80 49 C80 59.89, 74.56 65.33, 63.67 65.33 M80 49 C80 59.89, 74.56 65.33, 63.67 65.33 M63.67 65.33 C51.64 65.33, 39.62 65.33, 16.33 65.33 M63.67 65.33 C47.34 65.33, 31.01 65.33, 16.33 65.33 M16.33 65.33 C5.44 65.33, 0 59.89, 0 49 M16.33 65.33 C5.44 65.33, 0 59.89, 0 49 M0 49 C0 36.21, 0 23.42, 0 16.33 M0 49 C0 37.5, 0 26, 0 16.33 M0 16.33 C0 5.44, 5.44 0, 16.33 0 M0 16.33 C0 5.44, 5.44 0, 16.33 0" stroke="transparent" stroke-width="1" fill="none"></path></g><g stroke-linecap="round"><g transform="translate(165.58483373901754 118.00001525878906) rotate(0 -22.792447387086895 -53.333335876464844)"><path d="M0 0 C-7.6 -17.78, -37.99 -88.89, -45.58 -106.67 M0 0 C-7.6 -17.78, -37.99 -88.89, -45.58 -106.67" stroke="transparent" stroke-width="1" fill="none"></path></g><g transform="translate(165.58483373901754 118.00001525878906) rotate(0 -22.792447387086895 -53.333335876464844)"><path d="M-25.07 -84.78 C-33.02 -93.26, -40.97 -101.74, -45.58 -106.67 M-25.07 -84.78 C-30.47 -90.54, -35.87 -96.3, -45.58 -106.67" stroke="transparent" stroke-width="1" fill="none"></path></g><g transform="translate(165.58483373901754 118.00001525878906) rotate(0 -22.792447387086895 -53.333335876464844)"><path d="M-43.94 -76.71 C-44.58 -88.32, -45.22 -99.93, -45.58 -106.67 M-43.94 -76.71 C-44.37 -84.59, -44.81 -92.48, -45.58 -106.67" stroke="transparent" stroke-width="1" fill="none"></path></g></g><g stroke-linecap="round"><g transform="translate(181.72879298837063 193.00001525878906) rotate(0 -0.02122150013923374 13.83331298828125)"><path d="M0 0 C-0.01 4.61, -0.04 23.06, -0.04 27.67 M0 0 C-0.01 4.61, -0.04 23.06, -0.04 27.67" stroke="#000000" stroke-width="2" fill="none"></path></g><g transform="translate(181.72879298837063 193.00001525878906) rotate(0 -0.02122150013923374 13.83331298828125)"><path d="M-0.04 27.67 L-5.87 15.12 L5.82 15.14 L-0.04 27.67" stroke="none" stroke-width="0" fill="#000000" fill-rule="evenodd"></path><path d="M-0.04 27.67 C-1.38 24.79, -2.72 21.91, -5.87 15.12 M-0.04 27.67 C-2.02 23.4, -4.01 19.13, -5.87 15.12 M-5.87 15.12 C-3.35 15.12, -0.84 15.13, 5.82 15.14 M-5.87 15.12 C-1.7 15.13, 2.47 15.13, 5.82 15.14 M5.82 15.14 C3.75 19.57, 1.68 23.99, -0.04 27.67 M5.82 15.14 C4.03 18.96, 2.25 22.78, -0.04 27.67 M-0.04 27.67 C-0.04 27.67, -0.04 27.67, -0.04 27.67 M-0.04 27.67 C-0.04 27.67, -0.04 27.67, -0.04 27.67" stroke="#000000" stroke-width="2" fill="none"></path></g></g><g stroke-linecap="round"><g transform="translate(282.0727263076559 192.66671752929688) rotate(0 0.13431005506089377 14.666625976562493)"><path d="M0 0 C0.04 4.89, 0.22 24.44, 0.27 29.33 M0 0 C0.04 4.89, 0.22 24.44, 0.27 29.33" stroke="#000000" stroke-width="2" fill="none"></path></g><g transform="translate(282.0727263076559 192.66671752929688) rotate(0 0.13431005506089377 14.666625976562493)"><path d="M0.27 29.33 L-6.05 16.1 L6.35 15.98 L0.27 29.33" stroke="none" stroke-width="0" fill="#000000" fill-rule="evenodd"></path><path d="M0.27 29.33 C-1.59 25.44, -3.44 21.56, -6.05 16.1 M0.27 29.33 C-1.44 25.75, -3.16 22.16, -6.05 16.1 M-6.05 16.1 C-3.42 16.07, -0.79 16.05, 6.35 15.98 M-6.05 16.1 C-3.57 16.07, -1.08 16.05, 6.35 15.98 M6.35 15.98 C4.78 19.42, 3.22 22.85, 0.27 29.33 M6.35 15.98 C4.72 19.55, 3.1 23.11, 0.27 29.33 M0.27 29.33 C0.27 29.33, 0.27 29.33, 0.27 29.33 M0.27 29.33 C0.27 29.33, 0.27 29.33, 0.27 29.33" stroke="#000000" stroke-width="2" fill="none"></path></g></g><g stroke-linecap="round"><g transform="translate(181.1666259765625 295.66673278808594) rotate(0 0 14.33331298828125)"><path d="M0 0 C0 4.78, 0 23.89, 0 28.67 M0 0 C0 4.78, 0 23.89, 0 28.67" stroke="#000000" stroke-width="2" fill="none"></path></g><g transform="translate(181.1666259765625 295.66673278808594) rotate(0 0 14.33331298828125)"><path d="M0 28.67 L-6.06 15.68 L6.06 15.68 L0 28.67" stroke="none" stroke-width="0" fill="#000000" fill-rule="evenodd"></path><path d="M0 28.67 C-2.13 24.1, -4.26 19.53, -6.06 15.68 M0 28.67 C-1.6 25.23, -3.2 21.8, -6.06 15.68 M-6.06 15.68 C-3.08 15.68, -0.1 15.68, 6.06 15.68 M-6.06 15.68 C-3.19 15.68, -0.32 15.68, 6.06 15.68 M6.06 15.68 C4.13 19.8, 2.21 23.93, 0 28.67 M6.06 15.68 C4.08 19.92, 2.1 24.16, 0 28.67 M0 28.67 C0 28.67, 0 28.67, 0 28.67 M0 28.67 C0 28.67, 0 28.67, 0 28.67" stroke="#000000" stroke-width="2" fill="none"></path></g></g><g stroke-linecap="round"><g transform="translate(278.6666259765625 294.66673278808594) rotate(0 0 14.33331298828125)"><path d="M0 0 C0 4.78, 0 23.89, 0 28.67 M0 0 C0 4.78, 0 23.89, 0 28.67" stroke="#000000" stroke-width="2" fill="none"></path></g><g transform="translate(278.6666259765625 294.66673278808594) rotate(0 0 14.33331298828125)"><path d="M0 28.67 L-6.06 15.68 L6.06 15.68 L0 28.67" stroke="none" stroke-width="0" fill="#000000" fill-rule="evenodd"></path><path d="M0 28.67 C-2 24.37, -4 20.08, -6.06 15.68 M0 28.67 C-1.37 25.72, -2.75 22.77, -6.06 15.68 M-6.06 15.68 C-2.76 15.68, 0.53 15.68, 6.06 15.68 M-6.06 15.68 C-3.61 15.68, -1.15 15.68, 6.06 15.68 M6.06 15.68 C4.01 20.06, 1.97 24.45, 0 28.67 M6.06 15.68 C4.47 19.08, 2.88 22.49, 0 28.67 M0 28.67 C0 28.67, 0 28.67, 0 28.67 M0 28.67 C0 28.67, 0 28.67, 0 28.67" stroke="#000000" stroke-width="2" fill="none"></path></g></g><g stroke-linecap="round" transform="translate(138.33328247070312 112.33332824707031) rotate(0 96.33334350585938 39.333343505859375)"><path d="M0 0 C46.28 0, 92.56 0, 192.67 0 M192.67 0 C192.67 25.12, 192.67 50.23, 192.67 78.67 M192.67 78.67 C145.81 78.67, 98.96 78.67, 0 78.67 M0 78.67 C0 60.13, 0 41.6, 0 0" stroke="#000000" stroke-width="1.5" fill="none" stroke-dasharray="8 9"></path></g><g stroke-linecap="round"><g transform="translate(128 151.3333282470703) rotate(0 -17 0)"><path d="M0 0 C-7.63 0, -15.26 0, -34 0 M0 0 C-11.5 0, -22.99 0, -34 0" stroke="#000000" stroke-width="2" fill="none"></path></g></g><g transform="translate(174.6666259765625 226.6666717529297) rotate(0 7 13.5)"><text x="0" y="21" font-family="Virgil, Segoe UI Emoji" font-size="20px" fill="#ffffff" text-anchor="start" style="white-space: pre;" direction="ltr">A</text></g><g transform="translate(276.6666259765625 226.6666717529297) rotate(0 6 13.5)"><text x="0" y="21" font-family="Virgil, Segoe UI Emoji" font-size="20px" fill="#ffffff" text-anchor="start" style="white-space: pre;" direction="ltr">B</text></g><g transform="translate(148.333251953125 245.6666717529297) rotate(0 86 13.5)"><text x="86" y="21" font-family="Virgil, Segoe UI Emoji" font-size="20px" fill="#ffffff" text-anchor="middle" style="white-space: pre;" direction="ltr">ALU</text></g><g transform="translate(10 120) rotate(0 50 26.5)"><text x="0" y="21.5" font-family="Virgil, Segoe UI Emoji" font-size="20px" fill="#000000" text-anchor="start" style="white-space: pre;" direction="ltr">暂存数据的</text><text x="0" y="48" font-family="Virgil, Segoe UI Emoji" font-size="20px" fill="#000000" text-anchor="start" style="white-space: pre;" direction="ltr">   寄存器</text></g><g stroke-linecap="round" transform="translate(233.99993896484375 326.33335876464844) rotate(0 44.833343505859375 33.999969482421875)"><path d="M0 0 C29.15 0, 58.3 0, 89.67 0 M89.67 0 C89.67 16.58, 89.67 33.15, 89.67 68 M89.67 68 C54.22 68, 18.76 68, 0 68 M0 68 C0 41.82, 0 15.64, 0 0" stroke="#000000" stroke-width="1.5" fill="none" stroke-dasharray="8 9"></path></g><g transform="translate(174.6666259765625 137.8333282470703) rotate(0 6.5 13.5)"><text x="0" y="21" font-family="Virgil, Segoe UI Emoji" font-size="20px" fill="#ffffff" text-anchor="start" style="white-space: pre;" direction="ltr">X</text></g><g transform="translate(278.6666259765625 137.8333282470703) rotate(0 6 13.5)"><text x="0" y="21" font-family="Virgil, Segoe UI Emoji" font-size="20px" fill="#ffffff" text-anchor="start" style="white-space: pre;" direction="ltr">Y</text></g><g transform="translate(147.6666259765625 39.5) rotate(0 86 13.5)"><text x="86" y="21" font-family="Virgil, Segoe UI Emoji" font-size="20px" fill="#ffffff" text-anchor="middle" style="white-space: pre;" direction="ltr">通用寄存器</text></g><g stroke-linecap="round"><g transform="translate(348.16664123535156 52.666664123535156) rotate(0 16.933637830946168 0.013750648494109896)"><path d="M0 0 C5.64 0, 28.22 0.02, 33.87 0.03 M0 0 C5.64 0, 28.22 0.02, 33.87 0.03" stroke="#000000" stroke-width="2" fill="none"></path></g><g transform="translate(348.16664123535156 52.666664123535156) rotate(0 16.933637830946168 0.013750648494109896)"><path d="M33.87 0.03 L20.27 6.36 L20.28 -6.32 L33.87 0.03" stroke="none" stroke-width="0" fill="#000000" fill-rule="evenodd"></path><path d="M33.87 0.03 C28.68 2.44, 23.49 4.86, 20.27 6.36 M33.87 0.03 C28.48 2.53, 23.1 5.04, 20.27 6.36 M20.27 6.36 C20.27 3.29, 20.27 0.23, 20.28 -6.32 M20.27 6.36 C20.27 2.84, 20.27 -0.68, 20.28 -6.32 M20.28 -6.32 C23.08 -5.01, 25.89 -3.7, 33.87 0.03 M20.28 -6.32 C24.26 -4.46, 28.24 -2.6, 33.87 0.03 M33.87 0.03 C33.87 0.03, 33.87 0.03, 33.87 0.03 M33.87 0.03 C33.87 0.03, 33.87 0.03, 33.87 0.03" stroke="#000000" stroke-width="2" fill="none"></path></g></g><g stroke-linecap="round"><g transform="translate(332.3332519531249 53) rotate(180 16 0)"><path d="M0 0 C5.33 0, 26.67 0, 32 0 M0 0 C5.33 0, 26.67 0, 32 0" stroke="#000000" stroke-width="2" fill="none"></path></g><g transform="translate(332.3332519531249 53) rotate(180 16 0)"><path d="M32 0 L18.41 6.34 L18.41 -6.34 L32 0" stroke="none" stroke-width="0" fill="#000000" fill-rule="evenodd"></path><path d="M32 0 C27.77 1.97, 23.54 3.94, 18.41 6.34 M32 0 C26.91 2.37, 21.82 4.75, 18.41 6.34 M18.41 6.34 C18.41 3.13, 18.41 -0.08, 18.41 -6.34 M18.41 6.34 C18.41 3.2, 18.41 0.06, 18.41 -6.34 M18.41 -6.34 C21.27 -5, 24.14 -3.67, 32 0 M18.41 -6.34 C21.76 -4.78, 25.11 -3.21, 32 0 M32 0 C32 0, 32 0, 32 0 M32 0 C32 0, 32 0, 32 0" stroke="#000000" stroke-width="2" fill="none"></path></g></g><g stroke-linecap="round"><g transform="translate(340.73159695430525 152.0117103650191) rotate(178.87666326623557 21.41570782768906 0.10595961055797076)"><path d="M0 0 C7.14 0.04, 35.69 0.18, 42.83 0.21 M0 0 C7.14 0.04, 35.69 0.18, 42.83 0.21" stroke="#000000" stroke-width="2" fill="none"></path></g><g transform="translate(340.73159695430525 152.0117103650191) rotate(178.87666326623557 21.41570782768906 0.10595961055797076)"><path d="M42.83 0.21 L29.21 6.48 L29.27 -6.19 L42.83 0.21" stroke="none" stroke-width="0" fill="#000000" fill-rule="evenodd"></path><path d="M42.83 0.21 C38.72 2.1, 34.61 4, 29.21 6.48 M42.83 0.21 C37.93 2.47, 33.03 4.72, 29.21 6.48 M29.21 6.48 C29.23 1.78, 29.25 -2.93, 29.27 -6.19 M29.21 6.48 C29.22 2.85, 29.24 -0.79, 29.27 -6.19 M29.27 -6.19 C33.48 -4.21, 37.69 -2.22, 42.83 0.21 M29.27 -6.19 C32.98 -4.44, 36.69 -2.69, 42.83 0.21 M42.83 0.21 C42.83 0.21, 42.83 0.21, 42.83 0.21 M42.83 0.21 C42.83 0.21, 42.83 0.21, 42.83 0.21" stroke="#000000" stroke-width="2" fill="none"></path></g></g><g stroke-linecap="round"><g transform="translate(334.9999694824219 359.2291475671307) rotate(0 22.547617861901244 0.052082710575263036)"><path d="M0 0 C7.52 0.02, 37.58 0.09, 45.1 0.1 M0 0 C7.52 0.02, 37.58 0.09, 45.1 0.1" stroke="#000000" stroke-width="2" fill="none"></path></g><g transform="translate(334.9999694824219 359.2291475671307) rotate(0 22.547617861901244 0.052082710575263036)"><path d="M45.1 0.1 L31.49 6.41 L31.52 -6.27 L45.1 0.1" stroke="none" stroke-width="0" fill="#000000" fill-rule="evenodd"></path><path d="M45.1 0.1 C40.71 2.14, 36.33 4.17, 31.49 6.41 M45.1 0.1 C42.02 1.53, 38.94 2.96, 31.49 6.41 M31.49 6.41 C31.5 2.27, 31.51 -1.87, 31.52 -6.27 M31.49 6.41 C31.49 3.15, 31.5 -0.1, 31.52 -6.27 M31.52 -6.27 C36.45 -3.95, 41.38 -1.64, 45.1 0.1 M31.52 -6.27 C36.73 -3.82, 41.95 -1.37, 45.1 0.1 M45.1 0.1 C45.1 0.1, 45.1 0.1, 45.1 0.1 M45.1 0.1 C45.1 0.1, 45.1 0.1, 45.1 0.1" stroke="#000000" stroke-width="2" fill="none"></path></g></g><g stroke-linecap="round" transform="translate(389.33326721191406 10) rotate(0 21.5 217)"><path d="M10.75 0 L32.25 0 L36.95 0.67 L40.31 2.69 L42.33 6.05 L43 10.75 L43 423.25 L42.33 427.95 L40.31 431.31 L36.95 433.33 L32.25 434 L10.75 434 L6.05 433.33 L2.69 431.31 L0.67 427.95 L0 423.25 L0 10.75 L0.67 6.05 L2.69 2.69 L6.05 0.67 L10.75 0" stroke="none" stroke-width="0" fill="#d35680"></path><path d="M10.75 0 M10.75 0 C17.34 0, 23.92 0, 32.25 0 M10.75 0 C17.37 0, 23.99 0, 32.25 0 M32.25 0 C39.42 0, 43 3.58, 43 10.75 M32.25 0 C39.42 0, 43 3.58, 43 10.75 M43 10.75 C43 109.47, 43 208.18, 43 423.25 M43 10.75 C43 161.23, 43 311.72, 43 423.25 M43 423.25 C43 430.42, 39.42 434, 32.25 434 M43 423.25 C43 430.42, 39.42 434, 32.25 434 M32.25 434 C26.11 434, 19.96 434, 10.75 434 M32.25 434 C23.99 434, 15.73 434, 10.75 434 M10.75 434 C3.58 434, 0 430.42, 0 423.25 M10.75 434 C3.58 434, 0 430.42, 0 423.25 M0 423.25 C0 317.67, 0 212.09, 0 10.75 M0 423.25 C0 295.48, 0 167.71, 0 10.75 M0 10.75 C0 3.58, 3.58 0, 10.75 0 M0 10.75 C0 3.58, 3.58 0, 10.75 0" stroke="transparent" stroke-width="1" fill="none"></path></g><g transform="translate(394.33326721191406 173) rotate(0 16.5 54)"><text x="16.5" y="21" font-family="Virgil, Segoe UI Emoji" font-size="20px" fill="#ffffff" text-anchor="middle" style="white-space: pre;" direction="ltr">内</text><text x="16.5" y="48" font-family="Virgil, Segoe UI Emoji" font-size="20px" fill="#ffffff" text-anchor="middle" style="white-space: pre;" direction="ltr">部</text><text x="16.5" y="75" font-family="Virgil, Segoe UI Emoji" font-size="20px" fill="#ffffff" text-anchor="middle" style="white-space: pre;" direction="ltr">总</text><text x="16.5" y="102" font-family="Virgil, Segoe UI Emoji" font-size="20px" fill="#ffffff" text-anchor="middle" style="white-space: pre;" direction="ltr">线</text></g><g transform="translate(148.333251953125 346) rotate(0 35 13.5)"><text x="35" y="21" font-family="Virgil, Segoe UI Emoji" font-size="20px" fill="#ffffff" text-anchor="middle" style="white-space: pre;" direction="ltr">F</text></g><g transform="translate(242.6666259765625 346.5) rotate(0 36 13.5)"><text x="36" y="21" font-family="Virgil, Segoe UI Emoji" font-size="20px" fill="#ffffff" text-anchor="middle" style="white-space: pre;" direction="ltr">Z</text></g><g stroke-linecap="round"><g transform="translate(63.583351135253906 181.33333587646484) rotate(0 108.33331298828125 124.33332824707036)"><path d="M0 0 C-0.17 63.7, -0.34 127.41, -0.67 248.67 M0 0 C-0.24 89.11, -0.48 178.22, -0.67 248.67 M-0.67 248.67 C77.39 248.67, 155.45 248.67, 216.67 248.67 M-0.67 248.67 C70.46 248.67, 141.59 248.67, 216.67 248.67 M216.67 248.67 C216.87 238.9, 217.08 229.12, 217.33 217.33 M216.67 248.67 C216.9 237.73, 217.13 226.79, 217.33 217.33" stroke="#000000" stroke-width="2" fill="none"></path></g></g></svg>