<svg version="1.1" xmlns="http://www.w3.org/2000/svg" viewBox="0 0 521.9999694824219 564.0000305175781" width="521.9999694824219" height="564.0000305175781">
  <g stroke-linecap="round" transform="translate(10 10) rotate(0 250.99998474121094 272.00001525878906)"><path d="M0 0 C101.54 0, 203.08 0, 502 0 M0 0 C153.69 0, 307.39 0, 502 0 M502 0 C502 151.77, 502 303.55, 502 544 M502 0 C502 202.33, 502 404.65, 502 544 M502 544 C365.88 544, 229.76 544, 0 544 M502 544 C323.42 544, 144.84 544, 0 544 M0 544 C0 411.63, 0 279.25, 0 0 M0 544 C0 386.84, 0 229.69, 0 0" stroke="#367083" stroke-width="2" fill="none"></path></g><g stroke-linecap="round" transform="translate(116.66664123535156 42.00001525878906) rotate(0 67.5 17.833328247070312)"><path d="M8.92 0 L126.08 0 L129.98 0.56 L132.77 2.23 L134.44 5.02 L135 8.92 L134.44 30.65 L132.77 33.44 L129.98 35.11 L126.08 35.67 L8.92 35.67 L5.02 35.11 L2.23 33.44 L0.56 30.65 L0 8.92 L0.56 5.02 L2.23 2.23 L5.02 0.56 L8.92 0" stroke="none" stroke-width="0" fill="#59b489"></path><path d="M8.92 0 M8.92 0 C38.56 0, 68.2 0, 126.08 0 M8.92 0 C51.59 0, 94.26 0, 126.08 0 M126.08 0 C132.03 0, 135 2.97, 135 8.92 M126.08 0 C132.03 0, 135 2.97, 135 8.92 M135 8.92 C135 12.74, 135 16.56, 135 26.75 M135 8.92 C135 14.97, 135 21.03, 135 26.75 M135 26.75 C135 32.69, 132.03 35.67, 126.08 35.67 M135 26.75 C135 32.69, 132.03 35.67, 126.08 35.67 M126.08 35.67 C94.09 35.67, 62.1 35.67, 8.92 35.67 M126.08 35.67 C88.79 35.67, 51.51 35.67, 8.92 35.67 M8.92 35.67 C2.97 35.67, 0 32.69, 0 26.75 M8.92 35.67 C2.97 35.67, 0 32.69, 0 26.75 M0 26.75 C0 20.99, 0 15.23, 0 8.92 M0 26.75 C0 22.02, 0 17.3, 0 8.92 M0 8.92 C0 2.97, 2.97 0, 8.92 0 M0 8.92 C0 2.97, 2.97 0, 8.92 0" stroke="transparent" stroke-width="1" fill="none"></path></g><g stroke-linecap="round" transform="translate(116.99995422363281 82.33334350585938) rotate(0 67.5 16.5)"><path d="M8.25 0 L126.75 0 L130.36 0.52 L132.94 2.06 L134.48 4.64 L135 8.25 L134.48 28.36 L132.94 30.94 L130.36 32.48 L126.75 33 L8.25 33 L4.64 32.48 L2.06 30.94 L0.52 28.36 L0 8.25 L0.52 4.64 L2.06 2.06 L4.64 0.52 L8.25 0" stroke="none" stroke-width="0" fill="#59b489"></path><path d="M8.25 0 M8.25 0 C42.89 0, 77.53 0, 126.75 0 M8.25 0 C43.53 0, 78.81 0, 126.75 0 M126.75 0 C132.25 0, 135 2.75, 135 8.25 M126.75 0 C132.25 0, 135 2.75, 135 8.25 M135 8.25 C135 13.94, 135 19.64, 135 24.75 M135 8.25 C135 11.58, 135 14.9, 135 24.75 M135 24.75 C135 30.25, 132.25 33, 126.75 33 M135 24.75 C135 30.25, 132.25 33, 126.75 33 M126.75 33 C95.38 33, 64 33, 8.25 33 M126.75 33 C92.27 33, 57.8 33, 8.25 33 M8.25 33 C2.75 33, 0 30.25, 0 24.75 M8.25 33 C2.75 33, 0 30.25, 0 24.75 M0 24.75 C0 19.77, 0 14.79, 0 8.25 M0 24.75 C0 18.35, 0 11.95, 0 8.25 M0 8.25 C0 2.75, 2.75 0, 8.25 0 M0 8.25 C0 2.75, 2.75 0, 8.25 0" stroke="transparent" stroke-width="1" fill="none"></path></g><g stroke-linecap="round" transform="translate(116.99995422363281 118.33334350585938) rotate(0 67.5 16.5)"><path d="M8.25 0 L126.75 0 L130.36 0.52 L132.94 2.06 L134.48 4.64 L135 8.25 L134.48 28.36 L132.94 30.94 L130.36 32.48 L126.75 33 L8.25 33 L4.64 32.48 L2.06 30.94 L0.52 28.36 L0 8.25 L0.52 4.64 L2.06 2.06 L4.64 0.52 L8.25 0" stroke="none" stroke-width="0" fill="#59b489"></path><path d="M8.25 0 M8.25 0 C50.67 0, 93.1 0, 126.75 0 M8.25 0 C32.16 0, 56.07 0, 126.75 0 M126.75 0 C132.25 0, 135 2.75, 135 8.25 M126.75 0 C132.25 0, 135 2.75, 135 8.25 M135 8.25 C135 12.23, 135 16.22, 135 24.75 M135 8.25 C135 14.15, 135 20.04, 135 24.75 M135 24.75 C135 30.25, 132.25 33, 126.75 33 M135 24.75 C135 30.25, 132.25 33, 126.75 33 M126.75 33 C87.27 33, 47.8 33, 8.25 33 M126.75 33 C90.37 33, 53.99 33, 8.25 33 M8.25 33 C2.75 33, 0 30.25, 0 24.75 M8.25 33 C2.75 33, 0 30.25, 0 24.75 M0 24.75 C0 20.04, 0 15.33, 0 8.25 M0 24.75 C0 19.15, 0 13.54, 0 8.25 M0 8.25 C0 2.75, 2.75 0, 8.25 0 M0 8.25 C0 2.75, 2.75 0, 8.25 0" stroke="transparent" stroke-width="1" fill="none"></path></g><g stroke-linecap="round" transform="translate(116.99995422363281 154.33334350585938) rotate(0 67.5 16.5)"><path d="M8.25 0 L126.75 0 L130.36 0.52 L132.94 2.06 L134.48 4.64 L135 8.25 L134.48 28.36 L132.94 30.94 L130.36 32.48 L126.75 33 L8.25 33 L4.64 32.48 L2.06 30.94 L0.52 28.36 L0 8.25 L0.52 4.64 L2.06 2.06 L4.64 0.52 L8.25 0" stroke="none" stroke-width="0" fill="#59b489"></path><path d="M8.25 0 M8.25 0 C43.74 0, 79.23 0, 126.75 0 M8.25 0 C49.18 0, 90.11 0, 126.75 0 M126.75 0 C132.25 0, 135 2.75, 135 8.25 M126.75 0 C132.25 0, 135 2.75, 135 8.25 M135 8.25 C135 12.97, 135 17.69, 135 24.75 M135 8.25 C135 13.89, 135 19.53, 135 24.75 M135 24.75 C135 30.25, 132.25 33, 126.75 33 M135 24.75 C135 30.25, 132.25 33, 126.75 33 M126.75 33 C79.84 33, 32.93 33, 8.25 33 M126.75 33 C82.68 33, 38.6 33, 8.25 33 M8.25 33 C2.75 33, 0 30.25, 0 24.75 M8.25 33 C2.75 33, 0 30.25, 0 24.75 M0 24.75 C0 19.17, 0 13.59, 0 8.25 M0 24.75 C0 18.9, 0 13.04, 0 8.25 M0 8.25 C0 2.75, 2.75 0, 8.25 0 M0 8.25 C0 2.75, 2.75 0, 8.25 0" stroke="transparent" stroke-width="1" fill="none"></path></g><g stroke-linecap="round" transform="translate(116.99995422363281 190.33334350585938) rotate(0 67.5 16.5)"><path d="M8.25 0 L126.75 0 L130.36 0.52 L132.94 2.06 L134.48 4.64 L135 8.25 L134.48 28.36 L132.94 30.94 L130.36 32.48 L126.75 33 L8.25 33 L4.64 32.48 L2.06 30.94 L0.52 28.36 L0 8.25 L0.52 4.64 L2.06 2.06 L4.64 0.52 L8.25 0" stroke="none" stroke-width="0" fill="#59b489"></path><path d="M8.25 0 M8.25 0 C55.48 0, 102.7 0, 126.75 0 M8.25 0 C41.57 0, 74.89 0, 126.75 0 M126.75 0 C132.25 0, 135 2.75, 135 8.25 M126.75 0 C132.25 0, 135 2.75, 135 8.25 M135 8.25 C135 12.06, 135 15.88, 135 24.75 M135 8.25 C135 12.74, 135 17.23, 135 24.75 M135 24.75 C135 30.25, 132.25 33, 126.75 33 M135 24.75 C135 30.25, 132.25 33, 126.75 33 M126.75 33 C80.29 33, 33.82 33, 8.25 33 M126.75 33 C98.09 33, 69.43 33, 8.25 33 M8.25 33 C2.75 33, 0 30.25, 0 24.75 M8.25 33 C2.75 33, 0 30.25, 0 24.75 M0 24.75 C0 19.59, 0 14.44, 0 8.25 M0 24.75 C0 21.16, 0 17.57, 0 8.25 M0 8.25 C0 2.75, 2.75 0, 8.25 0 M0 8.25 C0 2.75, 2.75 0, 8.25 0" stroke="transparent" stroke-width="1" fill="none"></path></g><g stroke-linecap="round" transform="translate(117.33326721191406 334.3333435058594) rotate(0 67.5 16.5)"><path d="M8.25 0 L126.75 0 L130.36 0.52 L132.94 2.06 L134.48 4.64 L135 8.25 L134.48 28.36 L132.94 30.94 L130.36 32.48 L126.75 33 L8.25 33 L4.64 32.48 L2.06 30.94 L0.52 28.36 L0 8.25 L0.52 4.64 L2.06 2.06 L4.64 0.52 L8.25 0" stroke="none" stroke-width="0" fill="#59b489"></path><path d="M8.25 0 M8.25 0 C48.3 0, 88.35 0, 126.75 0 M8.25 0 C43.04 0, 77.84 0, 126.75 0 M126.75 0 C132.25 0, 135 2.75, 135 8.25 M126.75 0 C132.25 0, 135 2.75, 135 8.25 M135 8.25 C135 12.89, 135 17.53, 135 24.75 M135 8.25 C135 11.62, 135 14.99, 135 24.75 M135 24.75 C135 30.25, 132.25 33, 126.75 33 M135 24.75 C135 30.25, 132.25 33, 126.75 33 M126.75 33 C92.46 33, 58.18 33, 8.25 33 M126.75 33 C79.38 33, 32.01 33, 8.25 33 M8.25 33 C2.75 33, 0 30.25, 0 24.75 M8.25 33 C2.75 33, 0 30.25, 0 24.75 M0 24.75 C0 20.7, 0 16.66, 0 8.25 M0 24.75 C0 19.36, 0 13.98, 0 8.25 M0 8.25 C0 2.75, 2.75 0, 8.25 0 M0 8.25 C0 2.75, 2.75 0, 8.25 0" stroke="transparent" stroke-width="1" fill="none"></path></g><g stroke-linecap="round" transform="translate(116.99995422363281 226.33334350585938) rotate(0 67.5 16.5)"><path d="M8.25 0 L126.75 0 L130.36 0.52 L132.94 2.06 L134.48 4.64 L135 8.25 L134.48 28.36 L132.94 30.94 L130.36 32.48 L126.75 33 L8.25 33 L4.64 32.48 L2.06 30.94 L0.52 28.36 L0 8.25 L0.52 4.64 L2.06 2.06 L4.64 0.52 L8.25 0" stroke="none" stroke-width="0" fill="#59b489"></path><path d="M8.25 0 M8.25 0 C36.25 0, 64.25 0, 126.75 0 M8.25 0 C47.73 0, 87.2 0, 126.75 0 M126.75 0 C132.25 0, 135 2.75, 135 8.25 M126.75 0 C132.25 0, 135 2.75, 135 8.25 M135 8.25 C135 11.77, 135 15.29, 135 24.75 M135 8.25 C135 12.96, 135 17.67, 135 24.75 M135 24.75 C135 30.25, 132.25 33, 126.75 33 M135 24.75 C135 30.25, 132.25 33, 126.75 33 M126.75 33 C99.6 33, 72.44 33, 8.25 33 M126.75 33 C89.41 33, 52.06 33, 8.25 33 M8.25 33 C2.75 33, 0 30.25, 0 24.75 M8.25 33 C2.75 33, 0 30.25, 0 24.75 M0 24.75 C0 19.28, 0 13.82, 0 8.25 M0 24.75 C0 20.62, 0 16.5, 0 8.25 M0 8.25 C0 2.75, 2.75 0, 8.25 0 M0 8.25 C0 2.75, 2.75 0, 8.25 0" stroke="transparent" stroke-width="1" fill="none"></path></g><g stroke-linecap="round" transform="translate(117.33326721191406 370.3333435058594) rotate(0 67.5 16.5)"><path d="M8.25 0 L126.75 0 L130.36 0.52 L132.94 2.06 L134.48 4.64 L135 8.25 L134.48 28.36 L132.94 30.94 L130.36 32.48 L126.75 33 L8.25 33 L4.64 32.48 L2.06 30.94 L0.52 28.36 L0 8.25 L0.52 4.64 L2.06 2.06 L4.64 0.52 L8.25 0" stroke="none" stroke-width="0" fill="#59b489"></path><path d="M8.25 0 M8.25 0 C39.93 0, 71.61 0, 126.75 0 M8.25 0 C50.73 0, 93.2 0, 126.75 0 M126.75 0 C132.25 0, 135 2.75, 135 8.25 M126.75 0 C132.25 0, 135 2.75, 135 8.25 M135 8.25 C135 14.6, 135 20.94, 135 24.75 M135 8.25 C135 14.29, 135 20.33, 135 24.75 M135 24.75 C135 30.25, 132.25 33, 126.75 33 M135 24.75 C135 30.25, 132.25 33, 126.75 33 M126.75 33 C83.52 33, 40.28 33, 8.25 33 M126.75 33 C80.06 33, 33.38 33, 8.25 33 M8.25 33 C2.75 33, 0 30.25, 0 24.75 M8.25 33 C2.75 33, 0 30.25, 0 24.75 M0 24.75 C0 21.08, 0 17.41, 0 8.25 M0 24.75 C0 19.55, 0 14.35, 0 8.25 M0 8.25 C0 2.75, 2.75 0, 8.25 0 M0 8.25 C0 2.75, 2.75 0, 8.25 0" stroke="transparent" stroke-width="1" fill="none"></path></g><g stroke-linecap="round" transform="translate(116.99995422363281 262.3333435058594) rotate(0 67.5 16.5)"><path d="M8.25 0 L126.75 0 L130.36 0.52 L132.94 2.06 L134.48 4.64 L135 8.25 L134.48 28.36 L132.94 30.94 L130.36 32.48 L126.75 33 L8.25 33 L4.64 32.48 L2.06 30.94 L0.52 28.36 L0 8.25 L0.52 4.64 L2.06 2.06 L4.64 0.52 L8.25 0" stroke="none" stroke-width="0" fill="#59b489"></path><path d="M8.25 0 M8.25 0 C51.13 0, 94.02 0, 126.75 0 M8.25 0 C39.61 0, 70.98 0, 126.75 0 M126.75 0 C132.25 0, 135 2.75, 135 8.25 M126.75 0 C132.25 0, 135 2.75, 135 8.25 M135 8.25 C135 13.1, 135 17.96, 135 24.75 M135 8.25 C135 12.65, 135 17.05, 135 24.75 M135 24.75 C135 30.25, 132.25 33, 126.75 33 M135 24.75 C135 30.25, 132.25 33, 126.75 33 M126.75 33 C90.36 33, 53.96 33, 8.25 33 M126.75 33 C102.16 33, 77.58 33, 8.25 33 M8.25 33 C2.75 33, 0 30.25, 0 24.75 M8.25 33 C2.75 33, 0 30.25, 0 24.75 M0 24.75 C0 20.11, 0 15.47, 0 8.25 M0 24.75 C0 19.83, 0 14.92, 0 8.25 M0 8.25 C0 2.75, 2.75 0, 8.25 0 M0 8.25 C0 2.75, 2.75 0, 8.25 0" stroke="transparent" stroke-width="1" fill="none"></path></g><g stroke-linecap="round" transform="translate(117.33326721191406 406.3333435058594) rotate(0 67.5 16.5)"><path d="M8.25 0 L126.75 0 L130.36 0.52 L132.94 2.06 L134.48 4.64 L135 8.25 L134.48 28.36 L132.94 30.94 L130.36 32.48 L126.75 33 L8.25 33 L4.64 32.48 L2.06 30.94 L0.52 28.36 L0 8.25 L0.52 4.64 L2.06 2.06 L4.64 0.52 L8.25 0" stroke="none" stroke-width="0" fill="#59b489"></path><path d="M8.25 0 M8.25 0 C49.75 0, 91.24 0, 126.75 0 M8.25 0 C46.24 0, 84.23 0, 126.75 0 M126.75 0 C132.25 0, 135 2.75, 135 8.25 M126.75 0 C132.25 0, 135 2.75, 135 8.25 M135 8.25 C135 14.22, 135 20.19, 135 24.75 M135 8.25 C135 12.07, 135 15.9, 135 24.75 M135 24.75 C135 30.25, 132.25 33, 126.75 33 M135 24.75 C135 30.25, 132.25 33, 126.75 33 M126.75 33 C93.5 33, 60.25 33, 8.25 33 M126.75 33 C92.68 33, 58.61 33, 8.25 33 M8.25 33 C2.75 33, 0 30.25, 0 24.75 M8.25 33 C2.75 33, 0 30.25, 0 24.75 M0 24.75 C0 19.55, 0 14.34, 0 8.25 M0 24.75 C0 20.63, 0 16.51, 0 8.25 M0 8.25 C0 2.75, 2.75 0, 8.25 0 M0 8.25 C0 2.75, 2.75 0, 8.25 0" stroke="transparent" stroke-width="1" fill="none"></path></g><g stroke-linecap="round" transform="translate(118.66661071777344 479.0000305175781) rotate(0 67.5 16.5)"><path d="M8.25 0 L126.75 0 L130.36 0.52 L132.94 2.06 L134.48 4.64 L135 8.25 L134.48 28.36 L132.94 30.94 L130.36 32.48 L126.75 33 L8.25 33 L4.64 32.48 L2.06 30.94 L0.52 28.36 L0 8.25 L0.52 4.64 L2.06 2.06 L4.64 0.52 L8.25 0" stroke="none" stroke-width="0" fill="#59b489"></path><path d="M8.25 0 M8.25 0 C42.06 0, 75.87 0, 126.75 0 M8.25 0 C42.4 0, 76.56 0, 126.75 0 M126.75 0 C132.25 0, 135 2.75, 135 8.25 M126.75 0 C132.25 0, 135 2.75, 135 8.25 M135 8.25 C135 11.72, 135 15.19, 135 24.75 M135 8.25 C135 12.12, 135 15.99, 135 24.75 M135 24.75 C135 30.25, 132.25 33, 126.75 33 M135 24.75 C135 30.25, 132.25 33, 126.75 33 M126.75 33 C80.66 33, 34.57 33, 8.25 33 M126.75 33 C91.93 33, 57.12 33, 8.25 33 M8.25 33 C2.75 33, 0 30.25, 0 24.75 M8.25 33 C2.75 33, 0 30.25, 0 24.75 M0 24.75 C0 20.49, 0 16.23, 0 8.25 M0 24.75 C0 19.8, 0 14.85, 0 8.25 M0 8.25 C0 2.75, 2.75 0, 8.25 0 M0 8.25 C0 2.75, 2.75 0, 8.25 0" stroke="transparent" stroke-width="1" fill="none"></path></g><g stroke-linecap="round" transform="translate(116.99995422363281 298.3333435058594) rotate(0 67.5 16.5)"><path d="M8.25 0 L126.75 0 L130.36 0.52 L132.94 2.06 L134.48 4.64 L135 8.25 L134.48 28.36 L132.94 30.94 L130.36 32.48 L126.75 33 L8.25 33 L4.64 32.48 L2.06 30.94 L0.52 28.36 L0 8.25 L0.52 4.64 L2.06 2.06 L4.64 0.52 L8.25 0" stroke="none" stroke-width="0" fill="#59b489"></path><path d="M8.25 0 M8.25 0 C48.5 0, 88.75 0, 126.75 0 M8.25 0 C43.37 0, 78.5 0, 126.75 0 M126.75 0 C132.25 0, 135 2.75, 135 8.25 M126.75 0 C132.25 0, 135 2.75, 135 8.25 M135 8.25 C135 14.44, 135 20.62, 135 24.75 M135 8.25 C135 12.47, 135 16.7, 135 24.75 M135 24.75 C135 30.25, 132.25 33, 126.75 33 M135 24.75 C135 30.25, 132.25 33, 126.75 33 M126.75 33 C83.33 33, 39.9 33, 8.25 33 M126.75 33 C92.82 33, 58.89 33, 8.25 33 M8.25 33 C2.75 33, 0 30.25, 0 24.75 M8.25 33 C2.75 33, 0 30.25, 0 24.75 M0 24.75 C0 21.36, 0 17.98, 0 8.25 M0 24.75 C0 19.39, 0 14.04, 0 8.25 M0 8.25 C0 2.75, 2.75 0, 8.25 0 M0 8.25 C0 2.75, 2.75 0, 8.25 0" stroke="transparent" stroke-width="1" fill="none"></path></g><g stroke-linecap="round" transform="translate(117.33326721191406 442.3333435058594) rotate(0 67.5 16.5)"><path d="M8.25 0 L126.75 0 L130.36 0.52 L132.94 2.06 L134.48 4.64 L135 8.25 L134.48 28.36 L132.94 30.94 L130.36 32.48 L126.75 33 L8.25 33 L4.64 32.48 L2.06 30.94 L0.52 28.36 L0 8.25 L0.52 4.64 L2.06 2.06 L4.64 0.52 L8.25 0" stroke="none" stroke-width="0" fill="#59b489"></path><path d="M8.25 0 M8.25 0 C32.94 0, 57.62 0, 126.75 0 M8.25 0 C53.92 0, 99.59 0, 126.75 0 M126.75 0 C132.25 0, 135 2.75, 135 8.25 M126.75 0 C132.25 0, 135 2.75, 135 8.25 M135 8.25 C135 12.14, 135 16.02, 135 24.75 M135 8.25 C135 13.1, 135 17.95, 135 24.75 M135 24.75 C135 30.25, 132.25 33, 126.75 33 M135 24.75 C135 30.25, 132.25 33, 126.75 33 M126.75 33 C83.74 33, 40.74 33, 8.25 33 M126.75 33 C87.1 33, 47.45 33, 8.25 33 M8.25 33 C2.75 33, 0 30.25, 0 24.75 M8.25 33 C2.75 33, 0 30.25, 0 24.75 M0 24.75 C0 18.75, 0 12.76, 0 8.25 M0 24.75 C0 20.93, 0 17.11, 0 8.25 M0 8.25 C0 2.75, 2.75 0, 8.25 0 M0 8.25 C0 2.75, 2.75 0, 8.25 0" stroke="transparent" stroke-width="1" fill="none"></path></g><g stroke-linecap="round" transform="translate(118.66661071777344 515.0000305175781) rotate(0 67.5 16.5)"><path d="M8.25 0 L126.75 0 L130.36 0.52 L132.94 2.06 L134.48 4.64 L135 8.25 L134.48 28.36 L132.94 30.94 L130.36 32.48 L126.75 33 L8.25 33 L4.64 32.48 L2.06 30.94 L0.52 28.36 L0 8.25 L0.52 4.64 L2.06 2.06 L4.64 0.52 L8.25 0" stroke="none" stroke-width="0" fill="#59b489"></path><path d="M8.25 0 M8.25 0 C52.2 0, 96.15 0, 126.75 0 M8.25 0 C41.08 0, 73.91 0, 126.75 0 M126.75 0 C132.25 0, 135 2.75, 135 8.25 M126.75 0 C132.25 0, 135 2.75, 135 8.25 M135 8.25 C135 13.94, 135 19.64, 135 24.75 M135 8.25 C135 14.84, 135 21.44, 135 24.75 M135 24.75 C135 30.25, 132.25 33, 126.75 33 M135 24.75 C135 30.25, 132.25 33, 126.75 33 M126.75 33 C84.95 33, 43.16 33, 8.25 33 M126.75 33 C94.88 33, 63 33, 8.25 33 M8.25 33 C2.75 33, 0 30.25, 0 24.75 M8.25 33 C2.75 33, 0 30.25, 0 24.75 M0 24.75 C0 20.29, 0 15.84, 0 8.25 M0 24.75 C0 19.06, 0 13.38, 0 8.25 M0 8.25 C0 2.75, 2.75 0, 8.25 0 M0 8.25 C0 2.75, 2.75 0, 8.25 0" stroke="transparent" stroke-width="1" fill="none"></path></g><g transform="translate(13.666656494140625 48.333343505859375) rotate(0 48.5 11.5)"><text x="0" y="18" font-family="Helvetica, Segoe UI Emoji" font-size="20px" fill="#717273" text-anchor="start" style="white-space: pre;" direction="ltr">0000 0101</text></g><g transform="translate(14 85.33334350585938) rotate(0 47.5 11.5)"><text x="0" y="18" font-family="Helvetica, Segoe UI Emoji" font-size="20px" fill="#717273" text-anchor="start" style="white-space: pre;" direction="ltr">0000 0110</text></g><g transform="translate(14 122.33334350585938) rotate(0 47 11.5)"><text x="0" y="18" font-family="Helvetica, Segoe UI Emoji" font-size="20px" fill="#717273" text-anchor="start" style="white-space: pre;" direction="ltr">0000 0111</text></g><g transform="translate(14 159.33334350585938) rotate(0 48.5 11.5)"><text x="0" y="18" font-family="Helvetica, Segoe UI Emoji" font-size="20px" fill="#717273" text-anchor="start" style="white-space: pre;" direction="ltr">0000 1000</text></g><g transform="translate(14 194.33334350585938) rotate(0 48.5 11.5)"><text x="0" y="18" font-family="Helvetica, Segoe UI Emoji" font-size="20px" fill="#717273" text-anchor="start" style="white-space: pre;" direction="ltr">0000 1001</text></g><g transform="translate(14.33331298828125 338.3333435058594) rotate(0 47.5 11.5)"><text x="0" y="18" font-family="Helvetica, Segoe UI Emoji" font-size="20px" fill="#717273" text-anchor="start" style="white-space: pre;" direction="ltr">0000 1101</text></g><g transform="translate(14 231.33334350585938) rotate(0 48.5 11.5)"><text x="0" y="18" font-family="Helvetica, Segoe UI Emoji" font-size="20px" fill="#717273" text-anchor="start" style="white-space: pre;" direction="ltr">0000 1010</text></g><g transform="translate(14.33331298828125 375.3333435058594) rotate(0 47 11.5)"><text x="0" y="18" font-family="Helvetica, Segoe UI Emoji" font-size="20px" fill="#717273" text-anchor="start" style="white-space: pre;" direction="ltr">0000 1110</text></g><g transform="translate(14 268.3333435058594) rotate(0 47.5 11.5)"><text x="0" y="18" font-family="Helvetica, Segoe UI Emoji" font-size="20px" fill="#717273" text-anchor="start" style="white-space: pre;" direction="ltr">0000 1011</text></g><g transform="translate(14.33331298828125 412.3333435058594) rotate(0 46 11.5)"><text x="0" y="18" font-family="Helvetica, Segoe UI Emoji" font-size="20px" fill="#717273" text-anchor="start" style="white-space: pre;" direction="ltr">0000 1111</text></g><g transform="translate(15.666656494140625 485.0000305175781) rotate(0 48.5 11.5)"><text x="0" y="18" font-family="Helvetica, Segoe UI Emoji" font-size="20px" fill="#717273" text-anchor="start" style="white-space: pre;" direction="ltr">0001 0001</text></g><g transform="translate(14 303.3333435058594) rotate(0 47.5 11.5)"><text x="0" y="18" font-family="Helvetica, Segoe UI Emoji" font-size="20px" fill="#717273" text-anchor="start" style="white-space: pre;" direction="ltr">0000 1100</text></g><g transform="translate(14.33331298828125 447.3333435058594) rotate(0 48.5 11.5)"><text x="0" y="18" font-family="Helvetica, Segoe UI Emoji" font-size="20px" fill="#717273" text-anchor="start" style="white-space: pre;" direction="ltr">0001 0000</text></g><g transform="translate(15.666656494140625 520.0000305175781) rotate(0 48.5 11.5)"><text x="0" y="18" font-family="Helvetica, Segoe UI Emoji" font-size="20px" fill="#717273" text-anchor="start" style="white-space: pre;" direction="ltr">0001 0010</text></g><g transform="translate(447 523.0000305175781) rotate(0 31 13.5)"><text x="0" y="21" font-family="Helvetica, Segoe UI Emoji" font-size="20px" fill="#367083" text-anchor="start" style="white-space: pre;" direction="ltr">存储器</text></g><g transform="translate(14.166656494140625 14.000030517578125) rotate(0 21 13.5)"><text x="0" y="21" font-family="Helvetica, Segoe UI Emoji" font-size="20px" fill="#353a3f" text-anchor="start" style="white-space: pre;" direction="ltr">地址</text></g><g transform="translate(120.99995422363281 13.333343505859375) rotate(0 41 13.5)"><text x="0" y="21" font-family="Helvetica, Segoe UI Emoji" font-size="20px" fill="#3b7d5d" text-anchor="start" style="white-space: pre;" direction="ltr">内存单元</text></g><g transform="translate(173.83326721191406 447.3333435058594) rotate(0 11 11.5)"><text x="11" y="18" font-family="Helvetica, Segoe UI Emoji" font-size="20px" fill="#ffffff" text-anchor="middle" style="white-space: pre;" direction="ltr">···</text></g><g transform="translate(176.66661071777344 520.0000305175781) rotate(0 9.5 11.5)"><text x="9.5" y="18" font-family="Helvetica, Segoe UI Emoji" font-size="20px" fill="#ffffff" text-anchor="middle" style="white-space: pre;" direction="ltr">...</text></g><g transform="translate(136.9999542236328 267.3333435058594) rotate(0 47.5 11.5)"><text x="47.5" y="18" font-family="Helvetica, Segoe UI Emoji" font-size="20px" fill="#fbc05b" text-anchor="middle" style="white-space: pre;" direction="ltr">0000 0110</text></g><g transform="translate(136.33326721191406 411.3333435058594) rotate(0 48.5 11.5)"><text x="48.5" y="18" font-family="Helvetica, Segoe UI Emoji" font-size="20px" fill="#fbc05b" text-anchor="middle" style="white-space: pre;" direction="ltr">0001 0001</text></g><g transform="translate(176.66661071777344 484.0000305175781) rotate(0 9.5 11.5)"><text x="9.5" y="18" font-family="Helvetica, Segoe UI Emoji" font-size="20px" fill="#ffffff" text-anchor="middle" style="white-space: pre;" direction="ltr">...</text></g><g transform="translate(135.9999542236328 195.33334350585938) rotate(0 48.5 11.5)"><text x="48.5" y="18" font-family="Helvetica, Segoe UI Emoji" font-size="20px" fill="#fbc05b" text-anchor="middle" style="white-space: pre;" direction="ltr">0000 0101</text></g><g transform="translate(137.83326721191406 339.3333435058594) rotate(0 47 11.5)"><text x="47" y="18" font-family="Helvetica, Segoe UI Emoji" font-size="20px" fill="#fbc05b" text-anchor="middle" style="white-space: pre;" direction="ltr">0000 0111</text></g><g transform="translate(135.9999542236328 123.33334350585938) rotate(0 48.5 11.5)"><text x="48.5" y="18" font-family="Helvetica, Segoe UI Emoji" font-size="20px" fill="#ffffff" text-anchor="middle" style="white-space: pre;" direction="ltr">0000 0000</text></g><g transform="translate(135.9999542236328 87.33334350585938) rotate(0 48.5 11.5)"><text x="48.5" y="18" font-family="Helvetica, Segoe UI Emoji" font-size="20px" fill="#ffffff" text-anchor="middle" style="white-space: pre;" direction="ltr">0010 0010</text></g><g transform="translate(136.66664123535156 48.333343505859375) rotate(0 47.5 11.5)"><text x="47.5" y="18" font-family="Helvetica, Segoe UI Emoji" font-size="20px" fill="#ffffff" text-anchor="middle" style="white-space: pre;" direction="ltr">0000 1100</text></g><g transform="translate(180.4999542236328 159.33334350585938) rotate(0 4 11.5)"><text x="4" y="18" font-family="Helvetica, Segoe UI Emoji" font-size="20px" fill="#b6305a" text-anchor="middle" style="white-space: pre;" direction="ltr"></text></g><g transform="translate(136.1666259765625 158.83332061767578) rotate(0 23.5 11.5)"><text x="0" y="18" font-family="Helvetica, Segoe UI Emoji" font-size="20px" fill="#ff5286" text-anchor="start" style="white-space: pre;" direction="ltr">0000</text></g><g transform="translate(137.833251953125 232.83338165283203) rotate(0 23.5 11.5)"><text x="0" y="18" font-family="Helvetica, Segoe UI Emoji" font-size="20px" fill="#ff5286" text-anchor="start" style="white-space: pre;" direction="ltr">0001</text></g><g transform="translate(136.4998779296875 302.83338165283203) rotate(0 23.5 11.5)"><text x="0" y="18" font-family="Helvetica, Segoe UI Emoji" font-size="20px" fill="#ff5286" text-anchor="start" style="white-space: pre;" direction="ltr">0010</text></g><g transform="translate(137.5 375.50000762939453) rotate(0 22.5 11.5)"><text x="0" y="18" font-family="Helvetica, Segoe UI Emoji" font-size="20px" fill="#ff5286" text-anchor="start" style="white-space: pre;" direction="ltr">0011</text></g><g transform="translate(187.16665649414062 159.16669464111328) rotate(0 23.5 11.5)"><text x="0" y="18" font-family="Helvetica, Segoe UI Emoji" font-size="20px" fill="#7662da" text-anchor="start" style="white-space: pre;" direction="ltr">1001</text></g><g transform="translate(188.83328247070312 233.16675567626953) rotate(0 23.5 11.5)"><text x="0" y="18" font-family="Helvetica, Segoe UI Emoji" font-size="20px" fill="#7662da" text-anchor="start" style="white-space: pre;" direction="ltr">1001</text></g><g transform="translate(187.49990844726562 303.16675567626953) rotate(0 23.5 11.5)"><text x="0" y="18" font-family="Helvetica, Segoe UI Emoji" font-size="20px" fill="#7662da" text-anchor="start" style="white-space: pre;" direction="ltr">1010</text></g><g transform="translate(188.50003051757812 375.83338165283203) rotate(0 23.5 11.5)"><text x="0" y="18" font-family="Helvetica, Segoe UI Emoji" font-size="20px" fill="#ffffff" text-anchor="start" style="white-space: pre;" direction="ltr">0000</text></g><g transform="translate(262.8332824707031 158.50000762939453) rotate(0 28 11.5)"><text x="28" y="18" font-family="Helvetica, Segoe UI Emoji" font-size="20px" fill="#b6305a" text-anchor="middle" style="white-space: pre;" direction="ltr">LOAD</text></g><g transform="translate(270.1665954589844 231.16666412353516) rotate(0 22 11.5)"><text x="22" y="18" font-family="Helvetica, Segoe UI Emoji" font-size="20px" fill="#b6305a" text-anchor="middle" style="white-space: pre;" direction="ltr">ADD</text></g><g transform="translate(257.3332824707031 306.50003814697266) rotate(0 35.5 11.5)"><text x="35.5" y="18" font-family="Helvetica, Segoe UI Emoji" font-size="20px" fill="#b6305a" text-anchor="middle" style="white-space: pre;" direction="ltr">STORE</text></g><g transform="translate(263.4999084472656 195.4999771118164) rotate(0 28 11.5)"><text x="28" y="18" font-family="Helvetica, Segoe UI Emoji" font-size="20px" fill="#b6305a" text-anchor="middle" style="white-space: pre;" direction="ltr">LOAD</text></g><g transform="translate(270.8332214355469 268.16663360595703) rotate(0 22 11.5)"><text x="22" y="18" font-family="Helvetica, Segoe UI Emoji" font-size="20px" fill="#b6305a" text-anchor="middle" style="white-space: pre;" direction="ltr">ADD</text></g><g transform="translate(257.9999084472656 340.83338165283203) rotate(0 35.5 11.5)"><text x="35.5" y="18" font-family="Helvetica, Segoe UI Emoji" font-size="20px" fill="#b6305a" text-anchor="middle" style="white-space: pre;" direction="ltr">STORE</text></g><g transform="translate(261.1665344238281 377.50000762939453) rotate(0 21 11.5)"><text x="21" y="18" font-family="Helvetica, Segoe UI Emoji" font-size="20px" fill="#b6305a" text-anchor="middle" style="white-space: pre;" direction="ltr">JMP</text></g><g transform="translate(261.1665344238281 412.50000762939453) rotate(0 21 11.5)"><text x="21" y="18" font-family="Helvetica, Segoe UI Emoji" font-size="20px" fill="#b6305a" text-anchor="middle" style="white-space: pre;" direction="ltr">JMP</text></g><g transform="translate(327.3332824707031 159.16666412353516) rotate(0 16.5 11.5)"><text x="16.5" y="18" font-family="Helvetica, Segoe UI Emoji" font-size="20px" fill="#5942bd" text-anchor="middle" style="white-space: pre;" direction="ltr">R1,</text></g><g transform="translate(328.6665954589844 231.83332061767578) rotate(0 16.5 11.5)"><text x="16.5" y="18" font-family="Helvetica, Segoe UI Emoji" font-size="20px" fill="#5942bd" text-anchor="middle" style="white-space: pre;" direction="ltr">R1,</text></g><g transform="translate(369.4999694824219 305.83338165283203) rotate(0 14 11.5)"><text x="14" y="18" font-family="Helvetica, Segoe UI Emoji" font-size="20px" fill="#5942bd" text-anchor="middle" style="white-space: pre;" direction="ltr">R2</text></g><g transform="translate(327.9999084472656 196.16663360595703) rotate(0 16.5 11.5)"><text x="16.5" y="18" font-family="Helvetica, Segoe UI Emoji" font-size="20px" fill="#5942bd" text-anchor="middle" style="white-space: pre;" direction="ltr">R1,</text></g><g transform="translate(329.3332214355469 268.83329010009766) rotate(0 16.5 11.5)"><text x="16.5" y="18" font-family="Helvetica, Segoe UI Emoji" font-size="20px" fill="#5942bd" text-anchor="middle" style="white-space: pre;" direction="ltr">R1,</text></g><g transform="translate(368.8332214355469 340.8333511352539) rotate(0 14 11.5)"><text x="14" y="18" font-family="Helvetica, Segoe UI Emoji" font-size="20px" fill="#5942bd" text-anchor="middle" style="white-space: pre;" direction="ltr">R2</text></g><g transform="translate(363.1666564941406 157.16666412353516) rotate(0 12 11.5)"><text x="12" y="18" font-family="Helvetica, Segoe UI Emoji" font-size="20px" fill="#eb8851" text-anchor="middle" style="white-space: pre;" direction="ltr">[5]</text></g><g transform="translate(364.4999694824219 229.83332061767578) rotate(0 12 11.5)"><text x="12" y="18" font-family="Helvetica, Segoe UI Emoji" font-size="20px" fill="#eb8851" text-anchor="middle" style="white-space: pre;" direction="ltr">[6]</text></g><g transform="translate(333.1666564941406 305.1666946411133) rotate(0 15 11.5)"><text x="15" y="18" font-family="Helvetica, Segoe UI Emoji" font-size="20px" fill="#eb8851" text-anchor="middle" style="white-space: pre;" direction="ltr">[7],</text></g><g transform="translate(363.8332824707031 194.16663360595703) rotate(0 12 11.5)"><text x="12" y="18" font-family="Helvetica, Segoe UI Emoji" font-size="20px" fill="#eb8851" text-anchor="middle" style="white-space: pre;" direction="ltr">[5]</text></g><g transform="translate(365.1665954589844 266.83329010009766) rotate(0 12 11.5)"><text x="12" y="18" font-family="Helvetica, Segoe UI Emoji" font-size="20px" fill="#eb8851" text-anchor="middle" style="white-space: pre;" direction="ltr">[6]</text></g><g transform="translate(333.4999694824219 339.16666412353516) rotate(0 15 11.5)"><text x="15" y="18" font-family="Helvetica, Segoe UI Emoji" font-size="20px" fill="#eb8851" text-anchor="middle" style="white-space: pre;" direction="ltr">[7],</text></g><g transform="translate(312.6665954589844 375.83329010009766) rotate(0 17.5 11.5)"><text x="17.5" y="18" font-family="Helvetica, Segoe UI Emoji" font-size="20px" fill="#eb8851" text-anchor="middle" style="white-space: pre;" direction="ltr">[18]</text></g><g transform="translate(312.6665954589844 410.83329010009766) rotate(0 17.5 11.5)"><text x="17.5" y="18" font-family="Helvetica, Segoe UI Emoji" font-size="20px" fill="#eb8851" text-anchor="middle" style="white-space: pre;" direction="ltr">[18]</text></g><g transform="translate(392.8333435058594 156.50000762939453) rotate(0 51 13.5)"><text x="51" y="21" font-family="Helvetica, Segoe UI Emoji" font-size="20px" fill="#353a3f" text-anchor="middle" style="white-space: pre;" direction="ltr">第一个字节</text></g><g transform="translate(394.1666564941406 229.16666412353516) rotate(0 51 13.5)"><text x="51" y="21" font-family="Helvetica, Segoe UI Emoji" font-size="20px" fill="#353a3f" text-anchor="middle" style="white-space: pre;" direction="ltr">第一个字节</text></g><g transform="translate(403.8333435058594 304.50003814697266) rotate(0 51 13.5)"><text x="51" y="21" font-family="Helvetica, Segoe UI Emoji" font-size="20px" fill="#353a3f" text-anchor="middle" style="white-space: pre;" direction="ltr">第一个字节</text></g><g transform="translate(358.5000305175781 376.1667251586914) rotate(0 51 13.5)"><text x="51" y="21" font-family="Helvetica, Segoe UI Emoji" font-size="20px" fill="#353a3f" text-anchor="middle" style="white-space: pre;" direction="ltr">第一个字节</text></g><g transform="translate(392.8333435058594 191.16666412353516) rotate(0 51 13.5)"><text x="51" y="21" font-family="Helvetica, Segoe UI Emoji" font-size="20px" fill="#353a3f" text-anchor="middle" style="white-space: pre;" direction="ltr">第二个字节</text></g><g transform="translate(394.1666564941406 263.8333206176758) rotate(0 51 13.5)"><text x="51" y="21" font-family="Helvetica, Segoe UI Emoji" font-size="20px" fill="#353a3f" text-anchor="middle" style="white-space: pre;" direction="ltr">第二个字节</text></g><g transform="translate(403.8333435058594 336.1666946411133) rotate(0 51 13.5)"><text x="51" y="21" font-family="Helvetica, Segoe UI Emoji" font-size="20px" fill="#353a3f" text-anchor="middle" style="white-space: pre;" direction="ltr">第二个字节</text></g><g transform="translate(358.5000305175781 407.83338165283203) rotate(0 51 13.5)"><text x="51" y="21" font-family="Helvetica, Segoe UI Emoji" font-size="20px" fill="#353a3f" text-anchor="middle" style="white-space: pre;" direction="ltr">第二个字节</text></g><g transform="translate(261.4999694824219 45.83332061767578) rotate(0 93 13.5)"><text x="93" y="21" font-family="Helvetica, Segoe UI Emoji" font-size="20px" fill="#353a3f" text-anchor="middle" style="white-space: pre;" direction="ltr">地址[5]，存放数据12</text></g><g transform="translate(270.6667175292969 517.5000076293945) rotate(0 37.5 13.5)"><text x="37.5" y="21" font-family="Helvetica, Segoe UI Emoji" font-size="20px" fill="#353a3f" text-anchor="middle" style="white-space: pre;" direction="ltr">地址[18]</text></g><g transform="translate(262.4999694824219 84.16663360595703) rotate(0 93 13.5)"><text x="93" y="21" font-family="Helvetica, Segoe UI Emoji" font-size="20px" fill="#353a3f" text-anchor="middle" style="white-space: pre;" direction="ltr">地址[6]，存放数据34</text></g><g transform="translate(261.5000305175781 121.16666412353516) rotate(0 122 13.5)"><text x="122" y="21" font-family="Helvetica, Segoe UI Emoji" font-size="20px" fill="#353a3f" text-anchor="middle" style="white-space: pre;" direction="ltr">地址[7]，准备存放运算结果</text></g><g transform="translate(261.3333282470703 447.5951734270368) rotate(0 10 29.285714285714334)"><text x="0" y="46.57142857142856" font-family="Helvetica, Segoe UI Emoji" font-size="51.42857142857142px" fill="#3b7d5d" text-anchor="start" style="white-space: pre;" direction="ltr">}</text></g><g transform="translate(290.00001525878906 466.6667022705078) rotate(0 46.5 13.5)"><text x="0" y="21" font-family="Helvetica, Segoe UI Emoji" font-size="20px" fill="#353a3f" text-anchor="start" style="white-space: pre;" direction="ltr">第5条指令</text></g></svg>